<svg width="57" height="47" viewBox="0 0 57 47" fill="none" xmlns="http://www.w3.org/2000/svg">
<g clip-path="url(#clip0)">
<path d="M28.5653 0.046875C13.5503 0.046875 1.78683 18.9069 0.673828 34.8363C5.3857 42.9096 16.7482 45.9443 28.5658 45.9443C40.3824 45.9443 51.7456 42.9096 56.4551 34.8361C55.3419 18.9069 43.5799 0.046875 28.5655 0.046875" fill="#B6DEFF"/>
<path d="M52.5322 31.042C52.5322 31.042 49.2159 23.9636 45.8452 19.834C42.4721 15.7026 38.3528 11.2041 35.9172 11.2041C33.483 11.2041 26.6781 23.0989 23.5563 23.0989C20.4339 23.0989 18.8112 17.7067 14.9724 17.7067C11.132 17.7067 5.03062 30.7096 5.03062 30.7096L4.61719 32.9139C4.61719 32.9139 6.73688 42.1919 28.9124 42.1919C51.0889 42.1919 52.8612 33.0662 52.8612 33.0662L52.5324 31.0418" fill="#66CC66"/>
<path d="M23.904 28.1748C20.46 28.1748 18.6945 24.82 17.7372 22.7492C16.8765 20.8837 16.7275 17.9384 14.2852 17.8559C14.5251 17.762 14.7561 17.7065 14.9727 17.7065C18.8115 17.7065 20.4342 23.0986 23.5567 23.0986C26.6784 23.0986 33.4833 11.2036 35.9176 11.2036C36.3763 11.2036 36.893 11.3634 37.4536 11.6476C37.0389 11.5936 36.5071 11.6312 36.0974 12.037C35.3105 12.814 28.1677 28.1748 23.904 28.1748Z" fill="#17AD49"/>
</g>
<defs>
<clipPath id="clip0">
<rect width="56" height="46" fill="white" transform="translate(0.5 0.046875)"/>
</clipPath>
</defs>
</svg>
