<svg width="48" height="52" viewBox="0 0 48 52" fill="none" xmlns="http://www.w3.org/2000/svg">
<g clip-path="url(#clip0)">
<path d="M44.2027 41.7761C43.8483 44.4266 42.0761 46.7202 39.595 47.7394C38.3796 48.2485 37.0633 48.4019 35.7465 48.2485C34.4808 48.0959 33.2148 47.6881 31.8984 46.9243C30.0753 45.904 28.2524 44.3248 26.1259 41.9803C29.468 37.8523 31.4929 34.0809 32.2527 30.7178C32.6073 29.1377 32.6578 27.7107 32.5061 26.3854C32.3038 25.1115 31.8479 23.9389 31.1387 22.9198C29.569 20.6266 26.9362 19.3014 23.9993 19.3014C21.0623 19.3014 18.4294 20.6776 16.8597 22.9198C16.1505 23.9391 15.6953 25.1115 15.4925 26.3854C15.2902 27.7107 15.3406 29.1885 15.7458 30.718C16.5052 34.0807 18.5811 37.9033 21.8727 42.0306C19.7966 44.3756 17.9231 45.9553 16.1 46.9748C14.7836 47.7394 13.5176 48.1472 12.2519 48.2995C10.9471 48.4462 9.62638 48.2715 8.40355 47.7904C5.92229 46.7712 4.15042 44.4769 3.79572 41.8269C3.64407 40.5532 3.74523 39.2793 4.25158 37.8523C4.40323 37.3423 4.65677 36.8336 4.90958 36.2216C5.26429 35.4065 5.66948 34.5395 6.07412 33.6729L6.12516 33.5716C9.61858 25.9776 13.3659 18.2313 17.2649 10.689L17.4167 10.3827C17.8219 9.61896 18.2266 8.80389 18.6321 8.03907C19.0369 7.22344 19.4926 6.45881 20.0495 5.79581C21.1128 4.57255 22.5307 3.9101 24.1005 3.9101C25.6702 3.9101 27.0879 4.57255 28.1513 5.79599C28.7083 6.45881 29.164 7.22344 29.5692 8.03926C29.9743 8.80389 30.379 9.61896 30.7842 10.3827L30.9366 10.689C34.7845 18.2821 38.5318 26.0284 42.0256 33.6224V33.6729C42.4308 34.4885 42.785 35.4065 43.1902 36.2216C43.4435 36.8336 43.6965 37.3421 43.8482 37.8523C44.2534 39.1772 44.4052 40.4518 44.2029 41.7761H44.2027ZM23.9993 39.3806C21.2652 35.9156 19.4926 32.6536 18.8851 29.9024C18.6323 28.7299 18.5811 27.7107 18.7335 26.7932C18.8344 25.9776 19.1386 25.2638 19.5431 24.6518C20.5053 23.277 22.1255 22.4091 23.9993 22.4091C25.8729 22.4091 27.5438 23.2252 28.4551 24.6518C28.8599 25.2638 29.164 25.9776 29.2651 26.7932C29.417 27.7107 29.3663 28.7807 29.1133 29.9024C28.5058 32.6031 26.7334 35.8647 23.9993 39.3806ZM46.8358 36.7308C46.5828 36.1192 46.3294 35.4569 46.0764 34.8963C45.6712 33.9794 45.2661 33.1124 44.9115 32.2968L44.8609 32.2463C41.3674 24.6013 37.6201 16.855 33.6705 9.2117L33.5188 8.90496C33.1136 8.14052 32.7084 7.32489 32.3038 6.50962C31.7971 5.59181 31.2905 4.62447 30.4807 3.70647C28.8598 1.66795 26.531 0.546875 24.0496 0.546875C21.5178 0.546875 19.2394 1.66795 17.5682 3.60503C16.809 4.5221 16.252 5.49036 15.7457 6.40836C15.3405 7.22344 14.9353 8.03907 14.5303 8.80389L14.3784 9.10878C10.4798 16.7532 6.682 24.5001 3.18802 32.1445L3.13754 32.2463C2.78283 33.0614 2.37764 33.9275 1.97245 34.8455C1.70157 35.4495 1.4484 36.0614 1.21329 36.6804C0.554739 38.5655 0.352419 40.3496 0.605411 42.1839C1.1628 46.0064 3.69456 49.2175 7.18835 50.644C8.50453 51.205 9.87175 51.4597 11.2898 51.4597C11.6948 51.4597 12.2012 51.4087 12.6064 51.3573C14.2771 51.1531 15.9986 50.5936 17.6693 49.6248C19.7458 48.4527 21.7207 46.7712 23.9484 44.3248C26.1762 46.7712 28.2018 48.4529 30.2272 49.6248C31.8984 50.5936 33.6198 51.1531 35.2907 51.3573C35.6959 51.4087 36.2022 51.4597 36.6072 51.4597C38.0251 51.4597 39.4426 51.205 40.7087 50.644C44.2532 49.2175 46.7343 45.9555 47.2913 42.1839C47.6965 40.3999 47.4936 38.6171 46.8356 36.7306L46.8358 36.7308Z" fill="#E0565B"/>
</g>
<defs>
<clipPath id="clip0">
<rect width="47" height="51" fill="white" transform="translate(0.5 0.546875)"/>
</clipPath>
</defs>
</svg>
