<svg width="61" height="71" viewBox="0 0 61 71" fill="none" xmlns="http://www.w3.org/2000/svg">
<g clip-path="url(#clip0)">
<path d="M18.8724 0.201267C18.529 0.203479 18.1915 0.291197 17.8904 0.456501C16.9018 1.00447 16.5392 2.27455 17.087 3.26244L19.3189 7.29275C13.9414 10.6197 10.3782 16.3028 10.3782 22.7892V23.9943C9.34531 22.806 7.82727 22.0558 6.13109 22.0558C3.02328 22.0558 0.5 24.5791 0.5 27.6867V45.0325C0.5 48.1399 3.02352 50.6634 6.13109 50.6634C7.82727 50.6634 9.34531 49.9129 10.378 48.7246V51.1544C10.378 54.4303 13.0585 57.1106 16.3344 57.1106H17.8456V64.8269C17.8456 67.9347 20.3691 70.458 23.4767 70.458C26.5843 70.458 29.1076 67.9345 29.1076 64.8269V57.1106H31.7223V64.8269C31.7223 67.9347 34.2458 70.458 37.3534 70.458C40.4609 70.458 42.9842 67.9345 42.9842 64.8269V57.1106H44.4957C47.7713 57.1106 50.4519 54.4303 50.4519 51.1544V48.7246C51.4845 49.9129 53.0028 50.6634 54.699 50.6634C57.8066 50.6634 60.3298 48.1399 60.3298 45.0325V27.6867C60.3298 24.5791 57.8066 22.0558 54.699 22.0558C53.0028 22.0558 51.4845 22.806 50.4519 23.9943V22.9931V22.9356C50.4523 22.8747 50.4519 22.826 50.4519 22.7892C50.4519 16.304 46.8805 10.6265 41.5048 7.29931L43.7431 3.26244C44.2906 2.27455 43.9283 1.00447 42.9397 0.456501C42.6386 0.291197 42.3011 0.203479 41.9577 0.201267C41.2276 0.194235 40.5111 0.579079 40.1338 1.25994L37.7933 5.48806C35.5048 4.64361 33.0148 4.18072 30.4152 4.18072C27.8178 4.18072 25.3231 4.63869 23.0366 5.4815L20.6963 1.25994C20.3188 0.579079 19.6025 0.194704 18.8724 0.201267Z" fill="white"/>
<path d="M6.13094 23.5225C3.81203 23.5225 1.9668 25.3677 1.9668 27.6866V45.0325C1.9668 47.3514 3.81203 49.1966 6.13094 49.1966C8.44984 49.1966 10.2953 47.3514 10.2953 45.0325V27.6866C10.2953 25.3677 8.44984 23.5225 6.13094 23.5225ZM54.6991 23.5225C52.3799 23.5225 50.5347 25.3677 50.5347 27.6866V45.0325C50.5347 47.3514 52.3799 49.1966 54.6991 49.1966C57.018 49.1966 58.8632 47.3514 58.8632 45.0325V27.6866C58.8632 25.3677 57.018 23.5225 54.6991 23.5225Z" fill="#A4C639"/>
<path d="M23.4769 43.3169C21.158 43.3169 19.3125 45.1621 19.3125 47.4813V64.8269C19.3125 67.1458 21.158 68.991 23.4769 68.991C25.7958 68.991 27.641 67.1458 27.641 64.8269V47.4813C27.641 45.1621 25.7958 43.3169 23.4769 43.3169ZM37.3535 43.3169C35.0344 43.3169 33.1891 45.1621 33.1891 47.4813V64.8269C33.1891 67.1458 35.0344 68.991 37.3535 68.991C39.6724 68.991 41.5177 67.1458 41.5177 64.8269V47.4813C41.5177 45.1621 39.6724 43.3169 37.3535 43.3169Z" fill="#A4C639"/>
<path d="M18.8849 1.66805C18.7864 1.66924 18.6898 1.69554 18.6043 1.74446C18.3074 1.90899 18.2099 2.25024 18.3747 2.54789L21.3083 7.84735C15.6646 10.7841 11.8522 16.3648 11.8447 22.7698H48.985C48.9772 16.3648 45.1651 10.7838 39.5214 7.84735L42.4548 2.54813C42.6198 2.25047 42.5221 1.90899 42.2251 1.74446C42.1396 1.69551 42.0431 1.66921 41.9446 1.66805C41.7336 1.66571 41.5342 1.77118 41.4217 1.97414L38.4498 7.33078C36.0189 6.25266 33.2922 5.64727 30.4147 5.64727C27.5373 5.64727 24.8108 6.25243 22.3797 7.33078L19.4078 1.97414C19.3571 1.88012 19.2815 1.80183 19.1894 1.74785C19.0972 1.69386 18.9919 1.66626 18.8851 1.66805H18.8849ZM11.8447 24.2365V51.1544C11.8435 51.7444 11.9587 52.3287 12.1839 52.8739C12.4091 53.4192 12.7397 53.9146 13.1569 54.3317C13.574 54.7488 14.0694 55.0794 14.6147 55.3046C15.1599 55.5297 15.7443 55.645 16.3342 55.6437H44.4955C45.0854 55.645 45.6698 55.5297 46.2151 55.3046C46.7604 55.0794 47.2558 54.7488 47.6729 54.3316C48.0901 53.9145 48.4207 53.4191 48.6459 52.8738C48.871 52.3285 48.9863 51.7441 48.985 51.1542V24.2367H11.8447V24.2365Z" fill="#A4C639"/>
<path d="M21.8436 12.8726C20.9959 12.8726 20.2939 13.5743 20.2939 14.422C20.2939 15.27 20.9959 15.9717 21.8436 15.9717C22.6916 15.9717 23.3933 15.27 23.3933 14.422C23.3933 13.5743 22.6916 12.8726 21.8436 12.8726ZM38.9853 12.8726C38.1374 12.8726 37.4357 13.5743 37.4357 14.422C37.4357 15.27 38.1374 15.9717 38.9853 15.9717C39.8331 15.9717 40.535 15.27 40.535 14.422C40.535 13.5743 39.8331 12.8726 38.9853 12.8726Z" fill="white"/>
</g>
<defs>
<clipPath id="clip0">
<rect width="60" height="70.5469" fill="white" transform="translate(0.5)"/>
</clipPath>
</defs>
</svg>
