<svg width="61" height="61" viewBox="0 0 61 61" fill="none" xmlns="http://www.w3.org/2000/svg">
<g clip-path="url(#clip0)">
<path d="M13.64 0.273438H47.36C54.6172 0.273438 60.5 6.15625 60.5 13.4134V47.1334C60.5 54.3906 54.6172 60.2734 47.36 60.2734H13.64C6.38281 60.2734 0.5 54.3906 0.5 47.1334V13.4134C0.5 6.15625 6.38281 0.273438 13.64 0.273438Z" fill="url(#paint0_linear)"/>
<path d="M19.7283 43.8224L19.7339 43.8243L17.6825 47.3774C16.9336 48.6744 15.2752 49.1188 13.9782 48.37C12.6814 47.6212 12.2368 45.9627 12.9856 44.6657L14.4968 42.0482L14.6419 41.7969C14.9009 41.4248 15.54 40.7821 16.8186 40.903C16.8186 40.903 19.8272 41.2295 20.045 42.7933C20.045 42.7933 20.0745 43.3077 19.7283 43.8224ZM48.8243 34.7474H42.4273C41.9916 34.7181 41.8015 34.5625 41.7265 34.472L41.7218 34.4638L34.8741 22.603L34.8652 22.6089L34.4546 22.0202C33.7815 20.9908 32.7127 23.6233 32.7127 23.6233C31.4365 26.5567 32.8939 29.8916 33.4018 30.8997L42.9132 47.3739C43.6618 48.6707 45.3202 49.1153 46.6175 48.3662C47.9143 47.6174 48.3589 45.959 47.6098 44.6619L45.2316 40.5426C45.1854 40.4427 45.1053 40.1718 45.593 40.1706H48.8243C50.322 40.1706 51.5361 38.9566 51.5361 37.4589C51.5361 35.9612 50.322 34.7472 48.8243 34.7472V34.7474ZM36.3992 38.4337C36.3992 38.4337 36.7407 40.1706 35.4195 40.1706H11.7713C10.2736 40.1706 9.05957 38.9566 9.05957 37.4589C9.05957 35.9612 10.2736 34.7472 11.7713 34.7472H17.851C18.8325 34.6905 19.065 34.1237 19.065 34.1237L19.0707 34.1266L27.0066 20.3809L27.0043 20.3805C27.1489 20.1149 27.0284 19.8639 27.0075 19.8243L24.3865 15.2847C23.6377 13.9879 24.0821 12.3292 25.3791 11.5806C26.6761 10.8318 28.3346 11.2759 29.0834 12.573L30.2989 14.6784L31.5122 12.5767C32.2611 11.2799 33.9195 10.8353 35.2165 11.5844C36.5136 12.3332 36.9579 13.9914 36.2091 15.2884L25.1658 34.4158C25.1175 34.5323 25.1028 34.7151 25.4621 34.7472H32.063L32.0644 34.8116C32.0644 34.8116 35.8796 34.8709 36.3992 38.4337Z" fill="white"/>
</g>
<defs>
<linearGradient id="paint0_linear" x1="30.5" y1="0.273438" x2="30.5" y2="60.2734" gradientUnits="userSpaceOnUse">
<stop stop-color="#17C9FB"/>
<stop offset="1" stop-color="#1A74E8"/>
</linearGradient>
<clipPath id="clip0">
<rect width="60" height="60" fill="white" transform="translate(0.5 0.273438)"/>
</clipPath>
</defs>
</svg>
