<svg width="84" height="34" viewBox="0 0 84 34" fill="none" xmlns="http://www.w3.org/2000/svg">
<g clip-path="url(#clip0)">
<path d="M0.5 0.546875V2.80247H16.6558V0.546875H0.5ZM18.9448 0.546875V2.80247H41.9676C41.9676 2.80247 39.6159 0.546875 36.5013 0.546875H18.9448ZM46.4839 0.546875V2.80247H60.4124L59.5856 0.546875H46.4839ZM70.3983 0.546875L69.5716 2.80247H83.3736V0.546875H70.3983ZM0.5 4.93346V7.18905H16.6558V4.93346H0.5ZM18.9448 4.93668V7.18905H44.6391C44.6391 7.18905 44.3391 5.45309 43.8156 4.93668H18.9448ZM46.4839 4.93668V7.18905H61.9395L61.1743 4.93668H46.4839ZM68.7448 4.93668L67.9797 7.18905H83.3736V4.93668H68.7448ZM5.14281 9.32005V11.5785H12.1395V9.32005H5.14281ZM23.5876 9.32005V11.5785H30.5843V9.32005H23.5876ZM37.3896 9.32005V11.5785H44.3862C44.3862 11.5785 44.8304 10.3857 44.8304 9.31988H37.3896V9.32005ZM51.1268 9.32005V11.5785H63.5314L62.7046 9.31988H51.1268V9.32005ZM67.221 9.32005L66.391 11.5787H78.8572V9.32005H67.221ZM5.14281 13.7098V15.9651H12.1395V13.7098H5.14281ZM23.5876 13.7098V15.9651H41.4586C41.4586 15.9651 42.9535 14.8077 43.4298 13.7095H23.5876V13.7098ZM51.1268 13.7098V15.9651H58.1234V14.7095L58.5676 15.9651H71.3839L71.8605 14.7095V15.9651H78.8572V13.7098H65.7231L65.026 15.6205L64.3257 13.7098H51.1268ZM5.14281 18.0961V20.3517H12.1395V18.0961H5.14281ZM23.5876 18.0961V20.3517H43.4298C42.9534 19.2571 41.4586 18.0961 41.4586 18.0961H23.5876ZM51.1268 18.0961V20.3517H58.1234V18.0961H51.1268ZM59.3943 18.0961L60.2405 20.3517H69.8504L70.6545 18.0961H59.3943ZM71.8605 18.0961V20.3517H78.8572V18.0961H71.8605ZM5.14281 22.4827V24.7383H12.1395V22.4827H5.14281ZM23.5876 22.4827V24.7383H30.5843V22.4827H23.5876ZM37.3896 22.4827V24.7383H44.8304C44.8304 23.6738 44.3862 22.4827 44.3862 22.4827H37.3896ZM51.1268 22.4827V24.7383H58.1234V22.4827H51.1268ZM60.983 22.4827L61.8033 24.7383H68.2455L69.0723 22.4827H60.983ZM71.8605 22.4827V24.7383H78.8572V22.4827H71.8605ZM0.626445 26.8694V29.1281H16.7823V26.8693H0.626445V26.8694ZM18.9448 26.8694V29.1281H43.8156C44.3391 28.6109 44.6391 26.8693 44.6391 26.8693H18.9448V26.8694ZM46.6104 26.8694V29.1281H58.1234V26.8693H46.6104V26.8694ZM62.5749 26.8694L63.4179 29.1281H66.6957L67.4868 26.8693H62.5749V26.8694ZM71.8605 26.8694V29.1281H83.5V26.8693H71.8605V26.8694ZM0.626445 31.2591V33.5147H16.7823V31.2591H0.626445ZM18.9448 31.2591V33.5113H36.5013C39.6159 33.5113 41.9676 31.2589 41.9676 31.2589H18.9448V31.2591ZM46.6104 31.2591V33.5147H58.1234V31.2591H46.6104ZM64.1733 31.2591L64.9839 33.5081L65.1233 33.5113L65.9468 31.2589H64.1733V31.2591ZM71.8605 31.2591V33.5147H83.5V31.2591H71.8605Z" fill="#1F70C1"/>
</g>
<defs>
<clipPath id="clip0">
<rect width="83" height="33" fill="white" transform="translate(0.5 0.546875)"/>
</clipPath>
</defs>
</svg>
