<svg width="61" height="62" viewBox="0 0 61 62" fill="none" xmlns="http://www.w3.org/2000/svg">
<g clip-path="url(#clip0)">
<path opacity="0.5" d="M30.4277 9.56258V26.8079L45.3919 18.1674V0.921875L30.4277 9.56258Z" fill="#13A049"/>
<path opacity="0.5" d="M30.4278 9.56258L15.4639 0.921875V18.2033L30.4278 26.844V9.56258Z" fill="#A2CC39"/>
<path opacity="0.9" d="M45.3922 0.921875L30.428 9.56258L15.4641 0.921875L0.5 9.56258L30.428 26.844L60.3383 9.56258L45.3922 0.921875Z" fill="url(#paint0_linear)"/>
<path d="M30.428 26.8439L0.5 9.5625V26.8439L15.4641 35.4846V52.7482L30.428 61.3889L45.3922 52.7482V35.4846L60.3383 26.8439V9.5625L30.428 26.8439Z" fill="url(#paint1_linear)"/>
<path d="M30.4277 26.8439V61.3889L45.3919 52.7482V35.4846L60.338 26.8439V9.5625L30.4277 26.8439Z" fill="url(#paint2_linear)"/>
<path opacity="0.05" d="M30.4277 44.1074V61.3888L45.3919 52.7481L30.4277 44.1074Z" fill="white"/>
<path opacity="0.1" d="M30.4278 61.425V44.1436L15.4639 52.7843L30.4278 61.425Z" fill="white"/>
<path opacity="0.05" d="M15.4641 18.2031L0.5 26.8438L15.4641 35.4845L30.428 26.8438L15.4641 18.2031Z" fill="white"/>
<path opacity="0.05" d="M45.3919 18.2031L30.4277 26.8438L45.3919 35.4845L60.338 26.8438L45.3919 18.2031Z" fill="white"/>
</g>
<defs>
<linearGradient id="paint0_linear" x1="60.3455" y1="13.8806" x2="0.5" y2="13.8806" gradientUnits="userSpaceOnUse">
<stop stop-color="#37BDA6"/>
<stop offset="1" stop-color="#8AD3B8"/>
</linearGradient>
<linearGradient id="paint1_linear" x1="60.3455" y1="35.4747" x2="0.5" y2="35.4747" gradientUnits="userSpaceOnUse">
<stop offset="0.5" stop-color="#4BB6AD"/>
<stop offset="1" stop-color="#78BBC1"/>
</linearGradient>
<linearGradient id="paint2_linear" x1="30.4224" y1="35.4747" x2="60.3448" y2="35.4747" gradientUnits="userSpaceOnUse">
<stop stop-color="#4379A7"/>
<stop offset="1" stop-color="#7CC9B8"/>
</linearGradient>
<clipPath id="clip0">
<rect width="60" height="60.7031" fill="white" transform="translate(0.5 0.921875)"/>
</clipPath>
</defs>
</svg>
