<svg width="50" height="50" viewBox="0 0 50 50" fill="none" xmlns="http://www.w3.org/2000/svg">
<path d="M0.999512 25C0.999512 11.8023 11.8018 1 24.9995 1C38.1972 1 48.9995 11.8023 48.9995 25C48.9995 38.1977 38.1972 49 24.9995 49C11.8018 49 0.999512 38.1977 0.999512 25ZM33.3595 35.3573C34.7223 36.1959 36.5069 35.771 37.3456 34.4082C38.1909 33.0346 37.7517 31.2351 36.3687 30.4053L28.2205 25.5164C27.6181 25.155 27.2495 24.504 27.2495 23.8014V14.375C27.2495 12.7872 25.9623 11.5 24.3745 11.5C22.7867 11.5 21.4995 12.7872 21.4995 14.375V25.8236C21.4995 27.2127 22.2201 28.5023 23.4031 29.2302L33.3595 35.3573Z" stroke="white" stroke-width="2"/>
</svg>
