<svg width="50" height="50" viewBox="0 0 50 50" fill="none" xmlns="http://www.w3.org/2000/svg">
<path d="M47.6263 23.7062C48.2461 24.4484 48.2461 25.5277 47.6263 26.2699L44.4807 30.0372C43.8025 30.8493 43.4737 31.8971 43.5664 32.9512L44.0039 37.9287C44.0907 38.9165 43.4406 39.8188 42.476 40.0491L38.0614 41.1031C36.9804 41.3612 36.0554 42.0575 35.5084 43.025L33.2048 47.099C32.6957 47.9995 31.5839 48.3631 30.641 47.9375L26.6493 46.1358C25.5998 45.6621 24.3971 45.6636 23.3488 46.14L19.3592 47.9531C18.4156 48.3819 17.3009 48.0189 16.7907 47.1168L14.4906 43.0489C13.9436 42.0814 13.0187 41.3851 11.9376 41.127L7.52237 40.0728C6.558 39.8426 5.90789 38.9406 5.99447 37.9529L6.43298 32.9505C6.52535 31.8968 6.19658 30.8494 5.51861 30.0375L2.3698 26.2665C1.75089 25.5253 1.74994 24.4477 2.36754 23.7054L5.52314 19.9127C6.19832 19.1012 6.52533 18.0557 6.4329 17.0041L5.99575 12.0308C5.90874 11.0408 6.56176 10.1372 7.52897 9.90904L11.9293 8.87123C13.0148 8.61522 13.9441 7.91765 14.4931 6.94684L16.7942 2.87709C17.3034 1.97664 18.4151 1.61302 19.358 2.03858L23.3539 3.8422C24.4002 4.31444 25.5989 4.31444 26.6451 3.8422L30.641 2.03858C31.5839 1.61301 32.6956 1.97663 33.2048 2.87709L35.5084 6.95112C36.0554 7.9186 36.9804 8.61486 38.0614 8.87297L42.4761 9.92701C43.4406 10.1573 44.0907 11.0596 44.0039 12.0474L43.5664 17.0249C43.4737 18.079 43.8025 19.1268 44.4807 19.939L47.6263 23.7062ZM24.9995 37.9326C26.807 37.9326 28.2722 36.4674 28.2722 34.6599V34.4275C28.2722 32.6201 26.807 31.1548 24.9995 31.1548C23.192 31.1548 21.7268 32.6201 21.7268 34.4275V34.6599C21.7268 36.4674 23.192 37.9326 24.9995 37.9326ZM24.9995 28.377C26.807 28.377 28.2722 26.9117 28.2722 25.1042V15.3162C28.2722 13.5087 26.807 12.0435 24.9995 12.0435C23.192 12.0435 21.7268 13.5087 21.7268 15.3162V25.1042C21.7268 26.9117 23.192 28.377 24.9995 28.377Z" stroke="white" stroke-width="2"/>
</svg>
