<svg width="52" height="52" viewBox="0 0 52 52" fill="none" xmlns="http://www.w3.org/2000/svg">
<path d="M20.3105 10.0156H13.2266C11.7492 10.0156 10.5504 11.2145 10.5504 12.6918V22.5246H10.2477C8.77031 22.5246 7.57148 23.7234 7.57148 25.2008C7.57148 26.6781 8.77031 27.877 10.2477 27.877H10.5504V29.5359H10.2477C8.77031 29.5359 7.57148 30.7348 7.57148 32.2121C7.57148 33.6895 8.77031 34.8883 10.2477 34.8883H10.5504V37.3586C10.5504 38.8359 11.7492 40.0348 13.2266 40.0348C14.7039 40.0348 15.9027 38.8359 15.9027 37.3586V34.8883H19.8988C21.3762 34.8883 22.575 33.6895 22.575 32.2121C22.575 30.7348 21.3762 29.5359 19.8988 29.5359H15.9027V27.877H20.3105C25.227 27.877 29.2352 23.8687 29.2352 18.9523C29.2352 14.0238 25.2391 10.0156 20.3105 10.0156ZM20.3105 26.0484H14.9824C14.4859 26.0484 14.0742 26.4602 14.0742 26.9566V30.432C14.0742 30.9285 14.4859 31.3402 14.9824 31.3402H19.8867C20.359 31.3402 20.7465 31.7277 20.7465 32.2C20.7465 32.6723 20.359 33.0598 19.8867 33.0598H14.9824C14.4859 33.0598 14.0742 33.4715 14.0742 33.968V37.3465C14.0742 37.8188 13.6867 38.2062 13.2145 38.2062C12.7422 38.2062 12.3547 37.8188 12.3547 37.3465V33.968C12.3547 33.4715 11.943 33.0598 11.4465 33.0598H10.2355C9.76328 33.0598 9.37578 32.6723 9.37578 32.2C9.37578 31.7277 9.76328 31.3402 10.2355 31.3402H11.4465C11.943 31.3402 12.3547 30.9285 12.3547 30.432V26.9566C12.3547 26.4602 11.943 26.0484 11.4465 26.0484H10.2355C9.76328 26.0484 9.37578 25.6609 9.37578 25.1887C9.37578 24.7164 9.76328 24.3289 10.2355 24.3289H11.4465C11.943 24.3289 12.3547 23.9172 12.3547 23.4207V12.6797C12.3547 12.2074 12.7422 11.8199 13.2145 11.8199H20.3105C24.234 11.8199 27.4188 15.0047 27.4188 18.9281C27.4188 22.8516 24.234 26.0484 20.3105 26.0484ZM26.002 0.509766C11.943 0.509766 0.511719 11.941 0.511719 26C0.511719 40.059 11.943 51.4902 26.002 51.4902C29.768 51.4902 33.3402 50.6668 36.5613 49.2016C36.634 49.1773 36.6945 49.1531 36.7551 49.1047C39.5887 47.7848 42.1437 45.9562 44.2871 43.7281C44.3598 43.6676 44.4324 43.5949 44.493 43.5223C48.8281 38.957 51.4922 32.7812 51.4922 26C51.4922 11.941 40.0609 0.509766 26.002 0.509766ZM42.6281 25.9395C42.507 27.9012 42.9672 29.8992 43.2578 30.9164C43.2699 30.9527 43.282 30.9891 43.2941 31.0254C43.4879 31.5098 43.6574 32.0062 43.8027 32.527C43.8027 32.527 43.8027 32.5391 43.8027 32.5512L43.8148 32.5875C44.5656 35.5301 44.2629 39.0418 42.9793 42.493C41.9984 43.5102 40.9207 44.4305 39.7703 45.2539C40.1215 44.6484 40.4484 44.0309 40.7512 43.4012C42.398 39.8652 42.9188 36.0992 42.1801 33.084C42.168 33.0477 42.1559 33.0113 42.1437 32.975C41.9863 32.5754 41.841 32.1273 41.6957 31.6551C41.6836 31.6188 41.6715 31.5824 41.6594 31.5461C41.5262 31.2434 41.3809 30.9527 41.2355 30.6984C39.7461 28.107 37.627 27.9012 36.5008 28.0102C34.5027 28.2039 32.5773 29.5723 32.0082 31.1949C31.9355 31.4129 31.7781 31.5824 31.5723 31.6793C31.3664 31.7762 31.1363 31.7883 30.9184 31.7156C30.7004 31.643 30.5309 31.4855 30.434 31.2797C30.3371 31.0738 30.325 30.8438 30.3977 30.6258C31.0758 28.6641 33.098 26.9809 35.4352 26.448C35.7016 26.3875 35.9316 26.2059 36.0527 25.9516C36.1738 25.6973 36.1738 25.4188 36.0527 25.1645C35.5078 24.0383 35.1203 22.7668 34.9023 21.3742C34.4301 18.4316 34.9387 15.9371 36.3191 14.3508C36.634 13.9996 37.1668 13.9633 37.5301 14.266C37.6996 14.4113 37.8086 14.6293 37.8207 14.8473C37.8328 15.0773 37.7602 15.2953 37.6148 15.4648C36.5855 16.6395 36.2102 18.698 36.5977 21.0957C36.7551 22.1129 37.0941 23.2512 37.5301 24.2199C38.0508 25.3945 38.632 26.2059 39.2738 26.6539C39.3223 26.6902 39.3828 26.7145 39.4312 26.7387C39.516 26.775 39.5887 26.8113 39.6613 26.8477C39.9398 26.9809 40.2668 26.9688 40.5211 26.7992C40.7875 26.6418 40.9449 26.3633 40.957 26.0605C41.066 23.1664 42.1316 21.241 44.1176 20.3328C44.3234 20.2359 44.5535 20.2238 44.7715 20.3086C44.9895 20.3934 45.159 20.5508 45.2559 20.7566C45.3527 20.9625 45.3648 21.1926 45.2801 21.4105C45.1953 21.6285 45.0379 21.798 44.832 21.8949C43.8996 22.3066 42.7855 23.348 42.6281 25.9395ZM45.7766 38.9934C46.1641 36.5836 46.1035 34.2223 45.5586 32.1152C45.5586 32.091 45.5465 32.0668 45.5465 32.0426C45.4012 31.4613 45.2074 30.9043 44.9895 30.3594C44.1902 27.4531 44.1176 24.1836 45.5586 23.5176C46.2125 23.2148 46.6969 22.682 46.9512 22.016C47.2055 21.35 47.1691 20.6234 46.8785 19.9695C46.5879 19.3156 46.043 18.8312 45.377 18.577C44.7109 18.3348 43.9844 18.359 43.3305 18.6496C41.2477 19.6063 39.8914 21.3984 39.3586 23.9051C38.9227 23.0332 38.5352 21.8707 38.3535 20.793C38.0629 18.9766 38.293 17.3902 38.9469 16.6516C39.4191 16.1188 39.6492 15.4285 39.6008 14.7141C39.5523 13.9996 39.2375 13.3457 38.6926 12.8855C37.5785 11.9168 35.8953 12.0258 34.9266 13.1398C33.1828 15.1379 32.5289 18.1531 33.0859 21.6406C33.2797 22.8273 33.5703 23.9414 33.9699 24.9586C31.4996 25.8547 29.441 27.7922 28.666 30.0082C28.4359 30.6863 28.4723 31.4129 28.7871 32.0547C29.102 32.6965 29.6469 33.1809 30.3129 33.4109C30.991 33.641 31.7176 33.6047 32.3594 33.2898C33.0012 32.975 33.4855 32.4301 33.7156 31.7641C34.0426 30.8074 35.3988 29.9113 36.6582 29.7902C37.8934 29.6691 38.8984 30.2746 39.6492 31.5703C39.7582 31.7641 39.8672 31.9699 39.9641 32.1879C40.1094 32.6723 40.2547 33.1324 40.4242 33.5441C41.0539 36.1598 40.5695 39.4656 39.1043 42.6141C38.2445 44.4668 37.082 46.1742 35.7621 47.5547C32.7832 48.8988 29.4895 49.6617 26.0141 49.6617C12.9602 49.6617 2.34023 39.0418 2.34023 25.9879C2.34023 12.934 12.948 2.32617 26.002 2.32617C39.0559 2.32617 49.6758 12.9461 49.6758 26C49.6758 30.7953 48.2469 35.2637 45.7766 38.9934ZM20.3105 13.5395H14.9824C14.4859 13.5395 14.0742 13.9512 14.0742 14.4477V23.4328C14.0742 23.9293 14.4859 24.341 14.9824 24.341H20.3105C23.2895 24.341 25.7113 21.9191 25.7113 18.9402C25.7113 15.9613 23.2895 13.5395 20.3105 13.5395ZM20.3105 22.5246H15.8906V15.3559H20.3105C22.2844 15.3559 23.8949 16.9664 23.8949 18.9402C23.8949 20.9141 22.2844 22.5246 20.3105 22.5246Z" fill="white"/>
</svg>
