<?xml version="1.0" encoding="utf-8"?>
<!-- Generator: Adobe Illustrator 24.1.0, SVG Export Plug-In . SVG Version: 6.00 Build 0)  -->
<svg version="1.1" id="Layer_1" xmlns="http://www.w3.org/2000/svg" xmlns:xlink="http://www.w3.org/1999/xlink" x="0px" y="0px"
	 viewBox="0 0 500 500" style="enable-background:new 0 0 500 500;" xml:space="preserve">
<style type="text/css">
	.st0{fill:#2B55B2;}
	.st1{fill:#25449A;}
	.st2{fill:#2A48C8;}
	.st3{fill:#105DC4;}
	.st4{fill:#274FBD;}
	.st5{fill:#5588E7;}
	.st6{fill:#3E53C1;}
	.st7{fill:#3C55D6;}
	.st8{fill:#5678DA;}
	.st9{fill:#0F2E60;}
	.st10{fill:#346AC1;}
	.st11{fill:#2252B7;}
	.st12{fill:#1161CC;}
	.st13{fill:none;stroke:#004B99;stroke-width:0.7067;stroke-miterlimit:10;}
	.st14{fill:#004B99;}
	.st15{fill:#0B5ED8;}
	.st16{fill:#1872EA;}
	.st17{fill:#3B49A4;}
	.st18{fill:#323654;}
	.st19{fill:#4971D2;}
	.st20{fill:#1276DB;}
	.st21{fill:#4E7EE2;}
	.st22{fill:#2438B7;}
	.st23{fill:none;stroke:#004B99;stroke-width:0.3559;stroke-miterlimit:10;}
	.st24{fill:#FFFFFF;}
</style>
<g>
	<g>
		<g id="XMLID_9151_">
			<g id="XMLID_9153_">
				<polygon id="XMLID_9154_" class="st0" points="260.3,361.8 175.7,313 175.7,193.7 260.3,242.5 				"/>
				<polygon id="XMLID_9155_" class="st1" points="251.8,247.4 251.8,347.2 184.2,308.1 184.2,208.3 				"/>
				<polygon id="XMLID_1723_" class="st2" points="319.2,208.4 260.3,242.5 260.3,361.8 319.2,327.8 				"/>
				<polygon id="XMLID_1722_" class="st3" points="260.3,361.8 332,320.3 332,201 260.3,242.5 				"/>
				<polygon id="XMLID_1721_" class="st4" points="268.7,247.4 268.7,347.2 323.6,315.4 323.6,215.6 				"/>
				<polygon id="XMLID_1720_" class="st1" points="320.3,313.5 320.3,217.5 323.6,215.6 323.6,315.4 268.7,347.2 268.7,343.4 				
					"/>
				<polygon id="XMLID_1719_" class="st5" points="268.7,290.4 268.7,297.2 323.6,262.4 320.3,260.6 				"/>
				<polygon id="XMLID_1718_" class="st3" points="323.6,271.8 323.6,262.4 268.7,294.2 268.7,303.5 				"/>
				<polygon id="XMLID_1717_" class="st5" points="320.3,313.5 323.6,315.4 268.7,347.2 268.7,343.4 				"/>
				<polygon id="XMLID_9156_" class="st6" points="187.4,306.2 187.4,210.2 184.2,208.3 184.2,308.1 251.8,347.2 251.8,343.4 				
					"/>
				<polygon id="XMLID_9157_" class="st7" points="251.8,290.4 251.8,297.2 184.2,255.1 187.5,253.3 				"/>
				<polygon id="XMLID_9158_" class="st0" points="184.2,264.5 184.2,255.1 251.8,294.2 251.8,303.5 				"/>
				<polygon id="XMLID_9159_" class="st7" points="187.4,306.2 184.2,308.1 251.8,347.2 251.8,343.4 				"/>
				<g id="XMLID_9160_">
					<polygon id="XMLID_1716_" class="st2" points="319.3,208.5 260.3,242.5 175.8,193.7 234.7,159.7 					"/>
					<polygon id="XMLID_1715_" class="st5" points="175.8,193.7 247.5,152.2 332,201 260.3,242.5 					"/>
					<polygon id="XMLID_1714_" class="st8" points="260.3,232.8 192.6,193.7 247.5,162 315.1,201.1 					"/>
					<polygon id="XMLID_1713_" class="st1" points="247.5,165.8 311.9,202.9 315.1,201 247.5,162 192.6,193.7 195.9,195.6 					"/>
					<polygon id="XMLID_1712_" class="st3" points="230.2,215.6 224.4,212.3 282,181.9 282,185.6 					"/>
					<polygon id="XMLID_1711_" class="st5" points="274,177.2 282,181.9 226.9,213.8 218.9,209.1 					"/>
					<polygon id="XMLID_1710_" class="st3" points="247.5,165.8 247.5,162 192.6,193.7 195.9,195.6 					"/>
				</g>
				<polygon id="XMLID_1709_" class="st9" points="316.3,232.2 316.3,241 312.2,243.3 312.3,234.5 310.2,235.6 314.3,227 318.4,231 
									"/>
			</g>
			<polygon id="XMLID_1708_" class="st10" points="285,241.4 272.9,264.8 282.8,272.7 295,249.3 			"/>
			<path id="XMLID_9161_" class="st9" d="M307,236.3c-0.1,0.6-0.4,1.2-0.6,1.8c-0.2,0.5-0.5,1.1-1,1.6c-0.4,0.4-0.8,0.9-1.2,1.2
				l-0.1,5.2c0.9-0.4,1.6-0.4,1.7,0l-4.3,2.5c0.2-0.6,0.9-1.3,1.7-1.9l-0.1-5.2c-0.4,0.1-0.8,0.1-0.9,0.1c-0.4,0-0.7-0.3-1-0.5
				c-0.3-0.3-0.5-0.6-0.6-1c-0.2-0.7-0.3-1.4-0.3-2.3c0-0.3,0-0.5,0.1-0.8c0,0,0-0.3,0.1-0.3l3.3-1.9l3.3-1.8c0,0,0.1,0.2,0.1,0.2
				c0.1,0.2,0.1,0.4,0.1,0.6C307.3,234.6,307.3,235.4,307,236.3z"/>
		</g>
		<g id="XMLID_9162_">
			<g id="XMLID_9163_">
				<g id="XMLID_9165_">
					<g id="XMLID_9166_">
						<polygon id="XMLID_9167_" class="st11" points="196.3,369.1 148.2,341.3 148.2,289.6 196.3,317.3 						"/>
						<polygon id="XMLID_1707_" class="st12" points="234.5,295.2 196.3,317.3 196.3,369.1 234.5,347.1 						"/>
						<polygon id="XMLID_1706_" class="st13" points="212.6,314.6 200.9,321.4 200.9,337.2 212.6,330.4 						"/>
					</g>
					<polygon id="XMLID_1705_" class="st14" points="208.6,323.2 208.5,331.1 204.9,333.2 204.9,325.3 203.1,326.3 206.8,318.6 
						210.4,322.2 					"/>
					<polygon id="XMLID_9168_" class="st15" points="234.5,295.2 196.3,317.3 173.8,304.3 166.4,300.1 148.2,289.6 186.4,267.4 
						204.7,277.9 212,282.2 					"/>
				</g>
			</g>
			<polygon id="XMLID_9169_" class="st16" points="173.8,304.3 166.4,300.1 204.7,277.9 212,282.2 			"/>
			<g id="XMLID_9170_">
				<polygon id="XMLID_9171_" class="st17" points="165.6,346.9 151.8,339 151.8,327.1 165.6,335 				"/>
				<polygon id="XMLID_9172_" class="st18" points="164.8,345.4 152.5,338.3 152.5,337.8 164.8,344.8 				"/>
				<polygon id="XMLID_9173_" class="st18" points="164.8,343.9 152.5,336.9 152.5,336.3 164.8,343.3 				"/>
				<polygon id="XMLID_9174_" class="st18" points="164.8,342.4 152.5,335.4 152.5,334.8 164.8,341.8 				"/>
				<polygon id="XMLID_9175_" class="st18" points="164.8,340.9 152.5,333.9 152.5,333.3 164.8,340.3 				"/>
				<polygon id="XMLID_9176_" class="st18" points="164.8,338.1 152.5,331 152.5,329.3 164.8,336.4 				"/>
			</g>
			<polygon id="XMLID_9177_" class="st19" points="166.4,300.1 166.4,317.5 167.9,313.4 169.5,319.2 171.6,315.5 173.5,321.4 
				173.8,304.3 			"/>
			<polygon id="XMLID_1704_" class="st14" points="221.3,310.2 217.8,312.3 217.8,316.9 221.3,314.9 			"/>
			<polygon id="XMLID_1703_" class="st14" points="226.2,307.4 222.7,309.4 222.7,314.1 226.2,312.1 			"/>
			<polygon id="XMLID_1702_" class="st14" points="231.1,304.6 227.6,306.6 227.6,311.3 231.1,309.3 			"/>
		</g>
		<g id="XMLID_9178_">
			<g id="XMLID_9179_">
				<polygon id="XMLID_9180_" class="st20" points="257.8,167 228.3,184 265.4,205.4 294.8,188.3 				"/>
				<g id="XMLID_9181_">
					<g id="XMLID_9182_">
						<polygon id="XMLID_9183_" class="st11" points="287.9,218.3 250.9,196.9 250.9,175.3 287.9,196.7 						"/>
						<polygon id="XMLID_1701_" class="st12" points="317.4,179.6 287.9,196.7 287.9,218.3 317.4,201.3 						"/>
					</g>
					<polygon id="XMLID_9184_" class="st15" points="317.4,179.6 287.9,196.7 270.5,186.6 264.9,183.4 250.9,175.3 280.3,158.2 
						294.3,166.3 300,169.6 					"/>
				</g>
			</g>
			<polygon id="XMLID_9185_" class="st16" points="270.5,186.6 264.9,183.4 294.3,166.3 300,169.6 			"/>
			<polygon id="XMLID_9186_" class="st19" points="264.9,183.4 264.9,196.8 266,193.7 267.2,198.1 268.9,195.2 270.4,199.8 
				270.5,186.6 			"/>
			<polygon id="XMLID_1700_" class="st14" points="307.2,191.2 304.5,192.8 304.5,196.4 307.2,194.8 			"/>
			<polygon id="XMLID_1699_" class="st14" points="311,189 308.3,190.6 308.3,194.2 311,192.6 			"/>
			<polygon id="XMLID_1698_" class="st14" points="314.7,186.8 312,188.4 312,192 314.7,190.5 			"/>
			<g id="XMLID_9187_">
				<polygon id="XMLID_1697_" class="st21" points="286.8,164 278.5,168.9 272.2,165.3 280.5,160.4 				"/>
				<polygon id="XMLID_1696_" class="st22" points="285.8,163.9 278.4,168.3 278.1,168.1 285.5,163.7 				"/>
				<polygon id="XMLID_1695_" class="st22" points="285,163.5 277.6,167.8 277.3,167.6 284.7,163.3 				"/>
				<polygon id="XMLID_1694_" class="st22" points="284.2,163 276.8,167.4 276.5,167.2 283.9,162.8 				"/>
				<polygon id="XMLID_1693_" class="st22" points="283.4,162.6 276,166.9 275.8,166.7 283.2,162.4 				"/>
				<polygon id="XMLID_1692_" class="st22" points="282,161.7 274.6,166.1 273.7,165.5 281.1,161.2 				"/>
			</g>
			<g id="XMLID_9188_">
				<polygon id="XMLID_1691_" class="st23" points="296.2,195.7 290.4,199.1 290.4,207 296.2,203.6 				"/>
				<polygon id="XMLID_2081_" class="st14" points="294.2,200 294.2,204 292.4,205 292.4,201 291.5,201.6 293.3,197.7 295.1,199.5 
									"/>
			</g>
		</g>
	</g>
	<g>
		<path class="st24" d="M213.9,248l-0.3,5.4l-1.7-0.9l-0.2,3.6l-4.4-2.4l0.2-3.6l-7.6-4.1l0.3-5.4L206,229l4.9,2.7l-5.9,11.5
			l2.7,1.5l0.2-4.2l4.4,2.4l-0.2,4.2L213.9,248z"/>
		<path class="st24" d="M223.2,244.8c1.6,0.9,3,2.5,4,4.8c1,2.3,1.5,4.7,1.4,7.2c-0.1,2.5-0.8,4.3-2,5.4c-1.2,1.1-2.6,1.2-4.2,0.3
			c-1.5-0.8-2.6-2.1-3.4-3.9l-0.4,8.2l-4.1-2.2l1.1-23.4l4.1,2.2l-0.1,1.5C220.5,244,221.7,243.9,223.2,244.8z M219.9,254.7
			c0.4,0.9,1.1,1.6,1.8,2c0.8,0.4,1.4,0.4,1.9,0c0.5-0.4,0.8-1.2,0.8-2.2c0.1-1.1-0.1-2.1-0.6-3c-0.4-0.9-1.1-1.6-1.8-2
			c-0.8-0.4-1.4-0.4-1.9,0c-0.5,0.4-0.8,1.2-0.8,2.2C219.3,252.8,219.5,253.8,219.9,254.7z"/>
		<path class="st24" d="M230,266.1l1.1-24.4l4.1,2.2l-1.1,24.4L230,266.1z"/>
	</g>
</g>
</svg>
