<?xml version="1.0" encoding="utf-8"?>
<!-- Generator: Adobe Illustrator 24.1.0, SVG Export Plug-In . SVG Version: 6.00 Build 0)  -->
<svg version="1.1" id="Layer_1" xmlns="http://www.w3.org/2000/svg" xmlns:xlink="http://www.w3.org/1999/xlink" x="0px" y="0px"
	 viewBox="0 0 500 500" style="enable-background:new 0 0 500 500;" xml:space="preserve">
<style type="text/css">
	.st0{fill:#003CB3;}
	.st1{fill:#211E1E;}
	.st2{fill:#5294F3;}
	.st3{fill:#3586F1;}
	.st4{fill:#235BCA;}
	.st5{fill:#1F1F1F;}
	.st6{fill:#2A2A2A;}
	.st7{fill:#1D1D1D;}
	.st8{fill:#212B3B;}
	.st9{fill:#485872;}
	.st10{fill:#6782A9;}
	.st11{fill:#9FBDEA;}
	.st12{fill:#323F4D;}
	.st13{fill:#566794;}
	.st14{fill:#97B7DE;}
	.st15{fill:#7692C4;}
	.st16{fill:#1A222D;}
	.st17{fill:#5EB2FF;}
	.st18{fill:#344564;}
	.st19{fill:#8296A9;}
	.st20{fill:url(#XMLID_3_);}
	.st21{fill:url(#XMLID_4_);}
	.st22{fill:#6F8EA3;}
	.st23{fill:url(#XMLID_5_);}
	.st24{fill:#003D99;}
	.st25{fill:#2A6FC7;}
	.st26{fill:url(#XMLID_6_);}
	.st27{fill:#A2C8FF;}
	.st28{fill:#5AA1FA;}
	.st29{fill:#76ADFA;}
	.st30{fill:#252E3A;}
	.st31{fill:#343D4B;}
	.st32{fill:#9CC8FF;}
	.st33{fill:#7789AE;}
	.st34{fill:#B8D5FF;}
	.st35{fill:#004782;}
	.st36{fill:#0069B1;}
	.st37{fill:#0067EF;}
	.st38{fill:#92B1E7;}
	.st39{fill:#8AA1D7;}
	.st40{fill:#788CBD;}
	.st41{fill:#3188D4;}
	.st42{fill:#1D2831;}
	.st43{fill:#94B0E8;}
	.st44{fill:#A3B8D6;}
	.st45{fill:#FFFFFF;}
</style>
<g id="XMLID_2_">
	<g id="XMLID_2078_">
		<g id="XMLID_10269_">
			<polygon id="XMLID_10293_" class="st0" points="314.8,323.6 313,325.4 308.3,329.3 264.2,298.6 			"/>
			<path id="XMLID_10294_" class="st1" d="M108.8,279.4l22.4-17.2c0,0-13.1-6.9-13.6-6.9c-0.5,0-7.5,3.5-7.5,3.5
				S100,267.5,108.8,279.4z"/>
			<polygon id="XMLID_10295_" points="277,375.2 355.8,323.8 356.4,302 277.6,353.4 272.7,366.5 			"/>
			<polygon id="XMLID_10296_" class="st2" points="341.3,366.8 377.4,362.1 420.4,331.2 419.4,314 396.7,277 313,325.4 			"/>
			<polygon id="XMLID_10297_" class="st3" points="419.4,314 396.7,277 392.4,282.1 416.7,335.4 420.7,320.2 			"/>
			<polygon id="XMLID_10298_" class="st3" points="368.6,360 324.7,322.7 313,325.4 342.4,384.2 			"/>
			<path id="XMLID_10299_" class="st4" d="M416.6,332.3c-0.7,0.9-1.4,1.1-2.3,2.1c-2.9,3.3-7.4,6.4-12.4,9.9
				c-0.3,0.2-0.5,0.4-0.8,0.5c-11.1,7.7-46.3,19.8-54.5,22.5l-0.8,3l0.4,15.8c0,0,39.8-4.9,54.8-15.4c5.9-4.1,10.5-9.2,14-14.1
				c3.9-5.6,6.4-11.2,7.7-15.1c0-0.1,0.1-0.2,0.1-0.3c0,0,0.5-8.4,0.4-11.2C420.4,329.8,418.7,333.5,416.6,332.3z"/>
			<g id="XMLID_10300_">
				<path id="XMLID_10301_" d="M312.2,405.1l-29.2-49l15.3-8.8l0,0c3.7-2,8.7-1.6,14.3,1.6c11.2,6.5,20.3,22.1,20.3,34.8
					c0,6.1-2.1,10.5-5.5,12.6l0,0l-0.3,0.2c-0.1,0-0.2,0.1-0.2,0.1L312.2,405.1z"/>
				<path id="XMLID_10302_" class="st5" d="M288.3,359.2l20.7-12c1.2,0.4,2.4,1,3.6,1.7c11.2,6.5,20.3,22.1,20.3,34.8
					c0,2.3-0.3,4.4-0.9,6.2l-15.9,9.2c-1.7-0.5-3.6-1.3-5.4-2.3c-2.1-1.2-4.1-2.7-6-4.4l-15.3-25.7
					C288.7,364.1,288.3,361.6,288.3,359.2z"/>
				<path id="XMLID_10303_" class="st6" d="M277.5,368.8c0,12.8,9.1,28.3,20.3,34.8c11.2,6.5,20.3,1.4,20.3-11.4
					c0-12.8-9.1-28.3-20.3-34.8C286.6,351,277.5,356.1,277.5,368.8z"/>
				<path id="XMLID_10304_" class="st7" d="M278.2,369.3c0,12.3,8.8,27.2,19.5,33.5c10.8,6.2,19.5,1.3,19.5-10.9
					c0-12.3-8.8-27.2-19.5-33.5C287,352.1,278.2,357,278.2,369.3z"/>
				<g id="XMLID_10305_">
					<path id="XMLID_10306_" class="st8" d="M282.6,371.8c0,9.5,6.8,21.2,15.2,26c8.4,4.8,15.2,1,15.2-8.5c0-9.5-6.8-21.2-15.2-26
						C289.4,358.5,282.6,362.3,282.6,371.8z"/>
					<path id="XMLID_10307_" class="st9" d="M283.6,372.4c0,8.9,6.3,19.7,14.1,24.2c7.8,4.5,14.1,1,14.1-7.9s-6.3-19.7-14.1-24.2
						C290,360,283.6,363.5,283.6,372.4z"/>
					<path id="XMLID_10308_" class="st10" d="M298,364.6c7.7,4.6,14,15.3,14,24.1c0,1.3-0.1,2.4-0.4,3.4l-10.3,6
						c-1.1-0.3-2.2-0.8-3.4-1.5c-7.7-4.4-13.9-15-14.1-23.8L298,364.6z"/>
					<path id="XMLID_10309_" class="st11" d="M305.7,371.8c2.8,3.7,4.8,8.1,5.7,12.4l-17.1,9.9c-3.3-2.9-6.2-6.8-8.1-11L305.7,371.8
						z"/>
					<path id="XMLID_10310_" class="st11" d="M305.7,371.8c2.8,3.7,4.8,8.1,5.7,12.4l-17.1,9.9c-3.3-2.9-6.2-6.8-8.1-11L305.7,371.8
						z"/>
					<path id="XMLID_10311_" class="st12" d="M288.2,372.2c0,7.1,5,15.7,11.2,19.3c6.2,3.6,11.2,0.8,11.2-6.3
						c0-7.1-5-15.7-11.2-19.3C293.2,362.4,288.2,365.2,288.2,372.2z"/>
					<path id="XMLID_10312_" class="st13" d="M290.1,372.7c0,6.1,4.3,13.5,9.6,16.5c5.3,3.1,9.6,0.6,9.6-5.4
						c0-6.1-4.3-13.5-9.6-16.5C294.5,364.2,290.1,366.7,290.1,372.7z"/>
					<g id="XMLID_10313_">
						<path id="XMLID_10314_" class="st9" d="M304.8,371.8c0.1-0.2,0.3-0.3,0.5-0.5c0.6,0.7,1.1,1.5,1.6,2.3c-0.5,0.2-1,0.2-1.4,0
							C304.7,373.3,304.4,372.4,304.8,371.8z"/>
						<path id="XMLID_10315_" class="st9" d="M290.3,377.5c-0.6-0.8-0.5-1.6,0.3-1.6c0.8-0.1,2,0.6,2.6,1.4c0.6,0.8,0.5,1.6-0.3,1.6
							C292.1,379,290.9,378.3,290.3,377.5z"/>
						<path id="XMLID_10316_" class="st9" d="M307.2,384c-0.2-1,0.3-1.4,1.1-0.9c0.8,0.5,1.7,1.8,1.9,2.8c0.2,1-0.3,1.4-1.1,0.9
							C308.3,386.3,307.4,385,307.2,384z"/>
						<path id="XMLID_10317_" class="st9" d="M294.8,366.2c0.3-0.8,1-0.7,1.5,0.2c0.6,0.9,0.8,2.4,0.5,3.2c-0.3,0.8-1,0.7-1.5-0.2
							C294.7,368.5,294.5,367,294.8,366.2z"/>
						<path id="XMLID_10318_" class="st9" d="M307.3,377.1c-0.8-0.7-0.8-1.5-0.1-1.8c0.2-0.1,0.4-0.1,0.6-0.1
							c0.5,0.9,0.9,1.8,1.3,2.7C308.5,377.8,307.8,377.5,307.3,377.1z"/>
						<path id="XMLID_10319_" class="st9" d="M307.7,389.3c-0.1,0.9-0.8,1-1.5,0.1c-0.7-0.8-1.1-2.3-1-3.2c0.1-0.9,0.8-1,1.5-0.1
							C307.5,387,307.9,388.4,307.7,389.3z"/>
						<path id="XMLID_10320_" class="st9" d="M307.9,380.8c-0.5-0.9-0.3-1.6,0.6-1.5c0.4,0.1,0.9,0.3,1.4,0.7
							c0.3,0.9,0.5,1.8,0.6,2.7c0,0,0,0,0,0C309.6,382.6,308.4,381.7,307.9,380.8z"/>
						<path id="XMLID_10321_" class="st9" d="M292.1,382.7c-0.8-0.5-1-1.4-0.3-1.8c0.6-0.5,1.8-0.4,2.6,0.1c0.8,0.5,1,1.4,0.3,1.8
							C294.1,383.3,292.9,383.2,292.1,382.7z"/>
						<path id="XMLID_10322_" class="st9" d="M298.3,388.6c0-1,0.5-2,1.2-2.3c0.7-0.3,1.3,0.3,1.4,1.3c0,1-0.5,2-1.2,2.3
							C298.9,390.2,298.3,389.6,298.3,388.6z"/>
						<path id="XMLID_10323_" class="st9" d="M304.2,387.7c0.4,1,0.3,2.4-0.2,3c-0.5,0.7-1.2,0.4-1.5-0.6c-0.4-1-0.3-2.4,0.2-3
							C303.1,386.4,303.8,386.7,304.2,387.7z"/>
						<path id="XMLID_10324_" class="st9" d="M294.5,385.4c0.3-0.8,1.3-1.4,2.1-1.2c0.8,0.1,1.3,0.9,0.9,1.7
							c-0.3,0.8-1.3,1.4-2.1,1.2C294.6,386.9,294.2,386.2,294.5,385.4z"/>
						<path id="XMLID_10325_" class="st9" d="M293.2,371.8c-0.8-0.7-1.4-2-1.5-3c-0.1-1,0.5-1.2,1.3-0.6c0.8,0.7,1.4,2,1.5,3
							C294.6,372.2,294,372.5,293.2,371.8z"/>
						<path id="XMLID_10326_" class="st9" d="M304.2,369.9c-0.3,0.5-0.8,0.9-1.3,1c-0.8,0.1-1.3-0.6-1.2-1.5c0.1-0.5,0.3-1,0.7-1.3
							C302.9,368.6,303.6,369.2,304.2,369.9z"/>
						<path id="XMLID_10327_" class="st9" d="M291,371.8c0.9,0.3,1.9,1.4,2.3,2.4c0.4,1,0,1.5-0.8,1.2c-0.9-0.3-1.9-1.4-2.3-2.4
							C289.7,372,290.1,371.4,291,371.8z"/>
						<path id="XMLID_10328_" class="st9" d="M300.3,366.5c0,0.1,0.1,0.1,0.1,0.2c0.2,1-0.1,2.3-0.6,2.8c-0.6,0.5-1.3,0.1-1.5-1
							c-0.2-1,0.1-2.3,0.6-2.8c0,0,0.1,0,0.1,0c0.1,0.1,0.3,0.1,0.4,0.2C299.7,366.1,300,366.3,300.3,366.5z"/>
					</g>
					<path id="XMLID_10329_" class="st9" d="M294.6,374.9c0,3.7,2.7,8.3,6,10.2c3.3,1.9,6,0.4,6-3.3c0-3.7-2.7-8.3-6-10.2
						C297.3,369.6,294.6,371.1,294.6,374.9z"/>
					<path id="XMLID_10330_" class="st10" d="M298.9,370.9c0.5,0.1,1.1,0.3,1.7,0.7c3.3,1.9,6,6.5,6,10.2c0,1-0.2,1.8-0.6,2.5
						l-5.4-1.1c-2.1-1.8-2.4-3.9-3.6-6.6L298.9,370.9z"/>
					<path id="XMLID_10331_" class="st14" d="M298.8,380.8c-0.4-0.7-0.7-1.5-1-2.4c2.3-0.9,4.4-2.1,6.3-3.7c1,1.4,1.8,3,2.2,4.6
						C303.6,379.4,301.1,379.9,298.8,380.8z"/>
					<path id="XMLID_10332_" class="st15" d="M294.6,377.6c0,2.7,1.9,5.9,4.2,7.3c2.3,1.3,4.2,0.3,4.2-2.4s-1.9-5.9-4.2-7.3
						C296.5,373.9,294.6,374.9,294.6,377.6z"/>
					<path id="XMLID_10333_" class="st12" d="M295.9,379.2c0,1.4,1,3.2,2.3,3.9c1.3,0.7,2.3,0.2,2.3-1.3c0-1.4-1-3.2-2.3-3.9
						C296.9,377.2,295.9,377.8,295.9,379.2z"/>
				</g>
				<path id="XMLID_10334_" d="M312.2,405.1l8.9-5.2c0.1,0,0.2-0.1,0.2-0.1l0.3-0.2l0,0c3.4-2.2,5.5-6.5,5.5-12.6
					c0-12.8-9.1-28.3-20.3-34.8c-5.6-3.2-10.6-3.6-14.3-1.6l0,0l1-0.6l0,0c3.7-2,8.7-1.6,14.3,1.6c11.2,6.5,20.3,22.1,20.3,34.8
					c0,6.1-2.1,10.5-5.5,12.6l0,0l-0.3,0.2c-0.1,0-0.2,0.1-0.2,0.1L312.2,405.1L312.2,405.1z"/>
				<path id="XMLID_10335_" d="M312.2,405.1l4.4-2.5c0.1,0,0.2-0.1,0.3-0.1l0.3-0.2l0,0c3.4-2.2,5.5-6.5,5.5-12.6
					c0-12.8-9.1-28.3-20.3-34.8c-5.6-3.2-10.6-3.6-14.3-1.6l0,0l1-0.6l0,0c3.7-2,8.7-1.6,14.3,1.6c11.2,6.5,20.3,22.1,20.3,34.8
					c0,6.1-2.1,10.5-5.5,12.6l0,0l-0.3,0.2c-0.1,0-0.2,0.1-0.2,0.1L312.2,405.1L312.2,405.1z"/>
			</g>
			<g id="XMLID_10336_">
				<path id="XMLID_10337_" d="M143.6,309l-29.2-49l15.3-8.8l0,0c3.7-2,8.7-1.6,14.3,1.6c11.2,6.5,20.3,22.1,20.3,34.8
					c0,6.1-2.1,10.5-5.5,12.6l0,0l-0.3,0.2c-0.1,0-0.2,0.1-0.2,0.1L143.6,309z"/>
				<path id="XMLID_10338_" class="st5" d="M119.6,263.1l20.7-12c1.2,0.4,2.4,1,3.6,1.7c11.2,6.5,20.3,22.1,20.3,34.8
					c0,2.3-0.3,4.4-0.9,6.2l-15.9,9.2c-1.7-0.5-3.6-1.3-5.4-2.3c-2.1-1.2-4.1-2.7-6-4.4l-15.3-25.7
					C120.1,268,119.7,265.5,119.6,263.1z"/>
				<path id="XMLID_10339_" class="st6" d="M108.8,272.7c0,12.8,9.1,28.3,20.3,34.8c11.2,6.5,20.3,1.4,20.3-11.4
					c0-12.8-9.1-28.3-20.3-34.8C117.9,254.9,108.8,260,108.8,272.7z"/>
				<path id="XMLID_10340_" class="st7" d="M109.6,273.2c0,12.3,8.8,27.2,19.5,33.5c10.8,6.2,19.5,1.3,19.5-10.9
					c0-12.3-8.8-27.2-19.5-33.5C118.3,256,109.6,260.9,109.6,273.2z"/>
				<g id="XMLID_10341_">
					<path id="XMLID_10342_" class="st8" d="M114,275.7c0,9.5,6.8,21.2,15.2,26c8.4,4.8,15.2,1,15.2-8.5c0-9.5-6.8-21.2-15.2-26
						C120.8,262.4,114,266.2,114,275.7z"/>
					<path id="XMLID_10343_" class="st9" d="M115,276.3c0,8.9,6.3,19.7,14.1,24.2c7.8,4.5,14.1,1,14.1-7.9c0-8.9-6.3-19.7-14.1-24.2
						C121.4,263.9,115,267.4,115,276.3z"/>
					<path id="XMLID_10344_" class="st10" d="M129.4,268.5c7.7,4.6,14,15.3,14,24.1c0,1.3-0.1,2.4-0.4,3.4l-10.3,6
						c-1.1-0.3-2.2-0.8-3.4-1.5c-7.7-4.4-13.9-15-14.1-23.8L129.4,268.5z"/>
					<path id="XMLID_10345_" class="st11" d="M137.1,275.7c2.8,3.7,4.8,8.1,5.7,12.4l-17.1,9.9c-3.3-2.9-6.2-6.8-8.1-11L137.1,275.7
						z"/>
					<path id="XMLID_10346_" class="st11" d="M137.1,275.7c2.8,3.7,4.8,8.1,5.7,12.4l-17.1,9.9c-3.3-2.9-6.2-6.8-8.1-11L137.1,275.7
						z"/>
					<path id="XMLID_10347_" class="st12" d="M119.6,276.1c0,7.1,5,15.7,11.2,19.3c6.2,3.6,11.2,0.8,11.2-6.3
						c0-7.1-5-15.7-11.2-19.3C124.6,266.3,119.6,269.1,119.6,276.1z"/>
					<path id="XMLID_10348_" class="st13" d="M121.5,276.6c0,6.1,4.3,13.5,9.6,16.5c5.3,3.1,9.6,0.6,9.6-5.4
						c0-6.1-4.3-13.5-9.6-16.5C125.9,268.1,121.5,270.5,121.5,276.6z"/>
					<g id="XMLID_10349_">
						<path id="XMLID_10350_" class="st9" d="M136.2,275.7c0.1-0.2,0.3-0.3,0.5-0.5c0.6,0.7,1.1,1.5,1.6,2.3c-0.5,0.2-1,0.2-1.4,0
							C136.1,277.1,135.7,276.3,136.2,275.7z"/>
						<path id="XMLID_10351_" class="st9" d="M121.7,281.4c-0.6-0.8-0.5-1.6,0.3-1.6c0.8-0.1,2,0.6,2.6,1.4c0.6,0.8,0.5,1.6-0.3,1.6
							C123.5,282.8,122.3,282.2,121.7,281.4z"/>
						<path id="XMLID_10352_" class="st9" d="M138.6,287.9c-0.2-1,0.3-1.4,1.1-0.9c0.8,0.5,1.7,1.8,1.9,2.8c0.2,1-0.3,1.4-1.1,0.9
							S138.8,288.9,138.6,287.9z"/>
						<path id="XMLID_10353_" class="st9" d="M126.2,270.1c0.3-0.8,1-0.7,1.5,0.2c0.6,0.9,0.8,2.4,0.5,3.2c-0.3,0.8-1,0.7-1.5-0.2
							C126.1,272.3,125.9,270.9,126.2,270.1z"/>
						<path id="XMLID_10354_" class="st9" d="M138.7,281c-0.8-0.7-0.8-1.5-0.1-1.8c0.2-0.1,0.4-0.1,0.6-0.1c0.5,0.9,0.9,1.8,1.3,2.7
							C139.9,281.7,139.2,281.4,138.7,281z"/>
						<path id="XMLID_10355_" class="st9" d="M139.1,293.2c-0.1,0.9-0.8,1-1.5,0.1c-0.7-0.8-1.1-2.3-1-3.2c0.1-0.9,0.8-1,1.5-0.1
							C138.8,290.9,139.3,292.3,139.1,293.2z"/>
						<path id="XMLID_10356_" class="st9" d="M139.3,284.7c-0.5-0.9-0.3-1.6,0.6-1.5c0.4,0.1,0.9,0.3,1.4,0.7
							c0.3,0.9,0.5,1.8,0.6,2.7c0,0,0,0-0.1,0C141,286.5,139.8,285.6,139.3,284.7z"/>
						<path id="XMLID_10357_" class="st9" d="M123.5,286.6c-0.8-0.5-1-1.4-0.3-1.8c0.6-0.5,1.8-0.4,2.6,0.1c0.8,0.5,1,1.4,0.3,1.8
							C125.5,287.2,124.3,287.1,123.5,286.6z"/>
						<path id="XMLID_10358_" class="st9" d="M129.7,292.5c0-1,0.5-2,1.2-2.3c0.7-0.3,1.3,0.3,1.4,1.3c0,1-0.5,2-1.2,2.3
							C130.3,294.1,129.7,293.5,129.7,292.5z"/>
						<path id="XMLID_10359_" class="st9" d="M135.5,291.6c0.4,1,0.3,2.4-0.2,3c-0.5,0.7-1.2,0.4-1.5-0.6c-0.4-1-0.3-2.4,0.2-3
							C134.5,290.3,135.2,290.6,135.5,291.6z"/>
						<path id="XMLID_10360_" class="st9" d="M125.9,289.3c0.3-0.8,1.3-1.4,2.1-1.2c0.8,0.1,1.3,0.9,0.9,1.7
							c-0.3,0.8-1.3,1.4-2.1,1.2C126,290.8,125.6,290.1,125.9,289.3z"/>
						<path id="XMLID_10361_" class="st9" d="M124.6,275.7c-0.8-0.7-1.4-2-1.5-3c-0.1-1,0.5-1.2,1.3-0.6c0.8,0.7,1.4,2,1.5,3
							C125.9,276.1,125.4,276.4,124.6,275.7z"/>
						<path id="XMLID_10362_" class="st9" d="M135.6,273.8c-0.3,0.5-0.8,0.9-1.3,1c-0.8,0.1-1.3-0.6-1.2-1.5c0.1-0.5,0.3-1,0.7-1.3
							C134.3,272.5,135,273.1,135.6,273.8z"/>
						<path id="XMLID_10363_" class="st9" d="M122.4,275.6c0.9,0.3,1.9,1.4,2.3,2.4c0.4,1,0,1.5-0.8,1.2c-0.9-0.3-1.9-1.4-2.3-2.4
							C121.1,275.9,121.5,275.3,122.4,275.6z"/>
						<path id="XMLID_10364_" class="st9" d="M131.7,270.4c0,0.1,0.1,0.1,0.1,0.2c0.2,1-0.1,2.3-0.6,2.8c-0.6,0.5-1.3,0.1-1.5-1
							c-0.2-1,0.1-2.3,0.6-2.8c0,0,0.1,0,0.1,0c0.1,0.1,0.3,0.1,0.4,0.2C131.1,270,131.4,270.2,131.7,270.4z"/>
					</g>
					<path id="XMLID_10365_" class="st9" d="M126,278.8c0,3.7,2.7,8.3,6,10.2c3.3,1.9,6,0.4,6-3.3c0-3.7-2.7-8.3-6-10.2
						C128.7,273.5,126,275,126,278.8z"/>
					<path id="XMLID_10366_" class="st10" d="M130.3,274.8c0.5,0.1,1.1,0.3,1.7,0.7c3.3,1.9,6,6.5,6,10.2c0,1-0.2,1.8-0.6,2.5
						l-5.4-1.1c-2.1-1.8-2.4-3.9-3.6-6.6L130.3,274.8z"/>
					<path id="XMLID_10367_" class="st14" d="M130.1,284.7c-0.4-0.7-0.7-1.5-1-2.4c2.3-0.9,4.4-2.1,6.3-3.7c1,1.4,1.8,3,2.2,4.6
						C135,283.3,132.5,283.8,130.1,284.7z"/>
					<path id="XMLID_10368_" class="st15" d="M126,281.5c0,2.7,1.9,5.9,4.2,7.3c2.3,1.3,4.2,0.3,4.2-2.4c0-2.7-1.9-5.9-4.2-7.3
						C127.9,277.8,126,278.8,126,281.5z"/>
					<path id="XMLID_10369_" class="st12" d="M127.3,283.1c0,1.4,1,3.2,2.3,3.9c1.3,0.7,2.3,0.2,2.3-1.3c0-1.4-1-3.2-2.3-3.9
						C128.3,281.1,127.3,281.7,127.3,283.1z"/>
				</g>
				<path id="XMLID_10370_" d="M143.6,309l8.9-5.2c0.1,0,0.2-0.1,0.2-0.1l0.3-0.2l0,0c3.4-2.2,5.5-6.5,5.5-12.6
					c0-12.8-9.1-28.3-20.3-34.8c-5.6-3.2-10.6-3.6-14.3-1.6l0,0l1-0.6l0,0c3.7-2,8.7-1.6,14.3,1.6c11.2,6.5,20.3,22.1,20.3,34.8
					c0,6.1-2.1,10.5-5.5,12.6l0,0l-0.3,0.2c-0.1,0-0.2,0.1-0.3,0.1L143.6,309L143.6,309z"/>
				<path id="XMLID_10371_" d="M143.6,309l4.4-2.5c0.1,0,0.2-0.1,0.2-0.1l0.3-0.2l0,0c3.4-2.2,5.5-6.5,5.5-12.6
					c0-12.8-9.1-28.3-20.3-34.8c-5.6-3.2-10.6-3.6-14.3-1.6l0,0l1-0.6l0,0c3.7-2,8.7-1.6,14.3,1.6c11.2,6.5,20.3,22.1,20.3,34.8
					c0,6.1-2.1,10.5-5.5,12.6l0,0l-0.3,0.2c-0.1,0-0.2,0.1-0.3,0.1L143.6,309L143.6,309z"/>
			</g>
			<path id="XMLID_10372_" class="st0" d="M346.6,372.7l-0.6,22l-7.9,10.7v0.9c-1.6,1-7.3-2.4-14.4-5c-2.4-0.9-4-1.5-4-1.5
				c0.2-0.9,0.4-1.8,0.5-2.7c0.1-1,0.2-2,0.2-3.1c0-0.8,0-1.5-0.1-2.2c-1-13.3-10.5-28.8-22-35.4c-5.3-3.1-10.2-3.8-14-2.4
				c-4.4,1.6-7.3,5.9-7.9,12.5c-0.1,0.7-0.1,1.5-0.1,2.2c0,2.1,0.3,4.3,0.7,6.6l-2.9-1.7l-103.6-63.2l-6.1-2l-8.9-2.9l-4-1.5
				c0.4-1.8,0.8-3.8,0.8-6.1c0-0.6-0.1-1.2-0.1-1.9c-0.8-13.5-10.3-29.1-22-35.8c-8.7-5-16.3-3.6-19.9,2.8c-0.6,0.1-1.1,0.5-1.4,1.1
				c-1.3,2.5-1,5.2-1,7.9c0,2.4,0.6,5,0.9,7.3c-3.3-1.8-15.5-8.6-18.7-12c-2.9-3.1-5-7.2-6.5-10.9c-2.2-5.2-6-5.4-6-5.4l-4-9.3
				v-23.6c0-1,0.3-1.5,0.8-1.9c0.1-0.1,0.3-0.1,0.4-0.2c0.9-0.3,2.1-0.1,3.5,0.1c2.7,0.4,5.9,1,7.7-0.9c0.3-0.3,0.7-0.7,1.1-1
				l0.1,0.1l4.7,2.7L240.1,283l0.4,0.2c0.2,0.1,0.4,0.3,0.7,0.4c4.9,2.7,14.2,7.5,15.4,6.3l94.2,70.3L346.6,372.7z"/>
			<path id="XMLID_10373_" class="st0" d="M304.4,348.7l22.7,13l20.8-0.5c0,0-27.3-26.9-35-35.8l-7.1,6L304.4,348.7z"/>
			<path id="XMLID_10374_" class="st0" d="M304.4,348.7c0,0,17.6,8.1,24.4,11c5.3,2.3,17.1,19.9,17.1,19.9l2-18.4l-35-35.9l-7.1,6
				L304.4,348.7z"/>
			<path id="XMLID_10375_" class="st16" d="M106.2,275.4c-0.2-2.3-0.4-5.4,0.4-7.6c0.1-0.2,1.2-4.9,1.2-5
				c-26.2-11.5-33.8-20.1-34.2-20.9c0.1,0.5,4,18.3,6.8,21.4c2.8,3,21.7,12.5,26.1,15C106.4,277.2,106.3,276.3,106.2,275.4z"/>
			<path id="XMLID_10378_" class="st17" d="M418.9,352.8l-0.1,0.1c-0.3,0.2-3.8,9.8-17.8,19.5c-11.1,7.7-57.9,15.7-66.1,18.5
				l-7.2,12.1c0,0,5.5,3.6,10.4,3.5c14.7-0.3,48.9-13.3,62-21.3c21.3-12.9,23.3-26.3,23.3-27l-0.6-13.2L418.9,352.8z"/>
			<path id="XMLID_10379_" class="st16" d="M276.3,368.7c0,2.1,0.3,4.3,0.7,6.6l-2.9-1.6l-118.6-68.1l-4-1.5
				c0.5-1.8,0.8-3.8,0.8-6.1c0-0.6-0.1-10.1-0.1-10.8l124.2,70.4C276.2,358.3,276.3,367.9,276.3,368.7z"/>
			<path id="XMLID_10380_" class="st18" d="M133.3,255.5c-10.4-6-21.1-2.9-25,5c1.6-1.2,5.1-3.4,6.6-4.5c1.9-1.4,3.8-1.2,5.3-0.1
				c3.6-0.8,4.8,0.4,9.5,3.1c12.1,7,25.1,23.4,25.1,37.2c0,1.1-0.1,2.1-0.2,3.1c-0.1,1,1,5.4,0.8,6.3c0,0,1.7-2.3,2.5-3.5
				c0.3-1.5,0.6-1.6,0.6-3.3C158.6,282.8,147.3,263.5,133.3,255.5z"/>
			<path id="XMLID_10381_" class="st16" d="M155.9,300.7c0,1.7-0.1,3.3-0.4,4.8c-2.4-0.9-4-1.5-4-1.5c0.2-0.9,0.4-1.8,0.5-2.7
				c0.1-1,0.2-2,0.2-3.1c0-13.8-9.9-30.7-22-37.7c-5.3-3.1-10.2-3.7-14-2.3c-4.9,1.8-8,6.9-8,14.7c0,2.1,0.3,4.3,0.7,6.6l-2.9-1.6
				c-0.3-2.1-0.5-4.1-0.5-6.1c0-15.8,11.3-22.2,25.2-14.1C144.6,265.5,155.9,284.9,155.9,300.7z"/>
			<path id="XMLID_10382_" class="st18" d="M407.6,362.1c-11.9,9.2-30.4,20.1-60.1,22.2c-3.9,0.3-9.2-0.3-15-2.2
				c-5.8-13-16.3-25.6-26.7-31.6c-6.8-3.9-21.5-6.4-25.8-1.2c-3.3,4-4.8,6.9-6.2,13.7c7.1-16.9,18.8-11.1,28.5-5.5
				c6.1,3.5,11.5,9.6,15.3,16.4c-2.7-1.9,3.4,15.2,3.4,15.2s0.8,0.2,2.1,0.4c0.3,1.9,0.5,3.8,0.5,5.6c0,2.3,0.4,4.3-0.1,6.1l4,1.5
				c0,0,1.4-1.8,3-3.9c3.4-4.5,16.6-5.9,17.3-5.9c14.2-1.2,42.9-15.3,53-20.6c18.5-9.8,19.5-20.9,19.8-21.1l3.3-4.7l1.2,9.9
				l-0.3-16.6C423.9,344.6,420.9,351.8,407.6,362.1z"/>
			<path id="XMLID_10383_" class="st5" d="M324,396.5c0,1.7-0.1,3.3-0.4,4.8c-2.4-0.9-4-1.5-4-1.5c0.2-0.9,0.4-1.8,0.5-2.7
				c0.1-1,0.2-2,0.2-3.1c0-13.8-9.9-30.7-22-37.7c-5.3-3.1-10.2-3.7-14-2.3c-4.9,1.8-8,6.9-8,14.7c0,2.1,0.3,4.3,0.7,6.6l-2.9-1.6
				c-0.3-2.1-0.5-4.1-0.5-6.1c0-15.8,11.3-22.2,25.2-14.1C312.8,361.4,324,380.7,324,396.5z"/>
			<path id="XMLID_10384_" class="st2" d="M396.7,277l-19.1-47.5l-83.7,48.3h0l19.1,47.5l0,0l0,0c1.7,3,21.9-5.4,45-18.7
				C381.1,293.3,398.4,280,396.7,277z"/>
			<path id="XMLID_10385_" class="st19" d="M299.1,291c0.2-0.1,0.6-0.2,1-0.4l-0.9,0.5L299.1,291z"/>
			<path id="XMLID_10386_" class="st19" d="M336.6,269.5l-0.5,0.3l-0.5,0.3l-0.1-0.1C335.7,269.9,336.1,269.7,336.6,269.5z"/>
			<g id="XMLID_10387_">
				<g id="XMLID_10388_">
					<g id="XMLID_10389_">
						<linearGradient id="XMLID_3_" gradientUnits="userSpaceOnUse" x1="354.6312" y1="313.698" x2="321.7796" y2="260.2726">
							<stop  offset="8.374380e-02" style="stop-color:#597890"/>
							<stop  offset="0.4241" style="stop-color:#4D6476"/>
							<stop  offset="0.9409" style="stop-color:#3C4852"/>
						</linearGradient>
						<path id="XMLID_10390_" class="st20" d="M368.8,273.8l2.6-1l2.7-1.1l0.6-0.2l-29-20.9l-0.5,0.3l-35.4,20.5c0,0,0,0,0,0
							l-0.9,0.5l-11.8,6.8l12.6,36.3l5,8.6l0,0h0.1c0.2,0,0.5,0,0.8-0.1c0.2,0,0.4,0,0.7-0.1c1-0.2,2.3-0.6,3.9-1.1
							c0.5-0.2,1-0.3,1.5-0.5c1-0.4,2.2-0.8,3.4-1.3c0.1,0,0.1-0.1,0.2-0.1c0.5-0.2,1-0.4,1.5-0.6c0,0,0.1,0,0.1,0
							c0.8-0.4,1.7-0.7,2.6-1.1c0.1-0.1,0.3-0.1,0.5-0.2c1.1-0.5,2.3-1,3.5-1.6c2.1-1,4.4-2.1,6.8-3.3c0.5-0.2,1-0.5,1.5-0.8
							l-10.4-10.6l16-9.4l2.3-1.3l10.9,11c6.7-4,12.5-7.7,17.3-11l-14.4-14.6L368.8,273.8z"/>
						<linearGradient id="XMLID_4_" gradientUnits="userSpaceOnUse" x1="388.2703" y1="291.5234" x2="377.4215" y2="224.1607">
							<stop  offset="8.374380e-02" style="stop-color:#597890"/>
							<stop  offset="0.4241" style="stop-color:#4D6476"/>
							<stop  offset="0.9409" style="stop-color:#3C4852"/>
						</linearGradient>
						<path id="XMLID_10391_" class="st21" d="M389.9,265.6l-13.7-33.5L371,236l4.6,2.6l7.1,26.7l-0.1,1.9l-0.1,1.2l0.3-0.1l0.9,0
							l10,10.2c0.3-0.4,0.5-0.7,0.7-1L389.9,265.6z"/>
					</g>
					<path id="XMLID_10392_" class="st22" d="M388.5,267.6l-2.6,0.9l-2.2-0.1l-0.9,0l-0.3,0.1l-7.7,3l-0.6,0.2l-2.7,1.1l-2.6,1
						l-5.6,3.1l-8.8,4.9l-2,4l-2.9,5.7l-0.1,0l-2.3,1.3l-16,9.4L309.7,315l5,8.6c0.1,0,0.1,0,0.1,0h0c0.2,0,0.5,0,0.8-0.1
						c0.2,0,0.4,0,0.7-0.1c1-0.2,2.3-0.6,3.9-1.1c0.5-0.2,1-0.3,1.5-0.5c1-0.4,2.2-0.8,3.4-1.3c0,0,0.1-0.1,0.2-0.1h0
						c0.5-0.2,1-0.4,1.5-0.6c0,0,0.1,0,0.1,0c0.8-0.4,1.7-0.7,2.6-1.1c0.1-0.1,0.3-0.1,0.5-0.2c1.1-0.5,2.3-1,3.5-1.6
						c2.1-1,4.4-2.1,6.8-3.3c0.5-0.2,1-0.5,1.5-0.8h0c4.7-2.4,9.8-5.1,15.2-8.3c1.2-0.7,2.4-1.4,3.5-2c6.7-4,12.5-7.7,17.3-11
						c8.6-5.9,14.1-10.5,16-12.9c0.3-0.4,0.5-0.7,0.7-1L388.5,267.6z"/>
					<linearGradient id="XMLID_5_" gradientUnits="userSpaceOnUse" x1="359.6699" y1="273.9009" x2="373.8559" y2="228.1077">
						<stop  offset="0" style="stop-color:#8AA3C6"/>
						<stop  offset="0.9409" style="stop-color:#53607B"/>
					</linearGradient>
					<path id="XMLID_10393_" class="st23" d="M375.6,238.6L371,236l-24.7,14.3c0,0,0,0-0.1,0l-0.5,0.3l29,20.9l7.7-3l0.1-1.2
						l0.1-1.9L375.6,238.6z"/>
				</g>
				<g id="XMLID_10394_">
					<path id="XMLID_10395_" class="st24" d="M250.7,344.3v-51.2l3.3-7.2l12.5-19.6l35.5,44.9l-3.2,7.8l-1,26.7l-10.8-5.1L268,354.5
						L250.7,344.3z M296.7,343.8l0.9-25l3-7.4l-34-43l-11.6,18l-2.5,7v50.4L268,353l19.1-13.8L296.7,343.8z"/>
				</g>
				<polygon id="XMLID_10398_" class="st25" points="264.2,260.8 293.9,277.8 313,325.4 251.4,291.5 				"/>
				<linearGradient id="XMLID_6_" gradientUnits="userSpaceOnUse" x1="263.616" y1="336.947" x2="297.9604" y2="246.5231">
					<stop  offset="8.374380e-02" style="stop-color:#305776"/>
					<stop  offset="0.4391" style="stop-color:#29425A"/>
					<stop  offset="0.9409" style="stop-color:#1F2836"/>
				</linearGradient>
				<polygon id="XMLID_10399_" class="st26" points="293,278.7 286.9,275.2 264.2,262.2 255.3,291 285.6,307.7 299.4,315.9 
					300.1,305.4 				"/>
			</g>
			<path id="XMLID_10400_" class="st27" d="M377.6,229.6l-1.3-0.7l0.1,0l-39.7-23.2l-83.9,48.5l41,23.8c0,0,20-10.3,43.1-23.6
				C359.9,241,377.6,229.5,377.6,229.6z"/>
			<path id="XMLID_10401_" class="st28" d="M331.8,181.1l-1.3-0.7l0.1,0L177.4,91l-83.9,48.5l154.4,90
				C247.9,229.5,331.8,181,331.8,181.1z"/>
			<polygon id="XMLID_10402_" class="st25" points="261,259 251.4,291.5 255.5,291.2 264.2,260.8 			"/>
			<polygon id="XMLID_10403_" class="st25" points="252.8,254.2 241.3,283.7 251.4,291.5 261,259 			"/>
			<path id="XMLID_10404_" class="st29" d="M377.5,230.5l-3.7,2.2l-66,39.3l-13.2,7.8c0,0-8.7-26.1-46.8-50.3l83.9-48.4l0.2,0
				l-0.3,0.2c3.6,1.2,7.1,2.9,10.3,5c0,0,0,0,0.1,0.1C363.1,199.7,376.1,227.4,377.5,230.5z"/>
			<polygon id="XMLID_10405_" class="st25" points="247.9,229.5 252.8,254.2 241.3,283.7 73.6,189.4 93.5,139.5 			"/>
			<g id="XMLID_10409_">
				<g>
					<polygon id="XMLID_10_" class="st0" points="248.8,317 78.3,220.9 76.7,219.9 74.2,218.6 73.6,218.2 73.6,189.3 240.6,283.2 
						240.6,283.3 					"/>
				</g>
			</g>
			<path id="XMLID_10411_" class="st24" d="M254.7,306.5l8.2,4.8v-1.8c0-1.6,0.3-2.5-1.4-3.4c0,0-2.5-1.7-4.8-2.9
				C254.6,302.1,254.7,306.5,254.7,306.5z"/>
			<path id="XMLID_10412_" class="st30" d="M417.9,356.9l-0.1,0.1c-0.3,0.2-6.3,7.1-18.5,15.5c-9.7,6.7-42.7,18.1-58.9,15.9
				l-18.5-4.5l1.7,17.5c0,0,13.9,5.9,18.2,6.1c17.9,0.9,48.1-16.3,59.5-23.2c13.3-8,20.9-13.8,22.8-19.4c1.8-5.2,1.3-2.9,1.3-8.4
				l-0.8-14.1L417.9,356.9z"/>
			<g id="XMLID_10413_">
				<path id="XMLID_10414_" class="st31" d="M406.8,380.4c1.1-0.6,2-2.1,2-3.2v-5.7c0-1.1-0.9-1.5-2-0.9l-15.1,8.7
					c-1.1,0.6-2,2.1-2,3.2v5.7c0,1.1,0.9,1.5,2,0.9L406.8,380.4z"/>
				<path id="XMLID_10415_" class="st32" d="M406.8,379.3c1.1-0.6,2-2.1,2-3.2v-5.7c0-1.1-0.9-1.5-2-0.9l-15.1,8.7
					c-1.1,0.6-2,2.1-2,3.2v5.7c0,1.1,0.9,1.5,2,0.9L406.8,379.3z"/>
				<path id="XMLID_10416_" class="st32" d="M391.7,387.6l15.1-8.7c0.9-0.5,1.7-1.7,1.7-2.6v-5.7c0-0.9-0.7-1.2-1.7-0.7l-15.1,8.7
					c-0.9,0.5-1.7,1.7-1.7,2.6v5.7C390,387.8,390.8,388.1,391.7,387.6z"/>
				<g id="XMLID_10417_">
					<path id="XMLID_10418_" class="st33" d="M390,381.1c0-0.9,0.7-2.1,1.6-2.6l15.1-8.7c0.9-0.5,1.6-0.2,1.6,0.7L390,381.1z"/>
					<path id="XMLID_10419_" class="st33" d="M408.4,376.3c0,0.9-0.7,2.1-1.6,2.6l-15.1,8.7c-0.9,0.5-1.6,0.2-1.6-0.7L408.4,376.3z"
						/>
				</g>
			</g>
			<g id="XMLID_10420_">
				<path id="XMLID_10421_" class="st31" d="M371.3,390.5v3.8c0,0.7-0.4,1.3-1,1.6l-6.9,2.7c-0.6,0.2-1.3-0.3-1.3-0.9v-0.5l5.8-2.2
					c0.6-0.2,1-0.8,1-1.6V390l1.1-0.4C370.6,389.4,371.3,389.9,371.3,390.5z"/>
				<path id="XMLID_10422_" class="st34" d="M368.9,390v3.3c0,0.7-0.4,1.3-1,1.6l-5.8,2.2v-3.3c0-0.7,0.4-1.3,1-1.6L368.9,390z"/>
			</g>
			<g id="XMLID_10423_">
				<path id="XMLID_10424_" class="st31" d="M421.8,360.5v3.4c0,0.6-0.2,1.2-0.6,1.5l-4.1,3.5c-0.3,0.3-0.7-0.1-0.7-0.6v-0.4
					l3.5-2.9c0.4-0.3,0.6-0.9,0.6-1.5v-3l0.7-0.6C421.4,359.6,421.8,359.9,421.8,360.5z"/>
				<path id="XMLID_10425_" class="st34" d="M420.4,360.4v3c0,0.6-0.2,1.2-0.6,1.5l-3.5,2.9v-3c0-0.6,0.2-1.2,0.6-1.6L420.4,360.4z"
					/>
			</g>
			<path id="XMLID_10426_" class="st18" d="M422.5,337.7c0,0,2,1.7,2.4,2.6c1.3,3.4-6.9,16.6-6.9,16.6l-1.2-2.9
				C416.7,354,423,343.5,422.5,337.7z"/>
			<g id="XMLID_10427_">
				<path id="XMLID_10428_" class="st35" d="M78.4,207.2v9l-0.1,4.7v15.6l-0.1-0.1c-0.4,0.4-0.9,0.9-1.3,1.3
					c-1.2,1.3-2.3,1.7-3.3,1.7v-38.7C74.8,202.1,78.1,207.3,78.4,207.2z"/>
				<path id="XMLID_10429_" class="st36" d="M77,207.4l-0.7,7.5l-2.7-7.2v-6.8C74.8,202.1,77,207.4,77,207.4z"/>
				<path id="XMLID_10430_" class="st36" d="M76.7,217.3l-0.1,2.6l-0.1,10.8c0,2.4-1.1,4.5-2.9,5.8v-14.2l0.4,0.3l0.3-4l0.2-2.2
					v-0.4l0.4,0.3L76.7,217.3z"/>
				<polygon id="XMLID_10431_" class="st37" points="74.4,215.9 74.4,216.4 74.2,218.6 74,222.6 73.6,222.3 73.6,213.1 				"/>
			</g>
			<path id="XMLID_10432_" class="st25" d="M254.1,233.3l-6.2-3.8l-154.4-90L86,158.2l166.7,96l40.9,23.8l0.1-1.1
				C291.8,272.6,277.4,244.5,254.1,233.3z"/>
			<path id="XMLID_10434_" class="st38" d="M338.7,350.2c-1-0.7-2.2-1.3-3.2-1c-1.9,0.6-1.1,3.6-0.7,4.9c0.7,2.5,1.7,4.8,2.9,7.1
				c1.5,3.1,3.2,6.3,6,8.4c1,0.7,1.8,1.5,3,2.1c1.2,0.5,2.6,0.9,3.9,1.2c3.5,0.8,5.9-1.5,9.1-2.2c1.5-0.3,3.1-0.1,4.6,0
				c1.6,0.1,2.9-0.2,4.4-0.6c1.3-0.4,3.8-1.6,3.7-3.2c0-0.8-0.4-1.5-0.8-2.1c-0.5-0.9-1-1.7-1.5-2.6c-0.4-0.7-0.8-1.4-1.4-2
				c-1.3-1.4-3.8-2.5-5.7-2c-0.9,0.2-1.9,0.5-2.9,0.7c-2.3,0.4-4.7,0.8-7,0.5c-3.4-0.4-5.1-2.2-7.7-4.4c-1.6-1.3-3.3-2.2-4.9-3.5
				C339.9,351.1,339.3,350.6,338.7,350.2z"/>
			<path id="XMLID_10435_" class="st39" d="M367.2,364.2l4.6,1.1c-0.1-0.2-0.2-0.4-0.3-0.6c-0.5-0.9-1-1.7-1.5-2.6
				c-0.4-0.7-0.8-1.4-1.4-2c-1.3-1.4-3.8-2.5-5.7-2c-0.9,0.2-1.9,0.5-2.9,0.7c-2.3,0.4-4.7,0.8-7,0.5c-3.4-0.4-5.1-2.2-7.7-4.4
				c-1.6-1.3-3.3-2.2-4.9-3.5c-0.4-0.3-1-0.8-1.6-1.2c-1-0.7-2.2-1.3-3.2-1c-0.6,0.2-1,0.7-1.1,1.3l-0.1,1c0,0,0,0,0,0l9.5,10.1
				l5.6,7l3.9-3.4l4.9-1.2l3.7,3.1L367.2,364.2z"/>
			<path id="XMLID_10436_" class="st38" d="M422.4,335.4c-0.4,0.8-1,1.3-1.3,2.1c-0.2,0.8-0.1,1.7-0.5,2.5c-0.4,1-1.1,1.3-1.9,1.9
				c-1.3,0.9-2.5,0.2-2.8-1.2c-0.5-2.4-0.6-4.8-0.5-7.1c0-0.4,0.1-0.8,0.1-1.2c0.4-2.9,3.3-4.4,4.1-7.2c0.6-2,0.1-3.5-0.1-5.5
				c-0.1-0.8,0.2-1.6,0.6-2.3c0.5-0.7,0.8,0.2,0.9,0.6c0.7,1.9,1.1,3.9,1.4,6c0.2,1.5,0.4,3,0.6,4.5
				C423.5,330.5,423.3,333.5,422.4,335.4z"/>
			<path id="XMLID_10437_" class="st40" d="M412.4,335.8c0.5-0.4,1-0.6,1.5-0.2c0.2,0.2,0.3,0.6,0.3,0.9c0.5,4.2,0.7,9-0.2,13.1
				c-0.8,3.5-2,6.7-4.7,9.1c-3,2.6-6.8,5.1-10.2,7.2c-7.3,4.5-15.3,7.3-17,7.6c-2.7,0.4-6-1.8-8.3-7.3c-0.9-2.2-2-5.2-1.4-7.6
				c0.4-1.9,2.8-2.3,4.4-2.7c1.3-0.3,2.5-0.8,3.7-1.3c5-2,10.4-3.6,15.1-6.3c4.2-2.4,8.1-5.2,11.9-8.2c1.3-1,2.5-2,3.8-3.1
				C411.5,336.7,411.9,336.2,412.4,335.8z"/>
			<path id="XMLID_10438_" class="st1" d="M412.7,341.7c0,0.8,0,1.6,0,2.4c0,1.5-0.1,2.9-0.4,4.3c-0.1,0.3-0.1,0.6-0.2,0.9
				c-0.2,0.7-0.4,1.4-0.7,2.1c-0.9,2.2-1.6,4.3-3.5,6l-0.4,0.3c-2.9,2.5-6.5,4.8-9.6,6.7c-7.1,4.4-15,7.2-16.3,7.4
				c-0.1,0-0.3,0-0.4,0c-1.1,0-2.8-0.9-4.2-3c-0.4-0.4-0.6-0.9-0.9-1.5c-0.3-0.5-0.6-1.1-0.8-1.7c-0.1-0.2-0.3-0.6-0.4-1
				c-0.2-0.6-0.5-1.3-0.7-2c-0.3-1.1-0.5-2.4-0.2-3.5c0.1-0.6,1.5-0.9,2.5-1.2l0.6-0.2c1.3-0.4,2.6-0.9,3.9-1.4
				c1.4-0.6,2.8-1.1,4.3-1.6c3.7-1.4,7.6-2.8,11-4.8c3.8-2.2,7.8-4.9,12.1-8.4c1.3-1,2.6-2,3.8-3.1c0.1-0.1,0.1-0.1,0.2-0.2
				C412.6,339.2,412.7,340.4,412.7,341.7z"/>
			<path id="XMLID_10439_" class="st41" d="M346,359.2c-0.9-2.4-5.7-7.8-8.5-7.6c-2.4,0.2-0.4,4.4,0.2,5.7c2,4.2,4.6,8,7.7,11.4
				c0.1,0.1,0.3,0.3,0.5,0.3c0.4,0,0.6-0.5,0.6-0.9c0.1-2.2,0.1-4.3,0-6.5C346.4,360.8,346.3,360,346,359.2z"/>
			<path id="XMLID_10440_" class="st18" d="M337.9,326.7l-1.9-2c-0.9-0.9-0.6-2.5,0.5-3l15.5-7.4c1.3-0.6,2.9-0.4,3.9,0.7l1.9,2
				c0.9,0.9,0.6,2.5-0.5,3l-15.5,7.4C340.5,328,338.9,327.7,337.9,326.7z"/>
			<path id="XMLID_10441_" class="st18" d="M379.2,303l-1.4-1.6c-0.7-0.8-0.6-2.1,0.3-2.7l10.5-7.7c1.6-1.2,3.9-0.7,5,1l0.9,1.4
				c0.5,0.8,0.3,1.9-0.5,2.5l-10.1,7.7C382.4,304.6,380.4,304.4,379.2,303z"/>
			<polygon id="XMLID_10442_" class="st18" points="298.8,341.4 87,219.3 86,219.8 297.7,345.7 298.8,345.2 			"/>
			<polygon id="XMLID_10443_" class="st42" points="297.7,341.9 86,219.8 86,223.8 297.7,345.7 			"/>
			<path id="XMLID_10445_" class="st43" d="M361.4,365.9c0-1.8,1.3-4.1,2.8-5c0,0,0.1,0,0.1-0.1l1.6-0.3c0.7,0.2,1.2,0.9,1.2,1.9
				c0,1.8-1.3,4.1-2.8,5C362.7,368.4,361.4,367.7,361.4,365.9z"/>
			<path id="XMLID_10446_" class="st43" d="M349.1,367.4c0-2.2,1.5-5,3.5-6.1c0,0,0.1,0,0.1-0.1l2-0.4c0.9,0.2,1.5,1.1,1.5,2.4
				c0,2.2-1.5,5-3.5,6.1C350.7,370.5,349.1,369.6,349.1,367.4z"/>
			<path id="XMLID_10447_" class="st44" d="M422.6,323.9c-0.3,0.6-0.7,0.3-1.1,0.5c-0.5,0.3-0.8,1.3-1,1.8c-0.3,0.7-0.6,1.4-1,2.1
				l0.5,2c0,0-2.5,4.9-2.5,5c-0.1,0.3-1.5-1.3-1.6-1.5l-0.3-0.3c0-0.4,0.1-0.8,0.1-1.2c0.4-2.9,3.3-4.4,4.1-7.2
				c0.5-1.8,0-3.4-0.1-5.2c0-1.1,0-2.1,0-3.2c0-0.9-0.2-1.8-0.2-2.8c0,0,0.4,0.6,0.5,0.8c0.2,0.4,0.4,0.8,0.5,1.3
				c0.4,0.9,0.7,1.8,1,2.7c0.3,0.8,0.5,1.7,0.6,2.5C422.3,322.1,422.6,323.1,422.6,323.9z"/>
			<path id="XMLID_10448_" class="st43" d="M420.1,331.4c0,1.4-0.7,3.1-1.6,3.8c-0.9,0.7-1.6,0.2-1.6-1.2c0-1.4,0.7-3.1,1.6-3.8
				C419.4,329.4,420.1,330,420.1,331.4z"/>
			<path id="XMLID_10449_" class="st43" d="M422.8,325c0,1.4-0.7,3.1-1.6,3.8c-0.9,0.7-1.6,0.2-1.6-1.2c0-1.4,0.7-3.1,1.6-3.8
				C422.1,323,422.8,323.6,422.8,325z"/>
			<path id="XMLID_10450_" class="st40" d="M412.4,341.3c-1.2,1.1-2.5,2.2-3.8,3.3c-3.8,3.2-7.8,6.2-12.1,8.8
				c-4.7,2.9-10.2,4.8-15.3,7.1c-1.2,0.6-2.5,1.1-3.8,1.5c-1.1,0.4-2.5,0.7-3.4,1.5c0.2,0.7,0.5,1.4,0.7,2c0-0.1,0-0.1,0-0.2
				c0.1-0.6,1.5-1,2.6-1.3l0.7-0.2c1.3-0.4,2.6-1,3.9-1.6c1.4-0.6,2.9-1.3,4.4-1.9c3.8-1.6,7.6-3.2,11.2-5.4c3.9-2.4,7.9-5.3,12.3-9
				c1.2-0.9,2.2-1.8,3.3-2.8c0-0.8,0-1.6,0-2.4C412.8,340.9,412.6,341.1,412.4,341.3z"/>
			<path id="XMLID_10452_" class="st40" d="M410,349.6c-3.8,3.2-7.9,6.2-12.1,8.8c-4.7,2.9-10.2,4.8-15.3,7.1
				c-1.2,0.5-2.4,1.1-3.7,1.5c-0.9,0.3-2,0.6-2.9,1.1c0.3,0.6,0.6,1,0.9,1.5c0.5-0.2,1.2-0.5,1.8-0.7l0.7-0.2c1.3-0.5,2.6-1,3.9-1.6
				c1.4-0.6,2.9-1.2,4.4-1.8c3.7-1.6,7.6-3.2,11.2-5.4c3.9-2.4,7.9-5.3,12.3-9c0.2-0.2,3.2-1.6,1.9-1.1c0.3-0.7-0.8-0.9-0.6-1.7
				c0.1-0.3,0.1-0.6,0.2-0.9C411.8,348.1,410.9,348.9,410,349.6z"/>
			<path id="XMLID_10454_" class="st3" d="M307.9,272l-13.2,7.8c0,0-8.7-26.1-46.8-50.3c0,0,36.8,2.4,57.9,39
				C306.6,269.7,307.2,270.9,307.9,272z"/>
			<path id="XMLID_10455_" class="st3" d="M377.5,230.5l-3.7,2.2c-0.5,0.1-1,0.2-1.6,0.3c0,0-11.3-32-30.1-46.6
				C363.1,199.7,376.1,227.4,377.5,230.5z"/>
			<path id="XMLID_10456_" class="st43" d="M393.8,359.5c0-2.9,2-6.4,4.5-7.9c0.1,0,0.1-0.1,0.2-0.1l2.5-0.5
				c1.1,0.3,1.9,1.4,1.9,3.1c0,2.9-2,6.4-4.5,7.9C395.9,363.6,393.8,362.4,393.8,359.5z"/>
			<g>
				<path class="st45" d="M161.6,211.3l-0.2,7.3l-2.3-1.2l-0.2,4.8L153,219l0.2-4.8l-10.2-5.4l0.2-7.3l7.5-15.5l6.6,3.5l-7.6,15.5
					l3.7,1.9l0.2-5.6l5.9,3.1l-0.2,5.6L161.6,211.3z"/>
				<path class="st45" d="M174,206.9c2.2,1.2,4,3.3,5.4,6.3c1.4,3,2.1,6.2,2,9.6c-0.1,3.4-0.9,5.8-2.5,7.2c-1.6,1.5-3.4,1.6-5.7,0.4
					c-2-1.1-3.5-2.8-4.6-5.2l-0.4,11l-5.5-2.9l1-31.2l5.5,2.9l-0.1,2C170.4,205.9,172,205.8,174,206.9z M169.8,220.2
					c0.6,1.2,1.4,2.1,2.5,2.7c1,0.5,1.9,0.5,2.6,0c0.7-0.6,1-1.6,1.1-3c0-1.5-0.2-2.8-0.8-4c-0.6-1.2-1.4-2.1-2.5-2.7
					c-1-0.5-1.9-0.5-2.6,0c-0.7,0.6-1,1.6-1.1,3C168.9,217.6,169.1,218.9,169.8,220.2z"/>
				<path class="st45" d="M183.4,235.1l1.1-32.5l5.5,2.9l-1.1,32.5L183.4,235.1z"/>
			</g>
		</g>
		<path id="XMLID_23373_" class="st18" d="M300.9,311.5c-0.5-3.3,0.3-8.4-2.4-10.9c-0.8-0.7-1.8-0.6-2.8-0.6c-1.2,0-2.3,0-3.5-0.1
			c-1.3-0.1-2.5,0.6-3.6,1.5c-2.2,1.8-1.4,5.9-1.2,8.4c0.3,3.1,0.7,6.2,1.1,9.3c0.2,1.6,0.3,3.2,0.9,4.7c1,2.5,4,3,6.4,3
			c1.3,0,2.7-0.2,3.6-1.2c0.7-0.8,0.8-1.6,0.7-2.5c-0.1-1.3-0.1-2.6-0.1-3.9c0-0.3,0-0.7,0.1-1c0-0.1,0.1-0.2,0.2-0.3
			c0.1-0.1,0.3-0.1,0.4-0.1c1.1,0.1,2,1,2.9,1.4c0.9,0.5,1.9,1.1,3,0.8c0.1,0,0.3-0.1,0.4-0.2c0.1-0.1,0.1-0.3,0.2-0.4
			c0.5-2.4,0-4.7-1.6-6.6c-1.1-1.4-2.6-1.2-4.2-1.1c-0.1,0-0.1,0-0.2,0c-0.1,0-0.2,0-0.2,0C300.9,311.7,300.9,311.6,300.9,311.5z"/>
	</g>
</g>
</svg>
