<?xml version="1.0" encoding="utf-8"?>
<!-- Generator: Adobe Illustrator 24.1.0, SVG Export Plug-In . SVG Version: 6.00 Build 0)  -->
<svg version="1.1" id="Layer_1" xmlns="http://www.w3.org/2000/svg" xmlns:xlink="http://www.w3.org/1999/xlink" x="0px" y="0px"
	 viewBox="0 0 500 500" style="enable-background:new 0 0 500 500;" xml:space="preserve">
<style type="text/css">
	.st0{fill:#5A9EFA;}
	.st1{fill:#0054B3;}
	.st2{fill:#2F394B;}
	.st3{fill:#2F74E0;}
	.st4{fill:#2B7BCF;}
	.st5{fill:#211E1E;}
	.st6{fill:#1F1F1F;}
	.st7{fill:#2A2A2A;}
	.st8{fill:#1D1D1D;}
	.st9{fill:#3B3B3B;}
	.st10{fill:#727272;}
	.st11{fill:#A9A9A9;}
	.st12{fill:#E9EAE7;}
	.st13{fill:#4D4D4D;}
	.st14{fill:#949494;}
	.st15{fill:#DCDED9;}
	.st16{fill:#C4C4C4;}
	.st17{fill:#2D2D2D;}
	.st18{fill:#646464;}
	.st19{fill:#8295A9;}
	.st20{fill:#447DF2;}
	.st21{fill:#2A52C7;}
	.st22{fill:#033C99;}
	.st23{fill:url(#XMLID_2_);}
	.st24{fill:#529EF3;}
	.st25{fill:#3A3A3A;}
	.st26{fill:#358BF1;}
	.st27{fill:#004882;}
	.st28{fill:#0052B1;}
	.st29{fill:#0062EF;}
	.st30{fill:url(#XMLID_3_);}
	.st31{fill:#222831;}
	.st32{fill:#CDD7E7;}
	.st33{fill:#3181D4;}
	.st34{fill:#194681;}
	.st35{fill:#32598A;}
	.st36{fill:#426F9A;}
	.st37{fill:none;stroke:#002D6B;stroke-width:0.5006;stroke-miterlimit:10;}
	.st38{fill:#002D6B;}
	.st39{fill:#6186B8;}
	.st40{fill:#87A5C9;}
	.st41{fill:#767676;}
	.st42{fill:#242424;}
	.st43{fill:#6986A6;}
	.st44{fill:#2E4E7F;}
	.st45{fill:#3D5C8F;}
	.st46{fill:#5B77AD;}
	.st47{fill:#8099BE;}
	.st48{fill:#62789B;}
	.st49{fill:#003760;}
	.st50{fill:#ABABAB;}
	.st51{fill:#7F7F7F;}
	.st52{fill:none;stroke:#003760;stroke-width:0.1845;stroke-miterlimit:10;}
	.st53{fill:#94B3D1;}
	.st54{fill:#222D3B;}
	.st55{fill:#FFFFFF;}
</style>
<g id="XMLID_9119_">
	<g id="XMLID_10565_">
		<polygon id="XMLID_10567_" class="st0" points="384.4,301 383.7,254.7 391.6,191.1 428.4,168 432,170.3 388,303.3 		"/>
		<polygon id="XMLID_10568_" class="st1" points="391.6,191.1 395.2,193.5 387.3,257 388,303.3 384.4,301 383.7,254.7 		"/>
		<polygon id="XMLID_10569_" class="st2" points="388,303.3 387.3,257 395.2,193.5 432,170.3 423.8,234.1 424.7,279.1 		"/>
		<path id="XMLID_10572_" class="st3" d="M188.8,138.7l-79.6,45.6l-0.4,0.3l-21.4,0.7l-2.7,0.1l-2.2,0.1l-6.5,0.2l6.3-5l0.2-0.2
			l41.8-23.7c8.7-4.9,18-8.5,27.8-10.7L188.8,138.7z"/>
		<path id="XMLID_10573_" class="st4" d="M133.2,153.6l39-7.8l16.2-6.9l-45.6,9.8C142.8,148.6,134,150.9,133.2,153.6z"/>
		<polygon id="XMLID_10574_" class="st4" points="115.7,178.3 88.6,177.1 82.3,180.7 82.3,184.5 107.6,184.5 		"/>
		<path id="XMLID_10575_" class="st1" d="M158.9,216.6l-5,43.4l-69.5-44.3l-13.9-10.9c0,0,0.9-8.5,2.9-14.4c0.8-2.1,1.6-4,2.6-4.8
			c2.4-2.2,6.5-2.4,8.9-2.3c1.3,0,2.2,0.2,2.2,0.2l22.1,0.8l1.8,0.1L158.9,216.6z"/>
		<path id="XMLID_10576_" class="st5" d="M229.4,317l19.7-15.1c0,0-11.5-6.1-11.9-6c-0.5,0-6.6,3.1-6.6,3.1S221.7,306.5,229.4,317z"
			/>
		<g id="XMLID_10577_">
			<path id="XMLID_10578_" d="M260,343l-25.6-43l13.4-7.7l0,0c3.2-1.8,7.6-1.4,12.5,1.4c9.9,5.7,17.8,19.4,17.8,30.6
				c0,5.4-1.9,9.2-4.9,11.1l0,0l-0.3,0.2c-0.1,0-0.1,0.1-0.2,0.1L260,343z"/>
			<path id="XMLID_10579_" class="st6" d="M238.9,302.7l18.2-10.5c1,0.4,2.1,0.9,3.1,1.5c9.9,5.7,17.8,19.4,17.8,30.6
				c0,2.1-0.3,3.9-0.8,5.5l-14,8.1c-1.5-0.4-3.1-1.1-4.8-2.1c-1.8-1.1-3.6-2.4-5.3-3.9l-13.5-22.6C239.3,307,239,304.8,238.9,302.7z
				"/>
			<path id="XMLID_10580_" class="st7" d="M229.4,311.2c0,11.2,8,24.9,17.8,30.6c9.9,5.7,17.8,1.2,17.8-10c0-11.2-8-24.9-17.8-30.6
				C237.4,295.5,229.4,300,229.4,311.2z"/>
			<path id="XMLID_10581_" class="st8" d="M230.1,311.6c0,10.8,7.7,23.9,17.2,29.4c9.5,5.5,17.2,1.2,17.2-9.6
				c0-10.8-7.7-23.9-17.2-29.4C237.8,296.5,230.1,300.8,230.1,311.6z"/>
			<g id="XMLID_10582_">
				<path id="XMLID_10583_" class="st9" d="M234,313.8c0,8.4,6,18.6,13.3,22.8c7.4,4.2,13.3,0.9,13.3-7.5c0-8.4-6-18.6-13.3-22.8
					C239.9,302.1,234,305.4,234,313.8z"/>
				<path id="XMLID_10584_" class="st10" d="M234.9,314.3c0,7.8,5.6,17.3,12.4,21.3c6.9,4,12.4,0.8,12.4-7c0-7.8-5.6-17.3-12.4-21.3
					C240.4,303.4,234.9,306.5,234.9,314.3z"/>
				<path id="XMLID_10585_" class="st11" d="M247.5,307.4c6.8,4,12.3,13.4,12.3,21.2c0,1.1-0.1,2.1-0.3,3l-9.1,5.2
					c-1-0.3-2-0.7-3-1.3c-6.7-3.9-12.2-13.1-12.4-20.9L247.5,307.4z"/>
				<path id="XMLID_10586_" class="st12" d="M254.3,313.7c2.4,3.3,4.2,7.1,5,10.9l-15,8.7c-2.9-2.5-5.4-6-7.1-9.7L254.3,313.7z"/>
				<path id="XMLID_10587_" class="st12" d="M254.3,313.7c2.4,3.3,4.2,7.1,5,10.9l-15,8.7c-2.9-2.5-5.4-6-7.1-9.7L254.3,313.7z"/>
				<path id="XMLID_10588_" class="st13" d="M238.9,314.2c0,6.2,4.4,13.8,9.9,16.9c5.5,3.1,9.9,0.7,9.9-5.5s-4.4-13.8-9.9-16.9
					C243.3,305.5,238.9,308,238.9,314.2z"/>
				<path id="XMLID_10589_" class="st14" d="M240.6,314.6c0,5.3,3.8,11.8,8.5,14.5c4.7,2.7,8.5,0.6,8.5-4.7c0-5.3-3.8-11.8-8.5-14.5
					C244.4,307.1,240.6,309.3,240.6,314.6z"/>
				<g id="XMLID_10590_">
					<path id="XMLID_10591_" class="st10" d="M253.5,313.7c0.1-0.2,0.3-0.3,0.5-0.4c0.5,0.6,1,1.3,1.4,2c-0.4,0.1-0.9,0.1-1.3,0
						C253.3,315,253.1,314.3,253.5,313.7z"/>
					<path id="XMLID_10592_" class="st10" d="M240.7,318.8c-0.6-0.7-0.4-1.4,0.3-1.4c0.7-0.1,1.7,0.5,2.3,1.2
						c0.6,0.7,0.4,1.4-0.3,1.4C242.3,320,241.3,319.5,240.7,318.8z"/>
					<path id="XMLID_10593_" class="st10" d="M255.6,324.5c-0.2-0.9,0.2-1.2,1-0.8c0.7,0.5,1.5,1.6,1.7,2.5c0.2,0.9-0.2,1.2-1,0.8
						C256.5,326.5,255.8,325.4,255.6,324.5z"/>
					<path id="XMLID_10594_" class="st10" d="M244.7,308.9c0.3-0.7,0.9-0.6,1.3,0.2c0.5,0.8,0.7,2.1,0.4,2.8
						c-0.3,0.7-0.9,0.6-1.3-0.2C244.6,310.8,244.4,309.6,244.7,308.9z"/>
					<path id="XMLID_10595_" class="st10" d="M255.7,318.4c-0.7-0.6-0.7-1.3-0.1-1.6c0.2-0.1,0.3-0.1,0.5-0.1
						c0.4,0.8,0.8,1.6,1.1,2.4C256.7,319,256.1,318.8,255.7,318.4z"/>
					<path id="XMLID_10596_" class="st10" d="M256,329.1c-0.1,0.8-0.7,0.9-1.3,0.1c-0.6-0.7-1-2-0.8-2.8c0.1-0.8,0.7-0.9,1.3-0.1
						C255.8,327.1,256.2,328.3,256,329.1z"/>
					<path id="XMLID_10597_" class="st10" d="M256.2,321.6c-0.5-0.8-0.2-1.4,0.5-1.3c0.4,0.1,0.8,0.3,1.2,0.6
						c0.2,0.8,0.4,1.6,0.5,2.4c0,0,0,0,0,0C257.6,323.2,256.7,322.5,256.2,321.6z"/>
					<path id="XMLID_10598_" class="st10" d="M242.3,323.3c-0.7-0.5-0.9-1.2-0.3-1.6c0.5-0.4,1.6-0.4,2.3,0.1
						c0.7,0.5,0.9,1.2,0.3,1.6C244.1,323.8,243,323.8,242.3,323.3z"/>
					<path id="XMLID_10599_" class="st10" d="M247.7,328.5c0-0.9,0.5-1.8,1.1-2c0.6-0.2,1.2,0.3,1.2,1.1c0,0.9-0.5,1.8-1.1,2
						C248.3,329.9,247.8,329.4,247.7,328.5z"/>
					<path id="XMLID_10600_" class="st10" d="M252.9,327.7c0.3,0.9,0.3,2.1-0.1,2.6c-0.4,0.6-1,0.3-1.4-0.6
						c-0.3-0.9-0.3-2.1,0.1-2.6S252.6,326.8,252.9,327.7z"/>
					<path id="XMLID_10601_" class="st10" d="M244.4,325.7c0.3-0.7,1.1-1.2,1.8-1.1c0.7,0.1,1.1,0.8,0.8,1.5
						c-0.3,0.7-1.1,1.2-1.8,1.1C244.5,327.1,244.1,326.4,244.4,325.7z"/>
					<path id="XMLID_10602_" class="st10" d="M243.3,313.8c-0.7-0.6-1.3-1.8-1.3-2.7c-0.1-0.9,0.5-1.1,1.1-0.5
						c0.7,0.6,1.3,1.8,1.3,2.7C244.5,314.2,244,314.4,243.3,313.8z"/>
					<path id="XMLID_10603_" class="st10" d="M252.9,312.1c-0.3,0.5-0.7,0.8-1.2,0.9c-0.7,0.1-1.2-0.5-1.1-1.3
						c0.1-0.4,0.3-0.9,0.6-1.2C251.8,311,252.4,311.5,252.9,312.1z"/>
					<path id="XMLID_10604_" class="st10" d="M241.3,313.7c0.8,0.3,1.7,1.2,2,2.1c0.4,0.9,0,1.3-0.7,1.1c-0.8-0.3-1.7-1.2-2-2.1
						C240.2,313.9,240.6,313.5,241.3,313.7z"/>
					<path id="XMLID_10605_" class="st10" d="M249.5,309.1c0,0.1,0.1,0.1,0.1,0.2c0.2,0.9,0,2-0.6,2.4c-0.5,0.4-1.1,0.1-1.3-0.8
						c-0.2-0.9,0-2,0.6-2.4c0,0,0.1,0,0.1,0c0.1,0.1,0.2,0.1,0.4,0.2C249,308.8,249.3,309,249.5,309.1z"/>
				</g>
				<path id="XMLID_10606_" class="st10" d="M244.5,316.5c0,3.3,2.3,7.3,5.2,9c2.9,1.7,5.2,0.4,5.2-2.9c0-3.3-2.3-7.3-5.2-9
					C246.8,311.9,244.5,313.2,244.5,316.5z"/>
				<path id="XMLID_10607_" class="st11" d="M248.3,313c0.5,0.1,1,0.3,1.5,0.6c2.9,1.7,5.2,5.7,5.2,9c0,0.9-0.2,1.6-0.5,2.2l-4.8-1
					c-1.9-1.6-2.1-3.5-3.2-5.8L248.3,313z"/>
				<path id="XMLID_10608_" class="st15" d="M248.2,321.7c-0.4-0.7-0.6-1.3-0.9-2.1c2-0.8,3.9-1.9,5.5-3.2c0.9,1.2,1.6,2.6,1.9,4
					C252.4,320.4,250.2,320.9,248.2,321.7z"/>
				<path id="XMLID_10609_" class="st16" d="M244.5,318.9c0,2.3,1.7,5.2,3.7,6.4c2.1,1.2,3.7,0.3,3.7-2.1c0-2.3-1.7-5.2-3.7-6.4
					C246.2,315.6,244.5,316.5,244.5,318.9z"/>
				<path id="XMLID_10610_" class="st13" d="M245.6,320.3c0,1.3,0.9,2.8,2,3.5s2,0.1,2-1.1c0-1.3-0.9-2.8-2-3.5
					C246.5,318.5,245.6,319,245.6,320.3z"/>
			</g>
			<path id="XMLID_10611_" d="M260,343l7.9-4.5c0.1,0,0.1-0.1,0.2-0.1l0.3-0.2l0,0c3-1.9,4.9-5.7,4.9-11.1c0-11.2-8-24.9-17.8-30.6
				c-4.9-2.8-9.3-3.1-12.5-1.4l0,0l0.9-0.5l0,0c3.2-1.8,7.6-1.4,12.5,1.4c9.9,5.7,17.8,19.4,17.8,30.6c0,5.4-1.9,9.2-4.9,11.1l0,0
				l-0.3,0.2c-0.1,0-0.1,0.1-0.2,0.1L260,343L260,343z"/>
			<path id="XMLID_10612_" d="M260,343l3.9-2.2c0.1,0,0.1-0.1,0.2-0.1l0.3-0.2l0,0c3-1.9,4.9-5.7,4.9-11.1c0-11.2-8-24.9-17.8-30.6
				c-4.9-2.8-9.3-3.1-12.5-1.4l0,0l0.9-0.5l0,0c3.2-1.8,7.6-1.4,12.5,1.4c9.9,5.7,17.8,19.4,17.8,30.6c0,5.4-1.9,9.2-4.9,11.1l0,0
				l-0.3,0.2c-0.1,0-0.1,0.1-0.2,0.1L260,343L260,343z"/>
		</g>
		<path id="XMLID_10613_" class="st1" d="M320.6,305.5l-10.5-5.9c0.3,1.3-8-2.9-12.2-5.3c-0.2-0.2-0.4-0.3-0.6-0.4l-0.4-0.2
			l-130.1-57.8l-4.1-2.4l-0.1-0.1c-0.3,0.3-0.7,0.6-1,0.9c-1.6,1.7-4.4,1.1-6.8,0.8c-1.2-0.2-2.3-0.3-3.1-0.1
			c-0.2,0.1-0.3,0.1-0.4,0.2c-0.4,0.3-0.7,0.8-0.7,1.6v20.7l3.5,8.1c0,0,3.4,0.2,5.3,4.7c1.3,3.3,67.2,45,70,46.6
			c-0.3-2-0.8-4.3-0.8-6.4c0.1-2.4-0.3-4.8,0.9-6.9c0.3-0.6,0.7-0.9,1.2-1c3.1-5.6,9.8-6.9,17.4-2.5c10.2,5.9,18.6,19.6,19.3,31.4
			c0,0.6,0.1,1.1,0.1,1.6c0,2-0.3,3.8-0.7,5.3l3.5,1.3l7.8,2.5l5.4,1.7l-0.3-36.8L320.6,305.5z"/>
		<path id="XMLID_10614_" class="st17" d="M227.1,313.5c-0.2-2-0.4-4.8,0.3-6.7c0.1-0.1,1-4.3,1.1-4.4
			c-23-10.1-159.9-101.3-160.2-102c0.1,0.5-3,20.6,6.8,27.2c0.8,0.5,2.9,2.2,5,3.6c8,5.2,26.1,10,45.7,21.3
			c43.5,25.1,99.2,62.1,101.7,63.5C227.3,315.1,227.2,314.3,227.1,313.5z"/>
		<path id="XMLID_10615_" class="st18" d="M72.4,194.8l-3,3.7c-1.8,2.2-1.4,5.5,0.9,7.2l12.7,9.5l2.8-4.2l-11-6.5
			c-2.2-1.3-3.4-3.8-3-6.3C71.9,197.3,72.1,196.2,72.4,194.8z"/>
		<path id="XMLID_10616_" class="st18" d="M251,296c-9.1-5.2-18.5-2.6-22,4.3c1.4-1.1,4.5-3,5.8-3.9c1.7-1.3,3.4-1,4.6-0.1
			c3.1-0.7,4.2,0.4,8.3,2.8c10.7,6.1,22.1,20.5,22.1,32.6c0,0.9-0.1,1.8-0.2,2.7c-0.1,0.8,0.9,4.7,0.7,5.5c0,0,1.5-2,2.2-3.1
			c0.2-1.3,0.5-1.4,0.5-2.9C273.1,320,263.2,303.1,251,296z"/>
		<path id="XMLID_10617_" class="st17" d="M270.7,335.7c0,1.5-0.1,2.9-0.4,4.2c-2.1-0.8-3.5-1.3-3.5-1.3c0.2-0.8,0.4-1.6,0.5-2.4
			c0.1-0.8,0.2-1.7,0.2-2.7c0-12.1-8.7-26.9-19.3-33.1c-4.7-2.7-9-3.3-12.3-2.1c-4.3,1.5-7,6.1-7,12.9c0,1.9,0.2,3.8,0.6,5.8
			l-2.5-1.4c-0.3-1.8-0.5-3.6-0.5-5.4c0-13.9,9.9-19.4,22.1-12.4C260.8,304.9,270.7,321.8,270.7,335.7z"/>
		<path id="XMLID_10618_" class="st19" d="M348.6,300.7c0.2-0.1,0.5-0.2,0.9-0.3l-0.8,0.5L348.6,300.7z"/>
		<path id="XMLID_10619_" class="st19" d="M381.5,281.9l-0.5,0.3l-0.5,0.2l-0.1-0.1C380.7,282.2,381,282.1,381.5,281.9z"/>
		<path id="XMLID_10620_" class="st0" d="M377.3,204.3l-1.2-0.6l0,0l-120.7-70.7c-10.4-6.1-22.8-8.5-34.7-6.2
			c-5.4,1.1-10.1,2.8-15.2,4.4l-64.9,37.5l162.9,78C303.6,246.8,377.3,204.2,377.3,204.3z"/>
		<path id="XMLID_10621_" class="st20" d="M238.9,126.7c-5.9-1.1-12-1.1-18,0c-5.4,1.1-10.1,2.8-15.2,4.4l-64.9,37.5l0.7,0.4
			l26.3-1.8L238.9,126.7z"/>
		<path id="XMLID_10622_" class="st4" d="M151.3,162.6c0,0,8.1-4.4,16.5,4.6l-30.4,3.1L151.3,162.6z"/>
		<polygon id="XMLID_10623_" class="st21" points="303.6,246.8 307.9,268.4 311.8,300.8 281.2,288.3 164.2,219.1 181.6,175.4 		"/>
		<g id="XMLID_10627_">
			<g>
				<polygon id="XMLID_9_" class="st1" points="304.4,323.6 154.8,239.2 153.3,238.4 151.2,237.2 150.6,236.8 108.8,184.5 
					297.2,293.9 297.2,294 				"/>
			</g>
		</g>
		<path id="XMLID_10629_" class="st21" d="M162.7,165.7l5.1,1.6L232,205l-4.5,16.9L161.7,183l-23.7-12.1
			C137.9,170.9,151.7,161.2,162.7,165.7z"/>
		<polygon id="XMLID_10630_" class="st21" points="175.8,190 145.9,166.4 107.6,184.5 165,217 		"/>
		<g id="XMLID_10632_">
			<path id="XMLID_10633_" class="st22" d="M148.8,217.1l-8.8-5.6l0.3-1.3c0.3-1.2,1.4-2,2.5-1.2c0,0,3.9,2.5,5.4,3.8
				C149.6,213.9,148.8,217.1,148.8,217.1z"/>
		</g>
		
			<linearGradient id="XMLID_2_" gradientUnits="userSpaceOnUse" x1="398.9983" y1="396.9466" x2="432.8365" y2="307.8557" gradientTransform="matrix(-0.6651 -1.057 -0.2927 0.865 518.1146 325.9982)">
			<stop  offset="8.374380e-02" style="stop-color:#305776"/>
			<stop  offset="0.4391" style="stop-color:#29425A"/>
			<stop  offset="0.9409" style="stop-color:#1F2836"/>
		</linearGradient>
		<polygon id="XMLID_10634_" class="st23" points="137.1,172.5 160.3,185.7 156.6,213 116.6,190 121.1,180.2 		"/>
		<polygon id="XMLID_10635_" class="st1" points="311.8,300.8 311.8,349 308.2,354.5 274.7,341.2 280.1,284.4 		"/>
		<path id="XMLID_10636_" class="st17" d="M304.4,359.5l-34.1-19.6l-3.5-1.3c0.4-1.6,0.7-3.4,0.7-5.3c0-0.5-0.1-8.9-0.1-9.4
			l45.3,25.5c0,0.3-0.3,4.5-1.3,7.5C310.5,359.7,307.1,361,304.4,359.5z"/>
		<polygon id="XMLID_10637_" class="st24" points="377.2,204.2 303.6,246.8 303.6,247 311.8,300.8 311.8,349 316.3,350.2 
			374.4,318.7 384.6,306.5 385.4,258.3 		"/>
		<path id="XMLID_10638_" class="st25" d="M311.8,349l75.5-43.6l-1.5,6.3c-0.9,3.8-0.6,5.5-4,7.5c0,0-9.4,7.7-27.6,17.7
			c-37.6,20.8-45.3,22.8-45.3,22.8L311.8,349z"/>
		<polygon id="XMLID_10639_" class="st26" points="311.8,300.8 385.4,258.3 385.4,306.5 311.8,349 		"/>
		<g id="XMLID_10640_">
			<path id="XMLID_10641_" class="st27" d="M316,312.4v7.9l-0.1,4.1v13.7l-0.1-0.1c-0.4,0.3-0.8,0.8-1.2,1.2c-1.1,1.1-2,1.5-2.9,1.5
				v-34C312.9,307.9,315.7,312.4,316,312.4z"/>
			<path id="XMLID_10642_" class="st28" d="M314.8,312.6l-0.7,6.5l-2.4-6.3v-6C312.9,307.9,314.8,312.6,314.8,312.6z"/>
			<path id="XMLID_10643_" class="st28" d="M314.6,321.2l-0.1,2.3l-0.1,9.5c0,2.1-1,3.9-2.6,5.1v-12.5l0.3,0.2l0.2-3.5l0.2-2V320
				l0.4,0.2L314.6,321.2z"/>
			<polygon id="XMLID_10644_" class="st29" points="312.5,320 312.5,320.4 312.4,322.4 312.1,325.8 311.8,325.6 311.8,317.5 			"/>
		</g>
		<g id="XMLID_10645_">
			<path id="XMLID_10646_" class="st27" d="M380.9,269.4v7.9l0.1,4.1v13.7l0.1-0.1c0.4,0.3,0.8,0.8,1.2,1.2c1.1,1.1,2,1.5,2.9,1.5
				v-34C384,264.9,381.1,269.4,380.9,269.4z"/>
			<path id="XMLID_10647_" class="st28" d="M382.1,269.6l0.7,6.5l2.4-6.3v-6C384,264.9,382.1,269.6,382.1,269.6z"/>
			<path id="XMLID_10648_" class="st28" d="M382.3,278.2l0.1,2.3l0.1,9.5c0,2.1,1,3.9,2.6,5.1v-12.5l-0.3,0.2l-0.2-3.5l-0.2-2V277
				l-0.4,0.2L382.3,278.2z"/>
			<polygon id="XMLID_10649_" class="st29" points="384.3,277 384.3,277.4 384.5,279.4 384.7,282.8 385.1,282.6 385.1,274.5 			"/>
		</g>
		<g id="XMLID_10650_">
			<path id="XMLID_10651_" class="st27" d="M307.6,312.4v7.9l0.1,4.1v13.7l0.1-0.1c0.4,0.3,0.8,0.8,1.2,1.2c1.1,1.1,2,1.5,2.9,1.5
				v-34C310.7,307.9,307.9,312.4,307.6,312.4z"/>
			<path id="XMLID_10652_" class="st28" d="M308.8,312.6l0.7,6.5l2.4-6.3v-6C310.7,307.9,308.8,312.6,308.8,312.6z"/>
			<path id="XMLID_10653_" class="st28" d="M309.1,321.2l0.1,2.3l0.1,9.5c0,2.1,1,3.9,2.6,5.1v-12.5l-0.3,0.2l-0.2-3.5l-0.2-2V320
				l-0.4,0.2L309.1,321.2z"/>
			<polygon id="XMLID_10654_" class="st29" points="311.1,320 311.1,320.4 311.2,322.4 311.5,325.8 311.8,325.6 311.8,317.5 			"/>
		</g>
		<g id="XMLID_10655_">
			<path id="XMLID_10656_" d="M111.7,258.9l-25.6-43l13.4-7.7l0,0c3.2-1.8,7.6-1.4,12.5,1.4c9.9,5.7,17.8,19.4,17.8,30.6
				c0,5.4-1.9,9.2-4.9,11.1l0,0l-0.3,0.2c-0.1,0-0.1,0.1-0.2,0.1L111.7,258.9z"/>
			<path id="XMLID_10657_" class="st6" d="M90.7,218.5l18.2-10.5c1,0.4,2.1,0.9,3.1,1.5c9.9,5.7,17.8,19.4,17.8,30.6
				c0,2.1-0.3,3.9-0.8,5.5l-14,8.1c-1.5-0.4-3.1-1.1-4.8-2.1c-1.8-1.1-3.6-2.4-5.3-3.9l-13.5-22.6C91.1,222.9,90.8,220.7,90.7,218.5
				z"/>
			<path id="XMLID_10658_" class="st7" d="M81.2,227c0,11.2,8,24.9,17.8,30.6c9.9,5.7,17.8,1.2,17.8-10c0-11.2-8-24.9-17.8-30.6
				C89.2,211.3,81.2,215.8,81.2,227z"/>
			<path id="XMLID_10659_" class="st8" d="M81.9,227.4c0,10.8,7.7,23.9,17.2,29.4c9.5,5.5,17.2,1.2,17.2-9.6
				c0-10.8-7.7-23.9-17.2-29.4C89.6,212.3,81.9,216.6,81.9,227.4z"/>
			<g id="XMLID_10660_">
				<path id="XMLID_10661_" class="st9" d="M85.8,229.6c0,8.4,6,18.6,13.3,22.8c7.4,4.2,13.3,0.9,13.3-7.5s-6-18.6-13.3-22.8
					C91.7,217.9,85.8,221.3,85.8,229.6z"/>
				<path id="XMLID_10662_" class="st10" d="M86.7,230.1c0,7.8,5.6,17.3,12.4,21.3c6.9,4,12.4,0.8,12.4-7c0-7.8-5.6-17.3-12.4-21.3
					C92.2,219.2,86.7,222.3,86.7,230.1z"/>
				<path id="XMLID_10663_" class="st11" d="M99.2,223.3c6.8,4,12.3,13.4,12.3,21.2c0,1.1-0.1,2.1-0.3,3l-9.1,5.2
					c-1-0.3-2-0.7-3-1.3c-6.7-3.9-12.2-13.1-12.4-20.9L99.2,223.3z"/>
				<path id="XMLID_10664_" class="st12" d="M106,229.6c2.4,3.3,4.2,7.1,5,10.9l-15,8.7c-2.9-2.5-5.4-6-7.1-9.7L106,229.6z"/>
				<path id="XMLID_10665_" class="st12" d="M106,229.6c2.4,3.3,4.2,7.1,5,10.9l-15,8.7c-2.9-2.5-5.4-6-7.1-9.7L106,229.6z"/>
				<path id="XMLID_10666_" class="st13" d="M90.6,230c0,6.2,4.4,13.8,9.9,16.9c5.5,3.1,9.9,0.7,9.9-5.5c0-6.2-4.4-13.8-9.9-16.9
					C95.1,221.3,90.6,223.8,90.6,230z"/>
				<path id="XMLID_10667_" class="st14" d="M92.4,230.4c0,5.3,3.8,11.8,8.5,14.5c4.7,2.7,8.5,0.6,8.5-4.7c0-5.3-3.8-11.8-8.5-14.5
					C96.2,223,92.4,225.1,92.4,230.4z"/>
				<g id="XMLID_10668_">
					<path id="XMLID_10669_" class="st10" d="M105.3,229.6c0.1-0.2,0.3-0.3,0.5-0.4c0.5,0.6,1,1.3,1.4,2c-0.4,0.1-0.9,0.1-1.3,0
						C105.1,230.9,104.9,230.2,105.3,229.6z"/>
					<path id="XMLID_10670_" class="st10" d="M92.5,234.6c-0.6-0.7-0.4-1.4,0.3-1.4c0.7-0.1,1.7,0.5,2.3,1.2
						c0.6,0.7,0.4,1.4-0.3,1.4C94.1,235.9,93.1,235.3,92.5,234.6z"/>
					<path id="XMLID_10671_" class="st10" d="M107.4,240.3c-0.2-0.9,0.2-1.2,1-0.8c0.7,0.5,1.5,1.6,1.7,2.5c0.2,0.9-0.2,1.2-1,0.8
						C108.3,242.3,107.5,241.2,107.4,240.3z"/>
					<path id="XMLID_10672_" class="st10" d="M96.5,224.7c0.3-0.7,0.9-0.6,1.3,0.2c0.5,0.8,0.7,2.1,0.4,2.8
						c-0.3,0.7-0.9,0.6-1.3-0.2C96.4,226.7,96.2,225.4,96.5,224.7z"/>
					<path id="XMLID_10673_" class="st10" d="M107.4,234.2c-0.7-0.6-0.7-1.3-0.1-1.6c0.2-0.1,0.3-0.1,0.5-0.1
						c0.4,0.8,0.8,1.6,1.1,2.4C108.5,234.9,107.9,234.6,107.4,234.2z"/>
					<path id="XMLID_10674_" class="st10" d="M107.8,245c-0.1,0.8-0.7,0.9-1.3,0.1c-0.6-0.7-1-2-0.8-2.8c0.1-0.8,0.7-0.9,1.3-0.1
						C107.6,242.9,107.9,244.2,107.8,245z"/>
					<path id="XMLID_10675_" class="st10" d="M108,237.5c-0.5-0.8-0.2-1.4,0.5-1.3c0.4,0.1,0.8,0.3,1.2,0.6c0.2,0.8,0.4,1.6,0.5,2.4
						c0,0,0,0,0,0C109.4,239.1,108.4,238.3,108,237.5z"/>
					<path id="XMLID_10676_" class="st10" d="M94.1,239.2c-0.7-0.5-0.8-1.2-0.3-1.6c0.5-0.4,1.6-0.4,2.3,0.1
						c0.7,0.5,0.9,1.2,0.3,1.6C95.8,239.7,94.8,239.6,94.1,239.2z"/>
					<path id="XMLID_10677_" class="st10" d="M99.5,244.4c0-0.9,0.5-1.8,1.1-2c0.6-0.2,1.2,0.3,1.2,1.1c0,0.9-0.5,1.8-1.1,2
						C100.1,245.8,99.5,245.3,99.5,244.4z"/>
					<path id="XMLID_10678_" class="st10" d="M104.7,243.6c0.3,0.9,0.3,2.1-0.1,2.6c-0.4,0.6-1,0.3-1.4-0.6
						c-0.3-0.9-0.3-2.1,0.1-2.6C103.7,242.4,104.3,242.7,104.7,243.6z"/>
					<path id="XMLID_10679_" class="st10" d="M96.2,241.5c0.3-0.7,1.1-1.2,1.8-1.1c0.7,0.1,1.1,0.8,0.8,1.5
						c-0.3,0.7-1.1,1.2-1.8,1.1C96.3,242.9,95.9,242.2,96.2,241.5z"/>
					<path id="XMLID_10680_" class="st10" d="M95.1,229.6c-0.7-0.6-1.3-1.8-1.3-2.7c-0.1-0.9,0.5-1.1,1.1-0.5
						c0.7,0.6,1.3,1.8,1.3,2.7C96.2,230,95.7,230.2,95.1,229.6z"/>
					<path id="XMLID_10681_" class="st10" d="M104.7,227.9c-0.3,0.5-0.7,0.8-1.2,0.9c-0.7,0.1-1.2-0.5-1.1-1.3
						c0.1-0.4,0.3-0.9,0.6-1.2C103.6,226.8,104.2,227.4,104.7,227.9z"/>
					<path id="XMLID_10682_" class="st10" d="M93.1,229.6c0.8,0.3,1.7,1.2,2,2.1c0.4,0.9,0,1.3-0.7,1.1c-0.8-0.3-1.7-1.2-2-2.1
						C92,229.8,92.3,229.3,93.1,229.6z"/>
					<path id="XMLID_10683_" class="st10" d="M101.3,225c0,0.1,0.1,0.1,0.1,0.2c0.2,0.9,0,2-0.6,2.4c-0.5,0.4-1.1,0.1-1.3-0.8
						c-0.2-0.9,0-2,0.6-2.4c0,0,0.1,0,0.1,0c0.1,0.1,0.2,0.1,0.4,0.2C100.8,224.6,101,224.8,101.3,225z"/>
				</g>
				<path id="XMLID_10684_" class="st10" d="M96.3,232.3c0,3.3,2.3,7.3,5.2,9c2.9,1.7,5.2,0.4,5.2-2.9s-2.3-7.3-5.2-9
					C98.6,227.7,96.3,229,96.3,232.3z"/>
				<path id="XMLID_10685_" class="st11" d="M100.1,228.8c0.5,0.1,1,0.3,1.5,0.6c2.9,1.7,5.2,5.7,5.2,9c0,0.9-0.2,1.6-0.5,2.2
					l-4.8-1c-1.9-1.6-2.1-3.5-3.2-5.8L100.1,228.8z"/>
				<path id="XMLID_10686_" class="st15" d="M99.9,237.5c-0.4-0.7-0.6-1.3-0.9-2.1c2-0.8,3.9-1.9,5.5-3.2c0.9,1.2,1.6,2.6,1.9,4
					C104.2,236.3,102,236.7,99.9,237.5z"/>
				<path id="XMLID_10687_" class="st16" d="M96.3,234.7c0,2.3,1.7,5.2,3.7,6.4c2.1,1.2,3.7,0.3,3.7-2.1c0-2.3-1.7-5.2-3.7-6.4
					C98,231.4,96.3,232.4,96.3,234.7z"/>
				<path id="XMLID_10688_" class="st13" d="M97.4,236.1c0,1.3,0.9,2.8,2,3.5c1.1,0.6,2,0.1,2-1.1c0-1.3-0.9-2.8-2-3.5
					C98.3,234.3,97.4,234.9,97.4,236.1z"/>
			</g>
			<path id="XMLID_10689_" d="M111.7,258.8l7.9-4.5c0.1,0,0.1-0.1,0.2-0.1l0.3-0.2l0,0c3-1.9,4.9-5.7,4.9-11.1
				c0-11.2-8-24.9-17.8-30.6c-4.9-2.8-9.3-3.1-12.5-1.4l0,0l0.9-0.5l0,0c3.2-1.8,7.6-1.4,12.5,1.4c9.9,5.7,17.8,19.4,17.8,30.6
				c0,5.4-1.9,9.2-4.9,11.1l0,0l-0.3,0.2c-0.1,0-0.1,0.1-0.2,0.1L111.7,258.8L111.7,258.8z"/>
			<path id="XMLID_10690_" d="M111.7,258.8l3.9-2.2c0.1,0,0.1-0.1,0.2-0.1l0.3-0.2l0,0c3-1.9,4.9-5.7,4.9-11.1
				c0-11.2-8-24.9-17.8-30.6c-4.9-2.8-9.3-3.1-12.5-1.4l0,0l0.9-0.5l0,0c3.2-1.8,7.6-1.4,12.5,1.4c9.9,5.7,17.8,19.4,17.8,30.6
				c0,5.4-1.9,9.2-4.9,11.1l0,0l-0.3,0.2c-0.1,0-0.1,0.1-0.2,0.1L111.7,258.8L111.7,258.8z"/>
		</g>
		<path id="XMLID_10691_" class="st1" d="M95,207.5c0,0,16,7.9,19.8,15.2c3.7,7.3,11,28.6,11,28.6l4.1-2.1l3.7-16.4L114.3,208
			l-16.7-4.6L95,207.5z"/>
		<polygon id="XMLID_10692_" class="st22" points="155,212 151.1,254.8 125.6,238.1 121.6,209 115.3,203.3 118.7,191.2 117.8,190.7 
			114.3,203.6 121.3,210 125.3,239.2 152.1,256.9 156.3,212.8 		"/>
		<polygon id="XMLID_10693_" class="st17" points="154.3,257.1 120,234.9 125.1,251.2 132.7,253.6 		"/>
		<linearGradient id="XMLID_3_" gradientUnits="userSpaceOnUse" x1="107.5645" y1="157.8354" x2="205.7005" y2="157.8354">
			<stop  offset="8.374380e-02" style="stop-color:#305776"/>
			<stop  offset="0.4391" style="stop-color:#29425A"/>
			<stop  offset="0.9409" style="stop-color:#1F2836"/>
		</linearGradient>
		<path id="XMLID_10694_" class="st30" d="M205.7,131.2l-73.5,42.5l-24.6,10.8c0,0,28.9-24.3,73.6-42.5
			C187.3,139.4,205.7,131.2,205.7,131.2z"/>
		<path id="XMLID_10695_" class="st18" d="M122.8,250c0.1-0.8,0.2-1.7,0.2-2.7c0-2.3-0.4-4.8-1.2-7.2
			C121.8,241.7,122.7,250.9,122.8,250z"/>
		<path id="XMLID_10696_" class="st18" d="M121.5,235.9C121.5,235.9,121.5,235.9,121.5,235.9c-1.2-11.9-8.1-21.5-19-27.9
			c-9.1-5.2-16.8,1-20.2,7.9c1.4-1.1,4.5-3,5.8-3.9c1.7-1.3,3.4-1,4.6-0.1c3.1-0.7,4.2,0.4,8.3,2.8c7.5,4.3,15.4,12.8,19.4,21.6
			C120.6,236.1,121,235.9,121.5,235.9z"/>
		<path id="XMLID_10697_" class="st17" d="M124.8,251.7c0,1.5-4.2-1.7-4.2-2.6c0-12.1-8.7-26.9-19.3-33.1c-4.7-2.7-9-3.3-12.3-2.1
			c-4.3,1.5-7,6.1-7,12.9c0,1.9,0.2,3.8,0.6,5.8l-2.5-1.4c-0.3-1.8-0.5-3.6-0.5-5.4c0-13.9,9.9-19.4,22.1-12.4
			C114,220.5,124.8,237.9,124.8,251.7z"/>
		<polygon id="XMLID_10698_" class="st18" points="296.4,307.6 110.5,200.4 109.6,200.8 295.4,311.3 296.4,310.9 		"/>
		<polygon id="XMLID_10699_" class="st31" points="295.4,308 109.6,200.8 109.6,204.4 295.4,311.3 		"/>
		<path id="XMLID_10700_" class="st32" d="M90.3,189c-0.2,2-2.4,2.9-3.3,3.4c-1.8,0.8-3.4,1.1-5.1,1.4c-2.3,0.4-4.5,0.7-6.2-0.6
			c-0.6-0.5-1.2-0.7-1.7-1.5c-0.3-0.4-0.5-0.8-0.7-1.3c0.8-2.1,1.6-4,2.6-4.8l6.3-5c0.6,1.3,1.5,1.9,2.6,2.6
			c0.2,0.1,0.4,0.3,0.6,0.4c0.7,0.4,1.2,1,1.8,1.5c0.3,0.3,0.7,0.6,1,0.8c0.3,0.2,0.6,0.4,0.9,0.7C90,187.3,90.5,188,90.3,189z"/>
		<path id="XMLID_10701_" class="st33" d="M82.6,185.3c1.7-0.6,5.8,0.7,6,3.3c0.1,2.2-2.9,2.8-3.8,3c-3,0.6-5.9,0.5-8.5-0.4
			c-0.1,0-0.2-0.1-0.2-0.2c-0.1-0.3,0.3-0.8,0.5-1c1.4-1.3,2.9-2.5,4.4-3.6C81.5,186,82.1,185.5,82.6,185.3z"/>
		<path id="XMLID_10702_" class="st32" d="M126.8,155.5c0,0,5.8-1,8.9-3.2c3-2.2,6-3.2,6-3.2S130.6,150.9,126.8,155.5z"/>
		<path id="XMLID_10703_" class="st18" d="M109.7,177.8l1.3,0.4c0.6,0.2,2.2-0.3,3.2-1l12.4-8.6c1-0.7,1.3-1.4,0.6-1.6l-1.3-0.4
			c-0.6-0.2-2.2,0.3-3.2,1l-12.4,8.6C109.2,177,109,177.6,109.7,177.8z"/>
		<path id="XMLID_10704_" class="st18" d="M144.4,156l1.1,0.3c0.6,0.1,1.9-0.2,2.8-0.7l11.3-5.9c1.8-0.9,2.1-1.8,0.7-1.9l-1.1-0.1
			c-0.6,0-1.8,0.2-2.6,0.7l-11.1,5.7C144,154.9,143.5,155.7,144.4,156z"/>
		<path id="XMLID_10705_" class="st18" d="M271.6,323.8l40.3,22.6l73.6-42.7l2,1.7c0,0-12.2,9.7-34.7,22.2
			c-26.4,14.7-40.8,21.4-40.8,21.4l-40.7-23.1L271.6,323.8z"/>
		<polygon id="XMLID_10706_" class="st34" points="373.3,212.4 308.5,249.8 308.5,250 315.7,297.4 315.7,344.2 381.9,305.7 
			380.5,259.9 		"/>
		<polygon id="XMLID_10707_" class="st0" points="381.9,305.7 381.9,305.6 310.6,263.8 315.7,297.4 315.7,344.2 		"/>
		<g id="XMLID_10708_">
			<g id="XMLID_10709_">
				<g id="XMLID_10710_">
					<g id="XMLID_10711_">
						<polygon id="XMLID_10712_" class="st35" points="346.6,315.6 314.2,297.1 312.4,283.3 312.5,259.2 346.6,278.9 						"/>
						<polygon id="XMLID_10713_" class="st36" points="373.6,263.2 346.6,278.9 346.6,315.6 373.6,300 						"/>
						<polygon id="XMLID_10714_" class="st37" points="358.1,277 349.8,281.8 349.8,293 358.1,288.2 						"/>
					</g>
					<polygon id="XMLID_10715_" class="st38" points="355.2,283.1 355.2,288.7 352.6,290.1 352.7,284.6 351.4,285.3 354,279.8 
						356.5,282.4 					"/>
					<polygon id="XMLID_10716_" class="st39" points="373.6,263.2 346.6,278.9 330.6,269.7 325.4,266.7 312.5,259.2 339.5,243.5 
						352.5,251 357.7,254 					"/>
				</g>
			</g>
			<polygon id="XMLID_10717_" class="st40" points="330.6,269.7 325.4,266.7 352.5,251 357.7,254 			"/>
			<g id="XMLID_10718_">
				<polygon id="XMLID_10719_" class="st41" points="324.8,299.8 315,294.2 315,285.8 324.8,291.4 				"/>
				<polygon id="XMLID_10720_" class="st42" points="324.2,298.8 315.5,293.8 315.5,293.4 324.2,298.4 				"/>
				<polygon id="XMLID_10721_" class="st42" points="324.2,297.7 315.5,292.7 315.5,292.3 324.2,297.3 				"/>
				<polygon id="XMLID_10722_" class="st42" points="324.2,296.6 315.5,291.7 315.5,291.3 324.2,296.3 				"/>
				<polygon id="XMLID_10723_" class="st42" points="324.2,295.6 315.5,290.6 315.5,290.2 324.2,295.2 				"/>
				<polygon id="XMLID_10724_" class="st42" points="324.2,293.6 315.5,288.6 315.5,287.4 324.2,292.4 				"/>
			</g>
			<polygon id="XMLID_10725_" class="st43" points="325.4,266.7 325.4,279 326.4,276.2 327.5,280.2 329.1,277.6 330.4,281.8 
				330.6,269.7 			"/>
			<polygon id="XMLID_10726_" class="st38" points="364.2,273.9 361.8,275.3 361.8,278.6 364.2,277.2 			"/>
			<polygon id="XMLID_10727_" class="st38" points="367.7,271.9 365.2,273.3 365.2,276.6 367.7,275.2 			"/>
			<polygon id="XMLID_10728_" class="st38" points="371.2,269.9 368.7,271.3 368.7,274.6 371.2,273.2 			"/>
		</g>
		<g id="XMLID_10729_">
			<g id="XMLID_10730_">
				<g id="XMLID_10731_">
					<g id="XMLID_10732_">
						<polygon id="XMLID_10733_" class="st44" points="352.4,273.9 333.2,262.8 333.2,251.6 352.4,262.7 						"/>
						<polygon id="XMLID_10734_" class="st45" points="367.7,253.8 352.4,262.7 352.4,273.9 367.7,265.1 						"/>
					</g>
					<polygon id="XMLID_10735_" class="st46" points="367.7,253.8 352.4,262.7 343.4,257.5 340.5,255.8 333.2,251.6 348.4,242.7 
						355.7,246.9 358.7,248.6 					"/>
				</g>
			</g>
			<polygon id="XMLID_10736_" class="st47" points="343.4,257.5 340.5,255.8 355.7,246.9 358.7,248.6 			"/>
			<polygon id="XMLID_10737_" class="st48" points="340.5,255.8 340.4,262.8 341,261.1 341.7,263.4 342.5,261.9 343.3,264.3 
				343.4,257.5 			"/>
			<polygon id="XMLID_10738_" class="st49" points="362.4,259.8 361,260.7 361,262.5 362.4,261.7 			"/>
			<polygon id="XMLID_10739_" class="st49" points="364.3,258.7 362.9,259.5 362.9,261.4 364.3,260.6 			"/>
			<polygon id="XMLID_10740_" class="st49" points="366.3,257.6 364.9,258.4 364.9,260.3 366.3,259.5 			"/>
			<g id="XMLID_10741_">
				<polygon id="XMLID_10742_" class="st50" points="351.8,245.7 347.5,248.3 344.3,246.4 348.6,243.9 				"/>
				<polygon id="XMLID_10743_" class="st51" points="351.3,245.7 347.5,247.9 347.3,247.9 351.1,245.6 				"/>
				<polygon id="XMLID_10744_" class="st51" points="350.9,245.5 347.1,247.7 346.9,247.6 350.7,245.4 				"/>
				<polygon id="XMLID_10745_" class="st51" points="350.5,245.2 346.6,247.5 346.5,247.4 350.3,245.1 				"/>
				<polygon id="XMLID_10746_" class="st51" points="350.1,245 346.2,247.2 346.1,247.2 349.9,244.9 				"/>
				<polygon id="XMLID_10747_" class="st51" points="349.3,244.6 345.5,246.8 345,246.5 348.8,244.3 				"/>
			</g>
			<g id="XMLID_10748_">
				<polygon id="XMLID_10749_" class="st52" points="356.7,262.1 353.7,263.9 353.7,268 356.7,266.3 				"/>
				<polygon id="XMLID_10750_" class="st49" points="355.7,264.4 355.6,266.5 354.7,267 354.7,264.9 354.2,265.2 355.2,263.2 
					356.1,264.1 				"/>
			</g>
		</g>
		<polygon id="XMLID_10751_" class="st53" points="373.3,212.4 348.6,254 344.3,257.5 344.3,268.3 337.7,273.4 328.4,304.5 
			315.7,311.3 315.7,297.4 308.5,249.8 		"/>
		<polygon id="XMLID_10752_" class="st0" points="297.4,247.5 301,249.8 272.1,373.7 268.5,371.3 268.5,322.8 260.6,268.8 		"/>
		<polygon id="XMLID_10753_" class="st2" points="301,249.8 309.2,303.9 307.8,350.7 272.1,373.7 272.1,325.2 264.2,271.2 		"/>
		<polygon id="XMLID_10754_" class="st1" points="373.3,212.4 370.7,213.9 377.3,263.8 377.3,302.9 381.9,305.7 380.5,259.9 		"/>
		<polygon id="XMLID_10755_" class="st1" points="260.6,268.8 264.2,271.2 272.1,325.2 272.1,373.7 268.5,371.3 268.5,322.8 		"/>
		<polygon id="XMLID_10756_" class="st54" points="423.8,234.1 387.3,257 395.2,193.5 432,170.3 		"/>
		<polygon id="XMLID_10757_" class="st54" points="309.2,303.9 301,251 264.2,271.2 272.1,325.2 		"/>
		<g id="XMLID_10758_">
			<path id="XMLID_10759_" class="st17" d="M332.2,341.8v3.3c0,0.6-0.4,1.3-1.1,1.6l-7.5,4.1c-0.6,0.3-1.4,0-1.4-0.5V350l6.3-3.4
				c0.7-0.4,1.1-1,1.1-1.6V342l1.2-0.7C331.5,341,332.2,341.3,332.2,341.8z"/>
			<path id="XMLID_10760_" class="st29" d="M329.6,342v2.9c0,0.6-0.4,1.3-1.1,1.6l-6.3,3.4V347c0-0.6,0.4-1.3,1.1-1.6L329.6,342z"/>
		</g>
		<g id="XMLID_10761_">
			<path id="XMLID_10762_" class="st17" d="M383.7,311.8v3.3c0,0.6-0.4,1.3-1,1.6l-6.5,4.1c-0.5,0.3-1.2,0-1.2-0.5v-0.4l5.5-3.4
				c0.6-0.4,1-1,1-1.6v-2.9l1.1-0.7C383,310.9,383.7,311.2,383.7,311.8z"/>
			<path id="XMLID_10763_" class="st29" d="M381.4,311.9v2.9c0,0.6-0.4,1.3-1,1.6l-5.5,3.4V317c0-0.6,0.4-1.3,1-1.6L381.4,311.9z"/>
		</g>
		<g>
			<path class="st55" d="M220.3,224.9l-0.7,6.3l-1.9-1.2l-0.5,4.2l-4.9-3.1l0.5-4.2l-8.5-5.4l0.7-6.3l7.7-13l5.5,3.5l-7.8,13l3.1,2
				l0.6-4.9l4.9,3.1l-0.6,4.9L220.3,224.9z"/>
			<path class="st55" d="M231.5,221.9c1.8,1.2,3.3,3.1,4.3,5.9c1,2.8,1.4,5.6,1,8.5c-0.3,2.9-1.2,5-2.7,6.1c-1.5,1.2-3.1,1.1-5,0
				c-1.7-1.1-2.9-2.7-3.7-4.8l-1.1,9.6l-4.6-2.9l3.1-27.2l4.6,2.9l-0.2,1.8C228.4,220.7,229.8,220.8,231.5,221.9z M226.8,233.2
				c0.4,1.1,1.1,2,2,2.5c0.9,0.6,1.6,0.6,2.2,0.2c0.6-0.4,1-1.3,1.2-2.6c0.1-1.3,0-2.5-0.5-3.6c-0.4-1.1-1.1-2-2-2.5
				c-0.9-0.6-1.6-0.6-2.2-0.2c-0.6,0.4-1,1.3-1.2,2.6C226.2,230.9,226.4,232.1,226.8,233.2z"/>
			<path class="st55" d="M237.7,247.3l3.2-28.4l4.6,2.9l-3.2,28.4L237.7,247.3z"/>
		</g>
	</g>
</g>
</svg>
