<?xml version="1.0" encoding="utf-8"?>
<!-- Generator: Adobe Illustrator 24.1.0, SVG Export Plug-In . SVG Version: 6.00 Build 0)  -->
<svg version="1.1" id="Layer_1" xmlns="http://www.w3.org/2000/svg" xmlns:xlink="http://www.w3.org/1999/xlink" x="0px" y="0px"
	 viewBox="0 0 500 500" style="enable-background:new 0 0 500 500;" xml:space="preserve">
<style type="text/css">
	.st0{fill:#5C5C5C;}
	.st1{fill:#7E7E7E;}
	.st2{fill:#B1B1B1;}
	.st3{fill:#424242;}
	.st4{fill:#585858;}
	.st5{fill:#4F4F4F;}
	.st6{fill:#132F9F;}
	.st7{fill:#0034B3;}
	.st8{fill:#2E2E2E;}
	.st9{fill:#313131;}
	.st10{fill:#9EA0A7;}
	.st11{fill:#161718;}
	.st12{fill:#424A52;}
	.st13{fill:#1F1F1F;}
	.st14{fill:#2A2A2A;}
	.st15{fill:#1D1D1D;}
	.st16{fill:#3B3B3B;}
	.st17{fill:#727272;}
	.st18{fill:#A9A9A9;}
	.st19{fill:#E9EAE7;}
	.st20{fill:#737373;}
	.st21{fill:#949494;}
	.st22{fill:#575757;}
	.st23{fill:#CDCDCD;}
	.st24{fill:#DBDED9;}
	.st25{fill:#E0E0E0;}
	.st26{fill:#181818;}
	.st27{fill:#252525;}
	.st28{fill:#4486E6;}
	.st29{fill:#1753D8;}
	.st30{fill:#2B50BD;}
	.st31{fill:#0F44A2;}
	.st32{fill:#CAD2E6;}
	.st33{fill:#2A4B98;}
	.st34{fill:#8B9DC7;}
	.st35{fill:#0D0D0D;}
	.st36{fill:#1A1A1A;}
	.st37{fill:#6C6C6C;}
	.st38{fill:#404040;}
	.st39{fill:#676767;}
	.st40{fill:#90978D;}
	.st41{fill:#71796C;}
	.st42{fill:#2A58C7;}
	.st43{fill:#131313;}
	.st44{fill:#5279F3;}
	.st45{fill:#C0F3FF;}
	.st46{fill:url(#XMLID_2_);}
	.st47{fill:#657A8A;}
	.st48{fill:#A6CBFF;}
	.st49{fill:url(#XMLID_3_);}
	.st50{clip-path:url(#XMLID_4_);}
	.st51{clip-path:url(#XMLID_4_);fill:#1F1F1F;}
	.st52{clip-path:url(#XMLID_4_);fill:#2A2A2A;}
	.st53{clip-path:url(#XMLID_4_);fill:#1D1D1D;}
	.st54{clip-path:url(#XMLID_4_);fill:#3B3B3B;}
	.st55{clip-path:url(#XMLID_4_);fill:#727272;}
	.st56{clip-path:url(#XMLID_4_);fill:#A9A9A9;}
	.st57{clip-path:url(#XMLID_4_);fill:#E9EAE7;}
	.st58{clip-path:url(#XMLID_4_);fill:#737373;}
	.st59{clip-path:url(#XMLID_4_);fill:#949494;}
	.st60{clip-path:url(#XMLID_4_);fill:#CDCDCD;}
	.st61{clip-path:url(#XMLID_4_);fill:#DBDED9;}
	.st62{clip-path:url(#XMLID_4_);fill:#E0E0E0;}
	.st63{fill:#707070;}
	.st64{fill:#3F3F3F;}
	.st65{fill:#2F2E2A;}
	.st66{fill:#1F1E19;}
	.st67{fill:#003BEA;}
	.st68{fill:#666666;}
	.st69{fill:#8C8C8C;}
	.st70{fill:#6F8AA3;}
	.st71{fill:#5A87FA;}
	.st72{fill:url(#XMLID_5_);}
	.st73{fill:#0048DA;}
	.st74{fill:#4572FF;}
	.st75{fill:#111111;}
	.st76{fill:#242424;}
	.st77{fill:#212121;}
	.st78{fill:#030303;}
	.st79{fill:#161714;}
	.st80{fill:#4E4E4E;}
	.st81{fill:#3B3A36;}
	.st82{fill:#769AFA;}
	.st83{fill:#3569F1;}
	.st84{fill:#D2D4E4;}
	.st85{fill:#ECEFF6;}
	.st86{fill:#C4D0EC;}
	.st87{fill:#3166FF;}
	.st88{fill:#0E0E0E;}
	.st89{fill:#DCE2E8;}
	.st90{fill:#FFFFFF;}
	.st91{fill:#C4CDE2;}
	.st92{fill:#FBFCFD;}
	.st93{fill:#657A91;}
	.st94{fill:#1F54B8;}
</style>
<g>
	<g id="XMLID_9205_">
		<g id="XMLID_15298_">
			<path id="XMLID_14934_" class="st0" d="M256.4,317.2l-2.3,3.4l-1.9,2.7l-3.7,5.5l-4.4,6.5l-3.2,4.7l-1.5,2.3l-13.5-7.7l0,0
				c-1.2-0.6-38.6-22.5-39.4-23.7c-0.4-0.6-0.8-1.3-1-2.1c-0.2-0.6-0.3-1.3-0.3-2c0-1.5,0.2-2.9,0.5-4.3c0.6-2.6,1.8-5,3.5-7.1
				c1.4-1.7,3-3.1,4.9-4.2l41.1,18.2c1.2-0.7,22.7,10.9,24,10.9c1,0-26.2-16.4-25.3-16.1c0.7,0.3,1.3,0.6,1.9,1.1l14.7,8.5l2.6,1.5
				L256.4,317.2z"/>
			<path id="XMLID_14933_" class="st1" d="M252.3,323.3l-3.7,5.5l-4.4,6.5l-3.2,4.7l-55.4-31.3c-0.2-0.6-0.3-1.3-0.3-2
				c0-1.5,0.2-2.9,0.5-4.3c0.6-2.6,1.8-5,3.5-7.1c1.4-1.7,3-3.1,4.9-4.2l41.1,18.2c1.2-0.7,22.7,10.9,24,10.9
				c1,0-26.2-16.4-25.3-16.1c0.7,0.3,1.3,0.6,1.9,1.1l14.7,8.5L252.3,323.3z"/>
			<path id="XMLID_14932_" class="st2" d="M254.1,320.5l-1.9,2.7l-3.7,5.5l-4.4,6.5l-58.3-32.9c0.6-2.6,1.8-5,3.5-7.1
				c1.4-1.7,3-3.1,4.9-4.2l41.1,18.2c1.2-0.7,22.7,10.9,24,10.9c1,0-26.2-16.4-25.3-16.1c0.7,0.3,1.3,0.6,1.9,1.1l14.7,8.5l2.6,1.5
				L254.1,320.5z"/>
			<path id="XMLID_14931_" class="st3" d="M256.4,317.2l-2.3,3.4l-1.9,2.7l-3.7,5.5l-59.2-33.4c1.4-1.7,12.5-8.3,14.4-9.4l31.6,23.4
				c1.2-0.7,22.7,10.9,24,10.9c1,0-26.2-16.4-25.3-16.1c0.7,0.3,1.3,0.6,1.9,1.1l14.7,8.5l2.6,1.5L256.4,317.2z"/>
			<path id="XMLID_1183_" class="st4" d="M235.9,335.9L235.9,335.9c0,5.8,6.3,9.5,11.3,6.5l4.8-2.8c5.6-3.2,9-9.1,9-15.6l0,0
				c0-5.8-6.3-9.5-11.3-6.5l-4.8,2.8C239.3,323.6,235.9,329.5,235.9,335.9z"/>
			<path id="XMLID_14929_" class="st5" d="M259.7,319.8c-0.9,5.2-4,9.7-8.7,12.4l-4.8,2.8c-3.6,2.1-7.8,0.8-10-2.2
				c-0.2,1-0.3,2.1-0.3,3.1c0,5.8,6.3,9.5,11.3,6.5l4.8-2.8c5.6-3.2,9-9.1,9-15.6C261,322.5,260.5,321,259.7,319.8z"/>
		</g>
		<g id="XMLID_15293_">
			<polygon id="XMLID_1184_" class="st6" points="294.9,354.2 248,327.5 291.2,300.9 338.1,327.6 			"/>
			<polygon id="XMLID_14928_" class="st7" points="294.9,377.2 248,350.5 248,326.8 294.9,353.5 			"/>
			<polygon id="XMLID_14927_" class="st8" points="294.9,377.2 248,350.5 248,344.9 294.9,371.6 			"/>
		</g>
		<polygon id="XMLID_14925_" class="st9" points="321.4,280.3 299.6,293.2 282.8,293.8 330.6,295.6 		"/>
		<g id="XMLID_15287_">
			<g id="XMLID_15289_">
				<polygon id="XMLID_14924_" class="st10" points="108,212.6 110.6,214.1 79.1,232.2 76.5,230.7 				"/>
				<polygon id="XMLID_14923_" class="st11" points="79.1,248.8 76.5,247.4 76.5,230.7 79.1,232.2 				"/>
			</g>
			<polygon id="XMLID_14922_" class="st12" points="110.6,214.1 110.6,230.6 79.1,248.8 79.1,232.2 			"/>
		</g>
		<g id="XMLID_15203_">
			<g id="XMLID_15253_">
				<path id="XMLID_14921_" d="M120.3,299.2l-26.7-44.8l14-8.1l0,0c3.4-1.8,8-1.5,13.1,1.4c10.3,5.9,18.6,20.2,18.6,31.8
					c0,5.6-1.9,9.6-5.1,11.5l0,0l-0.3,0.2c-0.1,0-0.2,0.1-0.2,0.1L120.3,299.2z"/>
				<path id="XMLID_14920_" class="st13" d="M98.4,257.2l18.9-10.9c1.1,0.4,2.2,0.9,3.3,1.5c10.3,5.9,18.6,20.2,18.6,31.8
					c0,2.1-0.3,4-0.8,5.7l-14.6,8.4c-1.6-0.5-3.3-1.2-5-2.1c-1.9-1.1-3.7-2.5-5.5-4l-14-23.5C98.7,261.7,98.4,259.4,98.4,257.2z"/>
				<path id="XMLID_14919_" class="st14" d="M88.4,266c0,11.7,8.3,25.9,18.6,31.8c10.3,5.9,18.6,1.3,18.6-10.4
					c0-11.7-8.3-25.9-18.6-31.8C96.8,249.7,88.4,254.3,88.4,266z"/>
				<path id="XMLID_14918_" class="st15" d="M89.2,266.4c0,11.2,8,24.9,17.9,30.6c9.9,5.7,17.9,1.2,17.9-10c0-11.2-8-24.9-17.9-30.6
					C97.2,250.7,89.2,255.2,89.2,266.4z"/>
				<path id="XMLID_14917_" class="st16" d="M93.2,268.7c0,8.7,6.2,19.3,13.9,23.8c7.7,4.4,13.9,0.9,13.9-7.8
					c0-8.7-6.2-19.3-13.9-23.8C99.4,256.5,93.2,260,93.2,268.7z"/>
				<path id="XMLID_14916_" class="st17" d="M94.1,269.3c0,8.1,5.8,18,12.9,22.2c7.1,4.1,12.9,0.9,12.9-7.2c0-8.1-5.8-18-12.9-22.2
					C99.9,257.9,94.1,261.1,94.1,269.3z"/>
				<path id="XMLID_14915_" class="st18" d="M107.2,262.1c7.1,4.2,12.8,14,12.8,22c0,1.2-0.1,2.2-0.4,3.1l-9.4,5.5
					c-1-0.3-2.1-0.7-3.1-1.4c-7-4-12.7-13.7-12.9-21.7L107.2,262.1z"/>
				<path id="XMLID_14914_" class="st19" d="M114.3,268.7c2.5,3.4,4.4,7.4,5.2,11.4l-15.7,9c-3-2.6-5.7-6.2-7.4-10.1L114.3,268.7z"
					/>
				<path id="XMLID_14913_" class="st19" d="M114.3,268.7c2.5,3.4,4.4,7.4,5.2,11.4l-15.7,9c-3-2.6-5.7-6.2-7.4-10.1L114.3,268.7z"
					/>
				<path id="XMLID_14912_" class="st20" d="M98.2,269.1c0,6.5,4.6,14.3,10.3,17.6c5.7,3.3,10.3,0.7,10.3-5.8
					c0-6.5-4.6-14.3-10.3-17.6C102.9,260.1,98.2,262.7,98.2,269.1z"/>
				<path id="XMLID_14911_" class="st21" d="M100.1,269.6c0,5.5,4,12.3,8.8,15.1c4.9,2.8,8.8,0.6,8.8-4.9c0-5.5-4-12.3-8.8-15.1
					C104,261.8,100.1,264,100.1,269.6z"/>
				<path id="XMLID_14910_" class="st22" d="M113.5,268.7c0.1-0.2,0.3-0.3,0.5-0.4c0.5,0.7,1,1.4,1.5,2.1c-0.4,0.1-0.9,0.2-1.3,0
					C113.3,270,113.1,269.3,113.5,268.7z"/>
				<path id="XMLID_14909_" class="st22" d="M100.2,273.9c-0.6-0.8-0.5-1.4,0.3-1.5c0.7-0.1,1.8,0.5,2.4,1.3
					c0.6,0.8,0.5,1.4-0.3,1.5C101.8,275.3,100.8,274.7,100.2,273.9z"/>
				<path id="XMLID_14908_" class="st22" d="M115.7,279.9c-0.2-0.9,0.3-1.3,1-0.8c0.8,0.5,1.5,1.6,1.7,2.6c0.2,0.9-0.3,1.3-1,0.8
					C116.6,282,115.9,280.8,115.7,279.9z"/>
				<path id="XMLID_14907_" class="st22" d="M104.3,263.6c0.3-0.7,0.9-0.7,1.4,0.2c0.5,0.9,0.7,2.2,0.4,2.9
					c-0.3,0.7-0.9,0.7-1.4-0.2C104.2,265.7,104,264.4,104.3,263.6z"/>
				<path id="XMLID_14906_" class="st22" d="M115.8,273.5c-0.7-0.6-0.7-1.4-0.1-1.6c0.2-0.1,0.4-0.1,0.6-0.1
					c0.4,0.8,0.8,1.6,1.1,2.5C116.8,274.2,116.2,274,115.8,273.5z"/>
				<path id="XMLID_14905_" class="st22" d="M116.1,284.7c-0.1,0.8-0.7,0.9-1.3,0.1c-0.6-0.8-1-2.1-0.9-2.9c0.1-0.8,0.7-0.9,1.3-0.1
					C115.9,282.6,116.3,283.9,116.1,284.7z"/>
				<path id="XMLID_14904_" class="st22" d="M116.3,276.9c-0.5-0.9-0.3-1.4,0.5-1.3c0.4,0.1,0.8,0.3,1.2,0.6
					c0.2,0.8,0.4,1.7,0.6,2.5c0,0,0,0,0,0C117.8,278.6,116.8,277.8,116.3,276.9z"/>
				<path id="XMLID_14903_" class="st22" d="M101.9,278.7c-0.7-0.5-0.9-1.2-0.3-1.7c0.6-0.4,1.6-0.4,2.4,0.1
					c0.7,0.5,0.9,1.2,0.3,1.7C103.7,279.2,102.6,279.2,101.9,278.7z"/>
				<path id="XMLID_14902_" class="st22" d="M107.5,284.1c0-0.9,0.5-1.9,1.1-2.1c0.7-0.3,1.2,0.3,1.2,1.2c0,0.9-0.5,1.9-1.1,2.1
					C108.1,285.6,107.5,285,107.5,284.1z"/>
				<path id="XMLID_14901_" class="st22" d="M112.9,283.3c0.3,0.9,0.3,2.2-0.1,2.8c-0.4,0.6-1.1,0.3-1.4-0.6
					c-0.4-0.9-0.3-2.2,0.1-2.8C111.9,282.1,112.5,282.3,112.9,283.3z"/>
				<path id="XMLID_14900_" class="st22" d="M104,281.1c0.3-0.7,1.2-1.2,1.9-1.1c0.8,0.1,1.1,0.8,0.9,1.6c-0.3,0.7-1.2,1.2-1.9,1.1
					C104.1,282.6,103.7,281.9,104,281.1z"/>
				<path id="XMLID_14899_" class="st22" d="M102.9,268.7c-0.7-0.6-1.3-1.9-1.4-2.8c-0.1-0.9,0.5-1.1,1.2-0.5
					c0.7,0.6,1.3,1.9,1.4,2.8C104.1,269.1,103.6,269.3,102.9,268.7z"/>
				<path id="XMLID_14898_" class="st22" d="M112.9,267c-0.3,0.5-0.7,0.9-1.2,0.9c-0.7,0.1-1.2-0.5-1.1-1.4c0.1-0.5,0.3-0.9,0.6-1.2
					C111.8,265.8,112.3,266.4,112.9,267z"/>
				<path id="XMLID_14897_" class="st22" d="M100.8,268.7c0.8,0.3,1.7,1.2,2.1,2.2c0.4,0.9,0,1.4-0.8,1.1c-0.8-0.3-1.7-1.2-2.1-2.2
					C99.7,268.9,100,268.4,100.8,268.7z"/>
				<path id="XMLID_14896_" class="st22" d="M109.4,263.9c0,0.1,0.1,0.1,0.1,0.2c0.2,0.9-0.1,2.1-0.6,2.5c-0.5,0.5-1.2,0.1-1.4-0.9
					c-0.2-0.9,0.1-2.1,0.6-2.5c0,0,0.1,0,0.1,0c0.1,0.1,0.3,0.1,0.4,0.2C108.8,263.5,109.1,263.7,109.4,263.9z"/>
				<path id="XMLID_14895_" class="st23" d="M104.1,271.5c0,3.4,2.4,7.6,5.5,9.3c3,1.7,5.5,0.4,5.5-3.1c0-3.4-2.4-7.6-5.5-9.3
					C106.6,266.7,104.1,268.1,104.1,271.5z"/>
				<path id="XMLID_14894_" class="st18" d="M108.1,267.9c0.5,0.1,1,0.3,1.5,0.6c3,1.7,5.5,5.9,5.5,9.3c0,0.9-0.2,1.7-0.5,2.3l-5-1
					c-1.9-1.7-2.2-3.6-3.3-6L108.1,267.9z"/>
				<path id="XMLID_14893_" class="st24" d="M107.9,276.9c-0.4-0.7-0.7-1.4-1-2.2c2.1-0.8,4-1.9,5.7-3.4c0.9,1.3,1.6,2.7,2,4.2
					C112.3,275.6,110.1,276.1,107.9,276.9z"/>
				<path id="XMLID_14892_" class="st18" d="M104.1,274c0,2.4,1.7,5.4,3.9,6.6c2.1,1.2,3.9,0.3,3.9-2.2c0-2.4-1.7-5.4-3.9-6.6
					C105.9,270.6,104.1,271.6,104.1,274z"/>
				<path id="XMLID_14891_" class="st25" d="M105.3,275.5c0,1.3,0.9,2.9,2.1,3.6c1.2,0.7,2.1,0.1,2.1-1.2c0-1.3-0.9-2.9-2.1-3.6
					C106.2,273.7,105.3,274.2,105.3,275.5z"/>
				<path id="XMLID_14890_" d="M120.3,299.2l8.2-4.7c0.1,0,0.2-0.1,0.2-0.1l0.3-0.2l0,0c3.1-2,5.1-5.9,5.1-11.5
					c0-11.7-8.3-25.9-18.6-31.8c-5.1-2.9-9.7-3.3-13.1-1.4l0,0l0.9-0.5l0,0c3.4-1.8,8-1.5,13.1,1.4c10.3,5.9,18.6,20.2,18.6,31.8
					c0,5.6-1.9,9.6-5.1,11.5l0,0l-0.3,0.2c-0.1,0-0.2,0.1-0.2,0.1L120.3,299.2L120.3,299.2z"/>
				<path id="XMLID_14889_" d="M120.3,299.2l4-2.3c0.1,0,0.2-0.1,0.2-0.1l0.3-0.2l0,0c3.1-2,5.1-5.9,5.1-11.5
					c0-11.7-8.3-25.9-18.6-31.8c-5.1-2.9-9.7-3.3-13.1-1.4l0,0l0.9-0.5l0,0c3.4-1.8,8-1.5,13.1,1.4c10.3,5.9,18.6,20.2,18.6,31.8
					c0,5.6-1.9,9.6-5.1,11.5l0,0l-0.3,0.2c-0.1,0-0.2,0.1-0.2,0.1L120.3,299.2L120.3,299.2z"/>
			</g>
			<g id="XMLID_15218_">
				<path id="XMLID_14888_" d="M156.9,320.8l-26.7-44.8l14-8.1l0,0c3.4-1.8,8-1.5,13.1,1.4c10.3,5.9,18.6,20.2,18.6,31.8
					c0,5.6-1.9,9.6-5.1,11.5l0,0l-0.3,0.2c-0.1,0-0.2,0.1-0.2,0.1L156.9,320.8z"/>
				<path id="XMLID_14887_" class="st13" d="M135,278.8l18.9-10.9c1.1,0.4,2.2,0.9,3.3,1.5c10.3,5.9,18.6,20.2,18.6,31.8
					c0,2.1-0.3,4-0.8,5.7l-14.6,8.4c-1.6-0.5-3.3-1.2-5-2.1c-1.9-1.1-3.7-2.5-5.5-4l-14-23.5C135.4,283.3,135.1,281,135,278.8z"/>
				<path id="XMLID_14886_" class="st14" d="M125.1,287.6c0,11.7,8.3,25.9,18.6,31.8c10.3,5.9,18.6,1.3,18.6-10.4
					c0-11.7-8.3-25.9-18.6-31.8C133.4,271.2,125.1,275.9,125.1,287.6z"/>
				<path id="XMLID_14885_" class="st15" d="M125.8,288c0,11.2,8,24.9,17.9,30.6c9.9,5.7,17.9,1.2,17.9-10c0-11.2-8-24.9-17.9-30.6
					C133.8,272.3,125.8,276.8,125.8,288z"/>
				<path id="XMLID_14884_" class="st16" d="M129.8,290.3c0,8.7,6.2,19.3,13.9,23.8c7.7,4.4,13.9,0.9,13.9-7.8
					c0-8.7-6.2-19.3-13.9-23.8C136,278.1,129.8,281.6,129.8,290.3z"/>
				<path id="XMLID_14883_" class="st17" d="M130.8,290.8c0,8.1,5.8,18,12.9,22.2c7.1,4.1,12.9,0.9,12.9-7.2c0-8.1-5.8-18-12.9-22.2
					C136.6,279.5,130.8,282.7,130.8,290.8z"/>
				<path id="XMLID_14882_" class="st18" d="M143.9,283.7c7.1,4.2,12.8,14,12.8,22c0,1.2-0.1,2.2-0.4,3.1l-9.4,5.5
					c-1-0.3-2.1-0.7-3.1-1.4c-7-4-12.7-13.7-12.9-21.7L143.9,283.7z"/>
				<path id="XMLID_14881_" class="st19" d="M151,290.3c2.5,3.4,4.4,7.4,5.2,11.4l-15.7,9c-3-2.6-5.7-6.2-7.4-10.1L151,290.3z"/>
				<path id="XMLID_14880_" class="st19" d="M151,290.3c2.5,3.4,4.4,7.4,5.2,11.4l-15.7,9c-3-2.6-5.7-6.2-7.4-10.1L151,290.3z"/>
				<path id="XMLID_14879_" class="st20" d="M134.9,290.7c0,6.5,4.6,14.3,10.3,17.6s10.3,0.7,10.3-5.8c0-6.5-4.6-14.3-10.3-17.6
					C139.5,281.7,134.9,284.2,134.9,290.7z"/>
				<path id="XMLID_14878_" class="st21" d="M136.7,291.1c0,5.5,4,12.3,8.8,15.1c4.9,2.8,8.8,0.6,8.8-4.9c0-5.5-4-12.3-8.8-15.1
					C140.7,283.4,136.7,285.6,136.7,291.1z"/>
				<path id="XMLID_14877_" class="st22" d="M150.1,290.3c0.1-0.2,0.3-0.3,0.5-0.4c0.5,0.7,1,1.4,1.5,2.1c-0.4,0.1-0.9,0.2-1.3,0
					C150,291.6,149.7,290.9,150.1,290.3z"/>
				<path id="XMLID_14876_" class="st22" d="M136.8,295.5c-0.6-0.8-0.5-1.4,0.3-1.5c0.7-0.1,1.8,0.5,2.4,1.3
					c0.6,0.8,0.5,1.4-0.3,1.5C138.5,296.8,137.4,296.3,136.8,295.5z"/>
				<path id="XMLID_14875_" class="st22" d="M152.3,301.5c-0.2-0.9,0.3-1.3,1-0.8c0.8,0.5,1.5,1.6,1.7,2.6c0.2,0.9-0.3,1.3-1,0.8
					C153.3,303.5,152.5,302.4,152.3,301.5z"/>
				<path id="XMLID_14874_" class="st22" d="M141,285.2c0.3-0.7,0.9-0.7,1.4,0.2c0.5,0.9,0.7,2.2,0.4,2.9c-0.3,0.7-0.9,0.7-1.4-0.2
					C140.9,287.2,140.7,285.9,141,285.2z"/>
				<path id="XMLID_14873_" class="st22" d="M152.4,295.1c-0.7-0.6-0.7-1.4-0.1-1.6c0.2-0.1,0.4-0.1,0.6-0.1
					c0.4,0.8,0.8,1.6,1.1,2.5C153.5,295.8,152.9,295.5,152.4,295.1z"/>
				<path id="XMLID_14872_" class="st22" d="M152.8,306.3c-0.1,0.8-0.7,0.9-1.3,0.1c-0.6-0.8-1-2.1-0.9-2.9c0.1-0.8,0.7-0.9,1.3-0.1
					C152.6,304.2,152.9,305.5,152.8,306.3z"/>
				<path id="XMLID_14871_" class="st22" d="M153,298.5c-0.5-0.9-0.3-1.4,0.5-1.3c0.4,0.1,0.8,0.3,1.2,0.6c0.2,0.8,0.4,1.7,0.6,2.5
					c0,0,0,0,0,0C154.5,300.1,153.5,299.4,153,298.5z"/>
				<path id="XMLID_14870_" class="st22" d="M138.5,300.2c-0.7-0.5-0.9-1.2-0.3-1.7c0.6-0.4,1.6-0.4,2.4,0.1
					c0.7,0.5,0.9,1.2,0.3,1.7C140.3,300.8,139.3,300.7,138.5,300.2z"/>
				<path id="XMLID_14869_" class="st22" d="M144.2,305.7c0-0.9,0.5-1.9,1.1-2.1c0.7-0.3,1.2,0.3,1.2,1.2c0,0.9-0.5,1.9-1.1,2.1
					C144.8,307.1,144.2,306.6,144.2,305.7z"/>
				<path id="XMLID_14868_" class="st22" d="M149.5,304.8c0.4,0.9,0.3,2.2-0.1,2.8c-0.4,0.6-1.1,0.3-1.4-0.6
					c-0.4-0.9-0.3-2.2,0.1-2.8S149.2,303.9,149.5,304.8z"/>
				<path id="XMLID_14867_" class="st22" d="M140.7,302.7c0.3-0.7,1.2-1.2,1.9-1.1c0.8,0.1,1.1,0.8,0.9,1.6
					c-0.3,0.7-1.2,1.2-1.9,1.1C140.8,304.1,140.4,303.4,140.7,302.7z"/>
				<path id="XMLID_14866_" class="st22" d="M139.5,290.3c-0.7-0.6-1.3-1.9-1.4-2.8c-0.1-0.9,0.5-1.1,1.2-0.5
					c0.7,0.6,1.3,1.9,1.4,2.8C140.8,290.7,140.2,290.9,139.5,290.3z"/>
				<path id="XMLID_14865_" class="st22" d="M149.5,288.5c-0.3,0.5-0.7,0.9-1.2,0.9c-0.7,0.1-1.2-0.5-1.1-1.4
					c0.1-0.5,0.3-0.9,0.6-1.2C148.4,287.4,149,287.9,149.5,288.5z"/>
				<path id="XMLID_14864_" class="st22" d="M137.5,290.3c0.8,0.3,1.7,1.2,2.1,2.2c0.4,0.9,0,1.4-0.8,1.1c-0.8-0.3-1.7-1.2-2.1-2.2
					C136.4,290.5,136.7,290,137.5,290.3z"/>
				<path id="XMLID_14863_" class="st22" d="M146,285.5c0,0.1,0.1,0.1,0.1,0.2c0.2,0.9-0.1,2.1-0.6,2.5c-0.5,0.5-1.2,0.1-1.4-0.9
					c-0.2-0.9,0.1-2.1,0.6-2.5c0,0,0.1,0,0.1,0c0.1,0.1,0.3,0.1,0.4,0.2C145.5,285.1,145.8,285.3,146,285.5z"/>
				<path id="XMLID_14862_" class="st23" d="M140.8,293.1c0,3.4,2.4,7.6,5.5,9.3c3,1.7,5.5,0.4,5.5-3.1c0-3.4-2.4-7.6-5.5-9.3
					C143.2,288.3,140.8,289.7,140.8,293.1z"/>
				<path id="XMLID_14861_" class="st18" d="M144.7,289.4c0.5,0.1,1,0.3,1.5,0.6c3,1.7,5.5,5.9,5.5,9.3c0,0.9-0.2,1.7-0.5,2.3l-5-1
					c-1.9-1.7-2.2-3.6-3.3-6L144.7,289.4z"/>
				<path id="XMLID_14860_" class="st24" d="M144.6,298.5c-0.4-0.7-0.7-1.4-1-2.2c2.1-0.8,4-1.9,5.7-3.4c0.9,1.3,1.6,2.7,2,4.2
					C149,297.2,146.7,297.7,144.6,298.5z"/>
				<path id="XMLID_14859_" class="st18" d="M140.8,295.6c0,2.4,1.7,5.4,3.9,6.6c2.1,1.2,3.9,0.3,3.9-2.2c0-2.4-1.7-5.4-3.9-6.6
					C142.5,292.2,140.8,293.2,140.8,295.6z"/>
				<path id="XMLID_14858_" class="st25" d="M142,297.1c0,1.3,0.9,2.9,2.1,3.6c1.2,0.7,2.1,0.1,2.1-1.2c0-1.3-0.9-2.9-2.1-3.6
					C142.9,295.2,142,295.8,142,297.1z"/>
				<path id="XMLID_14857_" d="M156.9,320.8l8.2-4.7c0.1,0,0.2-0.1,0.2-0.1l0.3-0.2l0,0c3.1-2,5.1-5.9,5.1-11.5
					c0-11.7-8.3-25.9-18.6-31.8c-5.1-2.9-9.7-3.3-13.1-1.4l0,0l0.9-0.5l0,0c3.4-1.8,8-1.5,13.1,1.4c10.3,5.9,18.6,20.2,18.6,31.8
					c0,5.6-1.9,9.6-5.1,11.5l0,0l-0.3,0.2c-0.1,0-0.2,0.1-0.2,0.1L156.9,320.8L156.9,320.8z"/>
				<path id="XMLID_14856_" d="M156.9,320.8l4-2.3c0.1,0,0.2-0.1,0.2-0.1l0.3-0.2l0,0c3.1-2,5.1-5.9,5.1-11.5
					c0-11.7-8.3-25.9-18.6-31.8c-5.1-2.9-9.7-3.3-13.1-1.4l0,0l0.9-0.5l0,0c3.4-1.8,8-1.5,13.1,1.4c10.3,5.9,18.6,20.2,18.6,31.8
					c0,5.6-1.9,9.6-5.1,11.5l0,0l-0.3,0.2c-0.1,0-0.2,0.1-0.2,0.1L156.9,320.8L156.9,320.8z"/>
			</g>
			<g id="XMLID_15211_">
				<polygon id="XMLID_14855_" class="st26" points="100.7,245.5 84.5,253.1 84.5,255 93.7,252 109.9,242.5 				"/>
				<polygon id="XMLID_14854_" class="st9" points="100.7,243.5 84.5,253.1 93.7,250.1 109.9,240.5 				"/>
				<polygon id="XMLID_14853_" class="st26" points="109.9,242.5 93.7,252 163.6,292 179.7,282.4 				"/>
				<polygon id="XMLID_14852_" class="st26" points="177.2,280.4 161,289.9 169.6,305.1 172.2,305.2 				"/>
				<polygon id="XMLID_14851_" class="st27" points="109.9,240.5 93.7,250.1 163.6,290 179.7,280.5 				"/>
				<polygon id="XMLID_14850_" class="st9" points="179.7,280.5 163.6,290 172.2,305.2 196.1,292 				"/>
			</g>
			<polygon id="XMLID_14849_" class="st28" points="352.5,205.6 152.5,90 79.9,131.7 280.1,247.4 			"/>
			<polygon id="XMLID_1185_" class="st29" points="352.5,205.6 352.5,303.2 281.7,341 280.1,341.8 280.1,247.4 			"/>
			<polygon id="XMLID_14848_" class="st30" points="352.5,224 352.5,303.2 281.7,341 281.7,265 			"/>
			<polygon id="XMLID_14847_" class="st31" points="280.1,247.4 79.9,131.7 79.9,226.4 280.1,341.8 			"/>
			<polygon id="XMLID_14846_" class="st32" points="284.9,328.6 79.9,210.1 76.2,212 284.9,342.3 			"/>
			<polygon id="XMLID_14845_" class="st33" points="281.2,330.5 284.9,328 284.9,340.9 281.2,344.2 			"/>
			<polygon id="XMLID_14844_" class="st34" points="281.2,330.5 76.2,212 76.2,226 281.2,344.2 			"/>
		</g>
		<polygon id="XMLID_14843_" class="st35" points="404.9,309.1 413.6,304 413.6,280.7 404.9,285.7 		"/>
		<polygon id="XMLID_14842_" class="st36" points="413.1,303.3 413.1,283.4 407.3,286.7 407.3,306.7 		"/>
		<polygon id="XMLID_14841_" class="st37" points="413.6,280.7 413.1,283.4 407.3,286.7 404.9,285.7 		"/>
		<polygon id="XMLID_14840_" class="st38" points="407.3,306.7 404.9,309.1 413.6,304 413.1,303.3 		"/>
		<path id="XMLID_14839_" class="st39" d="M414.1,309.6c0,2.8-2.2,6.4-4.8,8c-2.7,1.6-4.8,0.7-4.8-2.2c0-2.8,2.2-6.4,4.8-8
			C411.9,305.8,414.1,306.8,414.1,309.6z"/>
		<path id="XMLID_14838_" class="st38" d="M411.8,315.3c-0.7,0.9-1.6,1.8-2.5,2.4c-0.5,0.3-0.9,0.5-1.3,0.6c0.6-1,1.4-1.9,2.3-2.4
			C410.8,315.5,411.3,315.3,411.8,315.3z"/>
		<path id="XMLID_14837_" class="st19" d="M407,309.4c0.7-0.8,1.4-1.5,2.2-2c1.6-1,3-1,3.9-0.3c0,0.1,0,0.2,0,0.3
			c0,2.2-1.5,3.9-3.3,3.9C408.7,311.5,407.6,310.6,407,309.4z"/>
		<path id="XMLID_14836_" class="st40" d="M413.5,310.9c0,1.9-1.4,4.3-3.2,5.4s-3.2,0.4-3.2-1.4c0-1.9,1.4-4.3,3.2-5.4
			C412,308.3,413.5,309,413.5,310.9z"/>
		<polygon id="XMLID_14835_" class="st41" points="409.7,298.2 411.6,297 411.6,300.6 409.7,301.7 409.3,301.4 409.3,297.9 		"/>
		<polygon id="XMLID_14834_" class="st39" points="411.6,299.6 411.6,296.1 409.7,297.2 409.7,300.7 		"/>
		<polygon id="XMLID_14833_" class="st19" points="411.6,296.1 411.2,295.8 409.3,296.9 409.7,297.2 		"/>
		<polygon id="XMLID_14832_" class="st38" points="409.3,300.5 409.3,296.9 409.7,297.2 409.7,300.7 		"/>
		<polygon id="XMLID_14831_" class="st41" points="409.7,312.8 411.6,311.7 411.6,314.1 409.7,315.2 409.3,314.9 409.3,312.6 		"/>
		<polygon id="XMLID_14830_" class="st39" points="411.6,313.1 411.6,310.7 409.7,311.8 409.7,314.2 		"/>
		<polygon id="XMLID_14829_" class="st19" points="411.6,310.7 411.2,310.5 409.3,311.6 409.7,311.8 		"/>
		<polygon id="XMLID_14828_" class="st38" points="409.3,314 409.3,311.6 409.7,311.8 409.7,314.2 		"/>
		<polygon id="XMLID_14827_" points="402.6,326.6 402.6,325.1 410.4,317.8 410.4,276.8 408.1,275.1 408.4,274 411.5,276.2 
			411.5,318.3 		"/>
		<polygon id="XMLID_14826_" class="st7" points="282.1,297.9 339.4,331 339.4,402.7 282.1,369.6 		"/>
		<polygon id="XMLID_14825_" class="st42" points="339.4,371.2 335.9,360.4 333.6,365 333.6,399.3 339.4,402 341.3,402.1 
			342.2,402.1 342.6,384.5 		"/>
		<path id="XMLID_14824_" class="st8" d="M300.7,312.6c0-0.3,0-0.6,0.3-0.9C300.9,311.9,300.8,312.3,300.7,312.6z"/>
		<path id="XMLID_14823_" class="st8" d="M301.8,311.1c0.4-0.2,0.8-0.2,1.1-0.1C302.5,310.9,302.2,310.9,301.8,311.1z"/>
		<path id="XMLID_14822_" class="st8" d="M303.4,311.2c-0.1-0.1-0.3-0.1-0.4-0.2C303.2,311.1,303.4,311.2,303.4,311.2z"/>
		<polygon id="XMLID_14821_" class="st42" points="332.3,355.8 332.3,355.7 322,322.1 324.7,322.5 337.5,365.1 332.2,363.9 		"/>
		<path id="XMLID_14820_" class="st6" d="M302.6,354.7l6.2,3.6v-2.2c0-1.5-0.8-2.8-2.1-3.6l-4.1-2.4V354.7z"/>
		<path id="XMLID_15176_" class="st6" d="M331.8,363.5l-0.1-0.1l-0.3,21.1l-18.7-9.9l-11.3-7v-23.1l-0.6-0.4v23.8l11.6,7.2
			l19.6,10.3l0.3-21.5L331.8,363.5z"/>
		<path id="XMLID_14818_" class="st6" d="M332.3,355.7L332.3,355.7l-0.1,8.2l-0.4-0.4l-0.1-0.1l0.1-7.6l-10.3-33.4l-18.4-10.8
			c-0.8-0.4-1.8,0.1-1.8,1v31.8l-0.6-0.4v-31.5c0-0.4,0.1-0.7,0.3-0.9c0,0,0-0.1,0.1-0.1c0.1-0.1,0.3-0.3,0.5-0.4
			c0.1-0.1,0.1-0.1,0.2-0.1c0.3-0.1,0.7-0.2,1.1-0.1c0.1,0,0.3,0.1,0.4,0.2l18.5,10.8l0.1,0.1L332.3,355.7z"/>
		<path id="XMLID_14817_" class="st43" d="M280.6,368.7V351c3.2-0.6,7.1,0.2,11.3,2.6c10.8,6.2,19.6,20.9,20.1,33.3L280.6,368.7z"/>
		<polygon id="XMLID_14816_" points="395.6,344.9 396.1,344.7 386.8,316.2 386.3,316.4 		"/>
		<polygon id="XMLID_14815_" points="369.8,361.5 370.3,361.3 361,332.9 360.5,333 		"/>
		<polygon id="XMLID_14814_" class="st44" points="324.7,322.5 407.3,274.8 418.4,312.7 335.9,360.4 		"/>
		<path id="XMLID_14813_" class="st45" d="M411.7,306.7l-0.3-1v1C411.5,306.7,411.6,306.7,411.7,306.7z"/>
		
			<linearGradient id="XMLID_2_" gradientUnits="userSpaceOnUse" x1="801.1972" y1="303.8017" x2="815.209" y2="276.4391" gradientTransform="matrix(1 0 0 1 -405.4736 0)">
			<stop  offset="0" style="stop-color:#92C6C3"/>
			<stop  offset="0.9409" style="stop-color:#6F777B"/>
		</linearGradient>
		<path id="XMLID_14812_" class="st46" d="M383.9,295.3c0.8,1.6,2.1,2.9,3.7,3.8l19,10.9c0.5-0.6,1-1.2,1.5-1.6c0,0,0.1-0.1,0.1-0.1
			c0.4-0.3,0.7-0.6,1.1-0.8c0.3-0.2,0.6-0.3,0.9-0.4c0.1,0,0.1,0,0.2-0.1c0,0,0,0,0,0v-1l-5.5,3.2v-16.9l-6.8-5.1L383.9,295.3z"/>
		<path id="XMLID_14811_" class="st47" d="M404.9,285.7v23.3l5.5-3.2v1c0,0,0,0,0,0c-0.1,0-0.1,0.1-0.2,0.1
			c-0.3,0.1-0.6,0.3-0.9,0.4c-0.4,0.2-0.8,0.5-1.1,0.8c0,0-0.1,0.1-0.1,0.1c-0.5,0.5-1,1-1.5,1.6l3.3,1.9c1.5,0.8,3.2-0.5,2.8-2.2
			l-0.9-3.1c-0.1,0-0.2,0-0.3,0v-1l-3-10.9l-2.7-9.6L404.9,285.7z"/>
		<polygon id="XMLID_14810_" class="st48" points="404.9,292.2 404.9,285.7 405.8,285.2 405.1,283 398,287.1 		"/>
		
			<linearGradient id="XMLID_3_" gradientUnits="userSpaceOnUse" x1="784.9628" y1="332.8467" x2="772.9835" y2="308.2739" gradientTransform="matrix(1 0 0 1 -405.4736 0)">
			<stop  offset="8.374380e-02" style="stop-color:#597390"/>
			<stop  offset="0.4241" style="stop-color:#4D6076"/>
			<stop  offset="0.9409" style="stop-color:#3C4752"/>
		</linearGradient>
		<path id="XMLID_14809_" class="st49" d="M415,306.3l-2.5-8.5l-4.1-3l4.2,15c0.5,1.6-1.3,3-2.8,2.2l-22.2-12.8
			c-1.6-0.9-2.9-2.3-3.7-3.8l14.2-8.2l14.4,10.7l-5.4-18.1c-0.4-1.3-1.9-1.9-3.1-1.2l-9.9,5.7l2.1,1.6l-2.1-1.6l-21.5,12.4l0,0
			l-20.5,11.8v0l-21.5,12.4l-0.1,0c-2.5,1.4-3.6,4.4-2.8,7.1l6.3,21.1c0.1,0.4,0.2,0.7,0.4,1.1c1.8,3.9,6.7,5.5,10.6,3.3l16.6-9.6
			l14.4-17.7l7.1,5.3l20.5-11.8l-7.1-5.3l1-0.6c3-1.7,6.7-1.9,9.8-0.6l4.2,1.8C414.6,313.3,416,309.7,415,306.3z"/>
		<g id="XMLID_15117_">
			<defs>
				<path id="XMLID_14775_" d="M297.7,408.6l-22-12.1L268,364l12.6-10.9V351c3.2-0.6,7.1,0.2,11.3,2.6c10.8,6.2,19.6,20.9,20.1,33.3
					l10.5,6.1L297.7,408.6z"/>
			</defs>
			<clipPath id="XMLID_4_">
				<use xlink:href="#XMLID_14775_"  style="overflow:visible;"/>
			</clipPath>
			<path id="XMLID_14808_" class="st50" d="M302.7,404.3L276,359.5l14-8.1l0,0c3.4-1.8,8-1.5,13.1,1.4c10.3,5.9,18.6,20.2,18.6,31.8
				c0,5.6-1.9,9.6-5.1,11.5l0,0l-0.3,0.2c-0.1,0-0.2,0.1-0.2,0.1L302.7,404.3z"/>
			<path id="XMLID_14807_" class="st51" d="M280.8,362.3l18.9-10.9c1.1,0.4,2.2,0.9,3.3,1.5c10.3,5.9,18.6,20.2,18.6,31.8
				c0,2.1-0.3,4-0.8,5.7l-14.6,8.4c-1.6-0.5-3.3-1.2-5-2.1c-1.9-1.1-3.7-2.5-5.5-4l-14-23.5C281.2,366.8,280.9,364.5,280.8,362.3z"
				/>
			<path id="XMLID_14806_" class="st52" d="M270.9,371.1c0,11.7,8.3,25.9,18.6,31.8c10.3,5.9,18.6,1.3,18.6-10.4
				c0-11.7-8.3-25.9-18.6-31.8C279.2,354.8,270.9,359.5,270.9,371.1z"/>
			<path id="XMLID_14805_" class="st53" d="M271.6,371.5c0,11.2,8,24.9,17.9,30.6c9.9,5.7,17.9,1.2,17.9-10c0-11.2-8-24.9-17.9-30.6
				C279.6,355.8,271.6,360.3,271.6,371.5z"/>
			<path id="XMLID_14804_" class="st54" d="M275.6,373.8c0,8.7,6.2,19.3,13.9,23.8c7.7,4.4,13.9,0.9,13.9-7.8
				c0-8.7-6.2-19.3-13.9-23.8C281.8,361.7,275.6,365.1,275.6,373.8z"/>
			<path id="XMLID_14803_" class="st55" d="M276.6,374.4c0,8.1,5.8,18,12.9,22.2c7.1,4.1,12.9,0.9,12.9-7.2c0-8.1-5.8-18-12.9-22.2
				C282.4,363,276.6,366.3,276.6,374.4z"/>
			<path id="XMLID_14802_" class="st56" d="M289.7,367.2c7.1,4.2,12.8,14,12.8,22c0,1.2-0.1,2.2-0.4,3.1l-9.4,5.5
				c-1-0.3-2.1-0.7-3.1-1.4c-7-4-12.7-13.7-12.9-21.7L289.7,367.2z"/>
			<path id="XMLID_14801_" class="st57" d="M296.7,373.8c2.5,3.4,4.4,7.4,5.2,11.4l-15.7,9c-3-2.6-5.7-6.2-7.4-10.1L296.7,373.8z"/>
			<path id="XMLID_14800_" class="st57" d="M296.7,373.8c2.5,3.4,4.4,7.4,5.2,11.4l-15.7,9c-3-2.6-5.7-6.2-7.4-10.1L296.7,373.8z"/>
			<path id="XMLID_14799_" class="st58" d="M280.7,374.3c0,6.5,4.6,14.3,10.3,17.6c5.7,3.3,10.3,0.7,10.3-5.8
				c0-6.5-4.6-14.3-10.3-17.6C285.3,365.2,280.7,367.8,280.7,374.3z"/>
			<path id="XMLID_14798_" class="st59" d="M282.5,374.7c0,5.5,4,12.3,8.8,15.1c4.9,2.8,8.8,0.6,8.8-4.9c0-5.5-4-12.3-8.8-15.1
				C286.5,366.9,282.5,369.1,282.5,374.7z"/>
			<g id="XMLID_1186_" class="st50">
				<path id="XMLID_14797_" class="st22" d="M295.9,373.8c0.1-0.2,0.3-0.3,0.5-0.4c0.5,0.7,1,1.4,1.5,2.1c-0.4,0.1-0.9,0.2-1.3,0
					C295.8,375.2,295.5,374.4,295.9,373.8z"/>
				<path id="XMLID_14796_" class="st22" d="M282.6,379c-0.6-0.8-0.5-1.4,0.3-1.5c0.7-0.1,1.8,0.5,2.4,1.3c0.6,0.8,0.5,1.4-0.3,1.5
					C284.3,380.4,283.2,379.8,282.6,379z"/>
				<path id="XMLID_14795_" class="st22" d="M298.1,385c-0.2-0.9,0.3-1.3,1-0.8c0.8,0.5,1.5,1.6,1.7,2.6c0.2,0.9-0.3,1.3-1,0.8
					C299.1,387.1,298.3,386,298.1,385z"/>
				<path id="XMLID_14794_" class="st22" d="M286.8,368.7c0.3-0.7,0.9-0.7,1.4,0.2c0.5,0.9,0.7,2.2,0.4,2.9
					c-0.3,0.7-0.9,0.7-1.4-0.2C286.7,370.8,286.5,369.5,286.8,368.7z"/>
				<path id="XMLID_14793_" class="st22" d="M298.2,378.7c-0.7-0.6-0.7-1.4-0.1-1.6c0.2-0.1,0.4-0.1,0.6-0.1
					c0.4,0.8,0.8,1.6,1.1,2.5C299.3,379.3,298.7,379.1,298.2,378.7z"/>
				<path id="XMLID_14792_" class="st22" d="M298.6,389.9c-0.1,0.8-0.7,0.9-1.3,0.1c-0.6-0.8-1-2.1-0.9-2.9c0.1-0.8,0.7-0.9,1.3-0.1
					C298.3,387.7,298.7,389,298.6,389.9z"/>
				<path id="XMLID_14791_" class="st22" d="M298.8,382.1c-0.5-0.9-0.3-1.4,0.5-1.3c0.4,0.1,0.8,0.3,1.2,0.6
					c0.2,0.8,0.4,1.7,0.6,2.5c0,0,0,0,0,0C300.3,383.7,299.2,382.9,298.8,382.1z"/>
				<path id="XMLID_14790_" class="st22" d="M284.3,383.8c-0.7-0.5-0.9-1.2-0.3-1.7c0.6-0.4,1.6-0.4,2.4,0.1
					c0.7,0.5,0.9,1.2,0.3,1.7C286.1,384.3,285.1,384.3,284.3,383.8z"/>
				<path id="XMLID_14789_" class="st22" d="M289.9,389.2c0-0.9,0.5-1.9,1.1-2.1c0.7-0.3,1.2,0.3,1.2,1.2c0,0.9-0.5,1.9-1.1,2.1
					C290.5,390.7,290,390.2,289.9,389.2z"/>
				<path id="XMLID_14788_" class="st22" d="M295.3,388.4c0.3,0.9,0.3,2.2-0.1,2.8c-0.4,0.6-1.1,0.3-1.4-0.6
					c-0.3-0.9-0.3-2.2,0.1-2.8C294.3,387.2,295,387.5,295.3,388.4z"/>
				<path id="XMLID_14787_" class="st22" d="M286.5,386.2c0.3-0.7,1.2-1.2,1.9-1.1c0.8,0.1,1.1,0.8,0.9,1.6
					c-0.3,0.7-1.2,1.2-1.9,1.1C286.6,387.7,286.2,387,286.5,386.2z"/>
				<path id="XMLID_14786_" class="st22" d="M285.3,373.8c-0.7-0.6-1.3-1.9-1.4-2.8c-0.1-0.9,0.5-1.1,1.2-0.5
					c0.7,0.6,1.3,1.9,1.4,2.8C286.5,374.2,286,374.5,285.3,373.8z"/>
				<path id="XMLID_14785_" class="st22" d="M295.3,372.1c-0.3,0.5-0.7,0.9-1.2,0.9c-0.7,0.1-1.2-0.5-1.1-1.4
					c0.1-0.5,0.3-0.9,0.6-1.2C294.2,370.9,294.8,371.5,295.3,372.1z"/>
				<path id="XMLID_14784_" class="st22" d="M283.3,373.8c0.8,0.3,1.7,1.2,2.1,2.2c0.4,0.9,0,1.4-0.8,1.1c-0.8-0.3-1.7-1.2-2.1-2.2
					C282.1,374,282.5,373.5,283.3,373.8z"/>
				<path id="XMLID_14783_" class="st22" d="M291.8,369c0,0.1,0.1,0.1,0.1,0.2c0.2,0.9-0.1,2.1-0.6,2.5c-0.5,0.5-1.2,0.1-1.4-0.9
					c-0.2-0.9,0.1-2.1,0.6-2.5c0,0,0.1,0,0.1,0c0.1,0.1,0.3,0.1,0.4,0.2C291.3,368.6,291.5,368.8,291.8,369z"/>
			</g>
			<path id="XMLID_14782_" class="st60" d="M286.6,376.7c0,3.4,2.4,7.6,5.5,9.3c3,1.7,5.5,0.4,5.5-3.1c0-3.4-2.4-7.6-5.5-9.3
				C289,371.9,286.6,373.2,286.6,376.7z"/>
			<path id="XMLID_14781_" class="st56" d="M290.5,373c0.5,0.1,1,0.3,1.5,0.6c3,1.7,5.5,5.9,5.5,9.3c0,0.9-0.2,1.7-0.5,2.3l-5-1
				c-1.9-1.7-2.2-3.6-3.3-6L290.5,373z"/>
			<path id="XMLID_14780_" class="st61" d="M290.4,382.1c-0.4-0.7-0.7-1.4-1-2.2c2.1-0.8,4-1.9,5.7-3.4c0.9,1.3,1.6,2.7,2,4.2
				C294.8,380.8,292.5,381.3,290.4,382.1z"/>
			<path id="XMLID_14779_" class="st56" d="M286.6,379.1c0,2.4,1.7,5.4,3.9,6.6c2.1,1.2,3.9,0.3,3.9-2.2c0-2.4-1.7-5.4-3.9-6.6
				C288.3,375.7,286.6,376.7,286.6,379.1z"/>
			<path id="XMLID_14778_" class="st62" d="M287.8,380.6c0,1.3,0.9,2.9,2.1,3.6c1.2,0.7,2.1,0.1,2.1-1.2c0-1.3-0.9-2.9-2.1-3.6
				C288.7,378.8,287.8,379.3,287.8,380.6z"/>
			<path id="XMLID_14777_" class="st50" d="M302.7,404.3l8.2-4.7c0.1,0,0.2-0.1,0.2-0.1l0.3-0.2l0,0c3.1-2,5.1-5.9,5.1-11.5
				c0-11.7-8.3-25.9-18.6-31.8c-5.1-2.9-9.7-3.3-13.1-1.4l0,0l0.9-0.5l0,0c3.4-1.8,8-1.5,13.1,1.4c10.3,5.9,18.6,20.2,18.6,31.8
				c0,5.6-1.9,9.6-5.1,11.5l0,0l-0.3,0.2c-0.1,0-0.2,0.1-0.2,0.1L302.7,404.3L302.7,404.3z"/>
			<path id="XMLID_14776_" class="st50" d="M302.7,404.3l4-2.3c0.1,0,0.2-0.1,0.2-0.1l0.3-0.2l0,0c3.1-2,5.1-5.9,5.1-11.5
				c0-11.7-8.3-25.9-18.6-31.8c-5.1-2.9-9.7-3.3-13.1-1.4l0,0l0.9-0.5l0,0c3.4-1.8,8-1.5,13.1,1.4c10.3,5.9,18.6,20.2,18.6,31.8
				c0,5.6-1.9,9.6-5.1,11.5l0,0l-0.3,0.2c-0.1,0-0.2,0.1-0.2,0.1L302.7,404.3L302.7,404.3z"/>
		</g>
		<polygon id="XMLID_14774_" class="st63" points="310.5,374.1 335.3,387.2 342.2,381.8 348.5,396.1 347.3,407.2 336.6,407.7 
			313.2,394.2 		"/>
		<path id="XMLID_14773_" class="st64" d="M310.5,375.2l25.8,13.6l5.6-5.6l7.6,14.5v10.7l-5,0.4c-4.5,0.3-9-0.7-13-3l-17.3-10
			L310.5,375.2z"/>
		<polygon id="XMLID_14772_" class="st65" points="332,391 314.9,381.1 314.9,387.5 332,397.4 		"/>
		<path id="XMLID_14771_" class="st66" d="M332,389.6l-17.1-9.9v6.4l2.8-0.1c3.6-0.2,7.1,1.4,9.4,4.1l4.9,5.9V389.6z"/>
		<polygon id="XMLID_14770_" class="st67" points="420.7,324.5 407,334.8 407,363.6 362.4,389.3 362.4,361 339.4,371.2 362.4,358 
			406,332.9 		"/>
		<polygon id="XMLID_14769_" class="st44" points="416.2,327.9 407,366 400.4,369.9 399.3,370.5 397.4,371.6 387.1,377.6 
			386.1,378.3 384.1,379.4 373.8,385.4 372.9,386 371.9,386.6 362.4,392.1 340.3,363.9 344.7,360.4 355.6,353.3 402.6,328.4 
			416.2,318.9 		"/>
		<path id="XMLID_14768_" class="st68" d="M414.5,322.1l-8,30.6l-0.6-12.1c0-7.1,3.1-13.8,8.5-18.4
			C414.4,322.2,414.4,322.1,414.5,322.1z"/>
		<path id="XMLID_14767_" class="st44" d="M421.9,355l-14.9,8.6l-0.6-10.9v-0.1l-0.6-12.1c0-7.1,3.1-13.8,8.5-18.4
			c0,0,0.1-0.1,0.2-0.1c0.3-0.2,0.6-0.5,0.9-0.8l3-8.6l2.5,5.5L421.9,355z"/>
		<path id="XMLID_14766_" class="st44" d="M342.4,390.4l0.2-5.9l-5-19.4l5.1-2.2c0.6-0.2,1.2-0.4,1.9-0.5c3.9-0.6,8.8,1.4,12.3,4.5
			c0.1,0,0.1,0.1,0.2,0.1c2.4,2.2,4,4.8,4,7.5l0.4,4.2v0l0.6,6.7l0.4,3.8l-17.6,10.8L342.4,390.4z"/>
		<path id="XMLID_14765_" class="st69" d="M421.9,335.7l1.1,1.3l-1.3,18.6c0.2,5.8-1.6,9.9-5.9,12.4l-66.7,38.6
			c-2.7,1.7-5.1-3.1-5.9-6.5l-1.3-18.1L421.9,335.7z"/>
		<polygon id="XMLID_14764_" class="st44" points="419.5,318.2 405.9,328.6 381.8,342.9 361.3,354.8 337.5,365.1 335.9,360.4 
			418.4,312.7 		"/>
		<path id="XMLID_14763_" class="st70" d="M407.3,313.2c-3.2-1.4-6.8-1.2-9.8,0.6l-1,0.6l1.6-0.8l-6.2-4.1l-7.5,4.3l-14,8.1l0,7.4
			l-35.9,20.8c1.8,3.9,6.7,5.5,10.6,3.3l16.6-9.6l21.5-12.4l20.5-11.8l8-4.6L407.3,313.2z"/>
		<path id="XMLID_14762_" class="st7" d="M325,322.6c-0.1-0.6-0.2-1.2-0.2-1.8c0-1.2,0.2-2.4,0.6-3.5l-40.7-23.5l-2.5,4.1L325,322.6
			z"/>
		<path id="XMLID_14761_" class="st44" d="M325.3,317.4c-0.4,1-0.6,2.2-0.6,3.5c0,0.6,0.1,1.2,0.2,1.8l1.1,0.6
			c1.4,0.8,3.1,1.3,4.7,1.2c0.7,0,1.3-0.1,2-0.2c0.7-0.1,1.3-0.4,2-0.7c0.2-0.1,0.5-0.2,0.7-0.4l73.4-42.4c1.4-0.8,1.8-2.4,1.3-3.7
			c-0.2-0.6-2.4-3.7-3-4.1c0,0,0,0,0,0l-42.4-22.8l-80,43.6L325.3,317.4z"/>
		<path id="XMLID_14760_" class="st42" d="M324.8,320.8c0,0.6,0.1,1.2,0.2,1.8l1.1,0.6c1.4,0.8,3.1,1.3,4.7,1.2c0.7,0,1.3-0.1,2-0.2
			c0.7-0.1,1.3-0.4,2-0.7c0.2-0.9,0.4-1.8,0.4-2.8c0-0.7-0.1-1.5-0.2-2.1c-0.6-3.1-2.6-5.4-4.9-5.4c-2,0-3.7,1.7-4.6,4.1
			C325,318.4,324.8,319.6,324.8,320.8z"/>
		<path id="XMLID_14759_" class="st71" d="M284.6,293.8l40.7,23.5l1.4,0.8c2.5,1.4,5.4,1.6,8,0.5c0.3-0.1,0.7-0.3,1-0.5l70.6-40.8
			c1.6-1,1.9-3.1,0.7-4.4c0,0,0,0,0,0c-0.2-0.2-0.4-0.4-0.6-0.5L364,248L284.6,293.8z"/>
		
			<linearGradient id="XMLID_5_" gradientUnits="userSpaceOnUse" x1="713.9149" y1="347.7474" x2="723.2328" y2="319.7937" gradientTransform="matrix(1 0 0 1 -405.4736 0)">
			<stop  offset="8.374380e-02" style="stop-color:#305176"/>
			<stop  offset="0.4391" style="stop-color:#293E5A"/>
			<stop  offset="0.9409" style="stop-color:#1F2636"/>
		</linearGradient>
		<path id="XMLID_14758_" class="st72" d="M322.9,344.1c-0.1-0.8-0.1-1.6-0.2-2.3l-2.1-15.8c-0.3-1.1-1-2.2-1.8-2.9
			c-0.3-0.3-0.6-0.5-1-0.7l-11.6-6.7c-0.2-0.1-0.4-0.2-0.6-0.3c-1.3-0.3-2.6,0.4-2.9,1.7c-0.1,0.2-0.1,0.4-0.1,0.7v15.6
			c0,0.5,0.2,1.7,0.2,1.8c0.5,2.8,2.3,4.5,4.8,6.8l13.5,12C324.1,354.2,323.1,347.2,322.9,344.1z"/>
		<path id="XMLID_14757_" class="st6" d="M298.4,332.3l-0.1-16c0-2-1.1-3.8-2.8-4.8l-7.9-4.5c-1.5-0.8-3.3,0.2-3.3,1.9l0.1,15.9
			c0,1.7,0.9,3.2,2.3,4.1l8.8,5.1C296.8,334.6,298.4,333.7,298.4,332.3z"/>
		<path id="XMLID_14756_" class="st7" d="M296.5,332.8c-0.1,0-0.2,0-0.3-0.1l-8.8-5.1c-1-0.6-1.7-1.7-1.7-2.9l-0.1-15.9
			c0-0.5,0.5-0.9,0.9-0.9c0.1,0,0.3,0,0.4,0.1l7.9,4.5c1.3,0.8,2.1,2.2,2.1,3.7l0.1,16C297.1,332.5,296.8,332.8,296.5,332.8
			L296.5,332.8z"/>
		<path id="XMLID_14755_" class="st27" d="M276.9,350.5c3.5-0.6,7.7,0.2,12.3,2.8c11.8,6.8,21.4,22.9,22,36.5v5l2.9-1.7v-5
			c-0.6-13.6-10.2-29.7-22-36.5c-4.6-2.6-8.8-3.5-12.4-2.8L276.9,350.5z"/>
		<path id="XMLID_14754_" d="M289.1,353.4c11.8,6.8,21.4,22.9,22,36.5v5l-1.5-0.9l0-5c0-0.6-0.1-1.3-0.2-1.8
			c-1.6-12.6-10.5-26.4-21-32.5c-3.2-1.9-6.4-2.8-9.2-2.8c-0.3,0-0.6,0-0.8,0c-0.5,0-1,0.1-1.5,0.1v-1.4
			C280.4,349.9,284.6,350.7,289.1,353.4z"/>
		<g id="XMLID_15073_">
			<path id="XMLID_14753_" class="st6" d="M372.7,282.8c-0.6,1,0.5,2.7,2.3,3.7c1.9,1.1,3.8,1.1,4.4,0.2c0.6-1-0.5-2.7-2.3-3.7
				C375.2,281.9,373.3,281.8,372.7,282.8z"/>
			<path id="XMLID_14752_" class="st6" d="M359.9,290.2c-0.6,1,0.5,2.7,2.3,3.7c1.9,1.1,3.8,1.1,4.4,0.2c0.6-1-0.5-2.7-2.3-3.7
				C362.4,289.3,360.4,289.2,359.9,290.2z"/>
			<path id="XMLID_14751_" class="st6" d="M346.9,297.7c-0.6,1,0.5,2.7,2.3,3.7c1.9,1.1,3.8,1.1,4.4,0.2c0.6-1-0.5-2.7-2.3-3.7
				C349.4,296.8,347.4,296.7,346.9,297.7z"/>
			<path id="XMLID_14750_" class="st73" d="M374.6,282.8c-0.6,1,0.5,2.7,2.3,3.7c1.9,1.1,3.8,1.1,4.4,0.2c0.6-1-0.5-2.7-2.3-3.7
				C377.1,281.9,375.1,281.8,374.6,282.8z"/>
			<path id="XMLID_14749_" class="st73" d="M361.8,290.2c-0.6,1,0.5,2.7,2.3,3.7c1.9,1.1,3.8,1.1,4.4,0.2c0.6-1-0.5-2.7-2.3-3.7
				C364.3,289.3,362.3,289.2,361.8,290.2z"/>
			<path id="XMLID_14748_" class="st73" d="M348.7,297.7c-0.6,1,0.5,2.7,2.3,3.7c1.9,1.1,3.8,1.1,4.4,0.2c0.6-1-0.5-2.7-2.3-3.7
				C351.3,296.8,349.3,296.7,348.7,297.7z"/>
			<path id="XMLID_14747_" class="st74" d="M350.4,297.8c-0.3,0.5,0.2,1.3,1.2,1.9c0.9,0.5,1.9,0.6,2.2,0.1c0.3-0.5-0.2-1.3-1.2-1.9
				C351.7,297.3,350.7,297.3,350.4,297.8z"/>
			<path id="XMLID_14746_" class="st74" d="M363.4,290.3c-0.3,0.5,0.2,1.3,1.2,1.9c0.9,0.5,1.9,0.6,2.2,0.1c0.3-0.5-0.2-1.3-1.2-1.9
				C364.7,289.8,363.7,289.8,363.4,290.3z"/>
			<path id="XMLID_14745_" class="st74" d="M376.4,282.8c-0.3,0.5,0.2,1.3,1.2,1.9c0.9,0.5,1.9,0.6,2.2,0.1c0.3-0.5-0.2-1.3-1.2-1.9
				C377.7,282.4,376.7,282.3,376.4,282.8z"/>
		</g>
		<polygon id="XMLID_14744_" class="st75" points="313.7,361.7 322.5,356.6 322.5,333.3 313.7,338.3 		"/>
		<polygon id="XMLID_14743_" class="st76" points="322,355.9 322,336 316.1,339.3 316.1,359.3 		"/>
		<polygon id="XMLID_14742_" class="st77" points="322.5,333.3 322,336 316.1,339.3 313.7,338.3 		"/>
		<polygon id="XMLID_14741_" class="st78" points="316.1,359.3 313.7,361.7 322.5,356.6 322,355.9 		"/>
		<polygon id="XMLID_14740_" class="st79" points="318.5,350.8 320.4,349.7 320.4,353.2 318.5,354.3 318.1,354 318.1,350.5 		"/>
		<polygon id="XMLID_14739_" class="st75" points="320.4,352.2 320.4,348.7 318.5,349.8 318.5,353.3 		"/>
		<polygon id="XMLID_14738_" class="st77" points="320.4,348.7 320,348.4 318.1,349.6 318.5,349.8 		"/>
		<polygon id="XMLID_14737_" class="st78" points="318.1,353.1 318.1,349.6 318.5,349.8 318.5,353.3 		"/>
		<polygon id="XMLID_1689_" points="320.9,319.2 317.9,321.5 318.9,354.5 320,354.1 320.7,325.2 323,323.5 		"/>
		<path id="XMLID_14735_" class="st80" d="M423,337.2v20.7c0,5-1.8,9.1-6.1,11.6L350.2,408c-3.1,1.8-6.9-4.4-6.9-8l-1.3-17
			L423,337.2z"/>
		<path id="XMLID_14734_" class="st81" d="M416.9,362.9l-66.7,38.6c-0.2,0.1-0.4,0.2-0.6,0.2v0l0,0c-0.2,0-0.4,0.1-0.6,0l-4.3,0.3
			c-4.5,0.3-9-0.7-13-3l-17.3-10l-2.4-13.2l-1.3-0.7l3.8,20.5l17.3,10c3.9,2.3,8.4,3.3,13,3l4.3-0.3c0.2,0,0.4,0,0.6,0l0,0v0
			c0.2-0.1,0.4-0.1,0.6-0.2l66.7-38.6c4.3-2.5,6.1-6.6,6.1-11.6v-6.6C423,356.2,421.2,360.4,416.9,362.9z"/>
		<g id="XMLID_15053_">
			<path id="XMLID_14733_" class="st82" d="M409.3,328.5v6.1c-0.2,2-1,1.7-3.4,3.4c-5.4,3.7-9.1,6.3-15.1,10
				c-5.7,3.6-20.1,11.5-28,15.3c-0.7,0.3-4.3,2.3-4.7,0.7l0-0.2l-0.2-6.1l50.1-28.5L409.3,328.5z"/>
			<path id="XMLID_14732_" class="st80" d="M408,329.2v0.2c-0.2,2-1,6.1-3.4,7.8c-5.4,3.7-9.1,6.3-15.1,10
				c-5.7,3.6-20.1,11.5-28,15.2c-0.5,0.2-2.2,1.2-3.5,1.3l-0.2-6.1L408,329.2z"/>
		</g>
		<path id="XMLID_14731_" class="st83" d="M392.5,266.2c0,1-0.9,1.9-2.5,4.1c-0.1-0.8-0.2-1.6-0.4-2.4c-0.1-0.3-0.1-0.7-0.2-1
			c-3.5-16.8-16.4-25.2-26.3-29.2l-7.8-6.2l1.5-0.9c3.9,1,10.7,3,17.3,7.2l0,0C382.7,243.2,390.8,251.9,392.5,266.2z"/>
		<path id="XMLID_14730_" class="st82" d="M390.1,270.4L390.1,270.4l-30.2,19.8L326,307.9c-3.8-31.5-39.1-36.3-39.1-36.3l68.6-40.2
			l1.5-0.9l3.7-2.2c0,0,0,0,0,0c0.3,0.1,6.7,2.8,13.5,9.4l0,0c6.2,6.1,12.8,15.5,15.2,29.1c0.1,0.3,0.1,0.7,0.2,1
			c0.1,0.8,0.3,1.6,0.3,2.4C390.1,270.3,390.1,270.3,390.1,270.4L390.1,270.4L390.1,270.4z"/>
		<path id="XMLID_14729_" class="st42" d="M286.9,271.7v20.8l23.7,13.4c4.7,2.6,10.2,3.4,15.4,2
			C322.1,276.4,286.9,271.7,286.9,271.7z"/>
		<path id="XMLID_14728_" class="st83" d="M286.9,271.7v2.9c10.6,4.3,24.5,13.6,26.8,32.7c0,0-0.1,0-0.1,0c3.9,1.5,8.3,1.7,12.4,0.6
			C322.1,276.4,286.9,271.7,286.9,271.7z"/>
		<path id="XMLID_14727_" class="st84" d="M390,270.3C390,270.3,390.1,270.3,390,270.3L390,270.3c0,0.1,0,0.1-0.1,0.1
			C390,270.4,390,270.3,390,270.3z"/>
		<path id="XMLID_14726_" class="st85" d="M358.7,393.5l-6.2,3.8c-1.9,1.2-4.5,0.5-5.6-1.5l-0.8-1.1v-9.9c0-1.4,0.8-2.7,2-3.4
			l5.6-3.1c0.8-0.5,1.8,0.1,1.9,1l0.1,1.5l0.2,3l0.5,7.3L358.7,393.5z"/>
		<path id="XMLID_14725_" class="st86" d="M355.8,380.8c0,0.2-0.1,0.4-0.2,0.6l-2,5.8l-6.5,3.6l-0.9,1.2v-7.2c0-1.4,0.8-2.7,2-3.4
			l5.6-3.1c0.8-0.5,1.8,0.1,1.9,1L355.8,380.8z"/>
		<path id="XMLID_14724_" class="st85" d="M420.6,341.8v10.1l-1.2,4.2c-0.9,3.1-4.3,5.7-7.7,7.6l0.5-5.1l0.3-5.8l0.3-6
			c0.1-1.4,0.8-2.6,2-3.4l4-2.5C419.6,340.4,420.6,340.9,420.6,341.8z"/>
		<path id="XMLID_14723_" class="st86" d="M420.6,341.8v6.2l-8.1,4.7l0.3-6c0.1-1.4,0.8-2.6,2-3.4l4-2.5
			C419.6,340.4,420.6,340.9,420.6,341.8z"/>
		<path id="XMLID_14722_" class="st87" d="M353,396.1l4.1-2.6l-1.6-1.9l1-0.6l-3.5,2.1c-1.9,1.2-4.5,0.5-5.6-1.5l-0.9-1.6v3.5
			l0.8,1.1C348.6,396.6,351.1,397.3,353,396.1z"/>
		<path id="XMLID_14721_" class="st87" d="M414.9,357.2l-1.7,0.9l-0.3,3.9l2.6-1.5c1.6-0.9,2.4-1.8,3.3-5l1.2-4.2v-3.6l-0.6,2
			C418.6,352.9,416.5,356.3,414.9,357.2z"/>
		<g id="XMLID_10971_">
			<path id="XMLID_14720_" class="st69" d="M409.6,347.2v4.5c-0.2,1.9-0.5,2-2.8,3.6c-5.1,3.6-9.1,5.6-14.8,9.2
				c-5.4,3.5-19.1,11-26.6,14.6c-0.7,0.3-4.3,2.2-4.7,0.7v-0.2l-0.2-4.5l47.9-27.2L409.6,347.2z"/>
			<path id="XMLID_14719_" class="st88" d="M408.4,347.9v0.2c-0.2,1.9-0.5,4.9-2.8,6.5c-5.1,3.6-9.1,5.6-14.8,9.2
				c-5.4,3.5-19.1,11-26.6,14.6c-0.5,0.2-2.3,1.1-3.5,1.2l-0.2-4.5L408.4,347.9z"/>
		</g>
		<g id="XMLID_10967_">
			<path id="XMLID_14718_" class="st69" d="M409.6,355.8v4.5c-0.2,1.9-0.5,2-2.8,3.6c-5.1,3.6-9.1,5.6-14.8,9.2
				c-5.4,3.5-19.1,11-26.6,14.6c-0.7,0.3-4.3,2.2-4.7,0.7v-0.2l-0.2-4.5l47.9-27.2L409.6,355.8z"/>
			<path id="XMLID_14717_" class="st88" d="M408.4,356.5v0.2c-0.2,1.9-0.5,4.9-2.8,6.5c-5.1,3.6-9.1,5.6-14.8,9.2
				c-5.4,3.5-19.1,11-26.6,14.6c-0.5,0.2-2.3,1.1-3.5,1.2l-0.2-4.5L408.4,356.5z"/>
			<path id="XMLID_14716_" class="st89" d="M381.6,370.3c0-2.2,1.5-4.9,3.5-6.1c0,0,0.1,0,0.1-0.1l1.9-0.4c0.9,0.2,1.4,1,1.5,2.4
				c0,2.2-1.5,4.9-3.5,6.1C383.2,373.4,381.6,372.5,381.6,370.3z"/>
		</g>
		<g id="XMLID_10963_">
			<path id="XMLID_14715_" class="st90" d="M416.8,306.7l0.7,1c-0.3,3.3-2.3,5.2-6.2,7.9c-8.7,6.1-14.8,9.3-24.6,15.5
				c-9.3,5.8-33.9,20.2-46.7,26.5c-1.2,0.5-5.8,2.8-6.4,0.3l-0.2-1.1l-0.3-2.4l81.6-46.4L416.8,306.7z"/>
			<path id="XMLID_14714_" class="st91" d="M417.5,307.7v2.4c-0.3,3.3-1.6,3.7-5.5,6.4c-8.7,6.1-14.8,9.3-24.6,15.5
				c-9.3,5.8-32.8,18.7-45.6,24.9c-1.2,0.5-6.5,3.4-7.1,0.9l-0.1-0.4l-0.3-2.4l81-46.1L417.5,307.7z"/>
			<path id="XMLID_14713_" class="st34" d="M333,354.4l1.3,0.7l0.3,2.6c0,0,0.3,1.1,1,1.2c0.7,0.1,1,0,1,0s-1.7,0.4-2.3,0.1
				c-0.6-0.4-1-0.3-1.1-1.9C333,355.2,333,354.4,333,354.4z"/>
		</g>
		<path id="XMLID_14712_" class="st92" d="M349.1,388.1c0-1.8,1.2-3.9,2.8-4.8c0,0,0.1,0,0.1-0.1l1.6-0.3c0.7,0.2,1.2,0.8,1.2,1.9
			c0,1.8-1.2,3.9-2.8,4.8C350.4,390.5,349.1,389.8,349.1,388.1z"/>
		<path id="XMLID_14711_" class="st92" d="M413.4,351.7c0-1.8,1.2-3.9,2.8-4.8c0,0,0.1,0,0.1-0.1l1.6-0.3c0.7,0.2,1.2,0.8,1.2,1.9
			c0,1.8-1.2,3.9-2.8,4.8C414.7,354.2,413.4,353.5,413.4,351.7z"/>
		<g id="XMLID_10955_">
			<path id="XMLID_14710_" class="st93" d="M177.8,275.2v2.9c0,0.6,0.3,1.1,0.8,1.3l5.2,3c0.4,0.2,1-0.1,1-0.6v-0.3l-4.4-2.5
				c-0.5-0.3-0.8-0.8-0.8-1.3v-2.6l-0.9-0.5C178.4,274.4,177.8,274.7,177.8,275.2z"/>
			<path id="XMLID_14709_" class="st94" d="M179.6,275.1v2.6c0,0.6,0.3,1.1,0.8,1.3l4.4,2.5V279c0-0.6-0.3-1.1-0.8-1.3L179.6,275.1z
				"/>
		</g>
		<g id="XMLID_10950_">
			<path id="XMLID_14708_" class="st93" d="M219.5,299.3v2.9c0,0.6,0.3,1.1,0.8,1.3l5.2,3c0.4,0.2,1-0.1,1-0.6v-0.3l-4.4-2.5
				c-0.5-0.3-0.8-0.8-0.8-1.3v-2.6l-0.9-0.5C220.1,298.5,219.5,298.8,219.5,299.3z"/>
			<path id="XMLID_14707_" class="st94" d="M221.3,299.2v2.6c0,0.6,0.3,1.1,0.8,1.3l4.4,2.5v-2.6c0-0.6-0.3-1.1-0.8-1.3L221.3,299.2
				z"/>
		</g>
		<g id="XMLID_10944_">
			<path id="XMLID_14706_" class="st93" d="M263.5,324.6v2.9c0,0.6,0.3,1.1,0.8,1.3l5.2,3c0.4,0.2,1-0.1,1-0.6V331l-4.4-2.5
				c-0.5-0.3-0.8-0.8-0.8-1.3v-2.6l-0.9-0.5C264,323.8,263.5,324.1,263.5,324.6z"/>
			<path id="XMLID_14705_" class="st94" d="M265.3,324.6v2.6c0,0.6,0.3,1.1,0.8,1.3l4.4,2.5v-2.6c0-0.6-0.3-1.1-0.8-1.3L265.3,324.6
				z"/>
		</g>
		<g id="XMLID_9545_">
			<path id="XMLID_14704_" class="st93" d="M95.5,227.5v2.9c0,0.6,0.3,1.1,0.8,1.3l5.2,3c0.4,0.2,1-0.1,1-0.6v-0.3l-4.4-2.5
				c-0.5-0.3-0.8-0.8-0.8-1.3v-2.6l-0.9-0.5C96,226.7,95.5,227,95.5,227.5z"/>
			<path id="XMLID_14703_" class="st94" d="M97.3,227.5v2.6c0,0.6,0.3,1.1,0.8,1.3l4.4,2.5v-2.6c0-0.6-0.3-1.1-0.8-1.3L97.3,227.5z"
				/>
		</g>
		<g id="XMLID_9448_">
			<path id="XMLID_14702_" class="st93" d="M135.1,250.5v2.9c0,0.6,0.3,1.1,0.8,1.3l5.2,3c0.4,0.2,1-0.1,1-0.6v-0.3l-4.4-2.5
				c-0.5-0.3-0.8-0.8-0.8-1.3v-2.6l-0.9-0.5C135.6,249.7,135.1,250,135.1,250.5z"/>
			<path id="XMLID_14701_" class="st94" d="M136.9,250.4v2.6c0,0.6,0.3,1.1,0.8,1.3l4.4,2.5v-2.6c0-0.6-0.3-1.1-0.8-1.3L136.9,250.4
				z"/>
		</g>
	</g>
	<g>
		<path class="st90" d="M159.3,223.4l-0.5,8.3l-2.6-1.5l-0.3,5.5l-6.7-3.8l0.3-5.5l-11.5-6.5l0.5-8.3l9.2-17.5l7.4,4.2l-9.2,17.5
			l4.1,2.3l0.4-6.4l6.7,3.8l-0.4,6.4L159.3,223.4z"/>
		<path class="st90" d="M173.7,218.7c2.5,1.4,4.5,3.9,6,7.4c1.5,3.5,2.2,7.2,1.9,11c-0.2,3.8-1.3,6.6-3.1,8.2
			c-1.8,1.6-4,1.7-6.5,0.3c-2.3-1.3-4-3.3-5.1-6.1l-0.8,12.5l-6.2-3.5l2.2-35.7l6.2,3.5l-0.1,2.3
			C169.6,217.4,171.4,217.4,173.7,218.7z M168.4,233.8c0.7,1.4,1.6,2.5,2.7,3.1c1.2,0.7,2.1,0.7,2.9,0.1c0.8-0.6,1.2-1.7,1.3-3.4
			c0.1-1.7-0.2-3.2-0.8-4.6c-0.7-1.4-1.6-2.5-2.7-3.1c-1.2-0.7-2.1-0.7-2.9-0.1c-0.8,0.6-1.2,1.8-1.3,3.4
			C167.5,230.8,167.8,232.3,168.4,233.8z"/>
		<path class="st90" d="M183.6,251.4l2.3-37.2l6.2,3.5l-2.3,37.2L183.6,251.4z"/>
	</g>
</g>
</svg>
