<?xml version="1.0" encoding="utf-8"?>
<!-- Generator: Adobe Illustrator 24.1.0, SVG Export Plug-In . SVG Version: 6.00 Build 0)  -->
<svg version="1.1" id="Layer_1" xmlns="http://www.w3.org/2000/svg" xmlns:xlink="http://www.w3.org/1999/xlink" x="0px" y="0px"
	 viewBox="0 0 500 500" style="enable-background:new 0 0 500 500;" xml:space="preserve">
<style type="text/css">
	.st0{fill-rule:evenodd;clip-rule:evenodd;fill:#0049B3;}
	.st1{fill-rule:evenodd;clip-rule:evenodd;fill:#042B6E;}
	.st2{fill-rule:evenodd;clip-rule:evenodd;fill:#18171D;}
	.st3{fill-rule:evenodd;clip-rule:evenodd;}
	.st4{fill-rule:evenodd;clip-rule:evenodd;fill:#1F2D5E;}
	.st5{fill-rule:evenodd;clip-rule:evenodd;fill:#1B1B1F;}
	.st6{fill-rule:evenodd;clip-rule:evenodd;fill:#0B307A;}
	.st7{fill-rule:evenodd;clip-rule:evenodd;fill:#326BD4;}
	.st8{fill-rule:evenodd;clip-rule:evenodd;fill:#2249A7;}
	.st9{fill-rule:evenodd;clip-rule:evenodd;fill:#0062E0;}
	.st10{fill:#3A6AF1;}
	.st11{fill:#4E6383;}
	.st12{fill-rule:evenodd;clip-rule:evenodd;fill:#010007;}
	.st13{fill-rule:evenodd;clip-rule:evenodd;fill:#7F91CE;}
	.st14{fill-rule:evenodd;clip-rule:evenodd;fill:#5B6FA1;}
	.st15{fill-rule:evenodd;clip-rule:evenodd;fill:#2F467C;}
	.st16{fill:#577DFF;}
	.st17{fill:#0049B3;}
	.st18{fill:#052397;}
	.st19{fill:#1D1D1D;}
	.st20{fill:#092A59;}
	.st21{fill:#2E5AA6;}
	.st22{fill:#0E0E0E;}
	.st23{fill:#273552;}
	.st24{fill:#476284;}
	.st25{fill:#092B73;}
	.st26{fill:#3B4B66;}
	.st27{fill:#1E1E1E;}
	.st28{fill:#090909;}
	.st29{fill:#0057FF;}
	.st30{fill:#357BC9;}
	.st31{fill:#0539BC;}
	.st32{fill:#0046BD;}
	.st33{fill:#0552E0;}
	.st34{fill:#0536E0;}
	.st35{fill:#4D6AED;}
	.st36{fill:#6F78A1;}
	.st37{fill:#3463FF;}
	.st38{fill:#5A84FA;}
	.st39{fill:#1A3569;}
	.st40{fill:#364263;}
	.st41{fill:#002F69;}
	.st42{fill:#779ABF;}
	.st43{fill:#9CB1E2;}
	.st44{fill:#637DD6;}
	.st45{fill:#293A7D;}
	.st46{fill:#415EB7;}
	.st47{fill:#3A5091;}
	.st48{fill:#2D548C;}
	.st49{fill:#4560AD;}
	.st50{fill:#324899;}
	.st51{fill:#FFFFFF;}
</style>
<g>
	<g id="XMLID_2_">
		<g id="XMLID_3_">
			<g id="XMLID_51_">
				<path id="XMLID_272_" class="st0" d="M99.2,273.9v29.6l29.5,22.2C128.7,325.7,127.9,281.9,99.2,273.9z"/>
				<g id="XMLID_244_">
					<g id="XMLID_245_">
						<g id="XMLID_258_">
							<g id="XMLID_259_">
								<path id="XMLID_270_" class="st1" d="M120.7,277.5c-9.9-5.4-18.4-1.3-19.1,9c-0.6,10.3,6.9,23.1,16.7,28.5
									c9.9,5.4,18.4,1.3,19.1-9C138.1,295.6,130.6,282.8,120.7,277.5z"/>
								<polygon id="XMLID_269_" class="st1" points="90.9,286.4 107.2,276.4 102.1,286.4 								"/>
								<polygon id="XMLID_268_" class="st1" points="116.4,325.7 132.7,315.5 118.9,309.1 117.3,320.8 								"/>
								<path id="XMLID_266_" class="st2" d="M104.5,287.5c-9.9-5.4-18.4-1.3-19.1,9c-0.6,10.3,6.9,23.1,16.7,28.5
									c9.9,5.4,18.4,1.3,19.1-9C121.9,305.7,114.3,292.9,104.5,287.5z"/>
								<path id="XMLID_264_" class="st3" d="M104.2,292.8c-7.1-3.9-13.3-1-13.7,6.5c-0.5,7.4,5,16.6,12.1,20.5
									c7.1,3.9,13.3,1,13.7-6.5C116.7,305.8,111.3,296.6,104.2,292.8z"/>
								<path id="XMLID_262_" class="st4" d="M104.5,287.5c-9.9-5.4-18.4-1.3-19.1,9c-0.6,10.3,6.9,23.1,16.7,28.5
									c9.9,5.4,18.4,1.3,19.1-9C121.9,305.7,114.3,292.9,104.5,287.5z"/>
								<path id="XMLID_260_" class="st5" d="M104.4,289.3c-8.9-4.8-16.6-1.2-17.2,8.1c-0.6,9.3,6.2,20.9,15.1,25.7
									c8.9,4.8,16.6,1.2,17.2-8.1C120.1,305.7,113.3,294.2,104.4,289.3z"/>
							</g>
						</g>
						<path id="XMLID_256_" class="st6" d="M104.1,293.8c-6.5-3.6-12.2-0.9-12.7,6c-0.4,6.8,4.6,15.3,11.1,18.9
							c6.5,3.6,12.2,0.9,12.7-6C115.6,305.9,110.6,297.4,104.1,293.8z"/>
						<path id="XMLID_254_" class="st7" d="M104.6,294.7c-5.8-3.1-10.8-0.8-11.2,5.3c-0.4,6,4,13.5,9.8,16.7
							c5.8,3.1,10.8,0.8,11.2-5.3C114.7,305.3,110.3,297.8,104.6,294.7z"/>
						<path id="XMLID_252_" class="st8" d="M104.5,295c-5.6-3-10.5-0.8-10.8,5.1c-0.4,5.9,3.9,13.1,9.5,16.2
							c5.6,3,10.5,0.8,10.8-5.1C114.4,305.4,110.1,298.1,104.5,295z"/>
						<path id="XMLID_250_" class="st7" d="M104.5,295.7c-5.2-2.9-9.8-0.7-10.2,4.8c-0.3,5.5,3.7,12.3,8.9,15.2
							c5.2,2.9,9.8,0.7,10.2-4.8C113.7,305.4,109.7,298.6,104.5,295.7z"/>
						<path id="XMLID_248_" class="st9" d="M112.7,308.9c-0.4-4.8-3.8-10.2-8.3-12.6c-0.1-0.1-0.2-0.1-0.3-0.1
							c-4.8-2.5-8.9-0.4-9.2,4.6c-0.3,5.2,3.5,11.6,8.4,14.3c5,2.7,9.2,0.6,9.6-4.5C112.9,310,112.8,309.4,112.7,308.9z"/>
						<path id="XMLID_246_" class="st8" d="M104.4,296.3c-0.1-0.1-0.2-0.1-0.3-0.1c-1.8,0.1-3.1,1.5-3.3,3.9
							c-0.2,3.6,2.4,8.1,5.9,9.9c2.7,1.5,5.1,0.9,6-1.1C112.4,304,108.9,298.6,104.4,296.3z"/>
					</g>
				</g>
				<g id="XMLID_240_">
					<polygon id="XMLID_243_" class="st10" points="214.4,172.2 183.8,154.5 183.8,203.2 214.4,220.9 					"/>
					<polygon id="XMLID_242_" class="st11" points="201.5,164.4 116,215.8 130.8,224.7 214.4,172.2 					"/>
					<polygon id="XMLID_241_" class="st10" points="282.5,260.3 287.8,263.3 287.8,260.3 					"/>
				</g>
				<g id="XMLID_212_">
					<g id="XMLID_213_">
						<g id="XMLID_226_">
							<g id="XMLID_227_">
								<path id="XMLID_238_" class="st1" d="M302.8,270.7c-9.9-5.4-18.4-1.3-19.1,9c-0.6,10.3,6.9,23.1,16.7,28.5
									c9.9,5.4,18.4,1.3,19.1-9C320.2,288.8,312.6,276,302.8,270.7z"/>
								<polygon id="XMLID_237_" class="st12" points="273,279.6 289.2,269.6 284.1,279.6 								"/>
								<polygon id="XMLID_236_" class="st1" points="298.5,318.9 314.8,308.7 301,302.3 299.3,314 								"/>
								<path id="XMLID_234_" class="st2" d="M286.6,280.7c-9.9-5.4-18.4-1.3-19.1,9c-0.6,10.3,6.9,23.1,16.7,28.5
									c9.9,5.4,18.4,1.3,19.1-9C303.9,298.9,296.4,286.1,286.6,280.7z"/>
								<path id="XMLID_232_" class="st3" d="M286.2,286c-7.1-3.9-13.3-1-13.7,6.5c-0.5,7.4,5,16.6,12.1,20.5
									c7.1,3.9,13.3,1,13.7-6.5C298.7,299.1,293.3,289.8,286.2,286z"/>
								<path id="XMLID_230_" class="st4" d="M286.6,280.7c-9.9-5.4-18.4-1.3-19.1,9c-0.6,10.3,6.9,23.1,16.7,28.5
									c9.9,5.4,18.4,1.3,19.1-9C303.9,298.9,296.4,286.1,286.6,280.7z"/>
								<path id="XMLID_228_" class="st5" d="M286.4,282.6c-8.9-4.8-16.6-1.2-17.2,8.1c-0.6,9.3,6.2,20.9,15.1,25.7
									c8.9,4.8,16.6,1.2,17.2-8.1C302.1,299,295.3,287.4,286.4,282.6z"/>
							</g>
						</g>
						<path id="XMLID_224_" class="st6" d="M286.2,287c-6.5-3.6-12.2-0.9-12.7,6c-0.4,6.8,4.6,15.3,11.1,18.9
							c6.5,3.6,12.2,0.9,12.7-6C297.7,299.1,292.7,290.6,286.2,287z"/>
						<path id="XMLID_222_" class="st13" d="M286.6,287.9c-5.8-3.1-10.8-0.8-11.2,5.3c-0.4,6,4,13.5,9.8,16.7
							c5.8,3.1,10.8,0.8,11.2-5.3C296.8,298.6,292.4,291.1,286.6,287.9z"/>
						<path id="XMLID_220_" class="st14" d="M286.6,288.3c-5.6-3-10.5-0.8-10.8,5.1c-0.4,5.9,3.9,13.1,9.5,16.2
							c5.6,3,10.5,0.8,10.8-5.1C296.5,298.6,292.2,291.3,286.6,288.3z"/>
						<path id="XMLID_218_" class="st13" d="M286.6,288.9c-5.2-2.9-9.8-0.7-10.2,4.8c-0.3,5.5,3.7,12.3,8.9,15.2
							c5.2,2.9,9.8,0.7,10.2-4.8C295.8,298.6,291.8,291.8,286.6,288.9z"/>
						<path id="XMLID_216_" class="st15" d="M294.8,302.1c-0.4-4.8-3.8-10.2-8.3-12.6c-0.1-0.1-0.2-0.1-0.3-0.1
							c-4.8-2.5-8.9-0.4-9.2,4.6c-0.3,5.2,3.5,11.6,8.4,14.3c5,2.7,9.2,0.6,9.6-4.5C294.9,303.2,294.9,302.6,294.8,302.1z"/>
						<path id="XMLID_214_" class="st13" d="M286.5,289.5c-0.1-0.1-0.2-0.1-0.3-0.1c-1.8,0.1-3.1,1.5-3.3,3.9
							c-0.2,3.6,2.4,8.1,5.9,9.9c2.7,1.5,5.1,0.9,6-1.1C294.4,297.3,291,291.8,286.5,289.5z"/>
					</g>
				</g>
				<path id="XMLID_211_" class="st16" d="M298,256.3l-13.8,9.2l-107.6-29.1v-29.1c0-3,1.1-5.6,2.8-7.5c3.4-3.7,9.1-6.4,14-3.5
					L298,256.3z"/>
				<polygon id="XMLID_210_" class="st17" points="222.9,330.1 211.3,336.7 222.9,349.7 				"/>
				<path id="XMLID_209_" class="st0" d="M163.2,357.4l37.7-19l-9.4-20.7c0,0-13.3-9-21.8-4.7C160.5,317.6,156.4,336.4,163.2,357.4z
					"/>
				<polygon id="XMLID_208_" class="st18" points="285,281.4 222.9,317.7 222.9,349.7 285,313.4 				"/>
				<polygon id="XMLID_207_" class="st19" points="116,215.8 100.1,255.6 202.2,314.7 202.2,265.9 				"/>
				<g id="XMLID_174_">
					<path id="XMLID_203_" class="st20" d="M269.2,117.2l-41.5-24c-6-3.4-12.8-2.6-17.7,0.8c-0.1,0.1-0.1,0.1-0.1,0.1l-0.7,0.4
						c-3.7,3-6.2,7.5-6.2,12.9v109.4l78.9,46.3C282.8,174.5,269.2,117.2,269.2,117.2z M281.7,243.5l-61.3-36V105.8
						c0-2.1,1.8-3.1,3.1-3.1c0.5,0,0.9,0.1,1.5,0.5l38.8,22.4C268.8,133.9,287.4,170.2,281.7,243.5z"/>
					<path id="XMLID_202_" class="st21" d="M205.9,104.3c0-3.7,1.3-7,3.2-9.7c-3.7,3-6.2,7.5-6.2,12.9v109.4l78.9,46.3
						c0.1-1.6,0.2-3.1,0.3-4.7l-76.3-44.8V104.3z"/>
					<path id="XMLID_201_" class="st21" d="M223.4,102.8c-1.3,0.1-2.9,1.1-2.9,3.1v101.6l61.3,36c0.1-1.6,0.2-3.1,0.3-4.7
						l-58.6-34.5V102.8z"/>
					<polygon id="XMLID_200_" class="st22" points="286.1,252.4 204,300.3 130.8,258.8 213,210.9 					"/>
					<polygon id="XMLID_199_" class="st19" points="213,162.1 130.8,210 130.8,258.8 213,210.9 					"/>
					<polygon id="XMLID_198_" class="st11" points="135.5,214.6 213,169.4 213,162.1 130.8,210 130.8,258.8 135.5,256.1 					"/>
					<g id="XMLID_192_">
						<path id="XMLID_197_" class="st23" d="M240.4,240v4.1c0,1.6-0.7,3.3-2.3,4.3l-27.8,15.9c-3.4,1.9-7.7,1.9-11.1,0L164,243.9
							v-52.1c0-4.3,2.3-8.3,6.1-10.5l28.4-16.5c2.5-1.5,9.3,2.6,9.3,5.5l-3.6,50.5l16.5,9.5l14.7,8.5L240.4,240z"/>
						<path id="XMLID_196_" class="st23" d="M240.4,240v4.1c0,1.6-0.7,3.3-2.3,4.3l-27.8,15.9c-3.4,1.9-7.7,1.9-11.1,0L164,243.9
							v-4.3l3.8,2.2l67.6-3L240.4,240z"/>
						<path id="XMLID_195_" class="st24" d="M182.4,206.9l24.9-30.7l0.4-5.9c0-2.9-6.8-7-9.3-5.5L170,181.3c-3.7,2.2-6,6.2-6,10.5
							l5.4,3L182.4,206.9z"/>
						<path id="XMLID_194_" class="st25" d="M202.2,168l-28.4,16.6c-3.7,2.2-6,6.2-6,10.5v46.7l40.1-23.1v-47.3
							C207.8,168.4,204.7,166.6,202.2,168z"/>
						<path id="XMLID_193_" class="st26" d="M167.8,241.7l31.4,18.1c3.4,2,7.7,2,11.1,0l27.8-15.9c3.1-1.8,3.1-6.2,0-8l-30.3-17.4
							L167.8,241.7z"/>
					</g>
					<path id="XMLID_191_" class="st27" d="M227.6,99.4L203,113.7l-47.5,27.6H139l70.1-40.6l0.7-0.4c0,0,0-0.1,0.1-0.1
						c4.4-3,12.4-9.1,17.7-7V99.4z"/>
					<path id="XMLID_187_" class="st20" d="M276.1,148.6c-0.6-3.3-1.1-6.3-1.6-9.1c-2.9-15.7-5.4-22.3-5.4-22.3l-72.1,41.9
						c0,0,14.6,56.4,15.9,171l18.3-11.1l11.1-6.7l22.8-13.8l11.1-6.7l8-4.9C284.7,218.7,280.3,174.6,276.1,148.6z M276.1,248.4
						c-2.3,2.8-5.8,5.9-11.1,9.1c-2.3,1.4-5,2.9-8,4.4c-5.5,2.7-10.5,4.2-14.8,5c-4.6,0.8-8.4,0.7-11.1,0c-2.7-0.7-4.4-2.1-4.7-3.9
						c-9-49.5-11.4-78.2-14.2-94.8c-0.7-4.4-0.1-8.8,3.7-11c1.6-0.9,3.4-2,5.4-3.2c11.4-6.6,28.1-16.3,37.4-21.7
						c0.8-0.5,1.7-0.8,2.5-0.9c3.2-0.5,7.1,1.1,7.6,4.5c0.3,2,0.6,4.2,0.8,6.5c1.5,11.8,3.5,28.3,6.3,55.8c1.2,11.6,2.6,25.1,4.2,41
						C280.5,240.7,279.7,244.1,276.1,248.4z"/>
					<g id="XMLID_181_">
						<path id="XMLID_186_" class="st21" d="M264.3,133.2c2.5,16.8,4.9,47.3,11.3,103.3c0.3,3-2.8,12.9-23.2,22.8
							c-10.6,5.1-19.9,6.3-25.4,5.2c2.3,4.2,14.8,4.8,30.1-2.5c20.4-9.8,23.4-19.7,23.2-22.8c-3.6-54.4-8.4-86.6-11.3-103.3
							c-0.5-2.7-3.2-4.2-5.7-4.5C263.7,131.9,264.2,132.5,264.3,133.2z"/>
						<g id="XMLID_183_">
							<path id="XMLID_185_" class="st21" d="M220.1,97.6l34.1,19.5l7.5-4.3l-34-19.6c-6-3.4-12.8-2.6-17.7,0.8
								c-0.1,0.1-0.1,0.1-0.1,0.1l-0.7,0.4L139,135.1h16.5l47.5-27.6L220.1,97.6z"/>
							<polygon id="XMLID_184_" class="st21" points="261.6,112.8 197,150.5 163.1,130.8 155.5,135.1 189.6,154.8 197.1,159.1 
								269.2,117.2 							"/>
						</g>
						<path id="XMLID_182_" class="st11" d="M215.3,308.5c0.5,5.1-1,10.4-1.7,15.8l-5.4,3.1c0.9-7.5,1.7-14.7,2.4-21.6
							C220.8,193.3,189.2,155,189.2,155l0.4-0.2l7.5,4.3c0,0,0,0,0.1,0.1c0.1,0.1,0.2,0.3,0.3,0.5c0.3,0.3,0.7,0.9,1.1,1.6
							C204.3,170.8,207.8,232.4,215.3,308.5z"/>
					</g>
					<path id="XMLID_177_" class="st28" d="M198.5,161.3c-0.4-0.7-0.8-1.3-1.1-1.6c-0.1-0.3-0.3-0.4-0.3-0.5
						c-0.1-0.1-0.1-0.1-0.1-0.1l-7.5-4.3l-34.1-19.6c-11-6.4-24.7,1.5-24.7,14.2v109.4l79.8,46.9l4.7,2.8l1.4,0.8
						C218.1,250.6,204.9,171.4,198.5,161.3z M209.6,285.4l-61.2-36V147.8c0-2.1,1.8-3.1,3-3.1c0.5,0,1,0.2,1.5,0.5l38.8,22.4
						C196.7,175.8,202.4,209.4,209.6,285.4z"/>
					<g id="XMLID_175_">
						<path id="XMLID_176_" class="st21" d="M152.9,145.1c-0.5-0.3-1-0.4-1.5-0.4c-1.2,0-3,1-3,3v101.7l61.3,36
							c0.2-2.4,0.3-4.7,0.4-7l-55.1-32.4v-99.8L152.9,145.1z"/>
					</g>
				</g>
				<g id="XMLID_146_">
					<g id="XMLID_147_">
						<g id="XMLID_160_">
							<g id="XMLID_161_">
								<path id="XMLID_172_" class="st1" d="M203.3,327.9c-9.9-5.4-18.4-1.3-19.1,9c-0.6,10.3,6.9,23.1,16.7,28.5
									c9.9,5.4,18.4,1.3,19.1-9C220.6,346,213.1,333.2,203.3,327.9z"/>
								<polygon id="XMLID_171_" class="st1" points="173.5,336.8 189.7,326.8 184.6,336.8 								"/>
								<polygon id="XMLID_170_" class="st1" points="199,376.1 215.3,365.9 201.5,359.5 199.8,371.2 								"/>
								<path id="XMLID_168_" class="st2" d="M187,337.9c-9.9-5.4-18.4-1.3-19.1,9c-0.6,10.3,6.9,23.1,16.7,28.5
									c9.9,5.4,18.4,1.3,19.1-9C204.4,356.1,196.9,343.3,187,337.9z"/>
								<path id="XMLID_166_" class="st3" d="M186.7,343.2c-7.1-3.9-13.3-1-13.7,6.5c-0.5,7.4,5,16.6,12.1,20.5
									c7.1,3.9,13.3,1,13.7-6.5C199.2,356.2,193.8,347,186.7,343.2z"/>
								<path id="XMLID_164_" class="st4" d="M187,337.9c-9.9-5.4-18.4-1.3-19.1,9c-0.6,10.3,6.9,23.1,16.7,28.5
									c9.9,5.4,18.4,1.3,19.1-9C204.4,356.1,196.9,343.3,187,337.9z"/>
								<path id="XMLID_162_" class="st5" d="M186.9,339.7c-8.9-4.8-16.6-1.2-17.2,8.1c-0.6,9.3,6.2,20.9,15.1,25.7
									c8.9,4.8,16.6,1.2,17.2-8.1C202.6,356.1,195.8,344.6,186.9,339.7z"/>
							</g>
						</g>
						<path id="XMLID_158_" class="st6" d="M186.7,344.2c-6.5-3.6-12.2-0.9-12.7,6c-0.4,6.8,4.6,15.3,11.1,18.9
							c6.5,3.6,12.2,0.9,12.7-6C198.2,356.3,193.2,347.8,186.7,344.2z"/>
						<path id="XMLID_156_" class="st7" d="M187.1,345.1c-5.8-3.1-10.8-0.8-11.2,5.3c-0.4,6,4,13.5,9.8,16.7
							c5.8,3.1,10.8,0.8,11.2-5.3C197.3,355.7,192.9,348.2,187.1,345.1z"/>
						<path id="XMLID_154_" class="st8" d="M187.1,345.4c-5.6-3-10.5-0.8-10.8,5.1c-0.4,5.9,3.9,13.1,9.5,16.2
							c5.6,3,10.5,0.8,10.8-5.1C197,355.8,192.7,348.5,187.1,345.4z"/>
						<path id="XMLID_152_" class="st7" d="M187,346.1c-5.2-2.9-9.8-0.7-10.2,4.8c-0.3,5.5,3.7,12.3,8.9,15.2
							c5.2,2.9,9.8,0.7,10.2-4.8C196.3,355.8,192.3,349,187,346.1z"/>
						<path id="XMLID_150_" class="st9" d="M195.3,359.3c-0.4-4.8-3.8-10.2-8.3-12.6c-0.1-0.1-0.2-0.1-0.3-0.1
							c-4.8-2.5-8.8-0.4-9.2,4.6c-0.5,5.3,3.4,11.4,8.4,14.3c4.9,2.8,9.2,0.6,9.6-4.5C195.4,360.4,195.4,359.8,195.3,359.3z"/>
						<path id="XMLID_148_" class="st8" d="M187,346.7c-0.1-0.1-0.2-0.1-0.3-0.1c-1.8,0.1-3.1,1.5-3.3,3.9c-0.2,3.6,2.4,8.1,5.9,9.9
							c2.7,1.5,5.1,0.9,6-1.1C194.9,354.4,191.5,349,187,346.7z"/>
					</g>
				</g>
				<path id="XMLID_145_" class="st18" d="M204,312.2l-1.6,16.7l-32.6-16c-1.3,1.3-4.5,20.5-4.5,20.5l-1.9,23.9l-21-12.2l-12.5-7.3
					l-5.2-3v-23.2l-24.6-35.2l-3.2-1.7l3.2-22.8L204,312.2z"/>
				<polygon id="XMLID_144_" class="st29" points="204.1,340.8 276.8,297.4 298.6,257 204,312.2 				"/>
				<g id="XMLID_139_">
					<polygon id="XMLID_143_" class="st28" points="108.1,260.7 110.9,262.3 118.5,285.2 115.7,283.6 					"/>
					<polygon id="XMLID_142_" class="st28" points="114,264 116.9,265.6 124.5,288.5 121.6,286.8 					"/>
					<polygon id="XMLID_141_" class="st28" points="120,267.3 122.8,268.9 130.4,291.7 127.6,290.1 					"/>
					<polygon id="XMLID_140_" class="st28" points="125.9,270.6 128.7,272.2 136.3,295 133.5,293.4 					"/>
				</g>
				<polygon id="XMLID_138_" class="st11" points="273.8,139.9 277.4,142 266.4,148.6 262.7,146.5 				"/>
				<polygon id="XMLID_137_" class="st17" points="144.3,190.1 134.5,178.3 134.5,163.6 144.3,175.3 				"/>
				<polygon id="XMLID_136_" class="st17" points="144.3,219.1 134.5,207.4 134.5,192.6 144.3,204.4 				"/>
				<polygon id="XMLID_135_" class="st17" points="144.3,248.2 134.5,236.4 134.5,221.7 144.3,233.4 				"/>
				<g id="XMLID_128_">
					<g id="XMLID_132_">
						<polygon id="XMLID_134_" class="st21" points="186.7,144.9 188.9,146.3 245.4,112.6 243.2,111.2 						"/>
						<polygon id="XMLID_133_" class="st27" points="188.9,146.3 191.6,147.4 245.4,115.2 245.4,112.6 						"/>
					</g>
					<g id="XMLID_129_">
						<polygon id="XMLID_131_" class="st21" points="171.9,136.3 174.2,137.7 230.7,104 228.5,102.6 						"/>
						<polygon id="XMLID_130_" class="st27" points="174.2,137.7 176.9,138.8 230.7,106.6 230.7,104 						"/>
					</g>
				</g>
				<g id="XMLID_120_">
					<path id="XMLID_127_" class="st19" d="M187.9,150.4L187.9,150.4l0-3.3h2.1c0.2-0.2,0.4-0.3,0.6-0.4c3.6-2.1,9.4-2.1,12.9-0.1
						c0.3,0.2,0.5,0.3,0.7,0.5h1.9v3.3h0c0,1.3-0.9,2.7-2.7,3.7c-3.6,2.1-9.4,2.1-12.9,0.1C188.8,153.2,187.9,151.8,187.9,150.4z"/>
					<path id="XMLID_126_" class="st30" d="M187.9,147.2L187.9,147.2l1.5-15.9h15.2l1.5,15.7c0,0.1,0,0.1,0,0.2l0,0h0
						c0,1.3-0.9,2.7-2.7,3.7c-3.6,2.1-9.4,2.1-12.9,0.1C188.8,149.9,187.9,148.5,187.9,147.2z"/>
					<path id="XMLID_125_" class="st31" d="M202.5,144c-3-1.7-7.8-1.7-10.9,0.1c-3,1.7-3.1,4.6-0.1,6.3c3,1.7,7.8,1.7,10.9-0.1
						C205.5,148.5,205.5,145.7,202.5,144z"/>
					<path id="XMLID_124_" class="st32" d="M193.1,135.7c1.9-3.3,5.1-3.3,7,0.1c2,3.4,2,8.8,0.1,12.2c-1.9,3.3-5.1,3.3-7-0.1
						C191.2,144.5,191.2,139.1,193.1,135.7z"/>
					<path id="XMLID_123_" class="st33" d="M202.5,149.9c-1.4,0.8-3.1,1.3-5,1.5c-0.1-0.1-0.2-0.2-0.3-0.3c-0.3-0.4-0.6-0.8-0.9-1.2
						c-2.6-4.5-2.6-11.7-0.1-16.1c0.6-1.1,1.4-1.9,2.1-2.5h4.9c0.1,0.1,0.2,0.2,0.3,0.3c0,0,0.1,0.1,0.1,0.1l1.4,14.3
						c0,0.1,0,0.1,0,0.2l0,0h0C205.2,147.5,204.3,148.8,202.5,149.9z"/>
					<path id="XMLID_122_" class="st34" d="M197.7,137.4c1.4-2.4,3.7-2.4,5.1,0.1c1.4,2.5,1.4,6.4,0,8.9c-1.4,2.4-3.7,2.4-5.1-0.1
						S196.3,139.8,197.7,137.4z"/>
					<path id="XMLID_121_" class="st35" d="M202.5,128.2c-2.9-1.7-7.8-1.7-10.7,0.1c-3,1.7-3,4.5-0.1,6.2c2.9,1.7,7.8,1.7,10.7-0.1
						C205.4,132.6,205.4,129.9,202.5,128.2z"/>
				</g>
				<g id="XMLID_72_">
					<path id="XMLID_119_" class="st36" d="M242.3,266.9v67.5l-11.1,6.6v-74.1C233.9,267.6,237.7,267.7,242.3,266.9z"/>
					<path id="XMLID_118_" class="st36" d="M276.1,138.5v59.6c-2.8-27.5-4.8-44-6.3-55.8l4.7-2.8L276.1,138.5z"/>
					<path id="XMLID_117_" class="st36" d="M276.1,248.4v66.1l-11.1,6.6v-63.6C270.3,254.3,273.8,251.2,276.1,248.4z"/>
					<polygon id="XMLID_116_" class="st37" points="250.3,158.5 239.3,165.1 239.3,341 250.3,334.4 					"/>
					<polygon id="XMLID_115_" class="st37" points="284.2,138.6 273.1,145.2 273.1,321.1 284.2,314.5 					"/>
					<polygon id="XMLID_114_" class="st17" points="269.5,143 273.1,145.2 273.1,321.1 269.5,319 					"/>
					<polygon id="XMLID_113_" class="st17" points="235.7,162.9 239.3,165.1 239.3,341 235.7,338.9 					"/>
					<g id="XMLID_109_">
						<polygon id="XMLID_112_" class="st38" points="234,162.1 239.9,165.9 284.9,139 279,135.2 						"/>
						<polygon id="XMLID_111_" class="st37" points="239.9,165.9 239.9,177.8 284.9,150.9 284.9,139 						"/>
						<polygon id="XMLID_110_" class="st17" points="234,162.1 234,174 239.9,177.8 239.9,165.9 						"/>
					</g>
					<g id="XMLID_95_">
						<polygon id="XMLID_108_" class="st39" points="251.8,311 239.7,318.2 239.7,367.9 251.8,360.7 						"/>
						<polygon id="XMLID_107_" class="st39" points="288.9,289.1 276.8,296.4 276.8,346.1 288.9,338.8 						"/>
						<polygon id="XMLID_106_" class="st22" points="272.8,294.1 276.8,296.4 276.8,346.1 272.8,343.7 						"/>
						<polygon id="XMLID_105_" class="st22" points="235.7,315.9 239.7,318.2 239.7,367.9 235.7,365.6 						"/>
						<polygon id="XMLID_104_" class="st11" points="247.8,308.6 251.8,311 239.7,318.2 235.7,315.9 						"/>
						<polygon id="XMLID_103_" class="st11" points="284.9,286.8 288.9,289.1 276.8,296.4 272.8,294.1 						"/>
						<g id="XMLID_98_">
							<polygon id="XMLID_102_" class="st40" points="371.9,425.2 359.6,432.1 239.4,362.9 251.8,356 							"/>
							<polygon id="XMLID_101_" class="st41" points="359.6,436.7 359.6,432.1 239.4,362.9 239.5,367.5 							"/>
							<polygon id="XMLID_100_" class="st42" points="371.9,429.9 371.9,425.2 359.6,432.1 359.6,436.7 							"/>
							<polygon id="XMLID_99_" class="st42" points="409.1,408 409,403.4 396.7,410.3 396.7,414.9 							"/>
						</g>
						<polygon id="XMLID_97_" class="st40" points="409,403.4 396.7,410.3 276.6,341.1 288.9,334.2 						"/>
						<polygon id="XMLID_96_" class="st41" points="396.7,414.9 396.7,410.3 276.6,341.1 276.6,345.7 						"/>
					</g>
					<g id="XMLID_91_">
						<polygon id="XMLID_94_" class="st38" points="228.7,333.7 233,336 298.5,296.9 294.3,294.6 						"/>
						<polygon id="XMLID_93_" class="st37" points="233,336 233,353.3 298.5,314.1 298.5,296.9 						"/>
						<polygon id="XMLID_92_" class="st17" points="228.7,333.7 228.7,350.9 233,353.3 233,336 						"/>
					</g>
					<g id="XMLID_88_">
						<polygon id="XMLID_90_" class="st38" points="250.3,310 250.3,313.7 273.2,300 269.9,298.2 						"/>
						<polygon id="XMLID_89_" class="st37" points="250.3,313.7 250.3,319.3 273.2,305.7 273.2,300 						"/>
					</g>
					<g id="XMLID_85_">
						<polygon id="XMLID_87_" class="st38" points="250.3,280.6 250.3,284.3 273.2,270.6 269.9,268.9 						"/>
						<polygon id="XMLID_86_" class="st37" points="250.3,284.3 250.3,289.9 273.2,276.3 273.2,270.6 						"/>
					</g>
					<g id="XMLID_82_">
						<polygon id="XMLID_84_" class="st38" points="250.3,251.2 250.3,254.9 273.2,241.2 269.9,239.5 						"/>
						<polygon id="XMLID_83_" class="st37" points="250.3,254.9 250.3,260.5 273.2,246.9 273.2,241.2 						"/>
					</g>
					<g id="XMLID_79_">
						<polygon id="XMLID_81_" class="st38" points="250.3,221.8 250.3,225.5 273.2,211.8 269.9,210.1 						"/>
						<polygon id="XMLID_80_" class="st37" points="250.3,225.5 250.3,231.1 273.2,217.5 273.2,211.8 						"/>
					</g>
					<g id="XMLID_76_">
						<polygon id="XMLID_78_" class="st38" points="250.3,192.4 250.3,196.1 273.2,182.5 269.9,180.7 						"/>
						<polygon id="XMLID_77_" class="st37" points="250.3,196.1 250.3,201.7 273.2,188.1 273.2,182.5 						"/>
					</g>
					<polygon id="XMLID_75_" class="st20" points="268.9,148.8 275,156.9 281.5,153.2 275.5,145 					"/>
					<polygon id="XMLID_74_" class="st20" points="256.1,156.2 262.1,164.4 268.6,160.6 262.6,152.4 					"/>
					<polygon id="XMLID_73_" class="st20" points="243.2,163.6 249.3,171.8 255.8,168 249.8,159.8 					"/>
				</g>
				<g id="XMLID_64_">
					<path id="XMLID_71_" class="st36" d="M174.9,306.6l-16.1,11.8l8.1,5.5l9.3-0.7l5.4,8.6c3.9-2.1,12.9,2.1,14.4,4.2
						c3.4,4.8,11,11.5,11,11.5l10.5-12.3l-34.2-24.7L174.9,306.6z"/>
					<polygon id="XMLID_70_" class="st17" points="207,347.6 202.7,345.1 199.8,328.9 207,333.2 					"/>
					<polygon id="XMLID_69_" class="st17" points="173,315.5 206.2,335.2 207,335.7 223.1,326.4 222.3,326 222.1,325.9 173,312.9 
											"/>
					<polygon id="XMLID_68_" class="st17" points="158.8,318.4 173,315.5 189.1,306.2 158.8,315.8 					"/>
					<polygon id="XMLID_67_" class="st37" points="223.1,323.9 207,333.2 207,347.6 223.1,338.3 					"/>
					<polygon id="XMLID_66_" class="st16" points="173,312.9 206.2,332.7 207,333.2 223.1,323.9 222.3,323.5 222.1,323.4 
						189.1,303.7 					"/>
					<polygon id="XMLID_65_" class="st16" points="158.8,315.8 173,312.9 189.1,303.7 174.9,306.6 					"/>
				</g>
				<g id="XMLID_61_">
					<path id="XMLID_63_" class="st17" d="M220.6,330.4v4.6c0,0.9-0.5,1.7-1.2,2.1l-8.3,4.8c-0.7,0.4-1.5-0.1-1.5-0.9v-0.6l7-4
						c0.8-0.4,1.2-1.2,1.2-2.1v-4.1l1.4-0.8C219.7,329.1,220.6,329.6,220.6,330.4z"/>
					<path id="XMLID_62_" class="st43" d="M217.7,330.3v4.1c0,0.9-0.5,1.7-1.2,2.1l-7,4v-4.1c0-0.9,0.5-1.7,1.2-2.1L217.7,330.3z"/>
				</g>
				<polygon id="XMLID_60_" class="st16" points="212.9,306.9 223.1,323.9 99.8,252.1 108.7,246.8 				"/>
				<g id="XMLID_55_">
					<polygon id="XMLID_59_" class="st17" points="309.8,288.4 284.2,282.1 284.2,268 309.8,273.9 					"/>
					<polygon id="XMLID_58_" class="st17" points="284.2,268 309,276 309.8,276.5 325.9,267.2 325.1,266.8 324.9,266.7 284.2,265.5 
											"/>
					<polygon id="XMLID_57_" class="st37" points="325.9,264.7 309.8,273.9 309.8,288.4 325.9,279.1 					"/>
					<polygon id="XMLID_56_" class="st16" points="284.2,265.5 309,273.5 309.8,273.9 325.9,264.7 325.1,264.2 324.9,264.1 
						293.1,245.2 284.2,250.1 					"/>
				</g>
				<g id="XMLID_52_">
					<path id="XMLID_54_" class="st17" d="M324.4,270.4v4.6c0,0.9-0.5,1.7-1.2,2.1l-8.3,4.8c-0.7,0.4-1.5-0.1-1.5-0.9v-0.6l7-4
						c0.8-0.4,1.2-1.2,1.2-2.1v-4.1l1.4-0.8C323.5,269.2,324.4,269.7,324.4,270.4z"/>
					<path id="XMLID_53_" class="st43" d="M321.5,270.3v4.1c0,0.9-0.5,1.7-1.2,2.1l-7,4v-4.1c0-0.9,0.5-1.7,1.2-2.1L321.5,270.3z"/>
				</g>
			</g>
			<g id="XMLID_4_">
				<g id="XMLID_26_">
					<g id="XMLID_43_">
						<polygon id="XMLID_50_" class="st44" points="413.8,371.1 404.4,377.1 311.7,323.8 321.1,317.8 						"/>
						<polygon id="XMLID_49_" class="st45" points="404.4,377.1 404.4,395.4 311.7,342.1 311.7,323.8 						"/>
						<polygon id="XMLID_48_" class="st46" points="365.2,358.3 365.2,368.8 398,387.7 398,377.3 						"/>
						<polygon id="XMLID_47_" class="st46" points="318.8,331.7 318.8,342.3 351.7,361.2 351.7,350.6 						"/>
						<polygon id="XMLID_46_" class="st47" points="413.8,371.1 413.8,390 404.4,395.4 404.4,377.1 						"/>
						<polygon id="XMLID_45_" class="st48" points="327.3,336.8 318.8,342.3 318.8,331.7 						"/>
						<polygon id="XMLID_44_" class="st48" points="373.7,363.4 365.2,368.8 365.2,358.3 						"/>
					</g>
					<g id="XMLID_35_">
						<polygon id="XMLID_42_" class="st44" points="372.4,394.9 363,400.9 270.3,347.6 279.7,341.6 						"/>
						<polygon id="XMLID_41_" class="st45" points="363,400.9 363,419.2 270.3,365.9 270.3,347.6 						"/>
						<polygon id="XMLID_40_" class="st46" points="323.8,382 323.8,392.6 356.7,411.5 356.7,401 						"/>
						<polygon id="XMLID_39_" class="st46" points="277.4,355.5 277.4,366 310.4,384.9 310.4,374.4 						"/>
						<polygon id="XMLID_38_" class="st47" points="372.4,394.9 372.4,413.8 363,419.2 363,400.9 						"/>
						<polygon id="XMLID_37_" class="st48" points="285.9,360.6 277.4,366 277.4,355.5 						"/>
						<polygon id="XMLID_36_" class="st48" points="332.3,387.1 323.8,392.6 323.8,382 						"/>
					</g>
					<g id="XMLID_27_">
						<polygon id="XMLID_34_" class="st44" points="331,418.7 321.6,424.7 228.9,371.4 238.3,365.4 						"/>
						<polygon id="XMLID_33_" class="st45" points="321.6,424.7 321.6,442.9 228.9,389.6 228.9,371.4 						"/>
						<polygon id="XMLID_32_" class="st46" points="282.4,405.8 282.4,416.4 315.3,435.3 315.3,424.8 						"/>
						<polygon id="XMLID_31_" class="st46" points="236,379.2 236,389.8 269,408.7 269,398.2 						"/>
						<polygon id="XMLID_30_" class="st47" points="331,418.7 331,437.5 321.6,442.9 321.6,424.7 						"/>
						<polygon id="XMLID_29_" class="st48" points="244.6,384.3 236,389.8 236,379.2 						"/>
						<polygon id="XMLID_28_" class="st48" points="290.9,410.9 282.4,416.4 282.4,405.8 						"/>
					</g>
				</g>
				<g id="XMLID_5_">
					<g id="XMLID_22_">
						<polygon id="XMLID_25_" class="st44" points="312.2,414.1 321.6,420.1 413.8,366.5 404.4,360.5 						"/>
						<polygon id="XMLID_24_" class="st49" points="321.6,420.1 321.6,424.7 413.8,371.1 413.8,366.5 						"/>
						<polygon id="XMLID_23_" class="st50" points="312.2,414.1 312.2,419.3 321.6,424.7 321.6,420.1 						"/>
					</g>
					<g id="XMLID_18_">
						<polygon id="XMLID_21_" class="st44" points="291.4,402.1 300.8,408.1 392.9,354.5 383.5,348.5 						"/>
						<polygon id="XMLID_20_" class="st49" points="300.8,408.1 300.8,412.7 392.9,359.1 392.9,354.5 						"/>
						<polygon id="XMLID_19_" class="st50" points="291.4,402.1 291.4,407.3 300.8,412.7 300.8,408.1 						"/>
					</g>
					<g id="XMLID_14_">
						<polygon id="XMLID_17_" class="st44" points="270.6,390.1 280,396.1 372.1,342.6 362.7,336.5 						"/>
						<polygon id="XMLID_16_" class="st49" points="280,396.1 280,400.7 372.1,347.2 372.1,342.6 						"/>
						<polygon id="XMLID_15_" class="st50" points="270.6,390.1 270.6,395.3 280,400.7 280,396.1 						"/>
					</g>
					<g id="XMLID_10_">
						<polygon id="XMLID_13_" class="st44" points="249.7,378.1 259.1,384.1 351.3,330.6 341.9,324.6 						"/>
						<polygon id="XMLID_12_" class="st49" points="259.1,384.1 259.1,388.7 351.3,335.2 351.3,330.6 						"/>
						<polygon id="XMLID_11_" class="st50" points="249.7,378.1 249.7,383.3 259.1,388.7 259.1,384.1 						"/>
					</g>
					<g id="XMLID_6_">
						<polygon id="XMLID_9_" class="st44" points="228.9,366.1 238.3,372.2 330.5,318.6 321.1,312.6 						"/>
						<polygon id="XMLID_8_" class="st49" points="238.3,372.2 238.3,376.8 330.5,323.2 330.5,318.6 						"/>
						<polygon id="XMLID_7_" class="st50" points="228.9,366.1 228.9,371.4 238.3,376.8 238.3,372.2 						"/>
					</g>
				</g>
			</g>
		</g>
	</g>
	<g>
		<path class="st51" d="M145.6,300.2l-0.2,4.1l-1.3-0.7l-0.1,2.7l-3.3-1.8l0.1-2.7l-5.7-3.1l0.2-4.1l4.3-8.6l3.6,2l-4.4,8.6l2,1.1
			l0.1-3.1l3.3,1.8l-0.1,3.1L145.6,300.2z"/>
		<path class="st51" d="M152.5,297.8c1.2,0.7,2.2,1.9,3,3.6c0.8,1.7,1.1,3.5,1,5.4c-0.1,1.9-0.6,3.2-1.5,4c-0.9,0.8-1.9,0.9-3.2,0.2
			c-1.1-0.6-2-1.6-2.5-2.9l-0.3,6.1l-3.1-1.7l0.8-17.5l3.1,1.7l-0.1,1.1C150.5,297.2,151.4,297.2,152.5,297.8z M150.1,305.2
			c0.3,0.7,0.8,1.2,1.4,1.5c0.6,0.3,1.1,0.3,1.4,0c0.4-0.3,0.6-0.9,0.6-1.7c0-0.8-0.1-1.6-0.4-2.3c-0.3-0.7-0.8-1.2-1.4-1.5
			c-0.6-0.3-1.1-0.3-1.4,0c-0.4,0.3-0.6,0.9-0.6,1.7C149.6,303.8,149.7,304.5,150.1,305.2z"/>
		<path class="st51" d="M157.6,313.7l0.8-18.2l3.1,1.7l-0.8,18.2L157.6,313.7z"/>
	</g>
</g>
</svg>
