<?xml version="1.0" encoding="utf-8"?>
<!-- Generator: Adobe Illustrator 24.1.0, SVG Export Plug-In . SVG Version: 6.00 Build 0)  -->
<svg version="1.1" id="Layer_1" xmlns="http://www.w3.org/2000/svg" xmlns:xlink="http://www.w3.org/1999/xlink" x="0px" y="0px"
	 viewBox="0 0 500 500" style="enable-background:new 0 0 500 500;" xml:space="preserve">
<style type="text/css">
	.st0{fill:#002E57;}
	.st1{fill:#4388BA;}
	.st2{fill:#003975;}
	.st3{fill:#76A7D8;}
	.st4{fill:#55789D;}
	.st5{fill:#6C9AD1;}
	.st6{fill:#6697BD;}
	.st7{fill:#2A4054;}
	.st8{fill:#4D6D8F;}
	.st9{fill:#2E78C9;}
	.st10{fill:#054382;}
	.st11{fill:#3282DB;}
	.st12{fill:#85A9FF;}
	.st13{fill:#6B97D3;}
	.st14{fill:#5AA5FA;}
	.st15{fill:#0767E6;}
	.st16{fill:#0063CF;}
	.st17{fill:#2E6EF6;}
	.st18{fill:#2888E0;}
	.st19{fill:#113966;}
	.st20{fill:#97BCEB;}
	.st21{fill:#93A4D1;}
	.st22{fill:#424B7D;}
	.st23{fill:#0F1922;}
	.st24{fill:#364A57;}
	.st25{fill:#395069;}
	.st26{fill:#7994BC;}
	.st27{fill:#5E8AB1;}
	.st28{fill:#073666;}
	.st29{fill:#7DAFDA;}
	.st30{fill:#FFFFFF;}
</style>
<g id="XMLID_10779_">
	<polygon id="XMLID_10781_" class="st0" points="111.3,174.7 111.3,324.3 198.2,375.2 201.3,373.4 240.5,396 240.5,399.6 
		255.2,408.1 255.2,258.5 	"/>
	<g id="XMLID_10782_">
		<polygon id="XMLID_10783_" class="st1" points="134.9,209.3 128.3,205.5 128.3,320.7 134.9,324.6 		"/>
		<polygon id="XMLID_10784_" class="st1" points="123.1,201.6 116.4,197.8 116.4,313 123.1,316.9 		"/>
		<polygon id="XMLID_10785_" class="st1" points="146.7,216.1 140,212.3 140,327.5 146.7,331.4 		"/>
		<polygon id="XMLID_10786_" class="st1" points="158.4,222.9 151.8,219.1 151.8,334.4 158.4,338.2 		"/>
		<polygon id="XMLID_10787_" class="st1" points="170.2,229.7 163.6,225.9 163.6,341.2 170.2,345 		"/>
		<polygon id="XMLID_10788_" class="st1" points="182,236.6 175.4,232.7 175.4,348 182,351.8 		"/>
		<polygon id="XMLID_10789_" class="st1" points="193.8,243.4 187.1,239.5 187.1,354.8 193.8,358.6 		"/>
		<polygon id="XMLID_10790_" class="st1" points="205.5,250.2 198.9,246.3 198.9,361.6 205.5,365.4 		"/>
		<polygon id="XMLID_10791_" class="st1" points="217.3,257 210.7,253.2 210.7,368.4 217.3,372.3 		"/>
		<polygon id="XMLID_10792_" class="st1" points="229.1,263.8 222.5,260 222.5,375.3 229.1,379.1 		"/>
		<polygon id="XMLID_10793_" class="st1" points="240.9,270.6 234.2,266.8 234.2,382.1 240.9,385.9 		"/>
		<polygon id="XMLID_10794_" class="st1" points="252.6,277.4 246,273.6 246,388.9 252.6,392.7 		"/>
	</g>
	<g id="XMLID_10795_">
		<polygon id="XMLID_10796_" class="st2" points="133.1,208.2 126.5,204.3 126.5,319.6 133.1,323.4 		"/>
		<polygon id="XMLID_10797_" class="st2" points="121.3,200.5 114.7,196.6 114.7,311.9 121.3,315.7 		"/>
		<polygon id="XMLID_10798_" class="st2" points="144.9,215 138.3,211.1 138.3,326.4 144.9,330.2 		"/>
		<polygon id="XMLID_10799_" class="st2" points="156.7,221.8 150,218 150,333.2 156.7,337.1 		"/>
		<polygon id="XMLID_10800_" class="st2" points="168.4,228.6 161.8,224.8 161.8,340 168.4,343.9 		"/>
		<polygon id="XMLID_10801_" class="st2" points="180.2,235.4 173.6,231.6 173.6,346.9 180.2,350.7 		"/>
		<polygon id="XMLID_10802_" class="st2" points="192,242.2 185.4,238.4 185.4,353.7 192,357.5 		"/>
		<polygon id="XMLID_10803_" class="st2" points="203.8,249.1 197.1,245.2 197.1,360.5 203.8,364.3 		"/>
		<polygon id="XMLID_10804_" class="st2" points="215.5,255.9 208.9,252 208.9,367.3 215.5,371.1 		"/>
		<polygon id="XMLID_10805_" class="st2" points="227.3,262.7 220.7,258.8 220.7,374.1 227.3,377.9 		"/>
		<polygon id="XMLID_10806_" class="st2" points="239.1,269.5 232.5,265.7 232.5,380.9 239.1,384.8 		"/>
		<polygon id="XMLID_10807_" class="st2" points="250.9,276.3 244.2,272.5 244.2,387.7 250.9,391.6 		"/>
	</g>
	<polygon id="XMLID_10808_" class="st3" points="111.3,301.5 106.8,302.8 204.5,374.9 234.2,392.1 255.2,404.2 255.2,385.4 	"/>
	<polygon id="XMLID_10809_" class="st4" points="106.8,302.8 106.8,321.6 204.5,378.9 234.2,396 255.2,408.1 255.2,389.3 	"/>
	<polygon id="XMLID_10810_" class="st5" points="387.9,182.1 244,98.3 111.3,174.7 255.2,258.5 	"/>
	<polygon id="XMLID_10811_" class="st6" points="244,118.6 136.3,180.6 126,174.7 244,106.8 369.5,179.8 353.1,182.1 	"/>
	<polygon id="XMLID_10812_" class="st7" points="244,106.8 244,118.6 353.1,182.1 369.5,179.8 	"/>
	<polygon id="XMLID_10813_" class="st8" points="341.1,183.5 235.7,123.4 244,118.6 353.1,182.1 	"/>
	<polygon id="XMLID_10814_" class="st9" points="255.2,408.1 269.3,399.9 269.3,396.6 357.7,345.8 273.4,397.7 387.9,331.7 
		387.9,182.1 322.9,191.3 255.2,258.5 	"/>
	<g id="XMLID_10815_">
		<polygon id="XMLID_10816_" class="st10" points="373.2,325.2 373.2,190.8 379.8,186.9 379.8,321.4 		"/>
		<polygon id="XMLID_10817_" class="st10" points="359.1,199 365.7,195.2 365.7,329.5 359.1,333.4 		"/>
		<polygon id="XMLID_10818_" class="st10" points="345,207.2 351.6,203.4 351.6,337.7 345,341.5 		"/>
		<polygon id="XMLID_10819_" class="st10" points="330.9,215.5 337.5,211.6 337.5,345.8 330.9,349.7 		"/>
		<polygon id="XMLID_10820_" class="st10" points="316.7,223.7 323.4,219.9 323.4,354 316.7,357.8 		"/>
		<polygon id="XMLID_10821_" class="st10" points="302.6,232 309.3,228.1 309.3,362.1 302.6,366 		"/>
		<polygon id="XMLID_10822_" class="st10" points="288.5,240.2 295.2,236.4 295.2,370.3 288.5,374.1 		"/>
		<polygon id="XMLID_10823_" class="st10" points="274.4,248.4 281,244.6 281,378.4 274.4,382.3 		"/>
		<polygon id="XMLID_10824_" class="st10" points="260.3,256.7 266.9,252.8 266.9,386.6 260.3,390.4 		"/>
	</g>
	<g id="XMLID_10825_">
		<polygon id="XMLID_10826_" class="st11" points="375.4,324 375.4,189.6 382,185.7 382,320.2 		"/>
		<polygon id="XMLID_10827_" class="st11" points="361.3,197.8 367.9,194 367.9,328.3 361.3,332.1 		"/>
		<polygon id="XMLID_10828_" class="st11" points="347.2,206 353.8,202.2 353.8,336.5 347.2,340.3 		"/>
		<polygon id="XMLID_10829_" class="st11" points="333,214.3 339.7,210.4 339.7,344.6 333,348.5 		"/>
		<polygon id="XMLID_10830_" class="st11" points="318.9,222.5 325.6,218.7 325.6,352.8 318.9,356.6 		"/>
		<polygon id="XMLID_10831_" class="st11" points="304.8,230.8 311.5,226.9 311.5,360.9 304.8,364.8 		"/>
		<polygon id="XMLID_10832_" class="st11" points="290.7,239 297.3,235.2 297.3,369.1 290.7,372.9 		"/>
		<polygon id="XMLID_10833_" class="st11" points="276.6,247.2 283.2,243.4 283.2,377.2 276.6,381.1 		"/>
		<polygon id="XMLID_10834_" class="st11" points="262.5,255.5 269.1,251.6 269.1,385.4 262.5,389.2 		"/>
	</g>
	<polygon id="XMLID_10835_" class="st12" points="269.3,377.2 269.3,377.2 301.8,358.6 387.9,309 387.9,309 393.1,309.8 269.3,396 
		269.3,396 255.2,404.2 255.2,385.4 	"/>
	<polygon id="XMLID_10836_" class="st13" points="269.3,381.1 269.3,381.1 301.8,362.6 387.9,312.9 393.1,309.8 393.1,328.6 
		269.3,399.9 269.3,399.9 255.2,408.1 255.2,389.3 	"/>
	<polygon id="XMLID_10837_" class="st14" points="173.2,101.4 329,192.2 400,182 244.2,91.3 	"/>
	<g id="XMLID_10838_">
		<polygon id="XMLID_10839_" class="st15" points="400,182 255,265.6 329,192.2 		"/>
		<polygon id="XMLID_10840_" class="st16" points="173.2,101.4 329,192.2 255,265.6 99.2,174.8 		"/>
		<g id="XMLID_10841_">
			<g id="XMLID_10842_">
				<polygon id="XMLID_10843_" class="st17" points="244.5,260.1 318.6,186.7 315.5,183.6 241.5,257 				"/>
			</g>
			<g id="XMLID_10844_">
				<polygon id="XMLID_10845_" class="st17" points="224.1,248.2 298.1,174.9 295,171.7 221,245.1 				"/>
			</g>
			<g id="XMLID_10846_">
				<polygon id="XMLID_10847_" class="st17" points="203.6,236.4 277.6,163 274.6,159.8 200.5,233.2 				"/>
			</g>
			<g id="XMLID_10848_">
				<polygon id="XMLID_10849_" class="st17" points="183.1,224.5 257.2,151.1 254.1,147.9 180.1,221.3 				"/>
			</g>
			<g id="XMLID_10850_">
				<polygon id="XMLID_10851_" class="st17" points="162.7,212.6 236.7,139.2 233.6,136.1 159.6,209.4 				"/>
			</g>
			<g id="XMLID_10852_">
				<polygon id="XMLID_10853_" class="st17" points="142.2,200.7 216.2,127.3 213.2,124.2 139.1,197.6 				"/>
			</g>
			<g id="XMLID_10854_">
				<polygon id="XMLID_10855_" class="st17" points="121.8,188.8 195.8,115.4 192.7,112.3 118.7,185.7 				"/>
			</g>
		</g>
		<g id="XMLID_10856_">
			<g id="XMLID_10857_">
				<polygon id="XMLID_10858_" class="st18" points="317.4,187.3 388.6,177.1 387.8,172.7 316.7,183 				"/>
			</g>
			<g id="XMLID_10859_">
				<polygon id="XMLID_10860_" class="st18" points="296.9,175.5 368.1,165.2 367.4,160.8 296.2,171.1 				"/>
			</g>
			<g id="XMLID_10861_">
				<polygon id="XMLID_10862_" class="st18" points="276.5,163.6 347.6,153.3 346.9,148.9 275.7,159.2 				"/>
			</g>
			<g id="XMLID_10863_">
				<polygon id="XMLID_10864_" class="st18" points="256,151.7 327.2,141.4 326.4,137.1 255.3,147.4 				"/>
			</g>
			<g id="XMLID_10865_">
				<polygon id="XMLID_10866_" class="st18" points="235.5,139.8 306.7,129.5 306,125.2 234.8,135.5 				"/>
			</g>
			<g id="XMLID_10867_">
				<polygon id="XMLID_10868_" class="st18" points="215.1,127.9 286.2,117.6 285.5,113.3 214.3,123.6 				"/>
			</g>
			<g id="XMLID_10869_">
				<polygon id="XMLID_10870_" class="st18" points="194.6,116 265.8,105.8 265,101.4 193.9,111.7 				"/>
			</g>
			<g id="XMLID_10871_">
				<polygon id="XMLID_10872_" class="st17" points="103.8,178.4 177.8,105 174.7,101.9 100.7,175.3 				"/>
			</g>
			<g id="XMLID_10873_">
				<polygon id="XMLID_10874_" class="st18" points="176.6,105.6 247.8,95.3 247,91 175.9,101.3 				"/>
			</g>
		</g>
	</g>
	<polygon id="XMLID_10875_" class="st13" points="287.1,371.6 287.1,389.8 277.8,395.1 277.8,376.9 	"/>
	<g id="XMLID_10876_">
		<g id="XMLID_10877_">
			<polygon id="XMLID_10878_" class="st19" points="373.5,240.4 373.5,339.8 283.8,391.5 283.8,363.6 283.8,292.2 367.9,243.7 			
				"/>
			<polygon id="XMLID_10879_" class="st0" points="373.5,240.4 373.5,339.8 362.4,332.1 362.4,246.9 			"/>
			<polygon id="XMLID_10880_" class="st20" points="367.9,243.7 367.9,321.7 283.8,374.7 283.8,292.2 			"/>
			<g id="XMLID_10881_">
				
					<rect id="XMLID_10882_" x="277.3" y="269.5" transform="matrix(0.8661 -0.4999 0.4999 0.8661 -91.7431 199.1629)" class="st21" width="97.1" height="2.7"/>
			</g>
			<g id="XMLID_10883_">
				
					<rect id="XMLID_10884_" x="277.3" y="289" transform="matrix(0.8661 -0.4999 0.4999 0.8661 -101.485 201.7796)" class="st21" width="97.1" height="2.7"/>
			</g>
			<g id="XMLID_10885_">
				
					<rect id="XMLID_10886_" x="277.3" y="279" transform="matrix(0.8661 -0.4999 0.4999 0.8661 -96.4971 200.4449)" class="st21" width="97.1" height="2.7"/>
			</g>
			<g id="XMLID_10887_">
				
					<rect id="XMLID_10888_" x="277.3" y="299.4" transform="matrix(0.8661 -0.4999 0.4999 0.8661 -106.7156 203.1807)" class="st21" width="97.1" height="2.7"/>
			</g>
			<g id="XMLID_10889_">
				
					<rect id="XMLID_10890_" x="277.3" y="309.9" transform="matrix(0.8661 -0.4999 0.4999 0.8661 -111.9463 204.5819)" class="st21" width="97.1" height="2.7"/>
			</g>
			<g id="XMLID_10891_">
				
					<rect id="XMLID_10892_" x="277.3" y="320.4" transform="matrix(0.8661 -0.4999 0.4999 0.8661 -117.1771 205.9831)" class="st21" width="97.1" height="2.7"/>
			</g>
			<g id="XMLID_10893_">
				
					<rect id="XMLID_10894_" x="277.3" y="335.2" transform="matrix(0.8661 -0.4999 0.4999 0.8661 -124.5836 207.9686)" class="st22" width="97.1" height="2.7"/>
			</g>
			<polygon id="XMLID_10895_" class="st23" points="283.8,353.7 367.9,305.1 367.9,315.1 283.8,363.6 			"/>
			<polygon id="XMLID_10896_" class="st24" points="367.9,315.1 367.9,335.8 350.5,336.2 283.8,374.7 283.8,363.6 			"/>
			<g id="XMLID_10897_">
				<g id="XMLID_10898_">
					<polygon id="XMLID_10899_" class="st25" points="291.4,292.2 325.9,272.3 325.9,282.9 291.4,302.8 					"/>
					<polygon id="XMLID_10900_" class="st26" points="324.6,281.2 324.6,275.4 292.7,293.8 292.7,299.6 					"/>
					<polygon id="XMLID_10901_" class="st27" points="323.7,280.8 323.7,275.9 324.6,275.4 324.6,281.2 292.7,299.6 292.7,298.7 
											"/>
				</g>
				<g id="XMLID_10902_">
					<polygon id="XMLID_10903_" class="st25" points="360.9,252 360.9,262.7 331.6,279.6 331.6,269 					"/>
					<polygon id="XMLID_10904_" class="st26" points="359.6,261.1 359.6,255.2 332.9,270.5 332.9,276.5 					"/>
					<polygon id="XMLID_10905_" class="st27" points="358.7,260.7 358.7,255.7 359.6,255.2 359.6,261.1 332.9,276.5 332.9,275.5 
											"/>
				</g>
			</g>
		</g>
	</g>
	<g>
		<g>
			<path class="st28" d="M313.6,256.6v4l-1.6,0.8v2.8l-4,2v-2.8l-7.9,4v-4l5.6-14.3l4.4-2.4l-5.6,14.3l3.6-2v-4l4-2v4L313.6,256.6z"
				/>
			<path class="st28" d="M322.7,245.4c1.6-0.8,3.2-0.8,4.4-0.4c1.2,0.8,1.6,2,1.6,4c0,2-0.4,4-1.6,5.6c-1.2,2-2.8,3.2-4.4,4
				c-1.6,0.8-2.8,0.8-4,0.4v6.4l-4,2v-17.9l4-2v1.2C319.9,247.4,321.1,246.2,322.7,245.4z M319.9,255.8c0.4,0.4,1.2,0,2-0.4
				c0.8-0.4,1.6-1.2,2-2c0.4-0.8,0.8-1.6,0.8-2.8c0-0.8-0.4-1.6-0.8-2c-0.4-0.4-1.2,0-2,0.4s-1.6,1.2-2,2c-0.4,0.8-0.8,1.6-0.8,2.8
				C319.1,255,319.1,255.4,319.9,255.8z"/>
			<path class="st28" d="M331,254.2v-18.7l4-2v18.7L331,254.2z"/>
		</g>
		<g>
			<path class="st29" d="M315.6,255.4v4l-1.6,0.8v2.8l-4,2v-2.8l-7.9,4v-4l5.6-14.3l4.4-2.4l-5.6,14.3l3.6-2v-4l4-2v4L315.6,255.4z"
				/>
			<path class="st29" d="M324.7,243.9c1.6-0.8,3.2-0.8,4.4-0.4c1.2,0.8,1.6,2,1.6,4c0,2-0.4,4-1.6,5.6c-1.2,2-2.8,3.2-4.4,4
				c-1.6,0.8-2.8,0.8-4,0.4v6.4l-4,2v-17.9l4-2v1.2C321.9,245.8,323.1,244.7,324.7,243.9z M321.9,254.6c0.4,0.4,1.2,0,2-0.4
				s1.6-1.2,2-2c0.4-0.8,0.8-1.6,0.8-2.8c0-0.8-0.4-1.6-0.8-2c-0.4-0.4-1.2,0-2,0.4s-1.6,1.2-2,2c-0.4,0.8-0.8,1.6-0.8,2.8
				S321.1,254.2,321.9,254.6z"/>
			<path class="st29" d="M333,253v-18.7l4-2V251L333,253z"/>
		</g>
		<g>
			<path class="st29" d="M315.6,255.4v4l-1.6,0.8v2.8l-4,2v-2.8l-7.9,4v-4l5.6-14.3l4.4-2.4l-5.6,14.3l3.6-2v-4l4-2v4L315.6,255.4z"
				/>
			<path class="st29" d="M325.1,244.3c1.6-0.8,3.2-0.8,4.4-0.4c1.2,0.4,1.6,2,1.6,4c0,2-0.4,4-1.6,5.6c-1.2,2-2.8,3.2-4.4,4
				c-1.6,0.8-2.8,0.8-4,0.4v6.4l-4,2v-17.9l4-2v1.2C321.9,246.2,323.1,245,325.1,244.3z M321.9,254.6c0.4,0.4,1.2,0,2-0.4
				s1.6-1.2,2-2c0.4-0.8,0.8-1.6,0.8-2.8c0-0.8-0.4-1.6-0.8-2c-0.4-0.4-1.2,0-2,0.4s-1.6,1.2-2,2c-0.4,0.8-0.8,1.6-0.8,2.8
				S321.5,254.6,321.9,254.6z"/>
			<path class="st29" d="M333,253v-18.7l4-2V251L333,253z"/>
		</g>
		<g>
			<path class="st29" d="M316,255.8v4l-1.6,0.8v2.8l-4,2v-2.8l-7.9,4v-4l5.6-14.3l4.4-2.4l-5.6,14.3l3.6-2v-4l4-2v4L316,255.8z"/>
			<path class="st29" d="M325.1,244.3c1.6-0.8,3.2-0.8,4.4-0.4c1.2,0.8,1.6,2,1.6,4c0,2-0.4,4-1.6,5.6c-1.2,2-2.8,3.2-4.4,4
				c-1.6,0.8-2.8,0.8-4,0.4v6.4l-4,2v-17.9l4-2v1.2C322.3,246.2,323.5,245.4,325.1,244.3z M322.3,255c0.4,0.4,1.2,0,2-0.4
				c0.8-0.4,1.6-1.2,2-2c0.4-0.8,0.8-1.6,0.8-2.8c0-0.8-0.4-1.6-0.8-2c-0.4-0.4-1.2,0-2,0.4s-1.6,1.2-2,2c-0.4,0.8-0.8,1.6-0.8,2.8
				C321.1,254.2,321.5,254.6,322.3,255z"/>
			<path class="st29" d="M333.4,253.4v-18.7l4-2v18.7L333.4,253.4z"/>
		</g>
		<g>
			<path class="st29" d="M316,255.8v4l-1.6,0.8v2.8l-4,2v-2.8l-7.9,4v-4l5.6-14.3l4.4-2.4l-5.6,14.3l3.6-2v-4l4-2v4L316,255.8z"/>
			<path class="st29" d="M325.1,244.7c1.6-0.8,3.2-0.8,4.4-0.4c1.2,0.8,1.6,2,1.6,4c0,2-0.4,4-1.6,5.6c-1.2,2-2.8,3.2-4.4,4
				c-1.6,0.8-2.8,0.8-4,0.4v6.4l-4,2v-17.9l4-2v1.2C322.3,246.6,323.5,245.4,325.1,244.7z M322.3,255.4c0.4,0.4,1.2,0,2-0.4
				c0.8-0.4,1.6-1.2,2-2c0.4-0.8,0.8-1.6,0.8-2.8c0-0.8-0.4-1.6-0.8-2c-0.4-0.4-1.2,0-2,0.4s-1.6,1.2-2,2c-0.4,0.8-0.8,1.6-0.8,2.8
				C321.5,254.2,321.9,255,322.3,255.4z"/>
			<path class="st29" d="M333.4,253.4v-18.3l4-2v18.7L333.4,253.4z"/>
		</g>
		<g>
			<path class="st30" d="M316.4,256.2v4l-1.6,0.8v2.8l-4,2v-2.8l-7.9,4v-4l5.6-14.3l4.4-2.4l-5.6,14.3l3.6-2v-4l4-2v4L316.4,256.2z"
				/>
			<path class="st30" d="M325.5,245c1.6-0.8,3.2-0.8,4.4-0.4c1.2,0.8,1.6,2,1.6,4c0,2-0.4,4-1.6,5.6c-1.2,2-2.8,3.2-4.4,4
				c-1.6,0.8-2.8,0.8-4,0.4v6.4l-4,2V249l4-2v1.2C322.7,247,323.9,245.8,325.5,245z M322.7,255.4c0.4,0.4,1.2,0,2-0.4
				c0.8-0.4,1.6-1.2,2-2c0.4-0.8,0.8-1.6,0.8-2.8c0-0.8-0.4-1.6-0.8-2c-0.4-0.4-1.2,0-2,0.4s-1.6,1.2-2,2c-0.4,0.8-0.8,1.6-0.8,2.8
				C321.5,254.6,321.9,255,322.7,255.4z"/>
			<path class="st30" d="M333.8,253.8v-18.7l4-2v18.7L333.8,253.8z"/>
		</g>
	</g>
</g>
</svg>
