<?xml version="1.0" encoding="utf-8"?>
<!-- Generator: Adobe Illustrator 24.1.0, SVG Export Plug-In . SVG Version: 6.00 Build 0)  -->
<svg version="1.1" id="Layer_1" xmlns="http://www.w3.org/2000/svg" xmlns:xlink="http://www.w3.org/1999/xlink" x="0px" y="0px"
	 viewBox="0 0 500 500" style="enable-background:new 0 0 500 500;" xml:space="preserve">
<style type="text/css">
	.st0{fill-rule:evenodd;clip-rule:evenodd;fill:#010007;}
	.st1{fill-rule:evenodd;clip-rule:evenodd;fill:#2E2D30;}
	.st2{fill-rule:evenodd;clip-rule:evenodd;fill:#1B1B1F;}
	.st3{fill-rule:evenodd;clip-rule:evenodd;fill:#3B3B3B;}
	.st4{fill-rule:evenodd;clip-rule:evenodd;fill:#CECECE;}
	.st5{fill-rule:evenodd;clip-rule:evenodd;fill:#7C7774;}
	.st6{fill:url(#XMLID_2_);}
	.st7{fill:#0038B3;}
	.st8{fill:#0C3AC3;}
	.st9{fill:#2547E1;}
	.st10{fill:url(#XMLID_3_);}
	.st11{fill:url(#XMLID_4_);}
	.st12{fill:url(#XMLID_5_);}
	.st13{fill:#A4CBEB;}
	.st14{fill:#7290DB;}
	.st15{fill:#0065FF;}
	.st16{fill:#084AFA;}
	.st17{fill:#EDEDED;}
	.st18{fill:#DEF7FF;}
	.st19{fill:#071C26;}
	.st20{fill:#56757E;}
	.st21{fill:#9BCBFF;}
	.st22{fill:#8DA9B1;}
	.st23{fill:#CCE6FF;}
	.st24{fill:#ABC3D9;}
	.st25{fill:#D1EBFF;}
	.st26{fill:#DEF8FF;}
	.st27{fill:#D6F7FF;}
	.st28{fill:#3C74EF;}
	.st29{fill:#E6FFFF;}
	.st30{fill:#296AE1;}
	.st31{fill:#2959ED;}
	.st32{fill:#297AF2;}
	.st33{fill:#2989FF;}
	.st34{fill:#1F4CC9;}
	.st35{fill:#30485C;}
	.st36{fill:url(#XMLID_6_);}
	.st37{fill:url(#XMLID_7_);}
	.st38{fill:#6F94A3;}
	.st39{fill:#111C2E;}
	.st40{fill:#C0D9FF;}
	.st41{fill:#DAF3FF;}
	.st42{fill:#9AB1EB;}
	.st43{fill:url(#XMLID_8_);}
	.st44{fill:url(#XMLID_9_);}
	.st45{fill:url(#XMLID_10_);}
	.st46{fill:#7D8DED;}
	.st47{fill:#1A4CE7;}
	.st48{fill:none;stroke:#B8DFEF;stroke-width:0.8751;stroke-miterlimit:10;}
	.st49{fill:url(#XMLID_11_);}
</style>
<g id="XMLID_9657_">
	<g id="XMLID_10022_">
		<g id="XMLID_10023_">
			<path id="XMLID_10024_" class="st0" d="M337.5,222.8c-2.2-1.3-3.6,0.4-3.6,2.6c0,2.2,2.4,4.5,4.6,5.8c2.2,1.3,3,0.1,3-2.1
				C341.5,226.9,339.7,224.1,337.5,222.8z"/>
			<polygon id="XMLID_10026_" class="st0" points="332.2,224.4 334.9,222.8 334.6,224.5 			"/>
			<polygon id="XMLID_10027_" class="st0" points="338.2,233 340.7,231.5 338.6,229.5 338.3,232 			"/>
			<path id="XMLID_10028_" class="st1" d="M335.2,224.8c-2.2-1.3-4-0.5-4,1.7c0,2.2,1.8,5,4,6.3c2.2,1.3,4,0.5,4-1.7
				S337.3,226,335.2,224.8z"/>
			<path id="XMLID_10030_" class="st2" d="M335.2,225.2c-2-1.1-3.6-0.5-3.6,1.5s1.6,4.5,3.6,5.7c2,1.1,3.6,0.5,3.6-1.5
				C338.7,228.8,337.1,226.3,335.2,225.2z"/>
			<path id="XMLID_10032_" class="st3" d="M335.2,226.1c-1.5-0.8-2.6-0.3-2.6,1.1c0,1.5,1.2,3.3,2.6,4.2c1.5,0.8,2.6,0.3,2.6-1.1
				C337.8,228.8,336.6,226.9,335.2,226.1z"/>
			<path id="XMLID_10034_" class="st4" d="M335.3,226.3c-1.3-0.7-2.3-0.3-2.3,1c0,1.3,1,2.9,2.3,3.7c1.3,0.7,2.3,0.3,2.3-1
				C337.6,228.7,336.5,227,335.3,226.3z"/>
			<path id="XMLID_10036_" class="st5" d="M337.2,229.4c-0.1-1-1-2.2-1.9-2.8c0,0,0,0-0.1,0c-1.1-0.6-1.9-0.2-1.9,0.9
				c0,1.1,0.9,2.5,2,3.1c1.1,0.6,2,0.2,2-0.8C337.3,229.7,337.2,229.5,337.2,229.4z"/>
			<path id="XMLID_10038_" class="st4" d="M335.3,226.6C335.2,226.6,335.2,226.6,335.3,226.6c-0.5,0-0.7,0.2-0.7,0.8
				c0,0.8,0.6,1.7,1.4,2.2c0.6,0.3,1.1,0.3,1.3-0.2C337.1,228.4,336.3,227.2,335.3,226.6z"/>
		</g>
		
			<linearGradient id="XMLID_2_" gradientUnits="userSpaceOnUse" x1="315.6901" y1="-171.3738" x2="318.004" y2="-171.3738" gradientTransform="matrix(1 -7.000000e-03 7.000000e-03 1 18.7319 388.9012)">
			<stop  offset="0.1613" style="stop-color:#3D3D3D"/>
			<stop  offset="0.1633" style="stop-color:#5E5E5E"/>
			<stop  offset="0.5593" style="stop-color:#5E5E5E"/>
			<stop  offset="0.5622" style="stop-color:#7A7A7A"/>
			<stop  offset="0.8728" style="stop-color:#7A7A7A"/>
			<stop  offset="0.8739" style="stop-color:#7A7A7A"/>
		</linearGradient>
		<path id="XMLID_10040_" class="st6" d="M333.3,201.7l0,26.7c0,0.3,0.5,0.6,1.1,0.6c0.6,0,1.1-0.3,1.1-0.6l0-26.7L333.3,201.7z"/>
		<g id="XMLID_10041_">
			<path id="XMLID_10042_" class="st0" d="M332.6,225.8c-2.2-1.3-3.6,0.4-3.6,2.6c0,2.2,2.4,4.5,4.6,5.8c2.2,1.3,3,0.1,3-2.1
				C336.5,229.9,334.8,227.1,332.6,225.8z"/>
			<polygon id="XMLID_10044_" class="st0" points="327.3,227.4 329.9,225.8 329.7,227.5 			"/>
			<polygon id="XMLID_10045_" class="st0" points="333.3,236 335.8,234.5 333.6,232.5 333.4,235 			"/>
			<path id="XMLID_10046_" class="st1" d="M330.2,227.8c-2.2-1.3-4-0.5-4,1.7c0,2.2,1.8,5,4,6.3c2.2,1.3,4,0.5,4-1.7
				C334.2,231.9,332.4,229,330.2,227.8z"/>
			<path id="XMLID_10048_" class="st2" d="M330.2,228.2c-2-1.1-3.6-0.5-3.6,1.5c0,2,1.6,4.5,3.6,5.7c2,1.1,3.6,0.5,3.6-1.5
				C333.8,231.8,332.2,229.3,330.2,228.2z"/>
			<path id="XMLID_10050_" class="st3" d="M330.2,229.1c-1.5-0.8-2.6-0.3-2.6,1.1c0,1.5,1.2,3.3,2.6,4.2c1.5,0.8,2.6,0.3,2.6-1.1
				C332.8,231.8,331.7,230,330.2,229.1z"/>
			<path id="XMLID_10052_" class="st4" d="M330.3,229.3c-1.3-0.7-2.3-0.3-2.3,1c0,1.3,1,2.9,2.3,3.7c1.3,0.7,2.3,0.3,2.3-1
				C332.6,231.7,331.6,230.1,330.3,229.3z"/>
			<path id="XMLID_10054_" class="st5" d="M332.3,232.4c-0.1-1-1-2.2-2-2.8c0,0,0,0-0.1,0c-1.1-0.6-1.9-0.2-1.9,0.9
				c0,1.1,0.9,2.5,2,3.1c1.1,0.6,2,0.2,2-0.8C332.3,232.7,332.3,232.5,332.3,232.4z"/>
			<path id="XMLID_10056_" class="st4" d="M330.3,229.6C330.3,229.6,330.3,229.6,330.3,229.6c-0.5,0-0.7,0.2-0.7,0.8
				c0,0.8,0.6,1.7,1.4,2.2c0.6,0.3,1.1,0.3,1.3-0.2C332.1,231.4,331.3,230.2,330.3,229.6z"/>
		</g>
	</g>
	<g id="XMLID_10058_">
		<g id="XMLID_10059_">
			<path id="XMLID_10060_" class="st0" d="M350.2,335.7c-2.2-1.3-3.6,0.4-3.6,2.6c0,2.2,2.4,4.5,4.6,5.8c2.2,1.3,3,0.1,3-2.1
				C354.1,339.8,352.3,337,350.2,335.7z"/>
			<polygon id="XMLID_10062_" class="st0" points="344.9,337.3 347.5,335.7 347.3,337.4 			"/>
			<polygon id="XMLID_10063_" class="st0" points="350.9,345.9 353.4,344.4 351.2,342.4 351,344.9 			"/>
			<path id="XMLID_10064_" class="st1" d="M347.8,337.7c-2.2-1.3-4-0.5-4,1.7c0,2.2,1.8,5,4,6.3c2.2,1.3,4,0.5,4-1.7
				C351.8,341.8,350,338.9,347.8,337.7z"/>
			<path id="XMLID_10066_" class="st2" d="M347.8,338.1c-2-1.1-3.6-0.5-3.6,1.5c0,2,1.6,4.5,3.6,5.7c2,1.1,3.6,0.5,3.6-1.5
				C351.4,341.7,349.8,339.2,347.8,338.1z"/>
			<path id="XMLID_10068_" class="st3" d="M347.8,339c-1.5-0.8-2.6-0.3-2.6,1.1c0,1.5,1.2,3.3,2.6,4.2c1.5,0.8,2.6,0.3,2.6-1.1
				C350.4,341.7,349.2,339.9,347.8,339z"/>
			<path id="XMLID_10070_" class="st4" d="M347.9,339.2c-1.3-0.7-2.3-0.3-2.3,1c0,1.3,1,2.9,2.3,3.7c1.3,0.7,2.3,0.3,2.3-1
				C350.2,341.6,349.2,339.9,347.9,339.2z"/>
			<path id="XMLID_10072_" class="st5" d="M349.8,342.3c-0.1-1-1-2.2-1.9-2.8c0,0,0,0-0.1,0c-1.1-0.6-1.9-0.2-1.9,0.9
				c0,1.1,0.9,2.5,2,3.1c1.1,0.6,2,0.2,2-0.8C349.9,342.6,349.9,342.4,349.8,342.3z"/>
			<path id="XMLID_10074_" class="st4" d="M347.9,339.5C347.9,339.5,347.9,339.5,347.9,339.5c-0.5,0-0.7,0.2-0.7,0.8
				c0,0.8,0.6,1.7,1.4,2.2c0.6,0.3,1.1,0.3,1.3-0.2C349.7,341.3,348.9,340.1,347.9,339.5z"/>
		</g>
		<g id="XMLID_10076_">
			<g id="XMLID_10077_">
				<polygon id="XMLID_10078_" class="st7" points="341.8,337.5 344.2,334 344.5,334.4 342.2,337.9 				"/>
				<polygon id="XMLID_10079_" class="st8" points="347.8,331.9 344.2,334 344.5,334.4 348.1,332.3 				"/>
			</g>
			<polygon id="XMLID_10080_" class="st9" points="345.8,335.8 342.2,337.9 344.5,334.4 348.1,332.2 			"/>
		</g>
		
			<linearGradient id="XMLID_3_" gradientUnits="userSpaceOnUse" x1="327.5335" y1="-58.3852" x2="329.8477" y2="-58.3852" gradientTransform="matrix(1 -7.000000e-03 7.000000e-03 1 18.7319 388.9012)">
			<stop  offset="0.1613" style="stop-color:#3D3D3D"/>
			<stop  offset="0.1633" style="stop-color:#5E5E5E"/>
			<stop  offset="0.5593" style="stop-color:#5E5E5E"/>
			<stop  offset="0.5622" style="stop-color:#7A7A7A"/>
			<stop  offset="0.8728" style="stop-color:#7A7A7A"/>
			<stop  offset="0.8739" style="stop-color:#7A7A7A"/>
		</linearGradient>
		<path id="XMLID_10081_" class="st10" d="M345.9,314.6l0,26.7c0,0.3,0.5,0.6,1.1,0.6c0.6,0,1.1-0.3,1.1-0.6l0-26.7L345.9,314.6z"/>
		<g id="XMLID_10082_">
			<path id="XMLID_10083_" class="st0" d="M345.2,338.7c-2.2-1.3-3.6,0.4-3.6,2.6c0,2.2,2.4,4.5,4.6,5.8c2.2,1.3,3,0.1,3-2.1
				C349.2,342.8,347.4,340,345.2,338.7z"/>
			<polygon id="XMLID_10085_" class="st0" points="339.9,340.3 342.6,338.7 342.3,340.4 			"/>
			<polygon id="XMLID_10086_" class="st0" points="345.9,348.9 348.4,347.4 346.2,345.5 346,347.9 			"/>
			<path id="XMLID_10087_" class="st1" d="M342.8,340.7c-2.2-1.3-4-0.5-4,1.7c0,2.2,1.8,5,4,6.3c2.2,1.3,4,0.5,4-1.7
				C346.8,344.8,345,341.9,342.8,340.7z"/>
			<path id="XMLID_10089_" class="st2" d="M342.8,341.1c-2-1.1-3.6-0.5-3.6,1.5c0,2,1.6,4.5,3.6,5.7c2,1.1,3.6,0.5,3.6-1.5
				C346.4,344.8,344.8,342.2,342.8,341.1z"/>
			<path id="XMLID_10091_" class="st3" d="M342.8,342c-1.5-0.8-2.6-0.3-2.6,1.1c0,1.5,1.2,3.3,2.6,4.2c1.5,0.8,2.6,0.3,2.6-1.1
				C345.5,344.7,344.3,342.9,342.8,342z"/>
			<path id="XMLID_10093_" class="st4" d="M342.9,342.2c-1.3-0.7-2.3-0.3-2.3,1s1,2.9,2.3,3.7c1.3,0.7,2.3,0.3,2.3-1
				C345.3,344.6,344.2,343,342.9,342.2z"/>
			<path id="XMLID_10095_" class="st5" d="M344.9,345.3c-0.1-1-1-2.2-2-2.8c0,0,0,0-0.1,0c-1.1-0.6-1.9-0.2-1.9,0.9
				c0,1.1,0.9,2.5,2,3.1c1.1,0.6,2,0.2,2-0.8C344.9,345.6,344.9,345.4,344.9,345.3z"/>
			<path id="XMLID_10097_" class="st4" d="M342.9,342.6C342.9,342.5,342.9,342.5,342.9,342.6c-0.5,0-0.7,0.2-0.7,0.8
				c0,0.8,0.6,1.7,1.4,2.2c0.6,0.3,1.1,0.3,1.3-0.2C344.7,344.3,343.9,343.1,342.9,342.6z"/>
		</g>
		<g id="XMLID_10099_">
			<g id="XMLID_10100_">
				<polygon id="XMLID_10101_" class="st7" points="351.7,343.1 346.8,335.8 347.2,335.8 352.1,343.2 				"/>
				<polygon id="XMLID_10102_" class="st8" points="350.4,333.7 346.8,335.8 347.2,335.8 350.8,333.7 				"/>
			</g>
			<polygon id="XMLID_10103_" class="st9" points="355.8,341 352.1,343.2 347.2,335.8 350.8,333.7 			"/>
		</g>
	</g>
	<g id="XMLID_10104_">
		<g id="XMLID_10105_">
			<path id="XMLID_10106_" class="st0" d="M198.9,304.8c-2.2-1.3-3.6,0.4-3.6,2.6c0,2.2,2.4,4.5,4.6,5.8c2.2,1.3,3,0.1,3-2.1
				C202.9,308.9,201.1,306.1,198.9,304.8z"/>
			<polygon id="XMLID_10108_" class="st0" points="193.6,306.4 196.3,304.8 196,306.5 			"/>
			<polygon id="XMLID_10109_" class="st0" points="199.6,315 202.1,313.5 200,311.6 199.8,314 			"/>
			<path id="XMLID_10110_" class="st1" d="M196.6,306.8c-2.2-1.3-4-0.5-4,1.7c0,2.2,1.8,5,4,6.3c2.2,1.3,4,0.5,4-1.7
				S198.8,308,196.6,306.8z"/>
			<path id="XMLID_10112_" class="st2" d="M196.6,307.2c-2-1.1-3.6-0.5-3.6,1.5c0,2,1.6,4.5,3.6,5.7c2,1.1,3.6,0.5,3.6-1.5
				C200.2,310.9,198.5,308.3,196.6,307.2z"/>
			<path id="XMLID_10114_" class="st3" d="M196.6,308.1c-1.5-0.8-2.6-0.3-2.6,1.1c0,1.5,1.2,3.3,2.6,4.2c1.5,0.8,2.6,0.3,2.6-1.1
				C199.2,310.8,198,309,196.6,308.1z"/>
			<path id="XMLID_10116_" class="st4" d="M196.7,308.3c-1.3-0.7-2.3-0.3-2.3,1c0,1.3,1,2.9,2.3,3.7c1.3,0.7,2.3,0.3,2.3-1
				C199,310.7,198,309.1,196.7,308.3z"/>
			<path id="XMLID_10118_" class="st5" d="M198.6,311.4c-0.1-1-1-2.2-2-2.8c0,0,0,0-0.1,0c-1.1-0.6-1.9-0.2-1.9,0.9
				c0,1.1,0.9,2.5,2,3.1c1.1,0.6,2,0.2,2-0.8C198.7,311.7,198.6,311.5,198.6,311.4z"/>
			<path id="XMLID_10120_" class="st4" d="M196.7,308.7C196.6,308.6,196.6,308.6,196.7,308.7c-0.5,0-0.7,0.2-0.7,0.8
				c0,0.8,0.6,1.7,1.4,2.2c0.6,0.3,1.1,0.3,1.3-0.2C198.5,310.4,197.7,309.2,196.7,308.7z"/>
		</g>
		
			<linearGradient id="XMLID_4_" gradientUnits="userSpaceOnUse" x1="176.5289" y1="-90.3365" x2="178.843" y2="-90.3365" gradientTransform="matrix(1 -7.000000e-03 7.000000e-03 1 18.7319 388.9012)">
			<stop  offset="0.1613" style="stop-color:#3D3D3D"/>
			<stop  offset="0.1633" style="stop-color:#5E5E5E"/>
			<stop  offset="0.5593" style="stop-color:#5E5E5E"/>
			<stop  offset="0.5622" style="stop-color:#7A7A7A"/>
			<stop  offset="0.8728" style="stop-color:#7A7A7A"/>
			<stop  offset="0.8739" style="stop-color:#7A7A7A"/>
		</linearGradient>
		<path id="XMLID_10122_" class="st11" d="M194.7,283.7l0,26.7c0,0.3,0.5,0.6,1.1,0.6c0.6,0,1.1-0.3,1.1-0.6l0-26.7L194.7,283.7z"/>
		<g id="XMLID_10123_">
			<path id="XMLID_10124_" class="st0" d="M194,307.9c-2.2-1.3-3.6,0.4-3.6,2.6c0,2.2,2.4,4.5,4.6,5.8c2.2,1.3,3,0.1,3-2.1
				C197.9,311.9,196.2,309.1,194,307.9z"/>
			<polygon id="XMLID_10126_" class="st0" points="188.7,309.4 191.3,307.8 191.1,309.5 			"/>
			<polygon id="XMLID_10127_" class="st0" points="194.7,318.1 197.2,316.5 195,314.6 194.8,317 			"/>
			<path id="XMLID_10128_" class="st1" d="M191.6,309.8c-2.2-1.3-4-0.5-4,1.7c0,2.2,1.8,5,4,6.3c2.2,1.3,4,0.5,4-1.7
				C195.6,313.9,193.8,311.1,191.6,309.8z"/>
			<path id="XMLID_10130_" class="st2" d="M191.6,310.2c-2-1.1-3.6-0.5-3.6,1.5c0,2,1.6,4.5,3.6,5.7c2,1.1,3.6,0.5,3.6-1.5
				C195.2,313.9,193.6,311.3,191.6,310.2z"/>
			<path id="XMLID_10132_" class="st3" d="M191.6,311.1c-1.5-0.8-2.6-0.3-2.6,1.1c0,1.5,1.2,3.3,2.6,4.2c1.5,0.8,2.6,0.3,2.6-1.1
				C194.2,313.8,193.1,312,191.6,311.1z"/>
			<path id="XMLID_10134_" class="st4" d="M191.7,311.3c-1.3-0.7-2.3-0.3-2.3,1c0,1.3,1,2.9,2.3,3.7c1.3,0.7,2.3,0.3,2.3-1
				C194,313.7,193,312.1,191.7,311.3z"/>
			<path id="XMLID_10136_" class="st5" d="M193.7,314.4c-0.1-1-1-2.2-1.9-2.8c0,0,0,0-0.1,0c-1.1-0.6-1.9-0.2-1.9,0.9
				c0,1.1,0.9,2.5,2,3.1c1.1,0.6,2,0.2,2-0.8C193.7,314.7,193.7,314.6,193.7,314.4z"/>
			<path id="XMLID_10138_" class="st4" d="M191.7,311.7C191.7,311.6,191.7,311.6,191.7,311.7c-0.5,0-0.7,0.2-0.7,0.8
				c0,0.8,0.6,1.7,1.4,2.2c0.6,0.3,1.1,0.3,1.3-0.2C193.5,313.4,192.7,312.2,191.7,311.7z"/>
		</g>
	</g>
	<linearGradient id="XMLID_5_" gradientUnits="userSpaceOnUse" x1="129.0973" y1="189.4773" x2="135.6608" y2="177.8819">
		<stop  offset="0.1656" style="stop-color:#363636"/>
		<stop  offset="0.1676" style="stop-color:#646464"/>
		<stop  offset="0.5343" style="stop-color:#646464"/>
		<stop  offset="0.5417" style="stop-color:#626262"/>
		<stop  offset="0.5433" style="stop-color:#5F5F5F"/>
		<stop  offset="0.8043" style="stop-color:#5F5F5F"/>
		<stop  offset="0.8473" style="stop-color:#5F5F5F"/>
		<stop  offset="0.8483" style="stop-color:#646464"/>
	</linearGradient>
	<path id="XMLID_10140_" class="st12" d="M136.4,193.1l6.4-11.1l-11.3-6.3l0,0c-0.9-0.5-2-0.4-3.3,0.4c-2.6,1.5-3.6,4.9-3.6,7.8
		c0,2.2,1.5,3.5,3.4,4.6v0l0.1,0c0,0,0,0,0.1,0L136.4,193.1z"/>
	<g id="XMLID_10141_">
		<path id="XMLID_10142_" class="st13" d="M341.4,237.1l-11.3,19.5l-5.4-3c0,0-0.1,0-0.2-0.1l-3.1-1.7l-5.7-3.2l-0.1-0.1l-0.1-0.1
			c-3.4-1.9-7.4-5.4-7.5-7.9V240c0.1-4.6,3-9.8,6.8-12.6c0.3-0.2,0.7-0.5,1-0.7c2.2-1.3,4.3-1.4,5.8-0.6v0l0.8,0.5c0,0,0,0,0.1,0
			l13.1,7.3L341.4,237.1z"/>
		<path id="XMLID_10143_" class="st14" d="M335.6,233.9c-1,0.2-2,0.3-2.9,0.9c-1.1,0.7-1.9,1.6-2.6,2.6c-1.5,2-2.6,4.3-3.4,6.7
			c-0.4,1.1-0.8,2.1-1.1,3.3c-0.2,1.1-0.4,2.2-0.7,3.3c-0.1,0.3,0,2.8-0.1,3c0,0-0.1,0-0.2-0.1c-0.6-0.3-2.5-1.3-3-1.4
			c-0.2-0.1-0.2-0.2-0.1-0.3c0.1-0.4,0.8-1.1,0.3-1.3c-1.4-0.8-2.7-1.5-4.1-2.3c-1.4-0.7-2.7-1.5-4.1-2.3c-1.9-1.3-3.9-3.1-5.1-5.1
			c-0.2-0.3-0.3-0.6-0.5-0.9c-0.5-1.1-0.8-2.2-0.6-3.4c0.4-1.6,1.2-3.1,2.1-4.4c0.9-1.3,1.9-2.5,3-3.4c0.7-0.6,1.5-1,2.3-1.4
			c2.3-1.1,5.1-1.3,7.7-0.8c0,0,0,0,0.1,0L335.6,233.9z"/>
		<path id="XMLID_10144_" class="st15" d="M341.3,237.1l-8.8-4.9l0,0c-1.5-0.8-3.6-0.7-5.8,0.6c-4.5,2.6-6.3,8.6-6.3,13.7
			c0,3.9,2.6,6.2,6,8v0l0.1,0.1c0,0,0.1,0,0.1,0.1l3.4,1.9L341.3,237.1z"/>
		<path id="XMLID_10145_" class="st16" d="M343.8,242.2c0.2,5.1-3.4,11.3-7.8,13.9c-4.5,2.6-8.3,0.6-8.4-4.5
			c-0.2-5.1,3.4-11.3,7.8-13.9C339.9,235.1,343.7,237.1,343.8,242.2z"/>
		<path id="XMLID_10146_" class="st17" d="M343.5,242.4c0.2,4.9-3.2,10.9-7.5,13.4c-4.3,2.5-7.9,0.5-8.1-4.4
			c-0.1-4.9,3.2-10.9,7.5-13.4C339.7,235.5,343.3,237.5,343.5,242.4z"/>
		<g id="XMLID_10147_">
			<path id="XMLID_10148_" class="st18" d="M341.7,243.5c0.1,3.8-2.5,8.4-5.9,10.4c-3.4,1.9-6.2,0.4-6.3-3.4
				c-0.1-3.8,2.5-8.4,5.9-10.4C338.8,238.2,341.6,239.7,341.7,243.5z"/>
			<path id="XMLID_10149_" class="st19" d="M341.3,243.7c0.1,3.5-2.3,7.9-5.5,9.7c-3.1,1.8-5.7,0.4-5.9-3.2
				c-0.1-3.5,2.3-7.9,5.5-9.7C338.6,238.8,341.2,240.2,341.3,243.7z"/>
			<path id="XMLID_10150_" class="st20" d="M335.4,240.6c-3.1,1.8-5.5,6.1-5.4,9.6c0,0.5,0.1,1,0.2,1.4l4.3,2.4
				c0.4-0.1,0.9-0.3,1.4-0.6c3.1-1.8,5.5-6,5.5-9.5L335.4,240.6z"/>
			<path id="XMLID_10151_" class="st21" d="M332.3,243.5c-1.1,1.5-1.9,3.2-2.2,4.9l7.1,3.9c1.3-1.2,2.4-2.7,3.2-4.4L332.3,243.5z"/>
			<path id="XMLID_10152_" class="st22" d="M332.3,243.5c-1.1,1.5-1.9,3.2-2.2,4.9l7.1,3.9c1.3-1.2,2.4-2.7,3.2-4.4L332.3,243.5z"/>
			<path id="XMLID_10153_" class="st20" d="M339.5,243.7c0.1,2.8-1.9,6.3-4.3,7.7c-2.5,1.4-4.6,0.3-4.7-2.5
				c-0.1-2.8,1.9-6.2,4.3-7.7C337.3,239.7,339.4,240.9,339.5,243.7z"/>
			<path id="XMLID_10154_" class="st19" d="M338.7,243.9c0.1,2.4-1.6,5.4-3.7,6.6c-2.1,1.2-3.9,0.3-4-2.2c-0.1-2.4,1.6-5.4,3.7-6.6
				C336.8,240.5,338.6,241.4,338.7,243.9z"/>
			<path id="XMLID_10155_" class="st20" d="M336.4,246.5c0,0.6-0.4,1.3-0.9,1.6c-0.5,0.3-0.9,0.1-1-0.5c0-0.6,0.4-1.3,0.9-1.6
				C336,245.6,336.4,245.9,336.4,246.5z"/>
		</g>
	</g>
	<g id="XMLID_10156_">
		<path id="XMLID_10157_" class="st13" d="M351.8,219l11.3-19.5l-19.8-11l0,0c-1.5-0.8-3.6-0.7-5.8,0.6c-4.5,2.6-8,8.8-7.8,13.9
			c0.1,2.4,4.1,6,7.5,7.9l0,0l0.1,0.1c0,0,0.1,0,0.1,0.1L351.8,219z"/>
		<path id="XMLID_10158_" class="st14" d="M334.7,199.2c0.6-1.4,1.6-2.5,2.7-3.6c1.2-1.2,2.5-2.3,4-2.9c1.3-0.5,2.6-0.6,4-0.8
			c1-0.1,1.9-1,2.9-0.7c0.5,0.1,3.5,1.3,3.1,2c-0.1,0.2-1.2,0.4-1.5,0.6c-0.6,0.4-1.2,1-1.7,1.6c-2,2.4-2.9,4.1-4,8
			c-0.4,1.6-0.7,3.4-0.8,5.1c0,1.4-0.5,4.7,0.1,6c-0.2-0.4-2.1-1.3-2.5-1.5c-0.7-0.3-2.8-1.3-3.6-1.5c-1.6-0.4-0.8-1.3-1.9-2.7
			C333.6,206.4,333.4,202.1,334.7,199.2z"/>
		<path id="XMLID_10159_" class="st15" d="M363.6,199.6l-8.8-4.9l0,0c-1.5-0.8-3.6-0.7-5.8,0.6c-4.5,2.6-6.3,8.6-6.3,13.7
			c0,3.9,2.6,6.2,6,8v0l0.1,0.1c0,0,0.1,0,0.1,0.1l3.4,1.9L363.6,199.6z"/>
		<path id="XMLID_10160_" class="st16" d="M365.5,204.5c0.2,5.1-3.4,11.3-7.8,13.9c-4.5,2.6-8.3,0.5-8.4-4.5
			c-0.2-5.1,3.4-11.3,7.8-13.9C361.6,197.4,365.3,199.4,365.5,204.5z"/>
		<path id="XMLID_10161_" class="st17" d="M365.2,204.7c0.1,4.9-3.2,10.9-7.5,13.4c-4.3,2.5-7.9,0.5-8.1-4.4
			c-0.2-4.9,3.2-10.9,7.5-13.4C361.4,197.8,365,199.8,365.2,204.7z"/>
		<g id="XMLID_10162_">
			<path id="XMLID_10163_" class="st18" d="M363.4,205.8c0.1,3.8-2.5,8.4-5.9,10.4c-3.4,1.9-6.2,0.4-6.3-3.4
				c-0.1-3.8,2.5-8.4,5.9-10.4C360.5,200.5,363.3,202,363.4,205.8z"/>
			<path id="XMLID_10164_" class="st19" d="M363,206c0.1,3.5-2.3,7.9-5.5,9.7c-3.1,1.8-5.7,0.4-5.9-3.2c-0.1-3.5,2.3-7.9,5.5-9.7
				C360.3,201.1,362.9,202.5,363,206z"/>
			<path id="XMLID_10165_" class="st20" d="M357.1,202.9c-3.1,1.8-5.5,6.1-5.4,9.6c0,0.5,0.1,1,0.2,1.4l4.3,2.4
				c0.4-0.1,0.9-0.3,1.4-0.6c3.1-1.8,5.5-6,5.5-9.5L357.1,202.9z"/>
			<path id="XMLID_10166_" class="st21" d="M354,205.8c-1.1,1.5-1.9,3.2-2.2,5l7.1,3.9c1.3-1.2,2.4-2.7,3.2-4.4L354,205.8z"/>
			<path id="XMLID_10167_" class="st22" d="M354,205.8c-1.1,1.5-1.9,3.2-2.2,5l7.1,3.9c1.3-1.2,2.4-2.7,3.2-4.4L354,205.8z"/>
			<path id="XMLID_10168_" class="st20" d="M361.2,206c0.1,2.8-1.9,6.3-4.3,7.7c-2.5,1.4-4.6,0.3-4.7-2.5c-0.1-2.8,1.9-6.3,4.3-7.7
				C359,202,361.1,203.2,361.2,206z"/>
			<path id="XMLID_10169_" class="st19" d="M360.4,206.2c0.1,2.4-1.6,5.4-3.7,6.6c-2.1,1.2-3.9,0.3-4-2.2c-0.1-2.4,1.6-5.4,3.7-6.6
				C358.5,202.8,360.3,203.8,360.4,206.2z"/>
			<path id="XMLID_10170_" class="st20" d="M358.1,208.8c0,0.6-0.4,1.3-0.9,1.6c-0.5,0.3-0.9,0.1-1-0.5c0-0.6,0.4-1.3,0.9-1.6
				C357.7,208,358.1,208.2,358.1,208.8z"/>
		</g>
	</g>
	<g id="XMLID_10171_">
		<g id="XMLID_10172_">
			<path id="XMLID_10173_" class="st16" d="M296.3,233l20,35.9l44.6-106.3l-0.7-3.2C360.2,159.3,296.3,232.5,296.3,233z"/>
			<path id="XMLID_10174_" class="st23" d="M312.4,271.3l47.7-112l-26.1-13.7l-43,60.7l-35.9,30.8
				C255.2,237.1,298.3,259.4,312.4,271.3z"/>
			<polygon id="XMLID_10175_" class="st24" points="291.1,206.3 293.7,207.9 263.3,239.4 258.5,234.2 			"/>
			<polygon id="XMLID_10176_" class="st25" points="341.3,149.4 263.8,253.1 293.5,266 350.7,154.3 			"/>
			<polygon id="XMLID_10177_" class="st26" points="294.6,263.8 350.7,154.3 360.2,159.3 314.6,266.3 			"/>
		</g>
	</g>
	<path id="XMLID_10178_" class="st27" d="M407.8,336.8c0,0.6-0.1,1.2-0.2,1.8c-0.5,1.9-1.7,3.6-3.5,4.7c-1.1,0.6-2.3,1.1-3.7,1.3
		c-0.9,0.2-1.8,0.3-2.8,0.3h-0.1c-0.2,0-0.5,0-0.7,0c-0.2,0-0.4,0-0.6,0c-0.3,0-0.6,0-0.9,0c-0.4,0-0.8,0-1.3-0.1
		c-6.1-0.5-17.3-1.5-24-3.9c-3.4-1.2-2.7-3.7-5.7-4.7c-1.4-0.5-2.8-0.9-4.1-1.2c-0.4-0.1-0.7-0.2-1.1-0.3l-98.6-50.7L166.9,230
		l-3.8-2.2c-0.8-0.5-1.6-1.2-2.4-1.8c-2.1-1.6-4.1-3.2-6.1-4.9c-2.7-2.3-5.3-4.8-7.8-7.4c-1-1.1-2-2.1-2.9-3.3
		c-1.7-1.9-3.3-4-4.7-6.1c-2.3-3.3-4.2-6.8-5.5-10.6c-0.5-1.3-0.8-2.7-1.1-4c-0.1-0.6-0.1-1.4-0.3-2c-0.1-0.4-0.5-0.6-0.8-0.9
		c-0.4-0.4-0.8-0.8-1.1-1.2c-0.4-0.6-0.8-1.3-0.9-2c0-0.2,0-0.4,0.1-0.6c0-0.1,0-0.2,0-0.4c0-0.2,0.1-0.4,0.1-0.5
		c0.1-0.4,0.2-0.7,0.3-1c0.1-0.2,0.1-0.4,0.2-0.6c0.1-0.2,0.2-0.5,0.3-0.7c0-0.1,0.1-0.2,0.2-0.3c0.1-0.1,0.2-0.3,0.3-0.4
		c0.1-0.2,0.3-0.4,0.5-0.6c0.1-0.1,0.2-0.2,0.3-0.3c0,0,0,0,0,0c0.6-0.4,3.8-12.3,4-12.5c0.1-0.1,1.8-1.6,3.6-1.8
		c0.6,0,1.1-0.1,1.6-0.1c2.7,0,23.4,8.4,26,9c0.5,0.1,1,0.2,1.6,0.4c0.3,0.1,0.7,0.2,1,0.3c1.1,0.3,2.2,0.6,3.2,1
		c0.2,0.1,0.5,0.2,0.7,0.3c0.8,0.3,1.6,0.6,2.4,1c0,0,0.1,0,0.1,0.1c1.2,0.5,2.3,1.1,3.5,1.8l20.2,11.7l175,100.7
		c6.1,3.5,11.6,8.2,15.9,13.6c0,0,0,0,0.1,0.1c0.1,0.1,0.2,0.2,0.2,0.3c0.2,0.2,0.4,0.5,0.6,0.8c0.3,0.4,0.6,0.8,0.9,1.3
		c0.3,0.4,0.5,0.7,0.8,1.1c0.1,0.2,0.3,0.4,0.4,0.6c0.2,0.3,0.5,0.7,0.7,1.1c0.1,0.1,0.1,0.2,0.2,0.3c0.1,0.1,0.2,0.3,0.3,0.5
		c0.1,0.1,0.2,0.2,0.2,0.3c0.3,0.5,0.6,1,0.9,1.5c1.1,1.9,2.1,3.9,2.9,6l4.1,8.2l1.4,2.8l0.8,1.7l1.9,3.8c0.2,0.6,0.4,1.2,0.5,1.8
		c0,0,0,0,0,0.1c0,0.4,0.1,0.8,0.1,0.9C407.8,336.7,407.8,336.7,407.8,336.8z"/>
	<path id="XMLID_10179_" class="st28" d="M405.2,336.2c0,2.6-1.3,5-3.7,6.4c-0.4,0.3-0.9,0.5-1.4,0.7c-0.7,0.3-1.4,0.5-2.2,0.7
		c0,0,0,0-0.1,0c0,0-0.1,0-0.2,0c-0.4,0.1-1.1,0.2-2.6,0.2H395c-0.2,0-0.5,0-0.7,0c-0.4,0-0.9,0-1.4,0c-2.3,0-5.7-0.2-10.4-0.7
		c-7.5-1.4-15.4-4-21.7-6c-1.8-0.6-2.5-3-4-3.3l0,0l-98.6-50.6l0,0l-93.7-54.2l-3.8-2.2c0,0-30-20.3-31.1-42c0-0.5,0-0.9,0-1.4v-0.1
		l2.8,1.6l1,0.6l26.4,28.3c0,0,179.9,104.7,200.5,114.6c12.1,5.8,25.5,7.3,34.5,7.6C401,336.7,405.2,336.2,405.2,336.2z"/>
	<path id="XMLID_10180_" class="st29" d="M386.1,300.7c1.3,1.4-1.1,1.8-2.5,1.4c0,0-6.9-3.2-6.9-3.2L188.8,190.8
		c-1.8-1.1-36.6-18.6-51.4-26.8c0.6,0,1.1-0.1,1.6-0.1c3.6,0,7.2,0.5,10.6,1.4c3.4,0.9,24.1,9.9,27.3,11.7l195.2,112.4
		C377.4,292.4,382.1,296.2,386.1,300.7z"/>
	<g id="XMLID_10181_">
		<g id="XMLID_10182_">
			<path id="XMLID_10183_" class="st30" d="M179.6,182.2l5.6-30.9c0-0.2,0.1-1.1,0.2-1.6l-14,26.7
				C173.4,177.2,177.6,181.3,179.6,182.2z"/>
			<path id="XMLID_10184_" class="st31" d="M179.6,182.2l5.8-32.5c-2.4-3-9.6-5.2-10.6-5.6l-22.6,26.8c0.4,0.1,0.8,0.2,1.2,0.3
				C161.5,172.7,172,178.8,179.6,182.2z"/>
			<path id="XMLID_10185_" class="st32" d="M173.8,177.4l7.9-30.5l-4.3-1.9l-18.5,27.4C163.9,173.7,168.9,175.4,173.8,177.4z"/>
			<path id="XMLID_10186_" class="st33" d="M181.3,182.9l4.1-33.2c-0.6-1-3.7-2.8-3.7-2.8l-10.8,29.4
				C173.6,177.3,178.6,181.7,181.3,182.9z"/>
		</g>
	</g>
	<path id="XMLID_10187_" class="st29" d="M397.8,314.8l3,6.3c-3.4,1.8-8.9,4.1-12.4,4.3c-4.7,0.3-9.4-0.6-13.7-2.5l-15.6-6.8
		c-0.8-0.4-1.5-0.9-2.3-1.3c-2.1-1.2-83.4-47.8-85.5-49c-3.3-1.9-6.5-3.8-9.8-5.6c-4.1-2.4-8.2-4.8-12.4-7.1
		c-4.7-2.7-9.5-5.5-14.2-8.2c-5.1-2.9-10.2-5.9-15.2-8.8c-5.2-3-24.4-14.2-29.5-17.2c-5-2.9-10.1-5.8-15.1-8.7
		c-4.6-2.7-9.2-5.3-13.9-8c-4-2.3-7.9-4.6-11.9-6.9c-3-1.8-6.1-3.5-9.1-5.3c-1.9-1.1-3.7-2.2-5.6-3.2c-0.1-0.1-0.4-0.2-0.5-0.3
		c-0.6-0.6-2.8-3.5-2.4-4.2c0.3-0.4,7.4-12,12.7-8.2c4,2.9,13.5,7.9,13.9,8.1l108.7,62.8l7.5,4.3c11.2,6,100.3,55.8,107.3,57.3
		c8,1.7,8.7-3.4,8.8-3.3c1.7,2.2,2.9,3.8,3.1,4.3C394.9,309.7,396.9,312.8,397.8,314.8z"/>
	<path id="XMLID_10188_" class="st34" d="M356.7,334.3l-98.6-50.7l-93.7-54.2l-3.8-2.2c0,0-30-20.3-31.1-42c1.6,1.8,3.2,4.1,4.4,7
		c3.5,8.7,20.9,24.4,23,27.1C158.9,222.1,355.1,333.4,356.7,334.3z"/>
	<path id="XMLID_10189_" class="st34" d="M398,344C398,344,398,344,398,344C398,344,398,344,398,344c-0.1,0-0.2,0.1-0.3,0.1
		c-0.4,0.1-1.1,0.2-2.6,0.2H395c-0.2,0-0.5,0-0.7,0c-0.4,0,1.1,0.6,0.6,0.6c-2.3,0-7.7-0.8-12.4-1.3c-3.9-0.4-8.8-0.9-14.9-1.9
		c-15.3-2.6-109.5-58-109.5-58l0,0c0.8,0.2,93.6,48.2,96.9,49.7c0.9,0.4,1.8,0.8,2.7,1.2c4.3,1.8,8.9,3.4,13.7,4
		c11.5,1.4,17.1,1.5,22,2.2c2.2,0.3,3.9,3.3,4.3,3.3C398,344,398,344,398,344z"/>
	<path id="XMLID_10190_" class="st35" d="M407.8,336.8c0,0.6-0.1,1.2-0.2,1.7c-3.4,3.6-10.5,3.1-14,2.6c0.1-1.6,0.6-3.2,1.5-4.8
		c0.8-1.6,1.9-3.1,3.2-4.4c1.1-1.1,2.3-2,3.5-2.7c1-0.5,1.9-0.8,2.7-0.9l0.8,1.7l1.9,3.8c0.2,0.6,0.4,1.2,0.5,1.7c0,0,0,0,0,0.1
		c0,0.4,0.1,0.7,0.1,0.9C407.8,336.7,407.8,336.7,407.8,336.8z"/>
	<linearGradient id="XMLID_6_" gradientUnits="userSpaceOnUse" x1="384.6905" y1="325.5135" x2="380.9713" y2="309.3966">
		<stop  offset="8.374380e-02" style="stop-color:#597E90"/>
		<stop  offset="0.4241" style="stop-color:#4D6976"/>
		<stop  offset="0.9409" style="stop-color:#3C4B52"/>
	</linearGradient>
	<path id="XMLID_10191_" class="st36" d="M399.8,319.4l-0.3,0.7l-1.5,3.3l-0.2,0.4l-5,0l-7.9,0l-2.8,0l-13.3-5.6
		c-4-1.7-4.5-7.2-0.9-9.6l1.3-0.8l12,3.8l2.1-0.2l5.1-0.5l2.5-0.2l1-1l2-1.9l2.7,4.2L399.8,319.4z"/>
	<linearGradient id="XMLID_7_" gradientUnits="userSpaceOnUse" x1="392.6664" y1="316.8447" x2="391.6369" y2="302.1016">
		<stop  offset="0" style="stop-color:#92C6B9"/>
		<stop  offset="0.9409" style="stop-color:#6F797B"/>
	</linearGradient>
	<polygon id="XMLID_10192_" class="st37" points="397.5,315.6 398,315.6 396.4,312 393.8,307.8 391.8,309.7 390.8,310.7 
		388.3,310.9 386.8,311.1 	"/>
	<path id="XMLID_10193_" class="st38" d="M397.9,315.2l-0.2,0.4l-1.5,3.3l-0.2,0.4l-5,0l-7.9-0.1l-2.8,0l-13.3-5.6
		c-0.6-0.2-1.1-0.6-1.5-1c-0.2,2.2,0.9,4.5,3.3,5.5l13.3,5.6l2.8,0l7.9,0.1l5,0l0.2-0.4l1.5-3.3l0.3-0.7L397.9,315.2z"/>
	<g id="XMLID_10194_">
		<path id="XMLID_10195_" class="st30" d="M156.2,203l-58.5,3.3l-13.4-7l-0.4-1.7l22.1,0.9l50.2,3.1
			C156.2,202.3,156.2,202.8,156.2,203z"/>
		<path id="XMLID_10196_" class="st31" d="M156.2,201.6L97.9,205l-14-7.4l46.2-11.6C130.1,186,148.6,195.3,156.2,201.6z"/>
		<polygon id="XMLID_10197_" class="st33" points="91.1,201.4 149,196.6 156.2,201.6 97.9,205 		"/>
		<polygon id="XMLID_10198_" class="st32" points="86.6,199 133.2,187.5 149,196.6 91.1,201.4 		"/>
	</g>
	<path id="XMLID_10199_" class="st39" d="M407.6,338.5c-0.5,1.9-1.7,3.6-3.5,4.7c-1.1,0.6-2.3,1.1-3.7,1.3c-0.9,0.2-1.8,0.3-2.8,0.3
		h-0.1c-0.2,0-0.5,0-0.7,0c-0.2,0-0.4,0-0.6,0c-0.3,0-0.6,0-0.9,0c-0.4,0-0.8,0-1.3-0.1c-0.1-0.1-0.1-0.2-0.2-0.4
		c-0.3-0.7-0.4-1.5-0.4-2.4c0-0.3,0-0.5,0-0.8C397.1,341.7,404.2,342.1,407.6,338.5z"/>
	<g id="XMLID_10200_">
		<path id="XMLID_10201_" class="st40" d="M181.3,192.5c-0.3,0.2-1.4,1.3-2.2,1.4c-0.1,0-0.1,0-0.2,0l0-0.2l-13-7.5l-1.7-1
			l-17.5-10.5l-6-3.5l-3-1.8l-9.7-69.5l1.6-0.8l20.9,12.2L181.3,192.5z"/>
		<polygon id="XMLID_10202_" class="st25" points="178.8,193.8 165.8,186.3 164.1,185.3 146.6,174.7 140.6,171.3 137.5,169.5 
			135.2,168.2 135,168.1 127.8,100 131.9,102.3 140.5,107.4 149.2,112.5 		"/>
		<polygon id="XMLID_10203_" class="st41" points="178.8,193.8 165.8,186.3 164.1,185.3 140.5,107.4 149.2,112.5 		"/>
		<polygon id="XMLID_10204_" class="st34" points="140.6,171.3 137.5,169.5 135.2,168.2 127.8,100 131.7,101.1 131.9,102.3 		"/>
	</g>
	<g id="XMLID_10205_">
		<path id="XMLID_10206_" class="st42" d="M165.5,326.5l11.3-19.5l-19.8-11l0,0c-1.5-0.8-3.6-0.7-5.8,0.6c-4.5,2.6-8,8.8-7.9,13.9
			c0.1,2.4,4.2,6,7.5,7.9v0l0.1,0.1c0,0,0.1,0,0.1,0.1L165.5,326.5z"/>
		<path id="XMLID_10207_" class="st13" d="M174.7,308.2l-0.3-0.2c-1.9-1-4-1.1-6-0.4c-2.7,0.9-7.7,2.8-10.5,3.6
			c-5.8,1.7-13.8-0.1-14.3-0.8c-2.7-3.8,8.9-14.5,8.9-14.5c-0.5,0.2-1,0.4-1.4,0.7c-2.3,1.3-4.4,3.7-5.8,6.3c-1.3,2.4-2.1,5.2-2,7.6
			c0,0.9,2.4,3.3,5.5,5.3l15,8.3c0.7-0.2,1.4-0.5,2.2-0.9c0.8-0.5,1.6-1.1,2.4-1.8l5.9-10.3C174.6,310.1,174.7,309.1,174.7,308.2z"
			/>
		<path id="XMLID_10208_" class="st15" d="M176.8,307l-8.8-4.9l0,0c-1.5-0.8-3.6-0.7-5.8,0.6c-4.5,2.6-6.3,8.6-6.3,13.7
			c0,3.9,2.6,6.2,6,8v0l0.1,0.1c0,0,0.1,0,0.1,0.1l3.4,1.9L176.8,307z"/>
		<path id="XMLID_10209_" class="st16" d="M179.2,312c0.2,5.1-3.4,11.3-7.9,13.9c-4.5,2.6-8.3,0.5-8.4-4.5
			c-0.2-5.1,3.4-11.3,7.9-13.9C175.3,304.9,179.1,306.9,179.2,312z"/>
		<path id="XMLID_10210_" class="st17" d="M178.9,312.2c0.2,4.9-3.2,10.9-7.5,13.4c-4.3,2.5-7.9,0.5-8.1-4.4
			c-0.2-4.9,3.2-10.9,7.5-13.4C175.1,305.4,178.7,307.3,178.9,312.2z"/>
		<g id="XMLID_10211_">
			<path id="XMLID_10212_" class="st18" d="M177.1,313.3c0.1,3.8-2.5,8.4-5.9,10.4c-3.4,1.9-6.2,0.4-6.3-3.4
				c-0.1-3.8,2.5-8.4,5.9-10.4C174.2,308,177,309.5,177.1,313.3z"/>
			<path id="XMLID_10213_" class="st19" d="M176.7,313.5c0.1,3.5-2.3,7.9-5.5,9.7c-3.1,1.8-5.7,0.4-5.9-3.2
				c-0.1-3.5,2.3-7.9,5.5-9.7C174,308.6,176.6,310,176.7,313.5z"/>
			<path id="XMLID_10214_" class="st20" d="M170.8,310.4c-3.1,1.8-5.5,6.1-5.4,9.6c0,0.5,0.1,1,0.2,1.4l4.3,2.4
				c0.4-0.1,0.9-0.3,1.4-0.6c3.1-1.8,5.5-6,5.5-9.5L170.8,310.4z"/>
			<path id="XMLID_10215_" class="st21" d="M167.7,313.3c-1.1,1.5-1.9,3.2-2.2,5l7.1,3.9c1.3-1.2,2.4-2.7,3.2-4.4L167.7,313.3z"/>
			<path id="XMLID_10216_" class="st22" d="M167.7,313.3c-1.1,1.5-1.9,3.2-2.2,5l7.1,3.9c1.3-1.2,2.4-2.7,3.2-4.4L167.7,313.3z"/>
			<path id="XMLID_10217_" class="st20" d="M174.9,313.5c0.1,2.8-1.9,6.3-4.3,7.7c-2.5,1.4-4.6,0.3-4.7-2.5
				c-0.1-2.8,1.9-6.3,4.3-7.7C172.7,309.6,174.8,310.7,174.9,313.5z"/>
			<path id="XMLID_10218_" class="st19" d="M174.1,313.7c0.1,2.4-1.6,5.4-3.7,6.6c-2.1,1.2-3.9,0.3-4-2.2c-0.1-2.4,1.6-5.4,3.7-6.6
				C172.2,310.3,174,311.3,174.1,313.7z"/>
			<path id="XMLID_10219_" class="st20" d="M171.8,316.3c0,0.6-0.4,1.3-0.9,1.6c-0.5,0.3-0.9,0.1-1-0.5c0-0.6,0.4-1.3,0.9-1.6
				C171.4,315.5,171.8,315.7,171.8,316.3z"/>
		</g>
	</g>
	<g id="XMLID_10220_">
		<path id="XMLID_10221_" class="st42" d="M231.6,314l11.3-19.5l-19.8-11l0,0c-1.5-0.8-3.6-0.7-5.8,0.6c-4.5,2.6-8,8.8-7.9,13.9
			c0.1,2.4,4.2,6,7.5,7.9v0l0.1,0.1c0,0,0.1,0,0.1,0.1L231.6,314z"/>
		<path id="XMLID_10222_" class="st13" d="M240.7,295.6l-0.3-0.2c-1.8-1-4-1.1-6-0.4c-2.7,0.9-7.7,2.8-10.5,3.6
			c-5.8,1.7-13.7-0.1-14.2-0.8c-2.7-3.8,8.8-14.5,8.8-14.5c-0.5,0.2-1,0.4-1.4,0.7c-2.3,1.3-4.4,3.7-5.8,6.3c-1.3,2.4-2.1,5.2-2,7.6
			c0,0.9,2.4,3.3,5.5,5.3l15,8.3c0.7-0.2,1.4-0.5,2.2-0.9c0.8-0.5,1.6-1.1,2.4-1.8l5.9-10.3C240.6,297.6,240.7,296.6,240.7,295.6z"
			/>
		<path id="XMLID_10223_" class="st15" d="M242.9,294.5l-8.8-4.9l0,0c-1.5-0.8-3.6-0.7-5.8,0.6c-4.5,2.6-6.3,8.6-6.3,13.7
			c0,3.9,2.6,6.2,6,8v0l0.1,0.1c0,0,0.1,0,0.1,0.1l3.4,1.9L242.9,294.5z"/>
		<path id="XMLID_10224_" class="st16" d="M245.3,299.5c0.2,5.1-3.4,11.3-7.9,13.9c-4.5,2.6-8.3,0.6-8.4-4.5
			c-0.2-5.1,3.4-11.3,7.9-13.9C241.3,292.4,245.1,294.4,245.3,299.5z"/>
		<path id="XMLID_10225_" class="st17" d="M245,299.7c0.2,4.9-3.2,10.9-7.5,13.4c-4.3,2.5-7.9,0.5-8.1-4.4
			c-0.2-4.9,3.2-10.9,7.5-13.4C241.2,292.8,244.8,294.8,245,299.7z"/>
		<g id="XMLID_10226_">
			<path id="XMLID_10227_" class="st18" d="M243.2,300.8c0.1,3.8-2.5,8.4-5.9,10.4c-3.4,1.9-6.2,0.4-6.3-3.4
				c-0.1-3.8,2.5-8.4,5.9-10.4C240.3,295.5,243.1,297,243.2,300.8z"/>
			<path id="XMLID_10228_" class="st19" d="M242.8,301c0.1,3.5-2.3,7.9-5.5,9.7c-3.1,1.8-5.7,0.4-5.9-3.2c-0.1-3.5,2.3-7.9,5.5-9.7
				C240.1,296.1,242.7,297.5,242.8,301z"/>
			<path id="XMLID_10229_" class="st20" d="M236.9,297.9c-3.1,1.8-5.5,6.1-5.4,9.6c0,0.5,0.1,1,0.2,1.4l4.3,2.4
				c0.4-0.1,0.9-0.3,1.4-0.6c3.1-1.8,5.5-6,5.5-9.5L236.9,297.9z"/>
			<path id="XMLID_10230_" class="st21" d="M233.8,300.8c-1.1,1.5-1.9,3.2-2.2,4.9l7.1,3.9c1.3-1.2,2.4-2.7,3.2-4.4L233.8,300.8z"/>
			<path id="XMLID_10231_" class="st22" d="M233.8,300.8c-1.1,1.5-1.9,3.2-2.2,4.9l7.1,3.9c1.3-1.2,2.4-2.7,3.2-4.4L233.8,300.8z"/>
			<path id="XMLID_10232_" class="st20" d="M240.9,301c0.1,2.8-1.9,6.3-4.3,7.7c-2.5,1.4-4.6,0.3-4.7-2.5c-0.1-2.8,1.9-6.2,4.3-7.7
				S240.9,298.2,240.9,301z"/>
			<path id="XMLID_10233_" class="st19" d="M240.1,301.2c0.1,2.4-1.6,5.4-3.7,6.6c-2.1,1.2-3.9,0.3-4-2.2c-0.1-2.4,1.6-5.4,3.7-6.6
				C238.3,297.8,240.1,298.7,240.1,301.2z"/>
			<path id="XMLID_10234_" class="st20" d="M237.9,303.7c0,0.6-0.4,1.3-0.9,1.6c-0.5,0.3-0.9,0.1-1-0.5c0-0.6,0.4-1.3,0.9-1.6
				C237.4,302.9,237.9,303.2,237.9,303.7z"/>
		</g>
	</g>
	<g id="XMLID_10235_">
		<path id="XMLID_10236_" class="st16" d="M282.4,290.4L89.1,318.1l-25.1-13.1l-0.7-3.2l41.3,1.7l177.7-15.6
			C282.4,289.1,282.4,289.9,282.4,290.4z"/>
		<path id="XMLID_10237_" class="st23" d="M282.4,287.8L89.5,315.5l-26.1-13.7l105.4-25.4l56.3-21.9
			C225.1,254.5,268.2,276,282.4,287.8z"/>
	</g>
	<polygon id="XMLID_10238_" class="st26" points="265.9,276.7 75.9,308.3 89.5,315.5 282.4,287.8 	"/>
	<polygon id="XMLID_10239_" class="st25" points="237.5,261.2 67.8,304.1 75.9,308.3 265.9,276.7 	"/>
	<g id="XMLID_10240_">
		<polygon id="XMLID_10241_" class="st29" points="380.3,323.8 379.2,323.7 381.1,310.1 382.2,310.3 		"/>
	</g>
	<g id="XMLID_10242_">
		
			<rect id="XMLID_10243_" x="394" y="307.8" transform="matrix(0.8833 -0.4688 0.4688 0.8833 -102.4734 221.9297)" class="st29" width="1.2" height="18.1"/>
	</g>
	<g id="XMLID_10245_">
		<g id="XMLID_10246_">
			
				<linearGradient id="XMLID_8_" gradientUnits="userSpaceOnUse" x1="359.0847" y1="316.363" x2="364.6258" y2="298.7843" gradientTransform="matrix(1 0 -0.128 0.9445 29.5841 12.8251)">
				<stop  offset="8.374380e-02" style="stop-color:#597E90"/>
				<stop  offset="0.4241" style="stop-color:#4D6976"/>
				<stop  offset="0.9409" style="stop-color:#3C4B52"/>
			</linearGradient>
			<path id="XMLID_10247_" class="st43" d="M355,301.8l-1,2.9l-0.2,0.5l-0.5,1.4l-0.2,0.6c-0.2,0.4-0.9,0.7-1.2,0.5l-2.4-1.3
				c-0.4-0.2-0.6-0.6-0.5-1.1c0,0,0-0.1,0-0.1l1-2.8l0,0l1-2.7c0.2-0.4,0.8-0.7,1.2-0.5l0.2,0.1l0.1,0.1l2.1,1.2
				c0.2,0.1,0.4,0.3,0.4,0.5C355.1,301.3,355,301.6,355,301.8z"/>
		</g>
		<path id="XMLID_10248_" class="st38" d="M350.7,305.9c-0.4-0.2-0.6-0.6-0.5-1.1c0,0,0-0.1,0-0.1l1-2.8l0.9-2.6l-0.1,0
			c-0.4-0.2-1.1,0.1-1.2,0.5l-1,2.7l-1,2.8c0,0,0,0,0,0.1c-0.1,0.5,0.1,0.9,0.5,1.1l2.4,1.3c0.4,0.2,1.1-0.1,1.2-0.5l0-0.1
			L350.7,305.9z"/>
	</g>
	<g id="XMLID_10249_">
		<g id="XMLID_10250_">
			
				<linearGradient id="XMLID_9_" gradientUnits="userSpaceOnUse" x1="349.074" y1="311.0461" x2="354.6153" y2="293.4668" gradientTransform="matrix(1 0 -0.128 0.9445 29.5841 12.8251)">
				<stop  offset="8.374380e-02" style="stop-color:#597E90"/>
				<stop  offset="0.4241" style="stop-color:#4D6976"/>
				<stop  offset="0.9409" style="stop-color:#3C4B52"/>
			</linearGradient>
			<path id="XMLID_10251_" class="st44" d="M345.6,296.8l-1,2.9l-0.2,0.5l-0.5,1.4l-0.2,0.6c-0.2,0.4-0.9,0.7-1.2,0.5l-2.4-1.3
				c-0.4-0.2-0.6-0.6-0.5-1.1c0,0,0-0.1,0-0.1l1-2.8l0,0l1-2.7c0.2-0.4,0.8-0.7,1.2-0.5l0.2,0.1l0.1,0.1l2.1,1.2
				c0.2,0.1,0.4,0.3,0.4,0.5C345.7,296.3,345.7,296.6,345.6,296.8z"/>
		</g>
		<path id="XMLID_10252_" class="st38" d="M341.4,300.9c-0.4-0.2-0.6-0.6-0.5-1.1c0,0,0-0.1,0-0.1l1-2.8l0.9-2.6l-0.1,0
			c-0.4-0.2-1.1,0.1-1.2,0.5l-1,2.7l-1,2.8c0,0,0,0,0,0.1c-0.1,0.5,0.1,0.9,0.5,1.1l2.4,1.3c0.4,0.2,1.1-0.1,1.2-0.5l0-0.1
			L341.4,300.9z"/>
	</g>
	<g id="XMLID_10253_">
		<g id="XMLID_10254_">
			
				<linearGradient id="XMLID_10_" gradientUnits="userSpaceOnUse" x1="334.9929" y1="304.6362" x2="340.534" y2="287.0576" gradientTransform="matrix(1 0 -0.128 0.9445 29.5841 12.8251)">
				<stop  offset="8.374380e-02" style="stop-color:#597E90"/>
				<stop  offset="0.4241" style="stop-color:#4D6976"/>
				<stop  offset="0.9409" style="stop-color:#3C4B52"/>
			</linearGradient>
			<path id="XMLID_10255_" class="st45" d="M332.4,290.8l-1,2.9l-0.2,0.5l-0.5,1.4l-0.2,0.6c-0.2,0.4-0.9,0.7-1.2,0.5l-2.4-1.3
				c-0.4-0.2-0.6-0.6-0.5-1.1c0,0,0-0.1,0-0.1l1-2.8l0,0l1-2.7c0.2-0.4,0.8-0.7,1.2-0.5l0.2,0.1l0.1,0.1l2.1,1.2
				c0.2,0.1,0.4,0.3,0.4,0.5C332.5,290.2,332.5,290.5,332.4,290.8z"/>
		</g>
		<path id="XMLID_10256_" class="st38" d="M328.2,294.8c-0.4-0.2-0.6-0.6-0.5-1.1c0,0,0-0.1,0-0.1l1-2.8l0.9-2.6l-0.1,0
			c-0.4-0.2-1.1,0.1-1.2,0.5l-1,2.7l-1,2.8c0,0,0,0,0,0.1c-0.1,0.5,0.1,0.9,0.5,1.1l2.4,1.3c0.4,0.2,1.1-0.1,1.2-0.5l0-0.1
			L328.2,294.8z"/>
	</g>
	<path id="XMLID_10257_" class="st46" d="M155.1,151.4c-0.1,0-0.1,0-0.2,0l0-0.1L155.1,151.4z"/>
	<path id="XMLID_10258_" class="st47" d="M139.2,151.8c0,0.4,0,0.9,0,1.4l0,0c0,0.1,0,0.1,0,0.2c0.1,0.9,0.2,1.9,0.5,2.8
		c0,0.1,0,0.1,0,0.2c0.3,1,0.7,1.9,1.2,2.8c0,0.1,0.1,0.1,0.1,0.2c0.5,0.9,1,1.7,1.7,2.5c0,0.1,0.1,0.1,0.1,0.1
		c0.6,0.8,1.3,1.4,2.1,2c0,0,0.1,0.1,0.1,0.1c0.3,0.3,0.7,0.5,1.1,0.7c0.4,0.2,0.8,0.4,1.1,0.6c0,0,0.1,0,0.1,0.1
		c0.8,0.3,1.5,0.4,2.2,0.5c0,0,0.1,0,0.1,0c0.7,0,1.3-0.2,1.9-0.5c0,0,0.1,0,0.1-0.1c0.6-0.3,1-0.7,1.4-1.3c0,0,0.1-0.1,0.1-0.1
		c0.4-0.6,0.7-1.2,0.8-2c0-0.1,0-0.1,0-0.1c0.1-0.4,0.1-0.7,0.2-1.2c0-0.5,0-0.9,0-1.4c0-0.1,0-0.1,0-0.2c-0.1-0.9-0.3-1.9-0.5-2.8
		c0-0.1,0-0.1,0-0.2c-0.3-1-0.7-1.9-1.2-2.8c0-0.1-0.1-0.1-0.1-0.2c-0.5-0.9-1.1-1.8-1.7-2.5c0-0.1-0.1-0.1-0.1-0.2
		c-0.6-0.8-1.3-1.4-2-2c0,0-0.1-0.1-0.2-0.1c-0.3-0.3-0.7-0.5-1-0.7c-0.4-0.2-0.8-0.4-1.2-0.6l0,0c0,0-0.1,0-0.1-0.1
		c-0.8-0.3-1.5-0.4-2.1-0.4c0,0-0.1,0-0.1,0c-0.7,0-1.3,0.2-1.9,0.5c0,0-0.1,0-0.1,0.1c-0.6,0.3-1,0.7-1.4,1.3c0,0-0.1,0.1-0.1,0.1
		c-0.4,0.6-0.7,1.2-0.8,2c0,0,0,0.1,0,0.1C139.3,151,139.2,151.4,139.2,151.8z"/>
	<polygon id="XMLID_10259_" class="st41" points="141.1,156.4 150.5,152.8 148.3,163.4 146.6,157.2 	"/>
	<g id="XMLID_10260_">
		<path id="XMLID_10261_" class="st48" d="M335.6,289.9l-3.8,10.6l-1.6,6.9l-0.5,1.3c-0.3,0.9-1.8,1.5-2.7,1.1L322,307
			c-0.9-0.5-1.3-1.4-1-2.4c0-0.1,0.1-0.2,0.1-0.2l2.3-8.8l3.6-10.1c0.3-0.9,1.8-1.5,2.7-1l0.4,0.2l0.3,0.2l4.5,2.5
			c0.4,0.3,0.8,0.6,0.9,1C335.8,288.8,335.8,289.4,335.6,289.9z"/>
	</g>
	<g id="XMLID_10262_">
		<g id="XMLID_10263_">
			
				<linearGradient id="XMLID_11_" gradientUnits="userSpaceOnUse" x1="177.6402" y1="215.8409" x2="183.1814" y2="198.2621" gradientTransform="matrix(1 0 -0.128 0.9445 29.5841 12.8251)">
				<stop  offset="8.374380e-02" style="stop-color:#597E90"/>
				<stop  offset="0.4241" style="stop-color:#4D6976"/>
				<stop  offset="0.9409" style="stop-color:#3C4B52"/>
			</linearGradient>
			<path id="XMLID_10264_" class="st49" d="M186.4,206.9l-1,2.9l-0.2,0.5l-0.5,1.4l-0.2,0.6c-0.2,0.4-0.9,0.7-1.2,0.5l-2.4-1.3
				c-0.4-0.2-0.6-0.6-0.5-1.1c0,0,0-0.1,0-0.1l1-2.8l0,0l1-2.7c0.2-0.4,0.8-0.7,1.2-0.5l0.2,0.1l0.1,0.1l2.1,1.2
				c0.2,0.1,0.4,0.3,0.4,0.5C186.5,206.4,186.5,206.6,186.4,206.9z"/>
		</g>
		<path id="XMLID_10265_" class="st38" d="M182.2,210.9c-0.4-0.2-0.6-0.6-0.5-1.1c0,0,0-0.1,0-0.1l1-2.8l0.9-2.6l-0.1,0
			c-0.4-0.2-1.1,0.1-1.2,0.5l-1,2.7l-1,2.8c0,0,0,0,0,0.1c-0.1,0.5,0.1,0.9,0.5,1.1l2.4,1.3c0.4,0.2,1.1-0.1,1.2-0.5l0-0.1
			L182.2,210.9z"/>
	</g>
	<g id="XMLID_10266_">
		<path id="XMLID_10267_" class="st48" d="M189.6,206.1l-3.8,10.6l-1.6,6.9l-0.5,1.3c-0.3,0.9-1.8,1.5-2.7,1.1l-5.1-2.8
			c-0.9-0.5-1.3-1.4-1-2.4c0-0.1,0.1-0.2,0.1-0.2l2.3-8.8l3.6-10.1c0.3-0.9,1.8-1.5,2.7-1l0.4,0.2l0.3,0.2l4.5,2.5
			c0.4,0.3,0.8,0.6,0.9,1C189.8,204.9,189.8,205.5,189.6,206.1z"/>
	</g>
	<polygon id="XMLID_10268_" class="st24" points="168.8,276.4 172.2,277.6 216.3,264.1 209.4,260.6 	"/>
	<g>
		<path class="st34" d="M261.9,253l-0.3,4.6l-1.5-0.9l-0.2,3l-3.7-2.3l0.2-3l-6.4-4l0.3-4.6l5.1-9.3l4.1,2.6l-5.2,9.3l2.3,1.5
			l0.2-3.5l3.7,2.3l-0.2,3.5L261.9,253z"/>
		<path class="st34" d="M269.9,250.9c1.4,0.9,2.5,2.3,3.4,4.3c0.9,2,1.2,4.1,1.1,6.2s-0.7,3.6-1.7,4.4s-2.2,0.8-3.6-0.1
			c-1.3-0.8-2.2-2-2.9-3.6l-0.4,6.9l-3.5-2.2l1.2-19.7l3.5,2.2l-0.1,1.3C267.6,250,268.6,250.1,269.9,250.9z M266.9,259.1
			c0.4,0.8,0.9,1.4,1.5,1.8c0.7,0.4,1.2,0.5,1.6,0.2c0.4-0.3,0.7-0.9,0.7-1.8c0.1-0.9-0.1-1.8-0.5-2.6c-0.4-0.8-0.9-1.4-1.5-1.8
			c-0.7-0.4-1.2-0.5-1.6-0.2c-0.4,0.3-0.7,0.9-0.7,1.8C266.4,257.4,266.6,258.2,266.9,259.1z"/>
		<path class="st34" d="M275.4,269.4l1.3-20.5l3.5,2.2l-1.3,20.5L275.4,269.4z"/>
	</g>
</g>
</svg>
