<?xml version="1.0" encoding="utf-8"?>
<!-- Generator: Adobe Illustrator 24.1.0, SVG Export Plug-In . SVG Version: 6.00 Build 0)  -->
<svg version="1.1" id="Layer_1" xmlns="http://www.w3.org/2000/svg" xmlns:xlink="http://www.w3.org/1999/xlink" x="0px" y="0px"
	 viewBox="0 0 500 500" style="enable-background:new 0 0 500 500;" xml:space="preserve">
<style type="text/css">
	.st0{fill:url(#XMLID_2_);}
	.st1{fill:#6874A8;}
	.st2{fill:#4F4F4F;}
	.st3{fill:url(#XMLID_3_);}
	.st4{fill:#0017CB;}
	.st5{fill:#074A80;}
	.st6{fill:#0047BB;}
	.st7{fill:#0017CE;}
	.st8{fill:#0002DC;}
	.st9{fill:#083D91;}
	.st10{fill:#002FCD;}
	.st11{fill:#0002DF;}
	.st12{fill:#352EFF;}
	.st13{fill:#0011FC;}
	.st14{fill:#0011FF;}
	.st15{fill:#0043FC;}
	.st16{fill:#004AED;}
	.st17{fill:#0A45B1;}
	.st18{fill:#003AD6;}
	.st19{fill:#003CD1;}
	.st20{fill:#012CDF;}
	.st21{fill:#011C95;}
	.st22{fill:#012588;}
	.st23{fill:#071966;}
	.st24{fill:#0033AB;}
	.st25{fill:#00198F;}
	.st26{fill:#44578C;}
	.st27{fill:#737373;}
	.st28{fill:#7E8FE8;}
	.st29{fill:#000A29;}
	.st30{fill:#666666;}
	.st31{fill:#282828;}
	.st32{fill:#003F7A;}
	.st33{fill:#0A53B1;}
	.st34{fill:#909FCC;}
	.st35{fill:#1A45C4;}
	.st36{fill:#2C2C2C;}
	.st37{fill:#0E0E0E;}
	.st38{fill:#1D1D1D;}
	.st39{fill:#595959;}
	.st40{fill:#1F1F1F;}
	.st41{fill:#0074D6;}
	.st42{fill:#393939;}
	.st43{fill:#7D7D7D;}
	.st44{fill:url(#XMLID_4_);}
	.st45{fill:url(#XMLID_5_);}
	.st46{fill:#3F3F3F;}
	.st47{fill:url(#XMLID_6_);}
	.st48{fill:#252525;}
	.st49{fill:url(#XMLID_7_);}
	.st50{fill:url(#XMLID_8_);}
	.st51{fill:url(#XMLID_9_);}
	.st52{fill:url(#XMLID_10_);}
	.st53{fill:#002254;}
	.st54{fill:#003195;}
	.st55{fill:#205EFC;}
	.st56{fill:#011EF9;}
	.st57{fill:#7A8DDC;}
	.st58{fill:#4A4A4A;}
	.st59{fill:#FEFEFE;}
	.st60{fill:#292929;}
	.st61{fill:#1A1A1A;}
	.st62{fill:#2E2E2E;}
	.st63{fill:#434343;}
	.st64{fill:#4B4B4B;}
	.st65{fill:#25272E;}
	.st66{fill:url(#XMLID_11_);}
	.st67{fill:url(#XMLID_12_);}
	.st68{fill:url(#XMLID_13_);}
	.st69{fill:#3B3B3B;}
	.st70{fill:#1A1815;}
	.st71{fill:url(#XMLID_14_);}
	.st72{fill:#6B77AD;}
	.st73{fill:#9BA6DA;}
	.st74{fill:#FFFFFF;}
</style>
<g id="XMLID_1202_">
	<g id="XMLID_8997_">
		<polygon id="XMLID_9655_" points="265.2,224.2 282.7,234.3 281.8,222.4 272.2,221.2 		"/>
		
			<linearGradient id="XMLID_2_" gradientUnits="userSpaceOnUse" x1="30.5003" y1="358.2358" x2="83.7565" y2="358.2358" gradientTransform="matrix(-1 0 0 1 242.5581 0)">
			<stop  offset="0" style="stop-color:#72899C"/>
			<stop  offset="0.9409" style="stop-color:#3F516D"/>
		</linearGradient>
		<path id="XMLID_9654_" class="st0" d="M158.8,358.4C158.8,358.4,158.8,358.4,158.8,358.4v-3.2h0.6c1.1-2.8,3.5-5.5,7.3-7.7
			c10.5-6.1,27.3-6.1,37.7-0.2c3.9,2.2,6.3,5,7.2,7.9h0.4v3.3h0c-0.2,3.8-2.8,7.6-7.9,10.6c-10.5,6.1-27.3,6.1-37.7,0.2
			C161.3,366.3,158.8,362.4,158.8,358.4L158.8,358.4L158.8,358.4z"/>
		<path id="XMLID_9653_" class="st1" d="M204.4,344.5c-10.3-6-27.2-5.9-37.7,0.2c-10.5,6.1-10.6,15.8-0.3,21.8
			c10.3,6,27.2,5.9,37.7-0.2C214.6,360.2,214.7,350.4,204.4,344.5z"/>
		<polygon id="XMLID_9652_" class="st2" points="180.3,338.2 188,338.3 188.8,340.8 179.8,340.6 		"/>
		
			<linearGradient id="XMLID_3_" gradientUnits="userSpaceOnUse" x1="49.5358" y1="393.8245" x2="67.2979" y2="393.8245" gradientTransform="matrix(-1 0 0 1 242.5581 0)">
			<stop  offset="0" style="stop-color:#434343"/>
			<stop  offset="0.9409" style="stop-color:#141414"/>
		</linearGradient>
		<path id="XMLID_9651_" class="st3" d="M175.3,393.9L175.3,393.9v-2.1h0.2c0.4-0.9,1.2-0.8,2.4-1.6c3.5-2,9.1-2.1,12.6-0.1
			c1.3,0.7,2.1,0.7,2.4,1.6h0.1v2.1h0c-0.1,1.3-0.9,2.5-2.6,3.5c-3.5,2-9.1,2.1-12.6,0.1C176.1,396.5,175.3,395.2,175.3,393.9
			L175.3,393.9L175.3,393.9z"/>
		<path id="XMLID_9650_" class="st2" d="M190.5,388.1c-3.4-2-9.1-2-12.6,0.1c-3.5,2-3.5,5.3-0.1,7.3c3.4,2,9.1,2,12.6-0.1
			C193.9,393.4,193.9,390.1,190.5,388.1z"/>
		<g id="XMLID_8998_">
			<g id="XMLID_8999_">
				<polygon id="XMLID_9649_" class="st4" points="187.2,348.5 188.7,347.6 202.2,355.4 200.8,358 187.2,350.2 				"/>
				<polygon id="XMLID_9648_" class="st5" points="199.9,330.9 200.7,330.5 189.8,348.2 188.5,349.2 198.1,330.9 				"/>
				<polygon id="XMLID_9647_" class="st6" points="199.9,330.9 198.9,329.6 187.2,348.5 188.5,349.2 				"/>
				<polygon id="XMLID_9646_" class="st6" points="187.2,348.5 187.2,350.2 200.8,358 201.5,356.7 				"/>
				<path id="XMLID_9645_" class="st7" d="M193.8,338C193.8,338,193.8,338,193.8,338l-5.5-14.2l1.2-0.6l5.3,13.4
					C194.4,337.1,194.2,337.5,193.8,338z"/>
				<path id="XMLID_9644_" class="st7" d="M194.7,339.1l0.9-0.4l6.5,16.8l-1.3,0.7l-6.5-16.6C194.5,339.5,194.7,339.2,194.7,339.1z"
					/>
				<polygon id="XMLID_9643_" class="st6" points="187.2,323.7 188.4,323.1 201,355.1 199.7,355.9 				"/>
			</g>
			<g id="XMLID_9000_">
				<polygon id="XMLID_9642_" class="st8" points="185.5,348.5 184,347.6 170.5,355.4 171.9,358 185.5,350.2 				"/>
				<polygon id="XMLID_9641_" class="st9" points="172.9,330.9 172,330.5 182.9,348.2 184.2,349.2 174.6,330.9 				"/>
				<polygon id="XMLID_9640_" class="st10" points="172.9,330.9 173.8,329.6 185.5,348.5 184.2,349.2 				"/>
				<polygon id="XMLID_9639_" class="st10" points="185.5,348.5 185.5,350.2 171.9,358 171.2,356.7 				"/>
				<path id="XMLID_9638_" class="st11" d="M178.9,338C178.9,338,178.9,338,178.9,338l5.5-14.2l-1.2-0.6l-5.3,13.4
					C178.3,337.1,178.5,337.5,178.9,338z"/>
				<path id="XMLID_9637_" class="st11" d="M178,339.1l-0.9-0.4l-6.5,16.8l1.3,0.7l6.5-16.6C178.2,339.5,178,339.2,178,339.1z"/>
				<polygon id="XMLID_9636_" class="st10" points="185.5,323.7 184.3,323.1 171.7,355.1 173,355.9 				"/>
			</g>
			<g id="XMLID_9001_">
				<polygon id="XMLID_9635_" class="st12" points="204,352.8 185.5,363.5 166.9,352.8 185.5,342.1 				"/>
			</g>
			<g id="XMLID_9002_">
				<polygon id="XMLID_9634_" class="st13" points="185.5,288.5 188.3,286.9 185.5,285.2 182.6,286.9 				"/>
			</g>
			<g id="XMLID_9003_">
				<g id="XMLID_9004_">
					<polygon id="XMLID_9633_" class="st14" points="187.2,353.7 185.8,352.8 185.8,354.5 187.2,355.4 					"/>
				</g>
			</g>
			<g id="XMLID_9005_">
				<g id="XMLID_9006_">
					<polygon id="XMLID_9632_" class="st14" points="187.2,327.2 185.8,326.4 185.8,328.1 187.2,328.9 					"/>
				</g>
			</g>
			<g id="XMLID_9007_">
				<g id="XMLID_9008_">
					<g id="XMLID_9009_">
						<polygon id="XMLID_9631_" class="st15" points="200.8,356.3 199.3,355.4 185.8,363.2 187.2,365.8 200.8,358 						"/>
					</g>
					<path id="XMLID_9630_" class="st16" d="M193.3,346.9l-0.9-0.4l-6.5,16.8l1.3,0.7l6.5-16.6C193.5,347.3,193.3,347,193.3,346.9z"
						/>
					<polygon id="XMLID_9629_" class="st5" points="199.9,304.5 200.7,304.2 189.8,321.8 188.5,322.8 198.1,304.5 					"/>
					<polygon id="XMLID_9628_" class="st6" points="199.9,304.5 198.9,303.2 187.2,322.1 188.5,322.8 					"/>
					<path id="XMLID_9627_" class="st7" d="M193.8,311.6C193.8,311.6,193.8,311.6,193.8,311.6l-5.5-14.2l1.2-0.6l5.3,13.4
						C194.4,310.7,194.2,311.1,193.8,311.6z"/>
					<path id="XMLID_9626_" class="st7" d="M194.7,312.8l0.9-0.4l6.5,16.8l-1.3,0.7l-6.5-16.6C194.5,313.1,194.7,312.8,194.7,312.8z
						"/>
					<polygon id="XMLID_9625_" class="st6" points="187.2,297.3 188.4,296.7 201,328.7 199.7,329.5 					"/>
					<polygon id="XMLID_9624_" class="st9" points="172.9,304.5 172,304.2 182.9,321.8 184.2,322.8 174.6,304.5 					"/>
					<polygon id="XMLID_9623_" class="st10" points="172.9,304.5 173.8,303.2 185.5,322.1 184.2,322.8 					"/>
					<path id="XMLID_9622_" class="st11" d="M178.9,311.6C178.9,311.6,178.9,311.6,178.9,311.6l5.5-14.2l-1.2-0.6l-5.3,13.4
						C178.3,310.7,178.5,311.1,178.9,311.6z"/>
					<path id="XMLID_9621_" class="st11" d="M178,312.8l-0.9-0.4l-6.5,16.8l1.3,0.7l6.5-16.6C178.2,313.1,178,312.8,178,312.8z"/>
					<polygon id="XMLID_9620_" class="st10" points="185.5,297.3 184.3,296.7 171.7,328.7 173,329.5 					"/>
					<polygon id="XMLID_9619_" class="st12" points="204,326.4 185.5,337.2 166.9,326.4 185.5,315.7 					"/>
					<path id="XMLID_9618_" class="st14" d="M176.7,319.1C176.6,319.1,176.6,319.1,176.7,319.1l-5.5-14.2l1.2-0.6l5.3,13.4
						C177.3,318.2,177,318.6,176.7,319.1z"/>
					<path id="XMLID_9617_" class="st16" d="M194.2,319.4C194.2,319.4,194.2,319.4,194.2,319.4l5.5-14.2l-1.2-0.6l-5.3,13.4
						C193.6,318.5,193.8,318.9,194.2,319.4z"/>
					<polygon id="XMLID_9616_" class="st5" points="199.9,278.1 200.7,277.8 189.8,295.4 188.5,296.5 198.1,278.1 					"/>
					<polygon id="XMLID_9615_" class="st6" points="199.9,278.1 198.9,276.8 187.2,295.7 188.5,296.5 					"/>
					<path id="XMLID_9614_" class="st7" d="M193.8,285.2C193.8,285.2,193.8,285.2,193.8,285.2l-5.5-14.2l1.2-0.6l5.3,13.4
						C194.4,284.3,194.2,284.7,193.8,285.2z"/>
					<path id="XMLID_9613_" class="st7" d="M194.7,286.4l0.9-0.4l6.5,16.8l-1.3,0.7l-6.5-16.6C194.5,286.8,194.7,286.5,194.7,286.4z
						"/>
					<polygon id="XMLID_9612_" class="st6" points="187.2,270.9 188.4,270.3 201,302.4 199.7,303.1 					"/>
					<polygon id="XMLID_9611_" class="st9" points="172.9,278.1 172,277.8 182.9,295.4 184.2,296.5 174.6,278.1 					"/>
					<polygon id="XMLID_9610_" class="st10" points="172.9,278.1 173.8,276.8 185.5,295.7 184.2,296.5 					"/>
					<path id="XMLID_9609_" class="st11" d="M178.9,285.2C178.9,285.2,178.9,285.2,178.9,285.2l5.5-14.2l-1.2-0.6l-5.3,13.4
						C178.3,284.3,178.5,284.7,178.9,285.2z"/>
					<path id="XMLID_9608_" class="st11" d="M178,286.4l-0.9-0.4l-6.5,16.8l1.3,0.7l6.5-16.6C178.2,286.8,178,286.5,178,286.4z"/>
					<polygon id="XMLID_9607_" class="st10" points="185.5,270.9 184.3,270.3 171.7,302.4 173,303.1 					"/>
					<polygon id="XMLID_9606_" class="st12" points="204,300.1 185.5,310.8 166.9,300.1 185.5,289.3 					"/>
					<path id="XMLID_9605_" class="st14" d="M176.7,292.7C176.6,292.7,176.6,292.7,176.7,292.7l-5.5-14.2l1.2-0.6l5.3,13.4
						C177.3,291.8,177,292.2,176.7,292.7z"/>
					<path id="XMLID_9604_" class="st16" d="M193.3,294.2l-0.9-0.4l-6.5,16.8l1.3,0.7l6.5-16.6C193.5,294.6,193.3,294.3,193.3,294.2
						z"/>
					<polygon id="XMLID_9603_" class="st5" points="199.9,251.7 200.7,251.4 189.8,269 188.5,270.1 198.1,251.7 					"/>
					<polygon id="XMLID_9602_" class="st6" points="199.9,251.7 198.9,250.5 187.2,269.3 188.5,270.1 					"/>
					<path id="XMLID_9601_" class="st7" d="M193.8,258.8C193.8,258.8,193.8,258.8,193.8,258.8l-5.5-14.2l1.2-0.6l5.3,13.4
						C194.4,257.9,194.2,258.4,193.8,258.8z"/>
					<path id="XMLID_9600_" class="st7" d="M194.7,260l0.9-0.4l6.5,16.8l-1.3,0.7l-6.5-16.6C194.5,260.4,194.7,260.1,194.7,260z"/>
					<polygon id="XMLID_9599_" class="st6" points="187.2,244.6 188.4,244 201,276 199.7,276.7 					"/>
					<polygon id="XMLID_9598_" class="st9" points="172.9,251.7 172,251.4 182.9,269 184.2,270.1 174.6,251.7 					"/>
					<polygon id="XMLID_9597_" class="st10" points="172.9,251.7 173.8,250.5 185.5,269.3 184.2,270.1 					"/>
					<path id="XMLID_9596_" class="st11" d="M178.9,258.8C178.9,258.8,178.9,258.8,178.9,258.8l5.5-14.2l-1.2-0.6l-5.3,13.4
						C178.3,257.9,178.5,258.4,178.9,258.8z"/>
					<path id="XMLID_9595_" class="st11" d="M178,260l-0.9-0.4l-6.5,16.8l1.3,0.7l6.5-16.6C178.2,260.4,178,260.1,178,260z"/>
					<polygon id="XMLID_9594_" class="st10" points="185.5,244.6 184.3,244 171.7,276 173,276.7 					"/>
					<polygon id="XMLID_9593_" class="st12" points="204,273.7 185.5,284.4 166.9,273.7 185.5,263 					"/>
					<polygon id="XMLID_9592_" class="st5" points="199.9,225.3 200.7,225 189.8,242.6 188.5,243.7 198.1,225.3 					"/>
					<polygon id="XMLID_9591_" class="st6" points="199.9,225.3 198.9,224.1 187.2,243 188.5,243.7 					"/>
					<path id="XMLID_9590_" class="st7" d="M193.8,232.5C193.8,232.5,193.8,232.5,193.8,232.5l-5.5-14.2l1.2-0.6l5.3,13.4
						C194.4,231.5,194.2,232,193.8,232.5z"/>
					<path id="XMLID_9589_" class="st7" d="M194.7,233.6l0.9-0.4l6.5,16.8l-1.3,0.7l-6.5-16.6C194.5,234,194.7,233.7,194.7,233.6z"
						/>
					<polygon id="XMLID_9588_" class="st6" points="187.2,218.2 188.4,217.6 201,249.6 199.7,250.3 					"/>
					<polygon id="XMLID_9587_" class="st9" points="172.9,225.3 172,225 182.9,242.6 184.2,243.7 174.6,225.3 					"/>
					<polygon id="XMLID_9586_" class="st10" points="172.9,225.3 173.8,224.1 185.5,243 184.2,243.7 					"/>
					<path id="XMLID_9585_" class="st11" d="M178.9,232.5C178.9,232.5,178.9,232.5,178.9,232.5l5.5-14.2l-1.2-0.6l-5.3,13.4
						C178.3,231.5,178.5,232,178.9,232.5z"/>
					<path id="XMLID_9584_" class="st11" d="M178,233.6l-0.9-0.4l-6.5,16.8l1.3,0.7l6.5-16.6C178.2,234,178,233.7,178,233.6z"/>
					<polygon id="XMLID_9583_" class="st10" points="185.5,218.2 184.3,217.6 171.7,249.6 173,250.3 					"/>
					<polygon id="XMLID_9582_" class="st12" points="204,247.3 185.5,258 166.9,247.3 185.5,236.6 					"/>
					<polygon id="XMLID_9581_" class="st5" points="199.9,199 200.7,198.6 189.8,216.3 188.5,217.3 198.1,199 					"/>
					<polygon id="XMLID_9580_" class="st6" points="199.9,199 198.9,197.7 187.2,216.6 188.5,217.3 					"/>
					<path id="XMLID_9579_" class="st7" d="M193.8,206.1C193.8,206.1,193.8,206.1,193.8,206.1l-5.5-14.2l1.2-0.6l5.3,13.4
						C194.4,205.2,194.2,205.6,193.8,206.1z"/>
					<path id="XMLID_9578_" class="st7" d="M194.7,207.2l0.9-0.4l6.5,16.8l-1.3,0.7l-6.5-16.6C194.5,207.6,194.7,207.3,194.7,207.2z
						"/>
					<polygon id="XMLID_9577_" class="st6" points="187.2,191.8 188.4,191.2 201,223.2 199.7,224 					"/>
					<polygon id="XMLID_9576_" class="st9" points="172.9,199 172,198.6 182.9,216.3 184.2,217.3 174.6,199 					"/>
					<polygon id="XMLID_9575_" class="st10" points="172.9,199 173.8,197.7 185.5,216.6 184.2,217.3 					"/>
					<path id="XMLID_9574_" class="st11" d="M178.9,206.1C178.9,206.1,178.9,206.1,178.9,206.1l5.5-14.2l-1.2-0.6l-5.3,13.4
						C178.3,205.2,178.5,205.6,178.9,206.1z"/>
					<path id="XMLID_9573_" class="st11" d="M178,207.2l-0.9-0.4l-6.5,16.8l1.3,0.7l6.5-16.6C178.2,207.6,178,207.3,178,207.2z"/>
					<polygon id="XMLID_9572_" class="st10" points="185.5,191.8 184.3,191.2 171.7,223.2 173,224 					"/>
					<polygon id="XMLID_9571_" class="st12" points="204,220.9 185.5,231.6 166.9,220.9 185.5,210.2 					"/>
					<path id="XMLID_9570_" class="st16" d="M194.2,213.9C194.2,213.9,194.2,213.9,194.2,213.9l5.5-14.2l-1.2-0.6l-5.3,13.4
						C193.6,213,193.8,213.4,194.2,213.9z"/>
					<polygon id="XMLID_9569_" class="st5" points="199.9,172.6 200.7,172.3 189.8,189.9 188.5,190.9 198.1,172.6 					"/>
					<polygon id="XMLID_9568_" class="st6" points="199.9,172.6 198.9,171.3 187.2,190.2 188.5,190.9 					"/>
					<path id="XMLID_9567_" class="st7" d="M193.8,179.7C193.8,179.7,193.8,179.7,193.8,179.7l-5.5-14.2l1.2-0.6l5.3,13.4
						C194.4,178.8,194.2,179.2,193.8,179.7z"/>
					<path id="XMLID_9566_" class="st7" d="M194.7,180.9l0.9-0.4l6.5,16.8l-1.3,0.7l-6.5-16.6C194.5,181.2,194.7,181,194.7,180.9z"
						/>
					<polygon id="XMLID_9565_" class="st6" points="187.2,165.4 188.4,164.8 201,196.8 199.7,197.6 					"/>
					<polygon id="XMLID_9564_" class="st9" points="172.9,172.6 172,172.3 182.9,189.9 184.2,190.9 174.6,172.6 					"/>
					<polygon id="XMLID_9563_" class="st10" points="172.9,172.6 173.8,171.3 185.5,190.2 184.2,190.9 					"/>
					<path id="XMLID_9562_" class="st11" d="M178.9,179.7C178.9,179.7,178.9,179.7,178.9,179.7l5.5-14.2l-1.2-0.6l-5.3,13.4
						C178.3,178.8,178.5,179.2,178.9,179.7z"/>
					<path id="XMLID_9561_" class="st11" d="M178,180.9l-0.9-0.4l-6.5,16.8l1.3,0.7l6.5-16.6C178.2,181.2,178,181,178,180.9z"/>
					<polygon id="XMLID_9560_" class="st10" points="185.5,165.4 184.3,164.8 171.7,196.8 173,197.6 					"/>
					<polygon id="XMLID_9559_" class="st12" points="204,194.6 185.5,205.3 166.9,194.6 185.5,183.8 					"/>
					<g id="XMLID_9010_">
						<polygon id="XMLID_9558_" class="st16" points="201.2,357.8 198.3,356.2 198.3,171.3 201.2,171.3 						"/>
					</g>
					<path id="XMLID_9557_" class="st16" d="M194.2,293C194.2,293,194.2,293,194.2,293l5.5-14.2l-1.2-0.6l-5.3,13.4
						C193.6,292.1,193.8,292.5,194.2,293z"/>
					<polygon id="XMLID_9556_" class="st15" points="200.8,277.1 199.3,276.3 185.8,284.1 187.2,286.6 200.8,278.8 					"/>
					<polygon id="XMLID_9555_" class="st17" points="188.2,259.5 187.3,259.2 198.2,276.8 199.5,277.9 189.9,259.5 					"/>
					<path id="XMLID_9554_" class="st16" d="M194.2,266.6C194.2,266.6,194.2,266.6,194.2,266.6l5.5-14.2l-1.2-0.6l-5.3,13.4
						C193.6,265.7,193.8,266.2,194.2,266.6z"/>
					<path id="XMLID_9553_" class="st16" d="M193.3,267.8l-0.9-0.4l-6.5,16.8l1.3,0.7l6.5-16.6C193.5,268.2,193.3,267.9,193.3,267.8
						z"/>
					<polygon id="XMLID_9552_" class="st18" points="200.8,252.4 199.6,251.8 187,283.8 188.3,284.5 					"/>
					<polygon id="XMLID_9551_" class="st15" points="200.8,250.8 199.3,249.9 185.8,257.7 187.2,260.3 200.8,252.5 					"/>
					<polygon id="XMLID_9550_" class="st17" points="188.2,233.1 187.3,232.8 198.2,250.4 199.5,251.5 189.9,233.1 					"/>
					<polygon id="XMLID_9549_" class="st18" points="188.2,233.1 189.1,231.9 200.8,250.8 199.5,251.5 					"/>
					<path id="XMLID_9548_" class="st16" d="M194.2,240.2C194.2,240.3,194.2,240.3,194.2,240.2l5.5-14.2l-1.2-0.6l-5.3,13.4
						C193.6,239.3,193.8,239.8,194.2,240.2z"/>
					<path id="XMLID_9547_" class="st16" d="M193.3,241.4l-0.9-0.4l-6.5,16.8l1.3,0.7l6.5-16.6C193.5,241.8,193.3,241.5,193.3,241.4
						z"/>
					<polygon id="XMLID_9546_" class="st18" points="200.8,226 199.6,225.4 187,257.4 188.3,258.1 					"/>
					<polygon id="XMLID_9544_" class="st15" points="200.8,224.4 199.3,223.5 185.8,231.3 187.2,233.9 200.8,226.1 					"/>
					<polygon id="XMLID_9540_" class="st17" points="188.2,206.8 187.3,206.4 198.2,224.1 199.5,225.1 189.9,206.8 					"/>
					<path id="XMLID_9539_" class="st16" d="M193.3,215l-0.9-0.4l-6.5,16.8l1.3,0.7l6.5-16.6C193.5,215.4,193.3,215.1,193.3,215z"/>
					<polygon id="XMLID_9538_" class="st18" points="200.8,199.6 199.6,199 187,231 188.3,231.8 					"/>
					<polygon id="XMLID_9537_" class="st18" points="188.2,206.8 189.1,205.5 200.8,224.4 199.5,225.1 					"/>
					<polygon id="XMLID_9536_" class="st18" points="200.8,224.4 200.8,226.1 187.2,233.9 186.5,232.6 					"/>
					<polygon id="XMLID_9535_" class="st18" points="200.8,250.8 200.8,252.5 187.2,260.3 186.5,259 					"/>
					<polygon id="XMLID_9534_" class="st18" points="188.2,259.5 189.1,258.3 200.8,277.1 199.5,277.9 					"/>
					<polygon id="XMLID_9533_" class="st18" points="200.8,277.1 200.8,278.8 187.2,286.6 186.5,285.4 					"/>
					<polygon id="XMLID_9532_" class="st18" points="200.8,278.7 199.6,278.1 187,310.2 188.3,310.9 					"/>
					<polygon id="XMLID_9531_" class="st17" points="188.2,338.7 187.3,338.3 198.2,355.9 199.5,357 189.9,338.7 					"/>
					<polygon id="XMLID_9530_" class="st18" points="188.2,338.7 189.1,337.4 200.8,356.3 199.5,357 					"/>
					<polygon id="XMLID_9529_" class="st18" points="200.8,356.3 200.8,358 187.2,365.8 186.5,364.5 					"/>
					<path id="XMLID_9528_" class="st16" d="M194.2,345.8C194.2,345.8,194.2,345.8,194.2,345.8l5.5-14.2l-1.2-0.6l-5.3,13.4
						C193.6,344.8,193.8,345.3,194.2,345.8z"/>
					<polygon id="XMLID_9527_" class="st18" points="200.8,331.5 199.6,330.9 187,362.9 188.3,363.7 					"/>
					<polygon id="XMLID_9526_" class="st15" points="200.8,329.9 199.3,329 185.8,336.8 187.2,339.4 200.8,331.6 					"/>
					<polygon id="XMLID_9525_" class="st17" points="188.2,312.3 187.3,312 198.2,329.6 199.5,330.6 189.9,312.3 					"/>
					<path id="XMLID_9524_" class="st16" d="M193.3,320.6l-0.9-0.4l-6.5,16.8l1.3,0.7l6.5-16.6C193.5,320.9,193.3,320.6,193.3,320.6
						z"/>
					<polygon id="XMLID_9523_" class="st18" points="188.2,312.3 189.1,311 200.8,329.9 199.5,330.6 					"/>
					<polygon id="XMLID_9522_" class="st18" points="200.8,305.1 199.6,304.5 187,336.5 188.3,337.3 					"/>
					<polygon id="XMLID_9521_" class="st15" points="200.8,303.5 199.3,302.7 185.8,310.5 187.2,313 200.8,305.2 					"/>
					<polygon id="XMLID_9520_" class="st17" points="188.2,285.9 187.3,285.6 198.2,303.2 199.5,304.3 189.9,285.9 					"/>
					<polygon id="XMLID_9519_" class="st18" points="188.2,285.9 189.1,284.6 200.8,303.5 199.5,304.3 					"/>
					<polygon id="XMLID_9518_" class="st18" points="200.8,303.5 200.8,305.2 187.2,313 186.5,311.7 					"/>
					<polygon id="XMLID_9517_" class="st18" points="200.8,329.9 200.8,331.6 187.2,339.4 186.5,338.1 					"/>
					<polygon id="XMLID_9516_" class="st14" points="169.8,357.8 172.6,356.1 172.6,171.3 166.9,171.3 166.9,356.1 					"/>
					<polygon id="XMLID_9515_" class="st13" points="170.1,356 171.6,355.1 185.1,362.9 183.6,365.5 170.1,357.7 					"/>
					<polygon id="XMLID_9514_" class="st16" points="170.1,356 170.1,357.7 183.6,365.5 184.3,364.2 					"/>
					<polygon id="XMLID_9513_" class="st17" points="182.7,338.4 183.6,338 172.7,355.6 171.4,356.7 181,338.4 					"/>
					<polygon id="XMLID_9457_" class="st16" points="182.7,338.4 181.8,337.1 170.1,356 171.4,356.7 					"/>
					<path id="XMLID_9456_" class="st14" d="M176.7,345.5C176.6,345.5,176.6,345.5,176.7,345.5l-5.5-14.2l1.2-0.6l5.3,13.4
						C177.3,344.5,177,345,176.7,345.5z"/>
					<path id="XMLID_9455_" class="st14" d="M177.6,346.6l0.9-0.4L185,363l-1.3,0.7l-6.5-16.6C177.3,347,177.5,346.7,177.6,346.6z"
						/>
					<polygon id="XMLID_9454_" class="st16" points="170.1,331.2 171.3,330.6 183.9,362.6 182.6,363.4 					"/>
					<polygon id="XMLID_9453_" class="st13" points="170.1,329.6 171.6,328.7 185.1,336.5 183.6,339.1 170.1,331.3 					"/>
					<polygon id="XMLID_9452_" class="st16" points="170.1,329.6 170.1,331.3 183.6,339.1 184.3,337.8 					"/>
					<polygon id="XMLID_9451_" class="st17" points="182.7,312 183.6,311.7 172.7,329.3 171.4,330.3 181,312 					"/>
					<path id="XMLID_9450_" class="st14" d="M177.6,320.3l0.9-0.4l6.5,16.8l-1.3,0.7l-6.5-16.6C177.3,320.6,177.5,320.3,177.6,320.3
						z"/>
					<polygon id="XMLID_9449_" class="st16" points="182.7,312 181.8,310.7 170.1,329.6 171.4,330.3 					"/>
					<polygon id="XMLID_9447_" class="st16" points="170.1,304.8 171.3,304.2 183.9,336.2 182.6,337 					"/>
					<polygon id="XMLID_9446_" class="st13" points="170.1,303.2 171.6,302.4 185.1,310.2 183.6,312.7 170.1,304.9 					"/>
					<polygon id="XMLID_9445_" class="st16" points="170.1,303.2 170.1,304.9 183.6,312.7 184.3,311.4 					"/>
					<polygon id="XMLID_9444_" class="st17" points="182.7,285.6 183.6,285.3 172.7,302.9 171.4,303.9 181,285.6 					"/>
					<path id="XMLID_9443_" class="st14" d="M177.6,293.9l0.9-0.4l6.5,16.8l-1.3,0.7l-6.5-16.6C177.3,294.3,177.5,294,177.6,293.9z"
						/>
					<polygon id="XMLID_9442_" class="st16" points="170.1,278.4 171.3,277.8 183.9,309.9 182.6,310.6 					"/>
					<polygon id="XMLID_9441_" class="st16" points="182.7,285.6 181.8,284.3 170.1,303.2 171.4,303.9 					"/>
					<polygon id="XMLID_9440_" class="st13" points="170.1,276.8 171.6,276 185.1,283.8 183.6,286.3 170.1,278.5 					"/>
					<polygon id="XMLID_9439_" class="st16" points="170.1,276.8 170.1,278.5 183.6,286.3 184.3,285.1 					"/>
					<path id="XMLID_9438_" class="st14" d="M176.7,266.3C176.6,266.3,176.6,266.3,176.7,266.3l-5.5-14.2l1.2-0.6l5.3,13.4
						C177.3,265.4,177,265.9,176.7,266.3z"/>
					<polygon id="XMLID_9437_" class="st17" points="182.7,259.2 183.6,258.9 172.7,276.5 171.4,277.6 181,259.2 					"/>
					<polygon id="XMLID_9436_" class="st16" points="182.7,259.2 181.8,257.9 170.1,276.8 171.4,277.6 					"/>
					<path id="XMLID_9435_" class="st14" d="M177.6,267.5l0.9-0.4l6.5,16.8l-1.3,0.7l-6.5-16.6C177.3,267.9,177.5,267.6,177.6,267.5
						z"/>
					<polygon id="XMLID_9434_" class="st16" points="170.1,252.1 171.3,251.5 183.9,283.5 182.6,284.2 					"/>
					<polygon id="XMLID_9433_" class="st13" points="170.1,250.5 171.6,249.6 185.1,257.4 183.6,260 170.1,252.2 					"/>
					<polygon id="XMLID_9432_" class="st16" points="170.1,250.5 170.1,252.2 183.6,260 184.3,258.7 					"/>
					<polygon id="XMLID_9431_" class="st17" points="182.7,232.8 183.6,232.5 172.7,250.1 171.4,251.2 181,232.8 					"/>
					<polygon id="XMLID_9430_" class="st16" points="182.7,232.8 181.8,231.6 170.1,250.5 171.4,251.2 					"/>
					<path id="XMLID_9429_" class="st14" d="M176.7,239.9C176.6,240,176.6,240,176.7,239.9l-5.5-14.2l1.2-0.6l5.3,13.4
						C177.3,239,177,239.5,176.7,239.9z"/>
					<path id="XMLID_9428_" class="st14" d="M177.6,241.1l0.9-0.4l6.5,16.8l-1.3,0.7l-6.5-16.6C177.3,241.5,177.5,241.2,177.6,241.1
						z"/>
					<polygon id="XMLID_9427_" class="st16" points="170.1,225.7 171.3,225.1 183.9,257.1 182.6,257.8 					"/>
					<polygon id="XMLID_9426_" class="st19" points="169.8,357.8 166.9,356.1 166.9,171.3 169.8,171.3 					"/>
					<polygon id="XMLID_9425_" class="st13" points="170.1,197.7 171.6,196.8 185.1,204.6 183.6,207.2 170.1,199.4 					"/>
					<polygon id="XMLID_9424_" class="st17" points="182.7,180.1 183.6,179.8 172.7,197.4 171.4,198.4 181,180.1 					"/>
					<polygon id="XMLID_9423_" class="st16" points="182.7,180.1 181.8,178.8 170.1,197.7 171.4,198.4 					"/>
					<polygon id="XMLID_9422_" class="st15" points="200.8,198 199.3,197.1 185.8,204.9 187.2,207.5 200.8,199.7 					"/>
					<polygon id="XMLID_9421_" class="st18" points="200.8,198 200.8,199.7 187.2,207.5 186.5,206.2 					"/>
					<path id="XMLID_9420_" class="st14" d="M176.7,187.2C176.6,187.2,176.6,187.2,176.7,187.2l-5.5-14.2l1.2-0.6l5.3,13.4
						C177.3,186.3,177,186.7,176.7,187.2z"/>
					<path id="XMLID_9419_" class="st14" d="M177.6,188.4l0.9-0.4l6.5,16.8l-1.3,0.7l-6.5-16.6C177.3,188.7,177.5,188.4,177.6,188.4
						z"/>
					<polygon id="XMLID_9418_" class="st16" points="170.1,172.9 171.3,172.3 183.9,204.3 182.6,205.1 					"/>
					<polygon id="XMLID_9417_" class="st13" points="169.7,174.3 171.2,173.4 184.7,181.2 183.2,183.8 169.7,176 					"/>
					<polygon id="XMLID_9416_" class="st12" points="203.7,142 185.1,183 166.5,172.3 185.1,161.6 					"/>
					<polygon id="XMLID_9415_" class="st16" points="169.7,174.3 169.7,176 183.2,183.8 184,182.5 					"/>
					<path id="XMLID_9414_" class="st16" d="M193.3,186.2c0.2,0.3,0.4,0.6,0.6,0.9c0.1,0.1,0.2,0.3,0.3,0.4c0,0,0,0,0,0l3.8-9.8
						l1.4-3.6l-0.4-0.2l-0.2-0.1l-1,0.6l-1.7,4.4L193.3,186.2z"/>
					<polygon id="XMLID_9413_" class="st17" points="188.2,180.4 187.3,180.1 198.2,197.7 199.5,198.7 189.9,180.4 					"/>
					<path id="XMLID_9412_" class="st16" d="M193.3,188.7l-0.9-0.4l-6.5,16.8l1.3,0.7l6.5-16.6C193.5,189,193.3,188.8,193.3,188.7z"
						/>
					<polygon id="XMLID_9411_" class="st18" points="188.2,180.4 189.5,182.6 199.5,198.7 200.8,198 190.8,181.9 189.2,179.3 
						188.7,179.6 					"/>
					<polygon id="XMLID_9410_" class="st18" points="187,204.6 188.3,205.4 199.3,176.9 200.3,174.5 199.4,174.1 199.1,173.8 
						197.5,178 193.9,187.1 					"/>
					<polygon id="XMLID_9409_" class="st15" points="185.4,181.5 186.9,184.1 189.5,182.6 190.8,181.9 196.2,178.7 197.5,178 
						198,177.7 199.3,176.9 200.4,176.3 200.4,174.6 200.3,174.5 199.4,174.1 199.1,173.8 198.9,173.7 197.9,174.3 189.2,179.3 
						188.7,179.6 					"/>
					<polygon id="XMLID_9408_" class="st18" points="200.4,174.6 200.4,176.3 186.9,184.1 186.1,182.8 					"/>
				</g>
				<polygon id="XMLID_9407_" class="st13" points="170.1,224.1 171.6,223.2 185.1,231 183.6,233.6 170.1,225.8 				"/>
				<polygon id="XMLID_9406_" class="st17" points="182.7,206.5 183.6,206.1 172.7,223.8 171.4,224.8 181,206.5 				"/>
				<polygon id="XMLID_9405_" class="st16" points="182.7,206.5 181.8,205.2 170.1,224.1 171.4,224.8 				"/>
				<polygon id="XMLID_9404_" class="st16" points="170.1,224.1 170.1,225.8 183.6,233.6 184.3,232.3 				"/>
				<path id="XMLID_9403_" class="st14" d="M176.7,213.6C176.6,213.6,176.6,213.6,176.7,213.6l-5.5-14.2l1.2-0.6l5.3,13.4
					C177.3,212.7,177,213.1,176.7,213.6z"/>
				<path id="XMLID_9402_" class="st14" d="M177.6,214.7l0.9-0.4l6.5,16.8l-1.3,0.7l-6.5-16.6C177.3,215.1,177.5,214.8,177.6,214.7z
					"/>
				<polygon id="XMLID_9401_" class="st16" points="170.1,199.3 171.3,198.7 183.9,230.7 182.6,231.5 				"/>
				<polygon id="XMLID_9400_" class="st16" points="170.1,197.7 170.1,199.4 183.6,207.2 184.3,205.9 				"/>
				<polygon id="XMLID_9399_" class="st14" points="185.5,366.8 188.3,365.2 188.3,178.8 182.6,178.8 182.6,365.2 				"/>
				<polygon id="XMLID_9398_" class="st19" points="185.5,366.8 182.6,365.2 182.6,178.8 185.5,178.8 				"/>
				<polygon id="XMLID_9397_" class="st14" points="201.2,357.8 201.2,171.3 198.3,171.3 198.3,171.3 204,141 204,356.2 
					201.2,357.8 199.3,356.8 				"/>
			</g>
		</g>
		<g id="XMLID_9011_">
			<g id="XMLID_9012_">
				<g id="XMLID_9013_">
					<polygon id="XMLID_9396_" class="st20" points="206.8,290.3 326.1,221.3 380.8,252.7 378.5,254 378.6,254 261.3,321.8 					"/>
					<polygon id="XMLID_9394_" class="st21" points="370.8,254 370.7,253.9 373,252.7 326.1,225.8 214.5,290.3 261.3,317.4 					"/>
					<g id="XMLID_9014_">
						<polygon id="XMLID_9393_" class="st20" points="288.7,247.5 292,245.6 338.7,272.6 335.4,274.5 						"/>
						<polygon id="XMLID_9392_" class="st20" points="295.2,243.7 298.5,241.8 345.2,268.8 341.9,270.7 						"/>
						<polygon id="XMLID_9391_" class="st20" points="275.7,255 279,253.1 325.8,280.1 322.5,282 						"/>
						<polygon id="XMLID_9390_" class="st20" points="282.2,251.2 285.5,249.3 332.3,276.3 329,278.2 						"/>
						<polygon id="XMLID_9389_" class="st20" points="301.6,240 304.9,238.1 351.7,265.1 348.4,267 						"/>
						<polygon id="XMLID_9388_" class="st20" points="308.1,236.2 311.4,234.3 358.2,261.3 354.9,263.2 						"/>
						<polygon id="XMLID_9387_" class="st20" points="324.4,226.8 371,253.8 370.7,253.9 370.8,254 367.8,255.7 321.1,228.7 						
							"/>
						<polygon id="XMLID_9386_" class="st20" points="314.6,232.5 317.9,230.6 364.6,257.6 361.4,259.5 						"/>
						<polygon id="XMLID_9385_" class="st20" points="217.4,288.7 220.7,286.8 267.5,313.8 264.2,315.7 						"/>
						<polygon id="XMLID_9384_" class="st20" points="230.3,281.2 233.6,279.3 280.4,306.3 277.1,308.2 						"/>
						<polygon id="XMLID_9239_" class="st20" points="236.8,277.4 240.1,275.5 286.9,302.6 283.6,304.5 						"/>
						<polygon id="XMLID_9236_" class="st20" points="223.9,284.9 227.2,283 273.9,310 270.7,312 						"/>
						<polygon id="XMLID_9191_" class="st20" points="243.3,273.7 246.6,271.8 293.4,298.8 290.1,300.7 						"/>
						<polygon id="XMLID_9190_" class="st20" points="256.3,266.2 259.6,264.3 306.3,291.3 303,293.2 						"/>
						<polygon id="XMLID_9116_" class="st20" points="262.8,262.5 266,260.6 312.8,287.6 309.5,289.5 						"/>
						<polygon id="XMLID_9115_" class="st20" points="249.8,270 253.1,268 299.9,295.1 296.6,297 						"/>
						<polygon id="XMLID_9114_" class="st20" points="269.2,258.7 272.5,256.8 319.3,283.8 316,285.7 						"/>
					</g>
					<polygon id="XMLID_9113_" class="st22" points="206.8,342.7 261.3,374 261.3,321.8 206.8,290.3 					"/>
					<polygon id="XMLID_9112_" class="st23" points="257.4,324.1 210.7,297.1 210.7,340.4 257.4,367.6 					"/>
					<g id="XMLID_9015_">
						<polygon id="XMLID_9111_" class="st22" points="256.6,367.1 253.3,365.3 253.3,321.7 256.6,323.6 						"/>
						<polygon id="XMLID_9110_" class="st22" points="240.3,314.2 243.6,316.1 243.6,360.1 240.3,358.3 						"/>
						<polygon id="XMLID_9109_" class="st22" points="211.2,340.6 210.7,340.4 210.7,297.1 211.2,297.3 						"/>
						<polygon id="XMLID_9108_" class="st22" points="246.8,317.9 250.1,319.8 250.1,363.8 246.8,362.1 						"/>
						<polygon id="XMLID_9107_" class="st22" points="233.8,310.4 237.1,312.3 237.1,356.9 233.8,355.2 						"/>
						<polygon id="XMLID_9106_" class="st22" points="214.4,299.2 217.7,301.1 217.7,344.8 214.4,343.2 						"/>
						<polygon id="XMLID_9105_" class="st22" points="220.9,302.9 224.1,304.8 224.1,348.4 220.9,346.7 						"/>
						<polygon id="XMLID_9104_" class="st22" points="227.3,306.7 230.6,308.6 230.6,352.4 227.3,350.7 						"/>
					</g>
					<polygon id="XMLID_9103_" class="st24" points="261.3,321.8 380.8,252.7 380.8,305.2 261.3,374 					"/>
					<polygon id="XMLID_9102_" class="st25" points="376.9,302.9 376.9,259.4 265.2,324.1 265.2,367.3 					"/>
					<g id="XMLID_9016_">
						<polygon id="XMLID_9101_" class="st24" points="326.2,288.8 329.5,286.9 329.5,330.3 326.2,332.2 						"/>
						<polygon id="XMLID_9100_" class="st24" points="339.1,281.3 342.4,279.4 342.4,322.8 339.1,324.7 						"/>
						<polygon id="XMLID_9099_" class="st24" points="345.6,277.5 348.9,275.6 348.9,319.1 345.6,321 						"/>
						<polygon id="XMLID_9098_" class="st24" points="332.7,285 335.9,283.1 335.9,326.5 332.7,328.4 						"/>
						<polygon id="XMLID_9096_" class="st24" points="352.1,273.8 355.4,271.9 355.4,315.3 352.1,317.2 						"/>
						<polygon id="XMLID_9095_" class="st24" points="365.1,266.3 368.4,264.4 368.4,307.9 365.1,309.8 						"/>
						<polygon id="XMLID_9094_" class="st24" points="374.9,304.1 371.6,306 371.6,262.5 374.9,260.6 						"/>
						<polygon id="XMLID_9093_" class="st24" points="358.6,270 361.9,268.1 361.9,311.6 358.6,313.5 						"/>
						<polygon id="XMLID_9092_" class="st24" points="319.7,292.6 323,290.6 323,334 319.7,335.9 						"/>
						<polygon id="XMLID_9091_" class="st24" points="274.3,318.8 277.6,316.9 277.6,360.2 274.3,362.1 						"/>
						<polygon id="XMLID_9090_" class="st24" points="287.3,311.3 290.6,309.4 290.6,352.7 287.3,354.6 						"/>
						<polygon id="XMLID_9089_" class="st24" points="280.8,315.1 284.1,313.2 284.1,356.4 280.8,358.3 						"/>
						<polygon id="XMLID_9088_" class="st24" points="267.8,322.6 271.1,320.7 271.1,363.9 267.8,365.8 						"/>
						<polygon id="XMLID_9087_" class="st24" points="306.7,300.1 310,298.2 310,341.5 306.7,343.4 						"/>
						<polygon id="XMLID_9086_" class="st24" points="293.7,307.6 297,305.7 297,349 293.7,350.9 						"/>
						<polygon id="XMLID_9085_" class="st24" points="313.2,296.3 316.5,294.4 316.5,337.8 313.2,339.7 						"/>
						<polygon id="XMLID_9083_" class="st24" points="300.2,303.8 303.5,301.9 303.5,345.2 300.2,347.1 						"/>
					</g>
				</g>
				<g id="XMLID_9017_">
					<g id="XMLID_9018_">
						<polygon id="XMLID_9081_" class="st26" points="225.9,341.8 230.7,344.7 230.7,348.3 225.9,345.4 						"/>
						<polygon id="XMLID_9080_" class="st27" points="231.6,344.2 230.7,344.7 230.7,348.3 231.6,347.9 						"/>
						<polygon id="XMLID_9079_" class="st28" points="226.7,341.3 225.9,341.8 230.7,344.7 231.6,344.2 						"/>
					</g>
					<g id="XMLID_9019_">
						<polygon id="XMLID_9078_" class="st26" points="241.3,349.6 246.2,352.5 246.2,356.2 241.3,353.3 						"/>
						<polygon id="XMLID_9077_" class="st27" points="247,352 246.2,352.5 246.2,356.2 247,355.7 						"/>
						<polygon id="XMLID_9076_" class="st28" points="242.1,349.1 241.3,349.6 246.2,352.5 247,352 						"/>
					</g>
					<g id="XMLID_9020_">
						<polygon id="XMLID_9075_" class="st26" points="225.9,312.4 230.7,315.3 230.7,319 225.9,316.1 						"/>
						<polygon id="XMLID_8995_" class="st27" points="231.6,314.9 230.7,315.3 230.7,319 231.6,318.5 						"/>
						<polygon id="XMLID_8994_" class="st28" points="226.7,312 225.9,312.4 230.7,315.3 231.6,314.9 						"/>
					</g>
					<g id="XMLID_9021_">
						<polygon id="XMLID_8993_" class="st26" points="241.3,320.3 246.2,323.2 246.2,326.8 241.3,323.9 						"/>
						<polygon id="XMLID_8992_" class="st27" points="247,322.7 246.2,323.2 246.2,326.8 247,326.4 						"/>
						<polygon id="XMLID_8991_" class="st28" points="242.1,319.8 241.3,320.3 246.2,323.2 247,322.7 						"/>
					</g>
					<polygon id="XMLID_8990_" class="st29" points="236.2,355.2 235.2,354.7 235.2,311.2 236.2,311.8 					"/>
					<g id="XMLID_9022_">
						<polygon id="XMLID_8989_" class="st26" points="253.7,325.7 258.6,328.7 258.6,330.5 253.7,327.6 						"/>
						<polygon id="XMLID_8988_" class="st27" points="259.4,328.2 258.6,328.7 258.6,330.5 259.4,330 						"/>
						<polygon id="XMLID_8987_" class="st28" points="254.6,325.3 253.7,325.7 258.6,328.7 259.4,328.2 						"/>
					</g>
					<g id="XMLID_9023_">
						<polygon id="XMLID_8986_" class="st26" points="253.7,360.7 258.6,363.6 258.6,365.5 253.7,362.6 						"/>
						<polygon id="XMLID_8985_" class="st27" points="259.4,363.2 258.6,363.6 258.6,365.5 259.4,365 						"/>
						<polygon id="XMLID_8984_" class="st28" points="254.6,360.2 253.7,360.7 258.6,363.6 259.4,363.2 						"/>
					</g>
					<g id="XMLID_9024_">
						<polygon id="XMLID_8983_" class="st26" points="208.7,299.7 213.6,302.6 213.6,304.4 208.7,301.5 						"/>
						<polygon id="XMLID_8982_" class="st27" points="214.4,302.1 213.6,302.6 213.6,304.4 214.4,303.9 						"/>
						<polygon id="XMLID_8981_" class="st28" points="209.5,299.2 208.7,299.7 213.6,302.6 214.4,302.1 						"/>
					</g>
					<g id="XMLID_9025_">
						<polygon id="XMLID_8980_" class="st26" points="208.7,334.7 213.6,337.6 213.6,339.4 208.7,336.5 						"/>
						<polygon id="XMLID_8979_" class="st27" points="214.4,337.1 213.6,337.6 213.6,339.4 214.4,338.9 						"/>
						<polygon id="XMLID_8978_" class="st28" points="209.5,334.2 208.7,334.7 213.6,337.6 214.4,337.1 						"/>
					</g>
					<g id="XMLID_9026_">
						<polygon id="XMLID_8977_" class="st26" points="243,316.2 244.1,316.9 244.1,361.2 243,360.5 						"/>
						<polygon id="XMLID_8976_" class="st27" points="245,316.4 244.1,316.9 244.1,361.2 245,360.7 						"/>
						<polygon id="XMLID_8975_" class="st28" points="243.8,315.7 243,316.2 244.1,316.9 245,316.4 						"/>
					</g>
					<g id="XMLID_9027_">
						<polygon id="XMLID_8974_" class="st26" points="227.7,307.6 228.9,308.3 228.9,352.7 227.7,352 						"/>
						<polygon id="XMLID_8973_" class="st27" points="229.7,307.9 228.9,308.3 228.9,352.7 229.7,352.2 						"/>
						<polygon id="XMLID_8972_" class="st28" points="228.6,307.2 227.7,307.6 228.9,308.3 229.7,307.9 						"/>
					</g>
				</g>
			</g>
			<g id="XMLID_9028_">
				<g id="XMLID_9029_">
					<path id="XMLID_8971_" class="st30" d="M286,263.7l1.3-0.7c0.1-0.1,0.2-0.1,0.2-0.1l1.3,3.6c0.1,0.1,0.1,0.1,0.2,0.2l-0.2-2.2
						l-0.9-1.3l0.3-1c-0.5-0.7-0.9-1.2-0.9-1.2l1.5-0.9l1.2,0.7v1.9c0,0,2.1,2.5,2.3,4.9c0.1,0.9-0.2,1.4-0.6,1.6l0,0l-1.7,1
						l-2.6-1.8l-1.5-2.9L286,263.7z"/>
					<path id="XMLID_8970_" class="st31" d="M288.5,261.6v1.9c0,0,2.1,2.5,2.3,4.9c0.2,2.4-2,2.1-3.6,0.4c-1.6-1.7-1.9-3.9-1.7-4.6
						c0.2-0.6,0.5-0.6,0.5-0.6s0.4,3.2,1.8,4.1c1.3,0.9,1.1-1.1,0.5-2.1c-0.6-1.1-1-2.2-1-2.8s0.1-1.9,0.1-1.9L288.5,261.6z"/>
				</g>
				<polygon id="XMLID_8969_" class="st32" points="289.3,250.5 290.8,251.5 294.3,258 292.2,260.5 289.3,262.2 286.3,252.3 				"/>
				<polygon id="XMLID_8968_" class="st33" points="286.3,252.3 287.9,253.2 291.4,259.8 289.3,262.2 284.8,259.6 283,254.4 				"/>
				<polygon id="XMLID_8967_" class="st34" points="283.6,254.6 284.2,256.1 284.7,257.6 285.2,259.2 285.4,259.3 286.3,259.8 
					287.4,260.5 288.3,261 289.2,261.5 290.8,259.7 289.7,257.6 289,256.4 288.2,254.9 287.6,253.7 287.5,253.6 286.5,253 
					286.3,252.9 285.2,253.6 				"/>
				<polygon id="XMLID_8966_" class="st35" points="290.8,251.5 287.9,253.2 291.4,259.8 294.3,258 				"/>
			</g>
			<g id="XMLID_9030_">
				
					<rect id="XMLID_8965_" x="284.8" y="211.1" transform="matrix(0.9901 -0.1401 0.1401 0.9901 -29.6228 42.3382)" class="st36" width="2.3" height="41"/>
			</g>
			<g id="XMLID_9031_">
				
					<rect id="XMLID_8964_" x="269.8" y="229" transform="matrix(0.1347 -0.9909 0.9909 0.1347 24.4628 488.2358)" width="44" height="2.3"/>
			</g>
			<polygon id="XMLID_8963_" points="282.7,210.8 262.4,222.6 262.4,227.1 282.7,215.3 			"/>
			<g id="XMLID_9032_">
				<path id="XMLID_8962_" class="st37" d="M280.7,237.3l-5.1-8.8l10.2-5.7c0.1-0.1,0.3-0.2,0.5-0.3l0.1-0.1l0,0
					c0.6-0.2,1.4-0.1,2.2,0.4c2,1.2,3.6,4,3.6,6.2c0,1.1-0.5,1.8-1.1,2.2l0,0l0,0c0,0,0,0,0,0L280.7,237.3z"/>
				<path id="XMLID_8961_" class="st2" d="M289.8,232C289.8,232,289.8,232,289.8,232L289.8,232L289.8,232c0.7-0.4,1.2-1.1,1.2-2.2
					c0-2.3-1.6-5.1-3.6-6.2c-0.8-0.5-1.6-0.6-2.2-0.4l0,0l-0.1,0.1c-0.2,0.1-0.3,0.1-0.5,0.3l-9,5l0,0l10.2-5.7
					c0.1-0.1,0.3-0.2,0.5-0.3l0.1-0.1l0,0c0.6-0.2,1.4-0.1,2.2,0.4c2,1.2,3.6,4,3.6,6.2c0,1.1-0.5,1.8-1.1,2.2l0,0l0,0c0,0,0,0,0,0
					l-10.3,5.9l0,0L289.8,232z"/>
				<path id="XMLID_8960_" class="st2" d="M275.9,230c0,2.3,1.6,5.1,3.6,6.2c2,1.2,3.6,0.2,3.6-2c0-2.3-1.6-5.1-3.6-6.2
					C277.5,226.8,275.9,227.7,275.9,230z"/>
				<path id="XMLID_8959_" class="st38" d="M274.7,230.7c0,2.3,1.6,5.1,3.6,6.2c2,1.2,3.6,0.2,3.6-2s-1.6-5.1-3.6-6.2
					C276.4,227.5,274.7,228.4,274.7,230.7z"/>
			</g>
			<g id="XMLID_9033_">
				<path id="XMLID_8958_" class="st37" d="M269.4,230.8l-5.1-8.8l10.2-5.7c0.1-0.1,0.3-0.2,0.5-0.3l0.1-0.1l0,0
					c0.6-0.2,1.4-0.1,2.2,0.4c2,1.2,3.6,4,3.6,6.2c0,1.1-0.5,1.8-1.1,2.2l0,0l0,0c0,0,0,0,0,0L269.4,230.8z"/>
				<path id="XMLID_8957_" class="st2" d="M278.5,225.5C278.5,225.5,278.5,225.5,278.5,225.5L278.5,225.5L278.5,225.5
					c0.7-0.4,1.2-1.1,1.2-2.2c0-2.3-1.6-5.1-3.6-6.2c-0.8-0.5-1.6-0.6-2.2-0.4l0,0l-0.1,0.1c-0.2,0.1-0.3,0.1-0.5,0.3l-9,5l0,0
					l10.2-5.7c0.1-0.1,0.3-0.2,0.5-0.3l0.1-0.1l0,0c0.6-0.2,1.4-0.1,2.2,0.4c2,1.2,3.6,4,3.6,6.2c0,1.1-0.5,1.8-1.1,2.2l0,0l0,0
					c0,0,0,0,0,0l-10.3,5.9l0,0L278.5,225.5z"/>
				<path id="XMLID_8956_" class="st2" d="M264.6,223.4c0,2.3,1.6,5.1,3.6,6.2c2,1.2,3.6,0.2,3.6-2c0-2.3-1.6-5.1-3.6-6.2
					C266.2,220.2,264.6,221.1,264.6,223.4z"/>
				<path id="XMLID_8955_" class="st38" d="M263.4,224.1c0,2.3,1.6,5.1,3.6,6.2c2,1.2,3.6,0.2,3.6-2c0-2.3-1.6-5.1-3.6-6.2
					C265,220.9,263.4,221.8,263.4,224.1z"/>
			</g>
			<polygon id="XMLID_8954_" class="st39" points="262.4,222.6 282.7,234.3 282.7,238.8 262.4,227.1 			"/>
			<polygon id="XMLID_8713_" class="st40" points="303,222.6 282.7,234.3 282.7,238.8 303,227.1 			"/>
			<polygon id="XMLID_8279_" class="st41" points="284.2,256.1 284.7,257.6 286.5,253 286.3,252.9 285.2,253.6 			"/>
			<polygon id="XMLID_8278_" class="st41" points="285.4,259.3 286.3,259.8 288.2,254.9 287.6,253.7 287.4,254.2 			"/>
			<polygon id="XMLID_8277_" class="st41" points="287.4,260.5 288.3,261 289.7,257.6 289,256.4 			"/>
		</g>
		<g id="XMLID_9034_">
			<polygon id="XMLID_8276_" class="st38" points="165.7,163.1 192.4,178.5 200.2,193.8 192.4,214.8 165.7,199.3 			"/>
			<polygon id="XMLID_8275_" class="st42" points="200.2,193.8 192.8,198.2 184.7,193.8 192.4,178.5 			"/>
			<path id="XMLID_8274_" class="st43" d="M192.4,178.5l0.8,1.7c2.5,4.9,3.7,10.2,3.8,15.6l19.6-11.4c0,1.4-0.1,2.9-0.3,4.3
				c0.9-4.9,0.1-10-2.1-14.5l-3.2-6.3L192.4,178.5z"/>
			
				<linearGradient id="XMLID_4_" gradientUnits="userSpaceOnUse" x1="30.1481" y1="205.3462" x2="36.252" y2="185.8138" gradientTransform="matrix(-1 0 0 1 242.5581 0)">
				<stop  offset="0" style="stop-color:#686FC6"/>
				<stop  offset="0.9409" style="stop-color:#465E7B"/>
			</linearGradient>
			<path id="XMLID_8273_" class="st44" d="M215.3,183.6c-0.1-3.1-0.9-6.1-2.3-8.9l-2.6-5.1l-16.3,9.4l0.3,0.6
				c2.2,4.3,3.5,9.1,3.8,13.9L215.3,183.6z"/>
			<path id="XMLID_1920_" class="st43" d="M192.4,214.8l9.7-5.6l8.9-5.1l4.2-11.5c0.5-1.3,0.8-2.6,1.1-4c0.2-1.4,0.4-2.8,0.3-4.3
				L197,195.8c0,1.3-0.1,2.6-0.2,3.9c0,0.4-0.1,0.7-0.1,1c-0.1,0.5-0.1,1-0.2,1.5c-0.4,2-0.9,4-1.6,6L192.4,214.8z"/>
			<polygon id="XMLID_1919_" class="st39" points="165.7,163.1 192.4,178.5 211,167.8 184.2,152.4 			"/>
			<path id="XMLID_1918_" class="st38" d="M161.5,180.4c-0.1,4.8,0.8,9.5,2.4,14.1l1.8,4.9l8.9,5.1l17.8,10.3l-1.8-4.8
				c-1.7-4.6-2.5-9.5-2.4-14.3L161.5,180.4z"/>
			
				<linearGradient id="XMLID_5_" gradientUnits="userSpaceOnUse" x1="68.2762" y1="201.8897" x2="63.6353" y2="191.7936" gradientTransform="matrix(-1 0 0 1 242.5581 0)">
				<stop  offset="8.374380e-02" style="stop-color:#4E6190"/>
				<stop  offset="0.9409" style="stop-color:#4E5B7B"/>
			</linearGradient>
			<path id="XMLID_1917_" class="st45" d="M162.9,182.6c0.2,3.9,1,7.7,2.3,11.4l1.6,4.4l8.5,4.9l14.7,8.5l-0.5-1.4
				c-1.7-4.5-2.5-9.2-2.5-14l-8.2-4.7l-15.6-8.9L162.9,182.6z"/>
			<path id="XMLID_1916_" class="st46" d="M161.5,180.4l26.7,15.3c0.1-3.8,0.7-7.5,1.8-11.1c0.2-0.7,0.4-1.4,0.7-2.1
				c0.2-0.5,0.4-1,0.6-1.4c0.1-0.2,0.2-0.4,0.2-0.6c0.3-0.7,0.6-1.3,0.9-2l-26.7-15.4c-1,2-1.9,4.1-2.5,6.3
				c-0.1,0.4-0.2,0.7-0.3,1.1c-0.3,1.1-0.5,2.2-0.7,3.3c0,0.2-0.1,0.4-0.1,0.6c-0.1,0.3-0.1,0.5-0.1,0.8c-0.1,0.6-0.2,1.3-0.2,1.9
				c0,0.4-0.1,0.7-0.1,1C161.6,178.9,161.5,179.6,161.5,180.4z"/>
			<path id="XMLID_1915_" class="st42" d="M161.5,180.4l26.7,15.3l0,0c0-0.6,0-1.2,0.1-1.8c0-0.2,0-0.4,0-0.6c0-0.5,0.1-1,0.2-1.5
				c0-0.2,0.1-0.5,0.1-0.7c0.1-0.5,0.1-1,0.2-1.5c0.1-0.5,0.2-1,0.3-1.5c0.1-0.2,0.1-0.5,0.2-0.7c0-0.1,0.1-0.2,0.1-0.4
				c0.2-0.8,0.4-1.6,0.6-2.3c0.2-0.5,0.3-0.9,0.5-1.4c0.1-0.2,0.1-0.4,0.2-0.7c0.2-0.5,0.4-1,0.6-1.4c0.1-0.2,0.2-0.4,0.2-0.6
				c0.3-0.7,0.6-1.3,0.9-2l-26.7-15.4c-1,2-1.9,4.1-2.5,6.3c-0.1,0.4-0.2,0.7-0.3,1.1c-0.3,1.1-0.5,2.2-0.7,3.3
				c0,0.2-0.1,0.4-0.1,0.6c-0.1,0.3-0.1,0.5-0.1,0.8c-0.1,0.6-0.2,1.3-0.2,1.9c0,0.4-0.1,0.7-0.1,1
				C161.6,178.9,161.5,179.6,161.5,180.4z"/>
			
				<linearGradient id="XMLID_6_" gradientUnits="userSpaceOnUse" x1="68.6414" y1="185.782" x2="63.0268" y2="172.2744" gradientTransform="matrix(-1 0 0 1 242.5581 0)">
				<stop  offset="8.374380e-02" style="stop-color:#4E6190"/>
				<stop  offset="0.9409" style="stop-color:#4E5B7B"/>
			</linearGradient>
			<path id="XMLID_1914_" class="st47" d="M162.9,179.6l1.6,0.9l16.9,9.7l5.7,3.3l0-0.2c0.1-0.7,0.1-1.4,0.2-2l0.1-0.3
				c0.1-0.7,0.2-1.3,0.3-1.8l0.1-0.5c0.1-0.5,0.2-1.1,0.4-1.6l0.1-0.6c0-0.1,0-0.1,0.1-0.2c0,0,0-0.1,0-0.1c0.1-0.4,0.2-0.8,0.3-1.2
				l0.2-0.7c0.2-0.5,0.3-1,0.5-1.4l0.2-0.7c0.2-0.5,0.4-1,0.6-1.5l0.2-0.6c0.1-0.3,0.3-0.6,0.4-0.9l-5.3-3l-6.7-3.9l-2.6-1.5l-9-5.2
				l-0.9-0.5c-1.4,3-2.4,6.2-2.9,9.5c-0.2,1.3-0.4,2.6-0.5,3.9C162.9,178.7,162.9,179.2,162.9,179.6z"/>
		</g>
		<path id="XMLID_1913_" class="st48" d="M192.4,214.8l18.5-10.7l4.2-11.5c0.5-1.3,0.8-2.6,1.1-4c0.2-1.4,0.4-2.8,0.3-4.3L197,195.8
			c0,1.3-0.1,2.6-0.2,3.9c0,0.4-0.1,0.7-0.1,1c-0.1,0.5-0.1,1-0.2,1.5c-0.4,2-0.9,4-1.6,6L192.4,214.8z"/>
		
			<linearGradient id="XMLID_7_" gradientUnits="userSpaceOnUse" x1="35.1023" y1="206.8943" x2="41.2061" y2="187.362" gradientTransform="matrix(-1 0 0 1 242.5581 0)">
			<stop  offset="0" style="stop-color:#686FC6"/>
			<stop  offset="0.9409" style="stop-color:#465E7B"/>
		</linearGradient>
		<path id="XMLID_1912_" class="st49" d="M209.9,203.2l4.1-11.1c0.6-1.7,1-3.6,1.2-5.4l-16.9,9.8c-0.1,4.2-0.8,8.2-2.3,12.1
			l-1.2,3.2L209.9,203.2z"/>
		
			<linearGradient id="XMLID_8_" gradientUnits="userSpaceOnUse" x1="60.2519" y1="198.9577" x2="76.3661" y2="168.0857" gradientTransform="matrix(-1 0 0 1 242.5581 0)">
			<stop  offset="0.133" style="stop-color:#686FC6"/>
			<stop  offset="0.9409" style="stop-color:#4E5B7B"/>
		</linearGradient>
		<path id="XMLID_1911_" class="st50" d="M162.8,178.3L162.8,178.3l13.4-7.7l-9-5.2l-2,4c-0.8,1.6-1.4,3.2-1.8,4.9
			C163.1,175.7,162.9,177,162.8,178.3z"/>
		
			<linearGradient id="XMLID_9_" gradientUnits="userSpaceOnUse" x1="57.5516" y1="197.5485" x2="73.6658" y2="166.6763" gradientTransform="matrix(-1 0 0 1 242.5581 0)">
			<stop  offset="0" style="stop-color:#686FC6"/>
			<stop  offset="0.9409" style="stop-color:#4E5B7B"/>
		</linearGradient>
		<path id="XMLID_1910_" class="st51" d="M164.4,180.5l16.9,9.7l6.9-4l0.1,0l0-0.1l-1.1-3.1c-0.7-1.9-1.3-4.4-1.6-6.9l-6.7-3.9
			L164.4,180.5z"/>
		
			<linearGradient id="XMLID_10_" gradientUnits="userSpaceOnUse" x1="65.4739" y1="201.6836" x2="81.5881" y2="170.8116" gradientTransform="matrix(-1 0 0 1 242.5581 0)">
			<stop  offset="0" style="stop-color:#686FC6"/>
			<stop  offset="0.9409" style="stop-color:#4E5B7B"/>
		</linearGradient>
		<path id="XMLID_1909_" class="st52" d="M163.1,182.8c0.2,1.4,0.6,2.7,1,4l4.1,11.1l10.5-6.2L163.1,182.8z"/>
		<polygon id="XMLID_1908_" class="st53" points="305,226.4 290.8,234.6 118.6,135.2 132.8,127 305,225 		"/>
		<polygon id="XMLID_1907_" class="st54" points="305,225 290.8,233.2 118.6,133.8 132.8,125.6 		"/>
		<g id="XMLID_9035_">
			<g id="XMLID_9036_">
				<polygon id="XMLID_1906_" class="st14" points="130,123.9 132.8,122.3 305,221.7 302.1,223.4 149.4,138.5 				"/>
				<polygon id="XMLID_1905_" class="st16" points="130,123.9 130,127.2 302.1,226.6 302.1,223.4 				"/>
				<polygon id="XMLID_1904_" class="st18" points="305,221.7 305,225 302.1,226.6 302.1,223.4 				"/>
			</g>
			<g id="XMLID_9037_">
				<polygon id="XMLID_1903_" class="st13" points="302.2,223 303.6,222.1 293.1,198.8 292,199.4 300.7,222.1 				"/>
				<polygon id="XMLID_1902_" class="st55" points="279.3,209.8 280.8,208.9 280.8,193.3 277.8,193.3 277.8,208.9 				"/>
				<polygon id="XMLID_1901_" class="st16" points="279.3,209.8 277.8,208.9 277.8,193.3 279.3,193.3 				"/>
				<path id="XMLID_1900_" class="st17" d="M279.4,194.1l1.3-0.7l11.3,14l0,0l7.1,9l2.1,4.8l-12-14.7c0.1,0,0.1,0,0.2,0L279.4,194.1
					z"/>
				<polygon id="XMLID_1899_" class="st16" points="300.8,222.2 300.8,220 280.5,194.5 279.2,195.3 				"/>
				<polygon id="XMLID_1898_" class="st55" points="256.4,196.5 257.9,195.7 257.9,180.1 254.9,180.1 254.9,195.7 				"/>
				<polygon id="XMLID_1897_" class="st17" points="278.4,195.1 279.1,194.5 257.9,194.5 256.4,195.1 277.5,196.6 				"/>
				<polygon id="XMLID_1896_" class="st16" points="278.4,195.1 279,196.5 256.4,196.5 256.4,195.1 				"/>
				<path id="XMLID_1895_" class="st17" d="M233.6,167.6l1.3-0.7l11.3,14l0,0l10.3,13.1l-1.1,0.7l-12-14.8c0.1,0,0.1,0,0.2,0
					L233.6,167.6z"/>
				<polygon id="XMLID_1894_" class="st55" points="233.4,183.3 234.9,182.4 234.9,166.8 232,166.8 232,182.4 				"/>
				<polygon id="XMLID_1893_" class="st16" points="254.9,195.7 254.9,193.6 234.6,168 233.3,168.8 				"/>
				<polygon id="XMLID_1892_" class="st16" points="256.4,196.5 254.9,195.7 254.9,180.1 256.4,180.1 				"/>
				<polygon id="XMLID_1891_" class="st55" points="210.5,170.1 212,169.2 212,153.6 209,153.6 209,169.2 				"/>
				<path id="XMLID_1890_" class="st17" d="M187.7,141.2l1.3-0.7l11.3,14l0,0l10.3,13.1l-1.1,0.7l-12-14.8c0.1,0,0.1,0,0.2,0
					L187.7,141.2z"/>
				<polygon id="XMLID_1889_" class="st55" points="187.6,156.8 189.1,156 189.1,140.4 186.1,140.4 186.1,156 				"/>
				<polygon id="XMLID_1888_" class="st55" points="164.6,142.5 166.1,141.6 166.1,129.2 163.2,130.3 163.2,141.6 				"/>
				<path id="XMLID_1887_" class="st17" d="M156.4,132.8c0.5,0,1-0.1,1.5-0.4l6.8,8.7l-1.1,0.7l-7.2-8.9
					C156.4,132.9,156.4,132.8,156.4,132.8z"/>
				<path id="XMLID_1886_" class="st16" d="M156.4,132.8c0.2,0,0.3,0,0.5,0l6.2,7.8l0,2.1l-7.4-9.2
					C156.1,133.4,156.3,133.1,156.4,132.8z"/>
				<polygon id="XMLID_1885_" class="st16" points="164.6,143.6 163.2,142.7 163.2,130.3 164.7,130.3 				"/>
				<polygon id="XMLID_1884_" class="st16" points="151.8,136.2 150,135.1 167.6,127.5 167.6,130.8 				"/>
				<polygon id="XMLID_1883_" class="st17" points="186.6,142.1 187.3,141.6 166.2,141.5 164.6,142.1 185.9,143.4 				"/>
				<polygon id="XMLID_1882_" class="st16" points="186.6,142.1 187.3,143.6 164.6,143.6 164.6,142.1 				"/>
				<polygon id="XMLID_1881_" class="st16" points="187.6,156.8 186.1,156 186.1,140.4 187.6,140.4 				"/>
				<polygon id="XMLID_1880_" class="st16" points="209,169.2 209,167.1 188.7,141.6 187.4,142.3 				"/>
				<polygon id="XMLID_1879_" class="st16" points="210.5,170.1 209,169.2 209,153.6 210.5,153.6 				"/>
				<polygon id="XMLID_1878_" class="st17" points="232.5,168.6 233.2,168 212.1,168 210.5,168.6 231.7,169.9 				"/>
				<polygon id="XMLID_1877_" class="st16" points="233.4,183.3 232,182.4 232,166.8 233.5,166.8 				"/>
				<polygon id="XMLID_1876_" class="st16" points="232.5,168.6 233.1,170.1 210.5,170.1 210.5,168.6 				"/>
				<polygon id="XMLID_1875_" class="st16" points="302.2,223 300.7,222.1 292,202.7 292,199.4 				"/>
				<polygon id="XMLID_1874_" class="st56" points="167.6,127.5 168.7,126.8 293.1,198.8 292,199.4 167.6,130.8 				"/>
				<polygon id="XMLID_1873_" class="st16" points="167.6,127.5 167.6,130.8 292,202.7 292,199.4 				"/>
				<polygon id="XMLID_1872_" class="st17" points="168.7,126.8 167.6,127.5 150,135.1 151.8,134.1 				"/>
			</g>
		</g>
		<g id="XMLID_9038_">
			<polygon id="XMLID_1871_" class="st14" points="192.6,143.7 195.3,142.2 195.3,102.3 192.6,103.8 190,142.2 			"/>
			<polygon id="XMLID_1870_" class="st16" points="192.6,143.7 190,142.2 190,102.3 192.6,103.8 			"/>
			<polygon id="XMLID_1869_" class="st18" points="195.3,102.3 192.6,100.8 190,102.3 192.6,103.8 			"/>
		</g>
		<g id="XMLID_9039_">
			<polygon id="XMLID_1868_" class="st36" points="280.2,216.8 282.2,215.6 194.1,102.4 192.1,103.7 			"/>
		</g>
		<g id="XMLID_9040_">
			<g id="XMLID_15221_">
				<polygon id="XMLID_1867_" class="st18" points="281.4,208.3 292,202.1 292,200.1 281.4,206.3 				"/>
				<polygon id="XMLID_1866_" class="st56" points="281.4,206.3 292,200.1 290.5,199.2 279.9,205.5 				"/>
			</g>
			<g id="XMLID_9041_">
				<polygon id="XMLID_1865_" class="st18" points="269.1,201.2 279.7,194.9 279.7,193 269.1,199.2 				"/>
				<polygon id="XMLID_1863_" class="st56" points="269.1,199.2 279.7,193 278.2,192.1 267.7,198.3 				"/>
			</g>
			<g id="XMLID_9042_">
				<polygon id="XMLID_1862_" class="st18" points="256.8,194 267.4,187.8 267.4,185.8 256.8,192.1 				"/>
				<polygon id="XMLID_1861_" class="st56" points="256.8,192.1 267.4,185.8 265.9,185 255.4,191.2 				"/>
			</g>
			<g id="XMLID_9043_">
				<polygon id="XMLID_1860_" class="st18" points="244.5,186.9 255.1,180.7 255.1,178.7 244.5,184.9 				"/>
				<polygon id="XMLID_1859_" class="st56" points="244.5,184.9 255.1,178.7 253.6,177.9 243.1,184.1 				"/>
			</g>
			<g id="XMLID_9044_">
				<polygon id="XMLID_1858_" class="st18" points="232.2,179.8 242.8,173.6 242.8,171.6 232.2,177.8 				"/>
				<polygon id="XMLID_1857_" class="st56" points="232.2,177.8 242.8,171.6 241.3,170.7 230.8,177 				"/>
			</g>
			<g id="XMLID_9045_">
				<polygon id="XMLID_1856_" class="st18" points="219.9,172.7 230.5,166.5 230.5,164.5 219.9,170.7 				"/>
				<polygon id="XMLID_1855_" class="st56" points="219.9,170.7 230.5,164.5 229.1,163.6 218.5,169.9 				"/>
			</g>
			<g id="XMLID_9046_">
				<polygon id="XMLID_1854_" class="st18" points="207.7,165.6 218.2,159.3 218.2,157.4 207.7,163.6 				"/>
				<polygon id="XMLID_1853_" class="st56" points="207.7,163.6 218.2,157.4 216.8,156.5 206.2,162.7 				"/>
			</g>
			<g id="XMLID_9047_">
				<polygon id="XMLID_1852_" class="st18" points="195.4,158.4 205.9,152.2 205.9,150.2 195.4,156.5 				"/>
				<polygon id="XMLID_1851_" class="st56" points="195.4,156.5 205.9,150.2 204.5,149.4 193.9,155.6 				"/>
			</g>
			<g id="XMLID_9048_">
				<polygon id="XMLID_1850_" class="st18" points="183.1,151.3 193.6,145.1 193.6,143.1 183.1,149.3 				"/>
				<polygon id="XMLID_1849_" class="st56" points="183.1,149.3 193.6,143.1 192.2,142.3 181.6,148.5 				"/>
			</g>
			<g id="XMLID_9049_">
				<polygon id="XMLID_1848_" class="st18" points="170.8,144.2 181.4,138 181.4,136 170.8,142.2 				"/>
				<polygon id="XMLID_1847_" class="st56" points="170.8,142.2 181.4,136 179.9,135.1 169.3,141.4 				"/>
			</g>
			<g id="XMLID_15191_">
				<polygon id="XMLID_1846_" class="st18" points="158.5,137.1 169.1,130.9 169.1,128.9 158.5,135.1 				"/>
				<polygon id="XMLID_1845_" class="st56" points="158.5,135.1 169.1,128.9 167.6,128 157,134.3 				"/>
			</g>
		</g>
		<g id="XMLID_9050_">
			<polygon id="XMLID_1844_" class="st36" points="278.2,221.5 280.1,220.2 186.4,107.4 184.5,108.7 			"/>
		</g>
		<g id="XMLID_9051_">
			<polygon id="XMLID_1843_" class="st14" points="118.6,130.5 121.5,128.8 293.7,228.2 290.8,229.9 118.6,133.8 			"/>
			<polygon id="XMLID_1842_" class="st16" points="118.6,130.5 118.6,133.8 290.8,233.2 290.8,229.9 			"/>
			<polygon id="XMLID_1841_" class="st18" points="293.7,228.2 293.7,231.5 290.8,233.2 290.8,229.9 			"/>
		</g>
		<g id="XMLID_9052_">
			<polygon id="XMLID_1840_" class="st13" points="290.8,229.5 292.3,228.7 281.8,205.3 280.6,205.9 289.3,228.7 			"/>
			<polygon id="XMLID_1839_" class="st55" points="268,216.3 269.5,215.5 269.5,199.9 266.5,199.9 266.5,215.5 			"/>
			<polygon id="XMLID_1838_" class="st16" points="268,216.3 266.5,215.5 266.5,199.9 268,199.9 			"/>
			<path id="XMLID_1837_" class="st17" d="M268.1,200.7l1.3-0.7l11.3,14l0,0l7.1,9l2.1,4.8l-12-14.8c0.1,0,0.1,0,0.2,0L268.1,200.7z
				"/>
			<polygon id="XMLID_1836_" class="st16" points="289.4,228.7 289.4,226.6 269.1,201.1 267.8,201.8 			"/>
			<polygon id="XMLID_1835_" class="st55" points="245.1,203.1 246.5,202.2 246.5,186.6 243.6,186.6 243.6,202.2 			"/>
			<polygon id="XMLID_1834_" class="st17" points="267,201.6 267.7,201.1 246.6,201 245.1,201.6 266.2,203.1 			"/>
			<polygon id="XMLID_1833_" class="st16" points="267,201.7 267.7,203.1 245.1,203.1 245.1,201.6 			"/>
			<path id="XMLID_1832_" class="st17" d="M222.2,174.2l1.3-0.7l11.3,14l0,0l10.3,13.1l-1.1,0.7l-12-14.8c0.1,0,0.1,0,0.2,0
				L222.2,174.2z"/>
			<polygon id="XMLID_1831_" class="st55" points="222.1,189.8 223.6,189 223.6,173.4 220.6,173.4 220.6,189 			"/>
			<polygon id="XMLID_1830_" class="st16" points="243.6,202.2 243.6,200.1 223.3,174.6 222,175.3 			"/>
			<polygon id="XMLID_1829_" class="st16" points="245.1,203.1 243.6,202.2 243.6,186.6 245.1,186.6 			"/>
			<polygon id="XMLID_1828_" class="st55" points="199.2,176.6 200.7,175.7 200.7,160.1 197.7,160.1 197.7,175.7 			"/>
			<path id="XMLID_1827_" class="st17" d="M176.4,147.7l1.3-0.7l11.3,14l0,0l10.3,13.1l-1.1,0.7l-12-14.8c0.1,0,0.1,0,0.2,0
				L176.4,147.7z"/>
			<polygon id="XMLID_1826_" class="st55" points="176.2,163.4 177.7,162.5 177.7,146.9 174.8,146.9 174.8,162.5 			"/>
			<polygon id="XMLID_1825_" class="st55" points="153.3,149 154.8,148.2 154.8,135.7 151.8,136.8 151.8,148.2 			"/>
			<path id="XMLID_1824_" class="st17" d="M145.1,139.3c0.5,0,1-0.1,1.5-0.4l6.8,8.7l-1.1,0.7l-7.2-8.9
				C145.1,139.4,145.1,139.4,145.1,139.3z"/>
			<path id="XMLID_1823_" class="st16" d="M145.1,139.3c0.2,0,0.3,0,0.5,0l6.2,7.8l0,2.1l-7.4-9.2
				C144.8,139.9,145,139.6,145.1,139.3z"/>
			<polygon id="XMLID_1822_" class="st16" points="153.3,150.1 151.8,149.3 151.8,136.8 153.3,136.8 			"/>
			<polygon id="XMLID_1821_" class="st16" points="140.5,142.7 138.7,141.7 156.3,134 156.3,137.4 			"/>
			<polygon id="XMLID_1820_" class="st17" points="175.3,148.7 176,148.1 154.9,148.1 153.3,148.6 174.5,150 			"/>
			<polygon id="XMLID_1819_" class="st16" points="175.3,148.7 175.9,150.1 153.3,150.1 153.3,148.6 			"/>
			<polygon id="XMLID_1818_" class="st16" points="176.2,163.4 174.8,162.5 174.8,146.9 176.3,146.9 			"/>
			<polygon id="XMLID_1817_" class="st16" points="197.7,175.7 197.7,173.6 177.4,148.1 176.1,148.8 			"/>
			<polygon id="XMLID_1816_" class="st16" points="199.2,176.6 197.7,175.7 197.7,160.1 199.2,160.1 			"/>
			<polygon id="XMLID_1815_" class="st17" points="221.2,175.2 221.9,174.6 200.7,174.5 199.2,175.1 220.4,176.5 			"/>
			<polygon id="XMLID_1814_" class="st16" points="222.1,189.8 220.6,189 220.6,173.4 222.1,173.4 			"/>
			<polygon id="XMLID_1813_" class="st16" points="221.2,175.2 221.8,176.6 199.2,176.6 199.2,175.1 			"/>
			<polygon id="XMLID_1812_" class="st16" points="290.8,229.5 289.3,228.7 280.7,209.3 280.6,205.9 			"/>
			<polygon id="XMLID_1811_" class="st56" points="156.3,134 157.4,133.4 281.8,205.3 280.6,205.9 156.3,137.4 			"/>
			<polygon id="XMLID_1809_" class="st16" points="156.3,134 156.3,137.4 280.7,209.3 280.6,205.9 			"/>
			<polygon id="XMLID_1808_" class="st17" points="157.4,133.4 156.3,134 138.7,141.7 140.5,140.6 			"/>
		</g>
		<g id="XMLID_9053_">
			<polygon id="XMLID_1807_" class="st43" points="129.8,137.3 129.8,139.8 133.9,137.4 148.2,129.2 148.2,126.7 133.9,134.9 			"/>
			<polygon id="XMLID_1806_" class="st57" points="118.4,130.7 129.8,137.3 148.2,126.7 136.7,120.1 			"/>
			<polygon id="XMLID_1805_" class="st58" points="118.4,130.7 129.8,137.3 129.8,139.8 118.4,133.2 			"/>
		</g>
		<g id="XMLID_9054_">
			<polygon id="XMLID_1804_" class="st43" points="129.8,133.7 129.8,136.2 133.9,133.9 148.2,125.6 148.2,123.1 133.9,131.3 			"/>
			<polygon id="XMLID_1803_" class="st57" points="118.4,127.1 129.8,133.7 148.2,123.1 136.7,116.5 			"/>
			<polygon id="XMLID_1802_" class="st58" points="118.4,127.1 129.8,133.7 129.8,136.2 118.4,129.6 			"/>
		</g>
		<g id="XMLID_9055_">
			<polygon id="XMLID_1801_" class="st43" points="129.8,130.2 129.8,132.7 133.9,130.3 148.2,122.1 148.2,119.6 133.9,127.8 			"/>
			<polygon id="XMLID_1800_" class="st57" points="118.4,123.6 129.8,130.2 148.2,119.6 136.7,113 			"/>
			<polygon id="XMLID_1799_" class="st58" points="118.4,123.6 129.8,130.2 129.8,132.7 118.4,126.1 			"/>
		</g>
		<g id="XMLID_9056_">
			<polygon id="XMLID_1798_" class="st36" points="133.2,139.4 184.9,106 183.1,104.5 131.4,137.9 			"/>
		</g>
		<g id="XMLID_9057_">
			<polygon id="XMLID_1797_" class="st36" points="147.4,130.9 192.5,101.7 190.7,100.3 145.6,129.5 			"/>
		</g>
		<g id="XMLID_9058_">
			<path id="XMLID_1796_" class="st37" d="M185.7,111.8l-4-7l8.1-4.5c0.1-0.1,0.2-0.2,0.4-0.2l0.1,0l0,0c0.5-0.1,1.1-0.1,1.8,0.3
				c1.6,0.9,2.9,3.1,2.9,5c0,0.9-0.4,1.4-0.9,1.7l0,0l0,0c0,0,0,0,0,0L185.7,111.8z"/>
			<path id="XMLID_1795_" class="st2" d="M192.9,107.7C192.9,107.6,192.9,107.6,192.9,107.7L192.9,107.7L192.9,107.7
				c0.6-0.3,1-0.9,1-1.8c0-1.8-1.3-4-2.9-5c-0.7-0.4-1.3-0.5-1.8-0.3l0,0l-0.1,0c-0.1,0-0.3,0.1-0.4,0.2l-7.1,4l0,0l8.1-4.5
				c0.1-0.1,0.2-0.2,0.4-0.2l0.1,0l0,0c0.5-0.1,1.1-0.1,1.8,0.3c1.6,0.9,2.9,3.1,2.9,5c0,0.9-0.4,1.4-0.9,1.7l0,0l0,0c0,0,0,0,0,0
				l-8.2,4.7l0,0L192.9,107.7z"/>
			<path id="XMLID_1794_" class="st2" d="M181.8,106c0,1.8,1.3,4,2.9,5c1.6,0.9,2.9,0.2,2.9-1.6c0-1.8-1.3-4-2.9-5
				C183.1,103.5,181.8,104.2,181.8,106z"/>
			<path id="XMLID_1793_" class="st38" d="M180.9,106.5c0,1.8,1.3,4,2.9,5c1.6,0.9,2.9,0.2,2.9-1.6c0-1.8-1.3-4-2.9-5
				C182.2,104,180.9,104.7,180.9,106.5z"/>
		</g>
		<g id="XMLID_9059_">
			<polygon id="XMLID_1792_" class="st43" points="129.8,126.6 129.8,129.2 133.9,126.8 148.2,118.6 148.2,116 133.9,124.3 			"/>
			<polygon id="XMLID_1791_" class="st57" points="118.4,120.1 129.8,126.6 148.2,116 136.7,109.5 			"/>
			<polygon id="XMLID_1790_" class="st58" points="118.4,120.1 129.8,126.6 129.8,129.2 118.4,122.6 			"/>
		</g>
		<g id="XMLID_9060_">
			<polygon id="XMLID_1789_" class="st43" points="129.8,123.1 129.8,125.7 133.9,123.3 148.2,115.1 148.2,112.5 133.9,120.7 			"/>
			<polygon id="XMLID_1788_" class="st57" points="118.4,116.5 129.8,123.1 148.2,112.5 136.7,106 			"/>
			<polygon id="XMLID_1787_" class="st58" points="118.4,116.5 129.8,123.1 129.8,125.7 118.4,119.1 			"/>
		</g>
		<g id="XMLID_9061_">
			<polygon id="XMLID_1786_" class="st14" points="182.8,149.5 185.5,148 185.5,108.1 182.8,109.6 180.2,148 			"/>
			<polygon id="XMLID_1785_" class="st16" points="182.8,149.5 180.2,148 180.2,108.1 182.8,109.6 			"/>
			<polygon id="XMLID_1784_" class="st18" points="185.5,108.1 182.8,106.5 180.2,108.1 182.8,109.6 			"/>
		</g>
		<polygon id="XMLID_1783_" class="st59" points="211.6,198.4 196.6,207.1 194.9,211.9 210,203.3 		"/>
		<polygon id="XMLID_1782_" class="st34" points="165.8,196.2 166.6,198.4 167.4,198.9 169.7,200.2 169.8,200.3 171.6,201.3 
			171.8,201.4 174.2,202.8 176.1,203.9 178.5,205.4 180.5,206.5 182.9,207.9 184.8,209 187.2,210.4 188.9,211.4 190.1,212.1 
			189.4,209.9 188.1,209.2 186.4,208.2 184,206.8 182,205.7 179.6,204.3 177.7,203.1 175.3,201.7 173.3,200.6 170.9,199.2 
			170.8,199.1 169,198.1 168.8,198 166.5,196.7 		"/>
		<g id="XMLID_9062_">
			<polygon id="XMLID_1781_" class="st41" points="198.4,206 196.5,211 194.9,211.9 196.6,207.1 			"/>
			<polygon id="XMLID_1780_" class="st41" points="209.5,203.5 207.5,204.7 208.6,202.1 209.5,199.6 211.4,198.5 			"/>
			<polygon id="XMLID_1779_" class="st41" points="200.8,204.6 202.8,203.5 200.8,208.5 198.9,209.7 			"/>
			<polygon id="XMLID_1778_" class="st41" points="204.8,203.1 205.2,202.1 207.1,201 205.2,206 203.2,207.2 			"/>
		</g>
		<g id="XMLID_9063_">
			<polygon id="XMLID_1777_" class="st41" points="186.4,208.2 187.2,210.4 188.9,211.4 188.1,209.2 			"/>
			<polygon id="XMLID_1776_" class="st41" points="173.3,200.6 174.2,202.8 176.1,203.9 175.7,202.9 175.3,201.7 			"/>
			<polygon id="XMLID_1775_" class="st41" points="182,205.7 182.9,207.9 184.8,209 184,206.8 			"/>
			<polygon id="XMLID_1774_" class="st41" points="177.7,203.1 178.5,205.4 180.5,206.5 179.6,204.3 			"/>
			<polygon id="XMLID_1773_" class="st41" points="168.8,198 169.7,200.2 169.8,200.3 171.6,201.3 171,199.7 170.8,199.1 169,198.1 
							"/>
			<polygon id="XMLID_1772_" class="st41" points="165.8,196.2 166.6,198.4 167.4,198.9 167,197.9 166.5,196.7 			"/>
		</g>
		<polygon id="XMLID_1771_" class="st60" points="219.5,382.9 221,382 207.2,363.6 206.1,364.3 218,382 		"/>
		<polygon id="XMLID_1770_" class="st61" points="219.5,382.9 217.3,381.6 206.1,367.6 206.1,364.3 		"/>
		<g id="XMLID_9064_">
			<g id="XMLID_9065_">
				<polygon id="XMLID_1769_" class="st62" points="207.9,367.1 207.2,366.7 207.2,366.1 206.6,366.4 205.5,365.7 201.7,367.3 
					201.7,368.2 203.3,369.2 203.3,371.2 204.1,371.6 207.2,369 207.2,367.5 				"/>
				<polygon id="XMLID_1768_" class="st63" points="201.7,367.3 204.1,368.7 207.9,366.5 205.5,365.1 				"/>
				<polygon id="XMLID_1767_" class="st64" points="207.9,369.4 207.9,366.5 204.1,368.7 204.1,371.6 				"/>
			</g>
			<g id="XMLID_9066_">
				<polygon id="XMLID_1766_" class="st62" points="210.3,370.5 209.6,370.1 209.6,369.4 209,369.8 207.9,369.1 204.1,370.7 
					204.1,371.6 205.7,372.6 205.7,374.6 206.5,375 209.6,372.4 209.6,370.9 				"/>
				<polygon id="XMLID_1765_" class="st63" points="204.1,370.7 206.5,372.1 210.3,369.9 207.9,368.5 				"/>
				<polygon id="XMLID_1764_" class="st64" points="210.3,372.8 210.3,369.9 206.5,372.1 206.5,375 				"/>
			</g>
			<g id="XMLID_9067_">
				<polygon id="XMLID_1763_" class="st62" points="212.7,373.9 212,373.5 212,372.8 211.4,373.2 210.3,372.5 206.5,374.1 
					206.5,375 208.1,376 208.2,378 208.9,378.4 212,375.8 212,374.3 				"/>
				<polygon id="XMLID_1762_" class="st63" points="206.5,374.1 208.9,375.5 212.7,373.3 210.3,371.9 				"/>
				<polygon id="XMLID_1761_" class="st64" points="212.7,376.2 212.7,373.3 208.9,375.5 208.9,378.4 				"/>
			</g>
			<g id="XMLID_9068_">
				<polygon id="XMLID_1760_" class="st62" points="215.1,377.3 214.4,376.9 214.4,376.2 213.8,376.5 212.7,375.9 208.9,377.5 
					208.9,378.4 210.5,379.4 210.6,381.4 211.3,381.8 214.4,379.2 214.4,377.7 				"/>
				<polygon id="XMLID_1759_" class="st63" points="208.9,377.5 211.3,378.8 215.1,376.6 212.7,375.3 				"/>
				<polygon id="XMLID_1758_" class="st64" points="215.1,379.6 215.1,376.6 211.3,378.8 211.3,381.8 				"/>
			</g>
			<g id="XMLID_9069_">
				<polygon id="XMLID_1757_" class="st62" points="217.5,380.7 216.8,380.3 216.8,379.6 216.2,379.9 215.1,379.3 211.3,380.9 
					211.3,381.8 213,382.8 213,384.8 213.7,385.2 216.8,382.6 216.8,381.1 				"/>
				<polygon id="XMLID_1756_" class="st63" points="211.3,380.9 213.7,382.2 217.5,380 215.1,378.6 				"/>
				<polygon id="XMLID_1755_" class="st64" points="217.5,383 217.5,380 213.7,382.2 213.7,385.2 				"/>
			</g>
		</g>
		<polygon id="XMLID_1754_" class="st60" points="214.1,386.3 215.6,385.5 201.9,367.1 200.8,367.8 212.6,385.5 		"/>
		<polygon id="XMLID_1753_" class="st61" points="214.1,386.3 212,385.1 200.8,371.1 200.8,367.8 		"/>
		<polygon id="XMLID_1752_" class="st65" points="179.8,370.1 188.8,370.3 188.6,393.2 179.5,393 		"/>
		
			<linearGradient id="XMLID_11_" gradientUnits="userSpaceOnUse" x1="6.3663" y1="368.8733" x2="24.1286" y2="368.8733" gradientTransform="matrix(-1 0 0 1 242.5581 0)">
			<stop  offset="0" style="stop-color:#434343"/>
			<stop  offset="0.9409" style="stop-color:#141414"/>
		</linearGradient>
		<path id="XMLID_1751_" class="st66" d="M218.4,368.9L218.4,368.9v-2.1h0.2c0.4-0.9,1.2-0.8,2.4-1.6c3.5-2,9.1-2.1,12.6-0.1
			c1.3,0.7,2.1,0.7,2.4,1.6h0.1v2.1h0c-0.1,1.3-0.9,2.5-2.6,3.5c-3.5,2-9.1,2.1-12.6,0.1C219.3,371.5,218.4,370.3,218.4,368.9
			L218.4,368.9L218.4,368.9z"/>
		<path id="XMLID_1750_" class="st2" d="M233.6,363.2c-3.4-2-9.1-2-12.6,0.1c-3.5,2-3.5,5.3-0.1,7.3c3.4,2,9.1,2,12.6-0.1
			C237,368.4,237.1,365.2,233.6,363.2z"/>
		<polygon id="XMLID_1749_" class="st65" points="212.6,353.2 211.2,349.1 228.7,363.9 231.3,367.9 		"/>
		<polygon id="XMLID_1748_" class="st2" points="208.3,352.9 207.4,348.9 211.2,349.1 212.6,353.2 		"/>
		
			<linearGradient id="XMLID_12_" gradientUnits="userSpaceOnUse" x1="11.2878" y1="360.5379" x2="34.2175" y2="360.5379" gradientTransform="matrix(-1 0 0 1 242.5581 0)">
			<stop  offset="0" style="stop-color:#434343"/>
			<stop  offset="0.9409" style="stop-color:#000000"/>
		</linearGradient>
		<polygon id="XMLID_1747_" class="st67" points="231.3,367.9 225,368.2 212.1,358.2 211.9,354.8 208.9,354.3 208.3,352.9 
			212.6,353.2 		"/>
		
			<linearGradient id="XMLID_13_" gradientUnits="userSpaceOnUse" x1="191.2771" y1="368.8733" x2="209.0395" y2="368.8733" gradientTransform="matrix(1 0 0 1 -56.6231 0)">
			<stop  offset="0" style="stop-color:#434343"/>
			<stop  offset="0.9409" style="stop-color:#141414"/>
		</linearGradient>
		<path id="XMLID_1746_" class="st68" d="M152.4,368.9L152.4,368.9v-2.1h-0.2c-0.4-0.9-1.2-0.8-2.4-1.6c-3.5-2-9.1-2.1-12.6-0.1
			c-1.3,0.7-2.1,0.7-2.4,1.6h-0.1v2.1h0c0.1,1.3,0.9,2.5,2.6,3.5c3.5,2,9.1,2.1,12.6,0.1C151.6,371.5,152.4,370.3,152.4,368.9
			L152.4,368.9L152.4,368.9z"/>
		<path id="XMLID_1745_" class="st69" d="M137.2,363.2c3.4-2,9.1-2,12.6,0.1c3.5,2,3.5,5.3,0.1,7.3c-3.4,2-9.1,2-12.6-0.1
			C133.8,368.4,133.8,365.2,137.2,363.2z"/>
		<polygon id="XMLID_1744_" class="st70" points="158.2,353.2 159.6,349.1 142.1,363.9 139.6,367.9 		"/>
		<polygon id="XMLID_1743_" class="st2" points="162.5,352.9 163.5,348.9 159.6,349.1 158.2,353.2 		"/>
		
			<linearGradient id="XMLID_14_" gradientUnits="userSpaceOnUse" x1="196.1987" y1="360.5379" x2="219.1284" y2="360.5379" gradientTransform="matrix(1 0 0 1 -56.6231 0)">
			<stop  offset="0" style="stop-color:#2F2F2F"/>
			<stop  offset="0.9409" style="stop-color:#000000"/>
		</linearGradient>
		<polygon id="XMLID_1742_" class="st71" points="139.6,367.9 145.8,368.2 158.8,358.2 158.9,354.8 162,354.3 162.5,352.9 
			158.2,353.2 		"/>
	</g>
	<path id="XMLID_15660_" class="st72" d="M287.9,266.6c-0.5,0.1-0.9,0.1-1.4,0.2c-1.4,0.3-2.8,0.7-4.2,1c-2.3,0.6-4.6,1.1-6.9,1.7
		c-3,0.7-5.9,1.5-8.9,2.2c-3.4,0.8-6.8,1.7-10.1,2.5c-3.5,0.9-7.1,1.7-10.6,2.6c-3.4,0.8-6.9,1.7-10.3,2.5c-3.1,0.8-6.2,1.5-9.3,2.3
		c-2.5,0.6-5.1,1.2-7.6,1.9c-1.7,0.4-3.4,0.8-5.1,1.2c-0.6,0.2-1.2,0.3-1.9,0.5l0.6,2.5c0.6-0.2,1.3-0.3,1.9-0.5
		c1.7-0.4,3.5-0.8,5.2-1.3c2.6-0.6,5.1-1.3,7.7-1.9c3.2-0.8,6.3-1.5,9.5-2.3c3.5-0.8,6.9-1.7,10.4-2.5c3.5-0.9,7.1-1.7,10.6-2.6
		c3.3-0.8,6.7-1.6,10-2.4c2.9-0.7,5.8-1.4,8.6-2.1c2.2-0.5,4.3-1.1,6.5-1.6c0.7-0.2,1.5-0.4,2.2-0.5c0.3-0.1,1.2-0.5,1.4-0.3
		c0.5,0.3-1.5,4.4-1.7,4.8c-1.1,2.7-2.2,5.4-3.2,8c-1.3,3.3-2.7,6.6-4,9.9c-1.4,3.4-2.7,6.8-4.1,10.2c-1.2,2.9-2.4,5.9-3.6,8.8
		c-0.8,1.9-1.6,3.9-2.4,5.8c-0.2,0.5-0.4,1-0.6,1.4l-1.4,54.6l2.5,0.1l1.3-53.9c0-0.2,0.2-0.6,0.3-0.8c0.3-0.7,0.6-1.5,0.9-2.2
		c1-2.6,2.1-5.2,3.1-7.7c1.4-3.5,2.8-7,4.2-10.5c1.5-3.8,3.1-7.6,4.6-11.4c1.4-3.4,2.8-6.8,4.1-10.2c0.6-1.4,1.1-2.7,1.7-4.1
		c0.2-0.6,0.5-1.1,0.7-1.7c0.4-1.1,0.4-2.4,0.2-3.5c0-0.2-0.1-0.4-0.2-0.5C288.5,266.5,288.2,266.5,287.9,266.6z"/>
	<path id="XMLID_9122_" class="st72" d="M376.8,254.3l-85.3,10.9l29.3-41.5l-2.1-1.5c-0.6,0.8-1.2,1.7-1.8,2.5
		c-1.5,2.2-3.1,4.4-4.6,6.6c-2.1,3-4.2,5.9-6.3,8.9c-2.2,3.1-4.4,6.3-6.6,9.4c-1.9,2.7-3.8,5.4-5.8,8.2c-0.7,1-1.4,2-2.2,3.1
		c-0.3,0.4-0.6,0.8-0.8,1.2c-0.2,0.3-0.6,0.7-0.5,1.1c0.1,0.4,0.8,0.6,1,1.1c0.1,0.3,0.2,0.6,0.3,0.9c0.2,0.8,0.4,1.5,0.7,2.3
		c0,0.1,0.1,0.2,0.2,0.3c0.2,0.2,0.9-0.1,1.1-0.1c0.3,0,0.7-0.1,1-0.1c0.8-0.1,1.6-0.2,2.5-0.3c2.6-0.3,5.3-0.7,7.9-1
		c3.3-0.4,6.6-0.8,9.9-1.3c3.7-0.5,7.4-0.9,11.1-1.4c3.9-0.5,7.7-1,11.6-1.5c3.7-0.5,7.5-1,11.2-1.4c3.4-0.4,6.7-0.9,10.1-1.3
		c2.7-0.3,5.4-0.7,8.2-1c1.8-0.2,3.6-0.5,5.5-0.7c0.7-0.1,1.3-0.2,2-0.3l1.3,52.6l2.5-0.1L376.8,254.3z"/>
	<g>
		<g>
			<path class="st23" d="M320.3,313.9l0.1,4.2l-1.7,0.9l0.1,2.9l-4.1,2.2l-0.1-2.9l-8.3,4.4l-0.1-4.2l5.4-15.3l4.5-2.6l-5.4,15.3
				l3.7-2.2l-0.1-4.2l4.1-2.2l0.1,4.2L320.3,313.9z"/>
			<path class="st23" d="M329.6,301.9c1.7-0.9,3.3-0.9,4.6-0.6c1.3,0.8,1.7,2,1.8,4.1c0.1,2.1-0.3,4.2-1.5,5.9
				c-1.2,2.1-2.8,3.4-4.5,4.3c-1.7,0.9-2.9,0.9-4.2,0.5l0.2,6.7l-4.1,2.2l-0.6-18.8l4.1-2.2l0,1.3
				C326.7,304.1,328,302.8,329.6,301.9z M327,312.9c0.4,0.4,1.3,0,2.1-0.5s1.6-1.3,2-2.2c0.4-0.8,0.8-1.7,0.8-3
				c0-0.8-0.5-1.7-0.9-2.1c-0.4-0.4-1.3,0-2.1,0.5s-1.6,1.3-2,2.2c-0.4,0.9-0.8,1.7-0.8,3C326.1,312.1,326.2,312.5,327,312.9z"/>
			<path class="st23" d="M338.7,310.9l-0.6-19.7l4.1-2.2l0.6,19.7L338.7,310.9z"/>
		</g>
		<g>
			<path class="st73" d="M322.4,312.6l0.1,4.2l-1.7,0.9l0.1,2.9l-4.1,2.2l-0.1-2.9l-8.3,4.4l-0.1-4.2l5.4-15.3l4.5-2.6l-5.4,15.3
				l3.7-2.2l-0.1-4.2l4.1-2.2l0.1,4.2L322.4,312.6z"/>
			<path class="st73" d="M331.7,300.2c1.7-0.9,3.3-0.9,4.6-0.6c1.3,0.8,1.7,2,1.8,4.1c0.1,2.1-0.3,4.2-1.5,5.9
				c-1.2,2.1-2.8,3.4-4.5,4.3c-1.7,0.9-2.9,0.9-4.2,0.5l0.2,6.7l-4.1,2.2l-0.6-18.8l4.1-2.2l0,1.3
				C328.8,302.4,330,301.1,331.7,300.2z M329.1,311.6c0.4,0.4,1.3,0,2.1-0.5s1.6-1.3,2-2.2s0.8-1.7,0.8-3c0-0.8-0.5-1.7-0.9-2.1
				c-0.4-0.4-1.3,0-2.1,0.5s-1.6,1.3-2,2.2c-0.4,0.9-0.8,1.7-0.8,3C328.2,310.8,328.2,311.2,329.1,311.6z"/>
			<path class="st73" d="M340.7,309.6l-0.6-19.7l4.1-2.2l0.6,19.7L340.7,309.6z"/>
		</g>
		<g>
			<path class="st73" d="M322.4,312.6l0.1,4.2l-1.7,0.9l0.1,2.9l-4.1,2.2l-0.1-2.9l-8.3,4.4l-0.1-4.2l5.4-15.3l4.5-2.6l-5.4,15.3
				l3.7-2.2l-0.1-4.2l4.1-2.2l0.1,4.2L322.4,312.6z"/>
			<path class="st73" d="M332.1,300.6c1.7-0.9,3.3-0.9,4.6-0.6s1.7,2,1.8,4.1c0.1,2.1-0.3,4.2-1.5,5.9c-1.2,2.1-2.8,3.4-4.5,4.3
				c-1.7,0.9-2.9,0.9-4.2,0.5l0.2,6.7l-4.1,2.2l-0.6-18.8l4.1-2.2l0,1.3C328.8,302.8,330,301.5,332.1,300.6z M329.1,311.6
				c0.4,0.4,1.3,0,2.1-0.5s1.6-1.3,2-2.2s0.8-1.7,0.8-3c0-0.8-0.5-1.7-0.9-2.1c-0.4-0.4-1.3,0-2.1,0.5s-1.6,1.3-2,2.2
				c-0.4,0.9-0.8,1.7-0.8,3C328.2,310.8,328.6,311.6,329.1,311.6z"/>
			<path class="st73" d="M340.7,309.6l-0.6-19.7l4.1-2.2l0.6,19.7L340.7,309.6z"/>
		</g>
		<g>
			<path class="st73" d="M322.8,313l0.1,4.2l-1.7,0.9l0.1,2.9l-4.1,2.2l-0.1-2.9l-8.3,4.4l-0.1-4.2l5.4-15.3l4.5-2.6l-5.4,15.3
				l3.7-2.2l-0.1-4.2l4.1-2.2l0.1,4.2L322.8,313z"/>
			<path class="st73" d="M332.1,300.6c1.7-0.9,3.3-0.9,4.6-0.6c1.3,0.8,1.7,2,1.8,4.1c0.1,2.1-0.3,4.2-1.5,5.9
				c-1.2,2.1-2.8,3.4-4.5,4.3c-1.7,0.9-2.9,0.9-4.2,0.5l0.2,6.7l-4.1,2.2l-0.6-18.8l4.1-2.2l0,1.3
				C329.2,302.8,330.5,301.9,332.1,300.6z M329.5,312c0.4,0.4,1.3,0,2.1-0.5c0.8-0.4,1.6-1.3,2-2.2c0.4-0.9,0.8-1.7,0.8-3
				c0-0.8-0.5-1.7-0.9-2.1c-0.4-0.4-1.3,0-2.1,0.5s-1.6,1.3-2,2.2c-0.4,0.8-0.8,1.7-0.8,3C328.2,311.2,328.6,311.6,329.5,312z"/>
			<path class="st73" d="M341.2,310l-0.6-19.7l4.1-2.2l0.6,19.7L341.2,310z"/>
		</g>
		<g>
			<path class="st73" d="M322.8,313l0.1,4.2l-1.7,0.9l0.1,2.9l-4.1,2.2l-0.1-2.9l-8.3,4.4l-0.1-4.2l5.4-15.3l4.5-2.6l-5.4,15.3
				l3.7-2.2l-0.1-4.2l4.1-2.2l0.1,4.2L322.8,313z"/>
			<path class="st73" d="M332.1,301c1.7-0.9,3.3-0.9,4.6-0.6c1.3,0.8,1.7,2,1.8,4.1s-0.3,4.2-1.5,5.9c-1.2,2.1-2.8,3.4-4.5,4.3
				c-1.7,0.9-2.9,0.9-4.2,0.5l0.2,6.7l-4.1,2.2l-0.6-18.8l4.1-2.2l0,1.3C329.2,303.2,330.5,301.9,332.1,301z M329.5,312.4
				c0.4,0.4,1.3,0,2.1-0.5s1.6-1.3,2-2.2c0.4-0.8,0.8-1.7,0.8-3c0-0.8-0.5-1.7-0.9-2.1c-0.4-0.4-1.3,0-2.1,0.5s-1.6,1.3-2,2.2
				c-0.4,0.9-0.8,1.7-0.8,3C328.6,311.2,329.1,312,329.5,312.4z"/>
			<path class="st73" d="M341.2,310l-0.6-19.3l4.1-2.2l0.6,19.7L341.2,310z"/>
		</g>
		<g>
			<path class="st74" d="M323.2,313.4l0.1,4.2l-1.7,0.9l0.1,2.9l-4.1,2.2l-0.1-2.9l-8.3,4.4l-0.1-4.2l5.4-15.3l4.5-2.6l-5.4,15.3
				l3.7-2.2l-0.1-4.2l4.1-2.2l0.1,4.2L323.2,313.4z"/>
			<path class="st74" d="M332.5,301.4c1.7-0.9,3.3-0.9,4.6-0.6c1.3,0.8,1.7,2,1.8,4.1c0.1,2.1-0.3,4.2-1.5,5.9
				c-1.2,2.1-2.8,3.4-4.5,4.3c-1.7,0.9-2.9,0.9-4.2,0.5l0.2,6.7l-4.1,2.2l-0.6-18.8l4.1-2.2l0,1.3
				C329.7,303.6,330.9,302.3,332.5,301.4z M329.9,312.4c0.4,0.4,1.3,0,2.1-0.5s1.6-1.3,2-2.2c0.4-0.8,0.8-1.7,0.8-3
				c0-0.8-0.5-1.7-0.9-2.1c-0.4-0.4-1.3,0-2.1,0.5s-1.6,1.3-2,2.2c-0.4,0.9-0.8,1.7-0.8,3C328.6,311.6,329.1,312,329.9,312.4z"/>
			<path class="st74" d="M341.6,310.4l-0.6-19.7l4.1-2.2l0.6,19.7L341.6,310.4z"/>
		</g>
	</g>
</g>
</svg>
