<svg width="39" height="26" viewBox="0 0 39 26" fill="none" xmlns="http://www.w3.org/2000/svg">
<path d="M0.238064 12.4256L12.4256 0.238056C12.743 -0.0793521 13.2571 -0.0793521 13.5745 0.238056C13.8919 0.555465 13.8919 1.06962 13.5745 1.38696L2.7739 12.1875H38.1875C38.6366 12.1875 39 12.5509 39 13C39 13.4492 38.6366 13.8126 38.1875 13.8126H2.7739L13.5745 24.6131C13.8919 24.9305 13.8919 25.4446 13.5745 25.762C13.4158 25.9206 13.2078 26 13 26C12.7921 26 12.5842 25.9206 12.4255 25.762L0.237988 13.5745C-0.0793457 13.2571 -0.0793457 12.743 0.238064 12.4256Z" fill="#ADADAD"/>
</svg>
